<?xml version="1.0" encoding="UTF-8"?>
<svg xmlns="http://www.w3.org/2000/svg" xmlns:xlink="http://www.w3.org/1999/xlink" version="1.1" viewBox="0 0 91.89 183.99">
  <!-- Generator: Adobe Illustrator 29.8.3, SVG Export Plug-In . SVG Version: 2.1.1 Build 3)  -->
  <defs>
    <style>
      .st0 {
        mask: url(#mask);
      }

      .st1 {
        fill: #398534;
      }

      .st2 {
        fill: url(#_ÂÁ_Ï_ÌÌ_È_ËÂÌÚ_148841);
      }

      .st3 {
        fill: url(#_ÂÁ_Ï_ÌÌ_È_ËÂÌÚ_148842);
      }

      .st4 {
        fill: url(#_ÂÁ_Ï_ÌÌ_È_ËÂÌÚ_148840);
      }

      .st5 {
        fill: url(#_ÂÁ_Ï_ÌÌ_È_ËÂÌÚ_148836);
      }

      .st6 {
        fill: url(#_ÂÁ_Ï_ÌÌ_È_ËÂÌÚ_148837);
      }

      .st7 {
        fill: url(#_ÂÁ_Ï_ÌÌ_È_ËÂÌÚ_148838);
      }

      .st8 {
        fill: url(#_ÂÁ_Ï_ÌÌ_È_ËÂÌÚ_148839);
      }

      .st9 {
        fill: url(#_ÂÁ_Ï_ÌÌ_È_ËÂÌÚ_148832);
      }

      .st10 {
        fill: url(#_ÂÁ_Ï_ÌÌ_È_ËÂÌÚ_148833);
      }

      .st11 {
        fill: url(#_ÂÁ_Ï_ÌÌ_È_ËÂÌÚ_148834);
      }

      .st12 {
        fill: url(#_ÂÁ_Ï_ÌÌ_È_ËÂÌÚ_148835);
      }

      .st13 {
        filter: url(#luminosity-noclip);
      }

      .st14 {
        filter: url(#luminosity-noclip12);
      }

      .st15 {
        filter: url(#luminosity-noclip14);
      }

      .st16 {
        filter: url(#luminosity-noclip16);
      }

      .st17 {
        filter: url(#luminosity-noclip18);
      }

      .st18 {
        filter: url(#luminosity-noclip10);
      }

      .st19 {
        fill: #659a30;
      }

      .st20 {
        fill: url(#_ÂÁ_Ï_ÌÌ_È_ËÂÌÚ_973601);
      }

      .st20, .st21, .st22, .st23, .st24, .st25, .st26, .st27, .st28, .st29, .st30 {
        mix-blend-mode: overlay;
      }

      .st20, .st23, .st30 {
        opacity: .3;
      }

      .st31 {
        filter: url(#luminosity-noclip6);
      }

      .st32 {
        filter: url(#luminosity-noclip2);
      }

      .st33 {
        filter: url(#luminosity-noclip4);
      }

      .st34 {
        filter: url(#luminosity-noclip8);
      }

      .st35 {
        fill: #377831;
      }

      .st36 {
        isolation: isolate;
      }

      .st37 {
        mask: url(#mask-2);
      }

      .st38 {
        mask: url(#mask-3);
      }

      .st39 {
        mask: url(#mask-4);
      }

      .st40 {
        mask: url(#mask-5);
      }

      .st41 {
        mask: url(#mask-7);
      }

      .st42 {
        mask: url(#mask-6);
      }

      .st43 {
        mask: url(#mask-1);
      }

      .st44 {
        mask: url(#mask-9);
      }

      .st45 {
        mask: url(#mask-8);
      }

      .st21 {
        fill: url(#_ÂÁ_Ï_ÌÌ_È_ËÂÌÚ_301);
      }

      .st21, .st22 {
        opacity: .25;
      }

      .st22 {
        fill: url(#_ÂÁ_Ï_ÌÌ_È_ËÂÌÚ_299);
      }

      .st46 {
        fill: #386e2d;
      }

      .st47 {
        fill: #b9cfed;
      }

      .st23 {
        fill: url(#_ÂÁ_Ï_ÌÌ_È_ËÂÌÚ_97360);
      }

      .st48 {
        fill: url(#_ÂÁ_Ï_ÌÌ_È_ËÂÌÚ_47);
      }

      .st48, .st49, .st50, .st51, .st52, .st53, .st54, .st55, .st56, .st57 {
        mix-blend-mode: multiply;
      }

      .st49 {
        fill: url(#_ÂÁ_Ï_ÌÌ_È_ËÂÌÚ_53);
      }

      .st50 {
        fill: url(#_ÂÁ_Ï_ÌÌ_È_ËÂÌÚ_50);
      }

      .st51 {
        fill: url(#_ÂÁ_Ï_ÌÌ_È_ËÂÌÚ_51);
      }

      .st52 {
        fill: url(#_ÂÁ_Ï_ÌÌ_È_ËÂÌÚ_511);
      }

      .st53 {
        fill: url(#_ÂÁ_Ï_ÌÌ_È_ËÂÌÚ_531);
      }

      .st54 {
        fill: url(#_ÂÁ_Ï_ÌÌ_È_ËÂÌÚ_472);
      }

      .st55 {
        fill: url(#_ÂÁ_Ï_ÌÌ_È_ËÂÌÚ_471);
      }

      .st56 {
        fill: url(#_ÂÁ_Ï_ÌÌ_È_ËÂÌÚ_473);
      }

      .st57 {
        fill: url(#_ÂÁ_Ï_ÌÌ_È_ËÂÌÚ_474);
      }

      .st58 {
        fill: url(#_ÂÁ_Ï_ÌÌ_È_ËÂÌÚ_1392);
      }

      .st58, .st59 {
        opacity: .76;
      }

      .st59 {
        fill: url(#_ÂÁ_Ï_ÌÌ_È_ËÂÌÚ_1394);
      }

      .st60 {
        fill: url(#_ÂÁ_Ï_ÌÌ_È_ËÂÌÚ_1393);
        opacity: .82;
      }

      .st61 {
        fill: #82bd54;
        opacity: .56;
      }

      .st62 {
        fill: #4f7e2f;
      }

      .st63 {
        opacity: .68;
      }

      .st64 {
        opacity: .4;
      }

      .st65 {
        opacity: .24;
      }

      .st66 {
        fill: #fbf6bd;
      }

      .st24 {
        fill: url(#_ÂÁ_Ï_ÌÌ_È_ËÂÌÚ_3011);
        opacity: .14;
      }

      .st67 {
        fill: url(#_ÂÁ_Ï_ÌÌ_È_ËÂÌÚ_139);
        opacity: .63;
      }

      .st68 {
        fill: #4d8831;
      }

      .st69 {
        fill: url(#_ÂÁ_Ï_ÌÌ_È_ËÂÌÚ_1391);
      }

      .st70 {
        mask: url(#mask-10);
      }

      .st71 {
        mask: url(#mask-14);
      }

      .st72 {
        mask: url(#mask-18);
      }

      .st73 {
        mask: url(#mask-11);
      }

      .st74 {
        mask: url(#mask-16);
      }

      .st75 {
        mask: url(#mask-13);
      }

      .st76 {
        mask: url(#mask-19);
      }

      .st77 {
        mask: url(#mask-12);
      }

      .st78 {
        mask: url(#mask-17);
      }

      .st79 {
        mask: url(#mask-15);
      }

      .st80 {
        fill: #fecc43;
      }

      .st25 {
        opacity: .37;
      }

      .st25, .st26, .st27, .st28, .st29, .st30 {
        fill: #fdf9d5;
      }

      .st26 {
        opacity: .51;
      }

      .st27 {
        opacity: .1;
      }

      .st28 {
        opacity: .18;
      }

      .st29 {
        opacity: .27;
      }

      .st81 {
        fill: #f4ad0f;
      }
    </style>
    <radialGradient id="_ÂÁ_Ï_ÌÌ_È_ËÂÌÚ_148842" data-name="¡ÂÁ˚ÏˇÌÌ˚È „‡‰ËÂÌÚ 148842" cx="44.75" cy="24.33" fx="44.75" fy="24.33" r="114.67" gradientUnits="userSpaceOnUse">
      <stop offset="0" stop-color="#f2f8fb"/>
      <stop offset=".08" stop-color="#d7edf7"/>
      <stop offset=".25" stop-color="#a6daf1"/>
      <stop offset=".41" stop-color="#7dc9ec"/>
      <stop offset=".57" stop-color="#5ebde8"/>
      <stop offset=".72" stop-color="#47b4e5"/>
      <stop offset=".87" stop-color="#39aee3"/>
      <stop offset="1" stop-color="#35ade3"/>
    </radialGradient>
    <filter id="luminosity-noclip" x="18.65" y="57.02" width="73.24" height="56.22" color-interpolation-filters="sRGB" filterUnits="userSpaceOnUse">
      <feFlood flood-color="#fff" result="bg"/>
      <feBlend in="SourceGraphic" in2="bg"/>
    </filter>
    <filter id="luminosity-noclip1" x="18.65" y="-8283.79" width="73.24" height="32766" color-interpolation-filters="sRGB" filterUnits="userSpaceOnUse">
      <feFlood flood-color="#fff" result="bg"/>
      <feBlend in="SourceGraphic" in2="bg"/>
    </filter>
    <mask id="mask-1" x="18.65" y="-8283.79" width="73.24" height="32766" maskUnits="userSpaceOnUse"/>
    <linearGradient id="_ÂÁ_Ï_ÌÌ_È_ËÂÌÚ_47" data-name="¡ÂÁ˚ÏˇÌÌ˚È „‡‰ËÂÌÚ 47" x1="55.15" y1="60.8" x2="55.52" y2="111.56" gradientUnits="userSpaceOnUse">
      <stop offset="0" stop-color="#fff"/>
      <stop offset=".09" stop-color="#f8f8f8"/>
      <stop offset=".22" stop-color="#e7e7e7"/>
      <stop offset=".36" stop-color="#cacaca"/>
      <stop offset=".52" stop-color="#a1a1a1"/>
      <stop offset=".7" stop-color="#6d6d6d"/>
      <stop offset=".88" stop-color="#2f2f2f"/>
      <stop offset="1" stop-color="#000"/>
    </linearGradient>
    <mask id="mask" x="18.65" y="57.02" width="73.24" height="56.22" maskUnits="userSpaceOnUse">
      <g class="st13">
        <g class="st43">
          <path class="st48" d="M91.89,64.86v42.49c-1.1.18-2.21.35-3.32.51-.44.07-.88.14-1.32.2-.26.04-.51.08-.77.11-3.19.48-6.39.93-9.59,1.36-.33.05-.65.09-.98.13-1.49.2-2.99.4-4.49.58,0,0-.01,0-.01,0-.7.1-1.39.18-2.09.27-2.26.28-4.53.56-6.8.82-.63.08-1.26.15-1.89.22-4.47.51-8.94.99-13.41,1.45-3.21.33-6.43.33-9.5-.08,0,0,0-.01-.01,0-3.57-.49-6.92-1.54-9.8-3.33h-.01c-1.05-.65-2.03-1.41-2.94-2.27-.73-.68-1.4-1.43-2.01-2.25-.71-.93-1.34-1.96-1.88-3.09-.32-.64-.61-1.32-.87-2.03-.52-1.44-.92-3.01-1.19-4.73-.47-3.03-.65-6.28.59-9,.4-.87.98-1.65,1.68-2.27,1.48-1.33,3.46-1.95,5.24-1.14-.57-1.84-.83-3.85-.69-5.76h.01c.13-1.81.64-3.54,1.62-4.99.22-.33.47-.63.74-.91,2.21-2.29,5.91-2.96,8.31-.84-.18-.85-.24-1.7-.21-2.54.1-2.15.88-4.22,2.1-5.95,2.08-2.94,5.42-4.93,8.89-4.79,3.09.13,5.98,1.68,8.23,4.05,1.44,1.52,2.61,3.37,3.41,5.39h0c.49,1.25.84,2.54,1.02,3.86,1.53-2.03,4.23-2.9,6.57-2.11.39.13.76.3,1.11.51,1.79,1.06,3.11,3.09,3.36,5.3.66-.69,1.43-1.24,2.27-1.63h.01s.02-.02.03-.02c1.78-.83,3.84-.96,5.7-.27,2.76,1.01,4.93,3.76,5.45,6.87.27-5.67,3.21-10.93,7.44-14.12Z"/>
        </g>
      </g>
    </mask>
    <linearGradient id="_ÂÁ_Ï_ÌÌ_È_ËÂÌÚ_139" data-name="¡ÂÁ˚ÏˇÌÌ˚È „‡‰ËÂÌÚ 139" x1="55.15" y1="60.8" x2="55.52" y2="111.56" gradientUnits="userSpaceOnUse">
      <stop offset="0" stop-color="#fff"/>
      <stop offset="1" stop-color="#fff"/>
    </linearGradient>
    <filter id="luminosity-noclip2" x="0" y="72.61" width="76.04" height="47" color-interpolation-filters="sRGB" filterUnits="userSpaceOnUse">
      <feFlood flood-color="#fff" result="bg"/>
      <feBlend in="SourceGraphic" in2="bg"/>
    </filter>
    <filter id="luminosity-noclip3" x="0" y="-8283.79" width="76.04" height="32766" color-interpolation-filters="sRGB" filterUnits="userSpaceOnUse">
      <feFlood flood-color="#fff" result="bg"/>
      <feBlend in="SourceGraphic" in2="bg"/>
    </filter>
    <mask id="mask-3" x="0" y="-8283.79" width="76.04" height="32766" maskUnits="userSpaceOnUse"/>
    <linearGradient id="_ÂÁ_Ï_ÌÌ_È_ËÂÌÚ_471" data-name="¡ÂÁ˚ÏˇÌÌ˚È „‡‰ËÂÌÚ 47" x1="38.02" y1="73.48" x2="38.02" y2="104.14" xlink:href="#_ÂÁ_Ï_ÌÌ_È_ËÂÌÚ_47"/>
    <mask id="mask-2" x="0" y="72.61" width="76.04" height="47" maskUnits="userSpaceOnUse">
      <g class="st32">
        <g class="st38">
          <path class="st55" d="M76.03,105.56c.04,1.36-.02,2.74-.12,4.1,0,.13-.02.27-.03.4-.04.47-.08.95-.16,1.42-.1.69-.25,1.36-.55,1.99-.04.1-.09.21-.15.31-.69,1.26-1.91,2.15-3.14,2.86-1.55.9-3.21,1.59-4.93,2.06-.06.02-.12.04-.18.05-1.62.44-3.28.69-4.96.76h-.01c-.22,0-.43.02-.65.02-1.2.02-2.41.03-3.61.04-2.48.03-4.96.04-7.44.04h-.01c-6.29,0-12.57-.12-18.86-.3h-.09c-.31,0-.61-.02-.92-.02h-.01c-.19,0-.39-.02-.58-.02l-3.42-.12c-.38,0-.75-.02-1.13-.04-.17,0-.34,0-.51-.02-.76-.02-1.51-.05-2.27-.09-4.16-.16-8.31-.35-12.46-.58-.11,0-.21-.01-.31-.01-.13,0-.25-.02-.37-.02-.96-.05-1.92-.11-2.87-.16-.94-.05-1.87-.11-2.8-.16-.26-.02-.52-.04-.77-.05-.05,0-.1,0-.15,0-.86-.05-1.72-.1-2.57-.16v-45.02c1.94-.37,3.94-.28,5.8.39,4.18,1.51,7.18,6.09,6.42,10.48,2.08-1.74,5.22-2.07,7.62-.8.53.28,1.01.63,1.44,1.05,1.53,1.44,2.39,3.6,2.19,5.7,2.14-1.92,5.45-2.4,8.05-1.17,2.59,1.23,4.32,4.09,4.2,6.96,1.38-5.31,3.27-9.72,8.61-12.11,1.97-.89,4.24-1.32,6.29-.64,1.28.42,2.4,1.25,3.37,2.2,2.7,2.61,4.47,6.17,4.92,9.9-.27-2.31,7.87-1.4,8.83-1.06,1.81.64,3.49,1.53,4.83,2.8.26.24.51.49.74.77.54.63,1,1.33,1.38,2.13,0,.02.01.03.02.05.2.43.37.86.51,1.31.06.15.11.3.15.46.03.07.05.15.06.22.04.1.06.2.08.3.1.35.17.71.23,1.08.02.07.03.14.04.21.07.41.12.82.16,1.24.02.23.04.47.05.7.02.19.03.37.04.56Z"/>
        </g>
      </g>
    </mask>
    <linearGradient id="_ÂÁ_Ï_ÌÌ_È_ËÂÌÚ_1391" data-name="¡ÂÁ˚ÏˇÌÌ˚È „‡‰ËÂÌÚ 139" x1="38.02" y1="73.48" x2="38.02" y2="104.14" xlink:href="#_ÂÁ_Ï_ÌÌ_È_ËÂÌÚ_139"/>
    <linearGradient id="_ÂÁ_Ï_ÌÌ_È_ËÂÌÚ_148841" data-name="¡ÂÁ˚ÏˇÌÌ˚È „‡‰ËÂÌÚ 148841" x1="45.95" y1="100.63" x2="45.95" y2="119" gradientUnits="userSpaceOnUse">
      <stop offset="0" stop-color="#e4ca5c"/>
      <stop offset="1" stop-color="#8e982b"/>
    </linearGradient>
    <linearGradient id="_ÂÁ_Ï_ÌÌ_È_ËÂÌÚ_148840" data-name="¡ÂÁ˚ÏˇÌÌ˚È „‡‰ËÂÌÚ 148840" x1="45.95" y1="97.52" x2="45.95" y2="126.13" gradientUnits="userSpaceOnUse">
      <stop offset="0" stop-color="#f1d954"/>
      <stop offset="1" stop-color="#9e811d"/>
    </linearGradient>
    <linearGradient id="_ÂÁ_Ï_ÌÌ_È_ËÂÌÚ_148839" data-name="¡ÂÁ˚ÏˇÌÌ˚È „‡‰ËÂÌÚ 148839" x1="45.26" y1="103.43" x2="45.94" y2="127.63" gradientUnits="userSpaceOnUse">
      <stop offset="0" stop-color="#d1ab2c"/>
      <stop offset="1" stop-color="#7b7f23"/>
    </linearGradient>
    <linearGradient id="_ÂÁ_Ï_ÌÌ_È_ËÂÌÚ_148838" data-name="¡ÂÁ˚ÏˇÌÌ˚È „‡‰ËÂÌÚ 148838" x1="24.89" y1="110.11" x2="24.89" y2="134.21" gradientUnits="userSpaceOnUse">
      <stop offset="0" stop-color="#78b72a"/>
      <stop offset="1" stop-color="#3d5d26"/>
    </linearGradient>
    <linearGradient id="_ÂÁ_Ï_ÌÌ_È_ËÂÌÚ_148837" data-name="¡ÂÁ˚ÏˇÌÌ˚È „‡‰ËÂÌÚ 148837" x1="24.89" y1="120.81" x2="24.89" y2="144.5" gradientUnits="userSpaceOnUse">
      <stop offset="0" stop-color="#78b72a"/>
      <stop offset="1" stop-color="#43682a"/>
    </linearGradient>
    <linearGradient id="_ÂÁ_Ï_ÌÌ_È_ËÂÌÚ_148836" data-name="¡ÂÁ˚ÏˇÌÌ˚È „‡‰ËÂÌÚ 148836" x1="53.81" y1="113.34" x2="53.81" y2="128.54" gradientUnits="userSpaceOnUse">
      <stop offset="0" stop-color="#8dbf34"/>
      <stop offset="1" stop-color="#71ac2d"/>
    </linearGradient>
    <linearGradient id="_ÂÁ_Ï_ÌÌ_È_ËÂÌÚ_148835" data-name="¡ÂÁ˚ÏˇÌÌ˚È „‡‰ËÂÌÚ 148835" x1="55.21" y1="120.13" x2="55.73" y2="138.87" gradientUnits="userSpaceOnUse">
      <stop offset="0" stop-color="#7bb729"/>
      <stop offset="1" stop-color="#52822f"/>
    </linearGradient>
    <linearGradient id="_ÂÁ_Ï_ÌÌ_È_ËÂÌÚ_148834" data-name="¡ÂÁ˚ÏˇÌÌ˚È „‡‰ËÂÌÚ 148834" x1="60.56" y1="131.47" x2="60.56" y2="140.55" gradientUnits="userSpaceOnUse">
      <stop offset=".01" stop-color="#8bd0ee"/>
      <stop offset="1" stop-color="#0088ab"/>
    </linearGradient>
    <linearGradient id="_ÂÁ_Ï_ÌÌ_È_ËÂÌÚ_148833" data-name="¡ÂÁ˚ÏˇÌÌ˚È „‡‰ËÂÌÚ 148833" x1="45.95" y1="132.22" x2="45.95" y2="155.98" gradientUnits="userSpaceOnUse">
      <stop offset="0" stop-color="#cad526"/>
      <stop offset="1" stop-color="#82a029"/>
    </linearGradient>
    <linearGradient id="_ÂÁ_Ï_ÌÌ_È_ËÂÌÚ_148832" data-name="¡ÂÁ˚ÏˇÌÌ˚È „‡‰ËÂÌÚ 148832" x1="20.41" y1="137.99" x2="29.24" y2="163.95" gradientUnits="userSpaceOnUse">
      <stop offset="0" stop-color="#cd9c48"/>
      <stop offset=".66" stop-color="#a37728"/>
      <stop offset="1" stop-color="#8c6317"/>
    </linearGradient>
    <filter id="luminosity-noclip4" x="22.59" y="132.06" width=".17" height=".05" color-interpolation-filters="sRGB" filterUnits="userSpaceOnUse">
      <feFlood flood-color="#fff" result="bg"/>
      <feBlend in="SourceGraphic" in2="bg"/>
    </filter>
    <filter id="luminosity-noclip5" x="22.59" y="-8283.79" width=".17" height="32766" color-interpolation-filters="sRGB" filterUnits="userSpaceOnUse">
      <feFlood flood-color="#fff" result="bg"/>
      <feBlend in="SourceGraphic" in2="bg"/>
    </filter>
    <mask id="mask-5" x="22.59" y="-8283.79" width=".17" height="32766" maskUnits="userSpaceOnUse"/>
    <linearGradient id="_ÂÁ_Ï_ÌÌ_È_ËÂÌÚ_53" data-name="¡ÂÁ˚ÏˇÌÌ˚È „‡‰ËÂÌÚ 53" x1="22.65" y1="132.04" x2="22.68" y2="132.1" gradientUnits="userSpaceOnUse">
      <stop offset="0" stop-color="#fff"/>
      <stop offset=".09" stop-color="#f2f2f2"/>
      <stop offset=".25" stop-color="#d1d1d1"/>
      <stop offset=".47" stop-color="#9a9a9a"/>
      <stop offset=".74" stop-color="#505050"/>
      <stop offset="1" stop-color="#000"/>
    </linearGradient>
    <mask id="mask-4" x="22.59" y="132.06" width=".17" height=".05" maskUnits="userSpaceOnUse">
      <g class="st33">
        <g class="st40">
          <path class="st49" d="M22.72,132.09s.03.01.04.02c-.02,0-.03,0-.05,0-.04-.02-.08-.03-.12-.04.04.01.09.02.13.03Z"/>
        </g>
      </g>
    </mask>
    <linearGradient id="_ÂÁ_Ï_ÌÌ_È_ËÂÌÚ_97360" data-name="¡ÂÁ˚ÏˇÌÌ˚È „‡‰ËÂÌÚ 97360" x1="22.65" y1="132.04" x2="22.68" y2="132.1" gradientUnits="userSpaceOnUse">
      <stop offset="0" stop-color="#fff"/>
      <stop offset="1" stop-color="#fff"/>
    </linearGradient>
    <filter id="luminosity-noclip6" x="19.57" y="132.11" width="43.78" height="51.84" color-interpolation-filters="sRGB" filterUnits="userSpaceOnUse">
      <feFlood flood-color="#fff" result="bg"/>
      <feBlend in="SourceGraphic" in2="bg"/>
    </filter>
    <filter id="luminosity-noclip7" x="19.57" y="-8283.79" width="43.78" height="32766" color-interpolation-filters="sRGB" filterUnits="userSpaceOnUse">
      <feFlood flood-color="#fff" result="bg"/>
      <feBlend in="SourceGraphic" in2="bg"/>
    </filter>
    <mask id="mask-7" x="19.57" y="-8283.79" width="43.78" height="32766" maskUnits="userSpaceOnUse"/>
    <linearGradient id="_ÂÁ_Ï_ÌÌ_È_ËÂÌÚ_531" data-name="¡ÂÁ˚ÏˇÌÌ˚È „‡‰ËÂÌÚ 53" x1="23.35" y1="139.99" x2="38.38" y2="165.12" xlink:href="#_ÂÁ_Ï_ÌÌ_È_ËÂÌÚ_53"/>
    <mask id="mask-6" x="19.57" y="132.11" width="43.78" height="51.84" maskUnits="userSpaceOnUse">
      <g class="st31">
        <g class="st41">
          <path class="st53" d="M53.02,182.72c-.2.41-.33.82-.4,1.23H19.57c.74-1.73,1.79-3.38,3.16-4.9.24-.25.48-.5.73-.75,10.44-10.33,23.15-9.91,27.52-23.12,1.34-4.04-.84-7.79-4.5-11.03-.53-.48-1.09-.94-1.68-1.39-1.6-1.23-3.39-2.37-5.24-3.42h-.01c-1.07-.61-2.16-1.19-3.24-1.73-3.63-1.81-7.21-3.24-9.85-4.21-1.23-.46-2.26-.81-2.99-1.05-.29-.1-.53-.18-.71-.24.28.07.56.15.84.23h.01c1.06.3,2.09.59,3.09.89,4.14,1.23,7.85,2.49,11.16,3.77.3.12.6.23.89.35h.01c2.44.97,4.65,1.94,6.66,2.93,1.25.61,2.43,1.23,3.53,1.85t0,.01c2.89,1.64,5.27,3.29,7.19,4.96,0,0,0,0,0,.01.14.12.28.24.41.37.01-.01.02,0,.02.01,15.65,14.04-.35,28.43-3.57,35.23Z"/>
        </g>
      </g>
    </mask>
    <linearGradient id="_ÂÁ_Ï_ÌÌ_È_ËÂÌÚ_973601" data-name="¡ÂÁ˚ÏˇÌÌ˚È „‡‰ËÂÌÚ 97360" x1="23.35" y1="139.99" x2="38.38" y2="165.12" xlink:href="#_ÂÁ_Ï_ÌÌ_È_ËÂÌÚ_97360"/>
    <filter id="luminosity-noclip8" x="0" y="139.4" width="28.3" height="23.6" color-interpolation-filters="sRGB" filterUnits="userSpaceOnUse">
      <feFlood flood-color="#fff" result="bg"/>
      <feBlend in="SourceGraphic" in2="bg"/>
    </filter>
    <filter id="luminosity-noclip9" x="0" y="-8283.79" width="28.3" height="32766" color-interpolation-filters="sRGB" filterUnits="userSpaceOnUse">
      <feFlood flood-color="#fff" result="bg"/>
      <feBlend in="SourceGraphic" in2="bg"/>
    </filter>
    <mask id="mask-9" x="0" y="-8283.79" width="28.3" height="32766" maskUnits="userSpaceOnUse"/>
    <linearGradient id="_ÂÁ_Ï_ÌÌ_È_ËÂÌÚ_51" data-name="¡ÂÁ˚ÏˇÌÌ˚È „‡‰ËÂÌÚ 51" x1="25.75" y1="142" x2="17.57" y2="145.57" gradientUnits="userSpaceOnUse">
      <stop offset="0" stop-color="#000"/>
      <stop offset=".12" stop-color="#2f2f2f"/>
      <stop offset=".3" stop-color="#6d6d6d"/>
      <stop offset=".48" stop-color="#a1a1a1"/>
      <stop offset=".64" stop-color="#cacaca"/>
      <stop offset=".78" stop-color="#e7e7e7"/>
      <stop offset=".91" stop-color="#f8f8f8"/>
      <stop offset="1" stop-color="#fff"/>
    </linearGradient>
    <mask id="mask-8" x="0" y="139.4" width="28.3" height="23.6" maskUnits="userSpaceOnUse">
      <g class="st34">
        <g class="st44">
          <path class="st51" d="M27.65,151.58c-.07.13-.14.26-.22.39-1.66,2.68-5.07,3.57-8.13,4.35-6.61,1.69-13.07,3.92-19.3,6.68v-21.8c4.65-1.08,9.37-1.78,14.12-1.8,3.74-.01,7.68.47,10.68,2.71.01.01.03.02.04.03,2.86,2.15,4.42,6.31,2.81,9.44Z"/>
        </g>
      </g>
    </mask>
    <linearGradient id="_ÂÁ_Ï_ÌÌ_È_ËÂÌÚ_301" data-name="¡ÂÁ˚ÏˇÌÌ˚È „‡‰ËÂÌÚ 301" x1="25.75" y1="142" x2="17.57" y2="145.57" gradientUnits="userSpaceOnUse">
      <stop offset="0" stop-color="#fff"/>
      <stop offset="1" stop-color="#fff"/>
    </linearGradient>
    <filter id="luminosity-noclip10" x="0" y="143.43" width="16.07" height="9.99" color-interpolation-filters="sRGB" filterUnits="userSpaceOnUse">
      <feFlood flood-color="#fff" result="bg"/>
      <feBlend in="SourceGraphic" in2="bg"/>
    </filter>
    <filter id="luminosity-noclip11" x="0" y="-8283.79" width="16.07" height="32766" color-interpolation-filters="sRGB" filterUnits="userSpaceOnUse">
      <feFlood flood-color="#fff" result="bg"/>
      <feBlend in="SourceGraphic" in2="bg"/>
    </filter>
    <mask id="mask-11" x="0" y="-8283.79" width="16.07" height="32766" maskUnits="userSpaceOnUse"/>
    <linearGradient id="_ÂÁ_Ï_ÌÌ_È_ËÂÌÚ_511" data-name="¡ÂÁ˚ÏˇÌÌ˚È „‡‰ËÂÌÚ 51" x1="15.48" y1="143.95" x2="6.99" y2="147.07" xlink:href="#_ÂÁ_Ï_ÌÌ_È_ËÂÌÚ_51"/>
    <mask id="mask-10" x="0" y="143.43" width="16.07" height="9.99" maskUnits="userSpaceOnUse">
      <g class="st18">
        <g class="st73">
          <path class="st52" d="M16.07,145.6c0,2.39-4.43,4.18-6.05,4.68-3.35,1.03-6.69,2.1-10.02,3.14v-8.13c2.3-.48,4.61-.88,6.94-1.21,1.86-.26,8.4-1.81,9.08,1.08.04.15.05.29.05.44Z"/>
        </g>
      </g>
    </mask>
    <linearGradient id="_ÂÁ_Ï_ÌÌ_È_ËÂÌÚ_3011" data-name="¡ÂÁ˚ÏˇÌÌ˚È „‡‰ËÂÌÚ 301" x1="15.48" y1="143.95" x2="6.99" y2="147.07" xlink:href="#_ÂÁ_Ï_ÌÌ_È_ËÂÌÚ_301"/>
    <filter id="luminosity-noclip12" x="54.07" y="137.25" width="37.82" height="46.74" color-interpolation-filters="sRGB" filterUnits="userSpaceOnUse">
      <feFlood flood-color="#fff" result="bg"/>
      <feBlend in="SourceGraphic" in2="bg"/>
    </filter>
    <filter id="luminosity-noclip13" x="54.07" y="-8283.79" width="37.82" height="32766" color-interpolation-filters="sRGB" filterUnits="userSpaceOnUse">
      <feFlood flood-color="#fff" result="bg"/>
      <feBlend in="SourceGraphic" in2="bg"/>
    </filter>
    <mask id="mask-13" x="54.07" y="-8283.79" width="37.82" height="32766" maskUnits="userSpaceOnUse"/>
    <linearGradient id="_ÂÁ_Ï_ÌÌ_È_ËÂÌÚ_50" data-name="¡ÂÁ˚ÏˇÌÌ˚È „‡‰ËÂÌÚ 50" x1="51.23" y1="143.33" x2="73.32" y2="161.93" gradientUnits="userSpaceOnUse">
      <stop offset="0" stop-color="#000"/>
      <stop offset=".26" stop-color="#505050"/>
      <stop offset=".53" stop-color="#9a9a9a"/>
      <stop offset=".75" stop-color="#d1d1d1"/>
      <stop offset=".91" stop-color="#f2f2f2"/>
      <stop offset="1" stop-color="#fff"/>
    </linearGradient>
    <mask id="mask-12" x="54.07" y="137.25" width="37.82" height="46.74" maskUnits="userSpaceOnUse">
      <g class="st14">
        <g class="st75">
          <path class="st50" d="M91.89,149.8v30.83c-1.34,1.16-2.88,2.3-4.53,3.32h-20.81v.04l-.04-.04c-.53-.64-.97-1.27-1.31-1.91-.18-.32-.34-.64-.48-.96h0c-.85-2.05-.91-4.11-.5-6.2v-.02c.32-1.67.94-3.37,1.69-5.08.17-.41.36-.81.55-1.23h0c.4-.91.84-1.81,1.26-2.72,1.7-3.62,2.57-6.07.98-9.86-.01,0-.01-.03-.02-.05-.02-.04-.04-.08-.05-.12-.29-.67-.61-1.32-.96-1.95-1.09-1.97-2.47-3.77-4.07-5.35,0-.01-.01-.02-.02-.01-.63-.64-1.3-1.24-2-1.8-2.31-1.85-4.96-3.33-6.85-5.61-.29-.35-.57-.73-.64-1.18-.2-1.34,1.45-2.15,2.78-2.37,8.98-1.53,17.22,3.56,25.13,7.05,3.34,1.47,6.84,3.12,9.89,5.22Z"/>
        </g>
      </g>
    </mask>
    <linearGradient id="_ÂÁ_Ï_ÌÌ_È_ËÂÌÚ_299" data-name="¡ÂÁ˚ÏˇÌÌ˚È „‡‰ËÂÌÚ 299" x1="51.23" y1="143.33" x2="73.32" y2="161.93" gradientUnits="userSpaceOnUse">
      <stop offset="0" stop-color="#fff"/>
      <stop offset="1" stop-color="#fff"/>
    </linearGradient>
    <filter id="luminosity-noclip14" x="1.25" y="47.85" width="23.58" height="6.62" color-interpolation-filters="sRGB" filterUnits="userSpaceOnUse">
      <feFlood flood-color="#fff" result="bg"/>
      <feBlend in="SourceGraphic" in2="bg"/>
    </filter>
    <filter id="luminosity-noclip15" x="1.25" y="-8283.79" width="23.58" height="32766" color-interpolation-filters="sRGB" filterUnits="userSpaceOnUse">
      <feFlood flood-color="#fff" result="bg"/>
      <feBlend in="SourceGraphic" in2="bg"/>
    </filter>
    <mask id="mask-15" x="1.25" y="-8283.79" width="23.58" height="32766" maskUnits="userSpaceOnUse"/>
    <linearGradient id="_ÂÁ_Ï_ÌÌ_È_ËÂÌÚ_472" data-name="¡ÂÁ˚ÏˇÌÌ˚È „‡‰ËÂÌÚ 47" x1="13.04" y1="48" x2="13.04" y2="54.55" xlink:href="#_ÂÁ_Ï_ÌÌ_È_ËÂÌÚ_47"/>
    <mask id="mask-14" x="1.25" y="47.85" width="23.58" height="6.62" maskUnits="userSpaceOnUse">
      <g class="st15">
        <g class="st79">
          <path class="st54" d="M24.8,54.47c0-.08.02-.15.02-.22,0-2.29-1.85-4.14-4.14-4.14-.75,0-1.45.22-2.06.57-.32-1.61-1.74-2.82-3.44-2.82-1.29,0-2.41.71-3.02,1.75-.63-.92-1.69-1.52-2.89-1.52-1.92,0-3.48,1.54-3.51,3.46-.33-.1-.68-.18-1.04-.18-1.8,0-3.27,1.36-3.47,3.11h23.55Z"/>
        </g>
      </g>
    </mask>
    <linearGradient id="_ÂÁ_Ï_ÌÌ_È_ËÂÌÚ_1392" data-name="¡ÂÁ˚ÏˇÌÌ˚È „‡‰ËÂÌÚ 139" x1="13.04" y1="48" x2="13.04" y2="54.55" xlink:href="#_ÂÁ_Ï_ÌÌ_È_ËÂÌÚ_139"/>
    <filter id="luminosity-noclip16" x="67.14" y="21.98" width="16.59" height="4.66" color-interpolation-filters="sRGB" filterUnits="userSpaceOnUse">
      <feFlood flood-color="#fff" result="bg"/>
      <feBlend in="SourceGraphic" in2="bg"/>
    </filter>
    <filter id="luminosity-noclip17" x="67.14" y="-8283.79" width="16.59" height="32766" color-interpolation-filters="sRGB" filterUnits="userSpaceOnUse">
      <feFlood flood-color="#fff" result="bg"/>
      <feBlend in="SourceGraphic" in2="bg"/>
    </filter>
    <mask id="mask-17" x="67.14" y="-8283.79" width="16.59" height="32766" maskUnits="userSpaceOnUse"/>
    <linearGradient id="_ÂÁ_Ï_ÌÌ_È_ËÂÌÚ_473" data-name="¡ÂÁ˚ÏˇÌÌ˚È „‡‰ËÂÌÚ 47" x1="75.44" y1="21.73" x2="75.44" y2="26.68" xlink:href="#_ÂÁ_Ï_ÌÌ_È_ËÂÌÚ_47"/>
    <mask id="mask-16" x="67.14" y="21.98" width="16.59" height="4.66" maskUnits="userSpaceOnUse">
      <g class="st16">
        <g class="st78">
          <path class="st56" d="M83.72,26.64c0-.05.02-.1.02-.16,0-1.61-1.31-2.92-2.92-2.92-.53,0-1.02.15-1.45.4-.23-1.13-1.22-1.99-2.42-1.99-.91,0-1.7.5-2.13,1.23-.45-.64-1.19-1.07-2.03-1.07-1.35,0-2.45,1.09-2.47,2.43-.23-.07-.48-.12-.73-.12-1.27,0-2.3.96-2.44,2.19h16.58Z"/>
        </g>
      </g>
    </mask>
    <linearGradient id="_ÂÁ_Ï_ÌÌ_È_ËÂÌÚ_1393" data-name="¡ÂÁ˚ÏˇÌÌ˚È „‡‰ËÂÌÚ 139" x1="75.44" y1="21.73" x2="75.44" y2="26.68" xlink:href="#_ÂÁ_Ï_ÌÌ_È_ËÂÌÚ_139"/>
    <filter id="luminosity-noclip18" x="67.42" y="41.77" width="24.47" height="9.9" color-interpolation-filters="sRGB" filterUnits="userSpaceOnUse">
      <feFlood flood-color="#fff" result="bg"/>
      <feBlend in="SourceGraphic" in2="bg"/>
    </filter>
    <filter id="luminosity-noclip19" x="67.42" y="-8283.79" width="24.47" height="32766" color-interpolation-filters="sRGB" filterUnits="userSpaceOnUse">
      <feFlood flood-color="#fff" result="bg"/>
      <feBlend in="SourceGraphic" in2="bg"/>
    </filter>
    <mask id="mask-19" x="67.42" y="-8283.79" width="24.47" height="32766" maskUnits="userSpaceOnUse"/>
    <linearGradient id="_ÂÁ_Ï_ÌÌ_È_ËÂÌÚ_474" data-name="¡ÂÁ˚ÏˇÌÌ˚È „‡‰ËÂÌÚ 47" x1="79.65" y1="41.6" x2="79.65" y2="51.85" xlink:href="#_ÂÁ_Ï_ÌÌ_È_ËÂÌÚ_47"/>
    <mask id="mask-18" x="67.42" y="41.77" width="24.47" height="9.9" maskUnits="userSpaceOnUse">
      <g class="st17">
        <g class="st76">
          <path class="st57" d="M91.89,45.14v6.53h-24.47c.04-.36.1-.72.2-1.05.23-.82.62-1.54,1.13-2.12h0c.79-.92,1.86-1.48,3.06-1.48.46,0,.9.11,1.32.26.03-2.69,1.77-4.89,4-5.14.14-.02.28-.03.43-.03,1.51,0,2.84.9,3.64,2.27.52-1.04,1.32-1.86,2.28-2.28h0c.48-.22,1-.33,1.54-.33,2.08,0,3.82,1.69,4.29,3.97h0c.02.09.04.17.05.25.75-.52,1.61-.83,2.53-.85Z"/>
        </g>
      </g>
    </mask>
    <linearGradient id="_ÂÁ_Ï_ÌÌ_È_ËÂÌÚ_1394" data-name="¡ÂÁ˚ÏˇÌÌ˚È „‡‰ËÂÌÚ 139" x1="79.65" y1="41.6" x2="79.65" y2="51.85" xlink:href="#_ÂÁ_Ï_ÌÌ_È_ËÂÌÚ_139"/>
  </defs>
  <g class="st36">
    <g id="Calque_1">
      <g>
        <path class="st3" d="M91.89.16v183.79h-25.34v.04l-.04-.04H0V.16h42.5c1.13-.11,2.28-.16,3.44-.16s2.31.05,3.44.16h42.51Z"/>
        <g class="st0">
          <path class="st67" d="M91.89,64.86v42.49c-1.1.18-2.21.35-3.32.51-.44.07-.88.14-1.32.2-.26.04-.51.08-.77.11-3.19.48-6.39.93-9.59,1.36-.33.05-.65.09-.98.13-1.49.2-2.99.4-4.49.58,0,0-.01,0-.01,0-.7.1-1.39.18-2.09.27-2.26.28-4.53.56-6.8.82-.63.08-1.26.15-1.89.22-4.47.51-8.94.99-13.41,1.45-3.21.33-6.43.33-9.5-.08,0,0,0-.01-.01,0-3.57-.49-6.92-1.54-9.8-3.33h-.01c-1.05-.65-2.03-1.41-2.94-2.27-.73-.68-1.4-1.43-2.01-2.25-.71-.93-1.34-1.96-1.88-3.09-.32-.64-.61-1.32-.87-2.03-.52-1.44-.92-3.01-1.19-4.73-.47-3.03-.65-6.28.59-9,.4-.87.98-1.65,1.68-2.27,1.48-1.33,3.46-1.95,5.24-1.14-.57-1.84-.83-3.85-.69-5.76h.01c.13-1.81.64-3.54,1.62-4.99.22-.33.47-.63.74-.91,2.21-2.29,5.91-2.96,8.31-.84-.18-.85-.24-1.7-.21-2.54.1-2.15.88-4.22,2.1-5.95,2.08-2.94,5.42-4.93,8.89-4.79,3.09.13,5.98,1.68,8.23,4.05,1.44,1.52,2.61,3.37,3.41,5.39h0c.49,1.25.84,2.54,1.02,3.86,1.53-2.03,4.23-2.9,6.57-2.11.39.13.76.3,1.11.51,1.79,1.06,3.11,3.09,3.36,5.3.66-.69,1.43-1.24,2.27-1.63h.01s.02-.02.03-.02c1.78-.83,3.84-.96,5.7-.27,2.76,1.01,4.93,3.76,5.45,6.87.27-5.67,3.21-10.93,7.44-14.12Z"/>
        </g>
        <g class="st37">
          <path class="st69" d="M76.03,105.56c.04,1.36-.02,2.74-.12,4.1,0,.13-.02.27-.03.4-.04.47-.08.95-.16,1.42-.1.69-.25,1.36-.55,1.99-.04.1-.09.21-.15.31-.69,1.26-1.91,2.15-3.14,2.86-1.55.9-3.21,1.59-4.93,2.06-.06.02-.12.04-.18.05-1.62.44-3.28.69-4.96.76h-.01c-.22,0-.43.02-.65.02-1.2.02-2.41.03-3.61.04-2.48.03-4.96.04-7.44.04h-.01c-6.29,0-12.57-.12-18.86-.3h-.09c-.31,0-.61-.02-.92-.02h-.01c-.19,0-.39-.02-.58-.02l-3.42-.12c-.38,0-.75-.02-1.13-.04-.17,0-.34,0-.51-.02-.76-.02-1.51-.05-2.27-.09-4.16-.16-8.31-.35-12.46-.58-.11,0-.21-.01-.31-.01-.13,0-.25-.02-.37-.02-.96-.05-1.92-.11-2.87-.16-.94-.05-1.87-.11-2.8-.16-.26-.02-.52-.04-.77-.05-.05,0-.1,0-.15,0-.86-.05-1.72-.1-2.57-.16v-45.02c1.94-.37,3.94-.28,5.8.39,4.18,1.51,7.18,6.09,6.42,10.48,2.08-1.74,5.22-2.07,7.62-.8.53.28,1.01.63,1.44,1.05,1.53,1.44,2.39,3.6,2.19,5.7,2.14-1.92,5.45-2.4,8.05-1.17,2.59,1.23,4.32,4.09,4.2,6.96,1.38-5.31,3.27-9.72,8.61-12.11,1.97-.89,4.24-1.32,6.29-.64,1.28.42,2.4,1.25,3.37,2.2,2.7,2.61,4.47,6.17,4.92,9.9-.27-2.31,7.87-1.4,8.83-1.06,1.81.64,3.49,1.53,4.83,2.8.26.24.51.49.74.77.54.63,1,1.33,1.38,2.13,0,.02.01.03.02.05.2.43.37.86.51,1.31.06.15.11.3.15.46.03.07.05.15.06.22.04.1.06.2.08.3.1.35.17.71.23,1.08.02.07.03.14.04.21.07.41.12.82.16,1.24.02.23.04.47.05.7.02.19.03.37.04.56Z"/>
        </g>
        <path class="st61" d="M29.56,107.72c-.05-.28-.3-.5-.58-.52.25-.16.37-.49.29-.77-.08-.28-.37-.49-.67-.49.13-.28.24-.58.19-.89s-.34-.58-.64-.53c-.07.01-.13.04-.2.04-.16,0-.28-.16-.33-.31s-.06-.32-.14-.46c-.2-.37-.78-.37-1.07-.08-.34.34-.34.99-.27,1.39-.44.03-.9.26-1.09.68-.19.42,0,1,.44,1.13-.41.21-.79.59-.8,1.05s.51.91.92.69c-.02.31.14.62.41.78.26.16.6.17.87.02v3.41h.5v-3.47s0,0,0,0c.55.25,1.03.41,1.48-.1.13-.15.23-.69.31-.88.11-.26.45-.27.38-.68Z"/>
        <path class="st61" d="M23.88,108.81c-.05-.28-.3-.5-.58-.52.25-.16.37-.49.29-.77s-.37-.49-.67-.49c.13-.28.24-.58.19-.89-.05-.3-.34-.58-.64-.53-.07.01-.13.04-.2.04-.16,0-.28-.16-.33-.31-.05-.15-.06-.32-.14-.46-.2-.37-.78-.37-1.07-.08-.34.34-.34.99-.27,1.39-.44.03-.9.26-1.09.68-.19.42,0,1,.44,1.13-.41.21-.79.59-.8,1.05-.01.46.51.91.92.69-.02.31.14.62.41.78.26.16.6.17.87.02v3.41h.5v-3.47s0,0,0,0c.55.25,1.03.41,1.48-.1.13-.15.23-.69.31-.88.11-.26.45-.27.38-.68Z"/>
        <path class="st61" d="M17.46,105.55c-.05-.28-.3-.5-.58-.52.25-.16.37-.49.29-.77s-.37-.49-.67-.49c.13-.28.24-.59.19-.89-.05-.3-.34-.58-.64-.53-.07.01-.13.04-.2.04-.16,0-.28-.16-.33-.31-.05-.15-.06-.32-.14-.46-.2-.37-.78-.37-1.07-.08-.34.34-.34.99-.27,1.39-.44.03-.9.26-1.09.68-.19.42,0,1,.44,1.13-.41.21-.79.59-.8,1.05-.01.46.51.91.92.69-.02.31.14.62.41.78.26.16.6.17.87.02v3.41h.5v-3.47s0,0,0,0c.55.25,1.03.41,1.48-.1.13-.15.23-.69.31-.88.11-.26.45-.27.38-.68Z"/>
        <path class="st2" d="M91.89,98.99v19.51c-.64-.05-1.28-.09-1.92-.13-2.74-.18-5.48-.3-8.22-.23-.32,0-.64,0-.96.02h-.01c-.81.03-1.63.08-2.45.15-4.28.36-8.48,1.27-12.65,2.35-2.81.74-5.62,1.55-8.42,2.33l-.33.09c-3.48.96-6.96,1.86-10.48,2.48-.37.07-.74.13-1.1.19-1.09.17-2.19.32-3.29.42-.09.02-.16.02-.24.03h-.01c-1.13.11-2.27.18-3.41.2-1.95.04-3.89-.06-5.82-.24-.25-.02-.5-.05-.75-.08-5.79-.61-11.52-1.97-17.29-2.92h0c-1.16-.2-2.32-.37-3.48-.52-.51-.07-1.01-.13-1.52-.18h-.01s-.07-.01-.11-.01c-.15-.02-.3-.04-.45-.05-.49-.05-.98-.1-1.47-.14h-.01c-2.08-.18-4.17-.29-6.27-.34h0s-.02-.01-.02-.01c-.39,0-.78-.02-1.18-.02v-25.1c5.28-.61,10.18-.67,15.45,1.23,1.61.58,3.16,1.3,4.75,1.93.53.21,1.06.41,1.6.6,2.87.99,5.87,1.48,8.88,1.98,1.68.27,3.36.55,5.02.92,5.53,1.22,11.36,4.81,17.1,2.33,1.66-.71,3.12-1.73,4.63-2.66.92-.57,1.85-1.1,2.85-1.52,2.84-1.18,5.5-2.75,8.4-3.82,1.28-.47,2.57-.92,3.89-1.25.29-.07.59-.14.88-.21.11-.02.23-.04.34-.06.81-.16,1.64-.28,2.47-.32,3.18-.17,6.33.64,9.42,1.44,2.09.54,4.16,1.07,6.21,1.61Z"/>
        <path class="st4" d="M91.89,106.14v21.52c-13.53,1.19-27.17,1.08-40.83.82-.38-.01-.75-.02-1.13-.02-.32-.01-.63-.02-.95-.02-1.38-.03-2.76-.06-4.14-.09-2.07-.04-4.13-.08-6.19-.12-.39-.01-.77-.02-1.16-.02-2.4-.05-4.79-.09-7.19-.11-.55,0-1.1-.01-1.66-.01-.65,0-1.3,0-1.95,0-1.55,0-3.09,0-4.64,0h-.01c-3.96.02-7.91.09-11.85.25-1.96.08-3.92.17-5.88.29-.62.03-1.25.07-1.87.11-.81.04-1.63.1-2.44.15v-24.77c.38-.1.76-.2,1.13-.3,5.1-1.42,9.49-2.9,14.74-2.57.06,0,.11,0,.16,0,.46.03.92.07,1.39.13,1.22.15,2.43.38,3.65.6,2.59.49,5.17.99,7.79.79.61-.05,1.22-.13,1.82-.24,5.42-1.02,10.51-4.39,16.01-3.82,2.94.3,5.63,1.71,8.24,3.09.83.44,1.67.88,2.5,1.32,2.8,1.48,5.59,2.96,8.39,4.45,1.5.79,3.04,1.59,4.62,2.27.32.14.65.28.97.4h.01c1.41.56,2.84,1,4.3,1.24.91.16,1.82.23,2.75.19.41-.01.84-.04,1.26-.1,2.36-.32,4.51-1.33,6.61-2.47.38-.21.76-.42,1.13-.62.37-.21.73-.42,1.1-.62.82-.47,1.64-.92,2.48-1.33.28-.14.56-.27.84-.39Z"/>
        <path class="st8" d="M91.89,122.71v6.61c-1.23.6-2.53,1.05-3.85,1.36-4.32,1.02-8.82.72-13.25.48-7.23-.39-14.46-.62-21.7-.67-1.82,0-3.64,0-5.46,0-4.12.02-8.25.09-12.37.23-1.05.03-2.1.07-3.16.11-.47.02-.94.03-1.42.06-2.32.09-4.63.21-6.95.34h-.01c-.31.02-.62.04-.93.06-7.61.45-15.21,1.09-22.79,1.93v-22.7c1.28-.04,2.56-.17,3.81-.48.29-.07.56-.15.84-.24h.02c2.79-.89,5.31-2.54,7.96-3.78.83-.39,1.68-.73,2.55-1,.02,0,.04,0,.06-.02h0c.05,0,.1-.02.14-.04.01,0,.01-.01.02-.01.47-.14.94-.25,1.43-.33.08-.02.15-.03.23-.04.04,0,.07,0,.11,0,1.32-.19,2.6-.16,3.86.05.22.03.42.07.64.12h.02c.42.09.84.2,1.25.33.71.2,1.4.46,2.09.75,1.49.63,2.96,1.43,4.42,2.29,2.71,1.61,5.42,3.43,8.25,4.81h.01c1.42.68,2.88,1.26,4.38,1.63,3.34.83,6.87.64,10.23,1.41,1.62.37,3.18.95,4.71,1.59.31.13.63.26.94.39.09.05.18.1.28.13,1.17.49,2.35,1,3.54,1.44h.01c.32.13.64.24.97.35.96.32,1.92.58,2.9.8.78.18,1.57.33,2.36.46,0,0,0-.01.02,0,2.98.47,6.02.64,9.04.8,4.39.23,8.77.47,13.16.7.54.03,1.09.06,1.63.09Z"/>
        <path class="st7" d="M49.77,132.3l-.05.02h-.01l-1.81.72-7.31,2.88-2.57,1.02-.16.06-1.55.61-3.25,1.29h-.01l-.29.11-5.06,2h-.01l-2.85,1.13-8.77,3.46-16.07,6.34v-43.11c1.58.29,3.13.61,4.65.97h.02c2.45.57,4.82,1.21,7.1,1.92.25.07.49.15.73.22,0,0,.01,0,.01,0,.32.1.64.2.96.31h.01c1.97.64,3.86,1.32,5.69,2.03.31.12.61.24.91.36h.01c.39.16.78.32,1.17.47,1.55.64,3.04,1.3,4.47,1.97.2.08.39.17.58.26,0,0,.01,0,.02,0,1.17.56,2.31,1.12,3.41,1.69.16.07.32.15.47.24h.01c.19.09.37.19.55.28.1.05.19.1.29.15,2.62,1.39,5,2.78,7.11,4.1h.01c1.31.83,2.53,1.62,3.63,2.38h.01s.1.07.15.11c.18.12.35.24.52.36.86.59,1.64,1.15,2.35,1.68,1.11.82,2.05,1.55,2.79,2.14.8.65,1.39,1.15,1.74,1.45.27.24.4.36.4.36Z"/>
        <path class="st68" d="M32.3,124.45c-.36.3-.95.31-1.32.02.51.1.61-.8,1.1-.96-.22-.09-.08-.43.09-.61-.48.38-1.17.48-1.74.25.24-.06.56-.27.43-.48.16,0,.34,0,.45-.12.11-.11.02-.36-.13-.32.43-.1.78-.47.86-.89-.42.3-.97.4-1.48.3-.2-.04-.41-.11-.54-.26s-.17-.4-.04-.55c.27.13.59.14.87.03-.07-.19-.03-.42.11-.57-.11-.02-.22-.05-.33-.07.17-.14.32-.31.43-.5.08-.13.14-.27.17-.41.02-.04.03-.09.04-.14-.04.05-.08.09-.13.14-.11.1-.23.19-.37.26-.37.19-.82.24-1.22.09-.01-.13.02-.27.08-.39.02-.08.06-.15.11-.22.05-.06.11-.12.17-.17-.09-.05-.19-.1-.29-.15.37-.05.67-.36.71-.71-.29.19-.67.25-1.01.14.13,0,.21-.21.09-.29.38-.18.67-.54.78-.94-.26.26-.62.42-.99.41-.1-.18-.25-.33-.44-.43.39-.1.73-.39.89-.75-.16.09-.33.19-.51.2-.19,0-.39-.13-.39-.31l.45-.03c.03-.15-.01-.3-.1-.42.2-.03.38-.18.43-.37-.16-.01-.33-.01-.49-.02.39-.14.7-.46.83-.85-.37.32-.87.49-1.36.46.12-.37.23-.74.35-1.1.28,0,.55-.2.66-.46-.29.07-.57-.16-.68-.43-.11-.26-.12-.56-.2-.83.09,0,.18-.09.16-.18-.29-.34-.43-.76-.35-1.18-.14.56-.27,1.11-.41,1.66-.02.09-.04.18-.03.27.02.08.06.16.06.24,0,.31-.45.38-.76.33,0,.28.38.49.63.34.08.22-.16.48-.39.44.07.31.07.64,0,.95-.27.14-.66-.06-.69-.36-.13.29.05.62.26.86.2.24.45.49.48.8-.31.18-.76.04-.9-.28-.03.29.05.57.2.81-.17.25-.56.26-.82.1-.26-.15-.43-.41-.58-.67.01.33.19.65.48.83-.08.05-.16.09-.25.13-.07.02-.15.04-.22.05.22.17.52.25.8.21h.04s-.01,0-.02,0c-.34.26-.76.4-1.19.41.38.36,1.02.4,1.45.11,0,.32,0,.64.01.95-.41-.03-.81-.12-1.19-.27.25.23.51.43.8.59.07.06.15.1.22.14-.33.17-.75.12-1.08-.03-.09-.04-.18-.09-.27-.15-.23-.15-.44-.33-.64-.5,0,.17.04.33.13.48.14.29.42.53.74.6-.19.11-.43.15-.65.09.11.13.06.35-.1.43.2.25.49.41.8.46-.05.32-.41.54-.74.54-.3,0-.59-.12-.85-.26.02-.1.03-.2,0-.3-.33.16-.74.17-1.08.03.27-.09.48-.32.55-.6-.45.03-.91-.05-1.32-.24.11-.08.23-.16.35-.24-.12-.13-.23-.27-.35-.4.15-.03.28-.1.38-.2.25-.23.36-.6.25-.91-.44.44-1.19.51-1.7.18.67.07.69-1.11,1.31-1.36-.3-.1-.16-.55.04-.8-.58.54-1.46.75-2.23.52.32-.11.7-.41.51-.68.21,0,.44-.04.57-.2.12-.15-.01-.46-.21-.4.15-.05.29-.13.42-.23.33-.24.55-.62.59-1.02-.48.4-1.13.6-1.76.55h-.01s-.07,0-.11,0c-.26-.02-.54-.09-.73-.27-.03-.03-.05-.06-.07-.09-.14-.18-.18-.44-.05-.62.37.14.79.12,1.13-.06-.11-.24-.08-.53.08-.74-.14-.02-.29-.04-.43-.06.39-.38.64-.89.7-1.43-.45.69-1.37,1.04-2.17.83-.05-.38.1-.79.39-1.05-.13-.06-.27-.11-.4-.16.47-.11.82-.54.83-1.01-.35.28-.84.4-1.29.3.18,0,.26-.3.09-.38.47-.28.81-.77.89-1.3-.3.37-.75.61-1.23.64-.15-.22-.36-.4-.61-.51.49-.17.89-.58,1.05-1.07-.19.14-.39.28-.63.31s-.51-.12-.54-.35c.2-.03.39-.06.59-.09,0-.19-.06-.39-.19-.54.26-.05.47-.27.51-.52l-.63.03c.49-.22.86-.67.97-1.19-.23.24-.52.43-.83.56-.28.11-.57.18-.87.18.11-.48.21-.96.31-1.44t.01-.02c.12-.01.23-.05.33-.1.22-.12.4-.32.47-.56-.36.12-.75-.15-.93-.48-.02-.04-.04-.09-.06-.14-.12-.28-.17-.6-.28-.89,0,0-.01-.02-.01-.03.12,0,.22-.14.18-.25-.26-.26-.44-.57-.52-.9-.06-.19-.08-.38-.07-.58l-.09.57c-.05.37-.11.73-.16,1.1-.03.17-.05.35-.08.52-.01.12-.03.24,0,.35.02.1.08.2.09.3.05.4-.53.54-.95.51.05.37.56.59.86.37.1.21-.03.46-.22.56-.01,0-.01.01-.02.01-.04.02-.09.03-.14.04h-.07v.02c.12.39.16.81.11,1.21-.33.22-.86,0-.94-.38-.13.38.15.79.44,1.08.17.17.36.33.49.52.11.14.19.29.22.47-.07.05-.14.08-.22.1-.16.05-.34.04-.5,0-.2-.05-.37-.18-.47-.35,0,.36.13.73.35,1.02-.19.33-.69.39-1.05.22-.35-.17-.6-.49-.83-.81.06.43.33.82.72,1.02-.17.14-.37.24-.58.29.32.21.74.28,1.11.18-.42.38-.96.62-1.52.68.54.41,1.36.4,1.89-.02l.12,1.23c-.53,0-1.06-.07-1.57-.22.43.33.91.61,1.41.83-.27.16-.57.21-.88.18h-.01c-.18-.01-.35-.04-.52-.1-.16-.06-.3-.13-.44-.21,0,0-.01,0-.01,0-.28-.15-.53-.34-.79-.52.01.1.03.2.06.3.16.51.63.92,1.18,1-.23.17-.54.24-.83.19.16.16.12.45-.07.57.28.29.67.48,1.08.5-.03.43-.46.74-.89.79-.44.04-.86-.12-1.26-.31.22.3.59.48.96.49-.03.13-.07.25-.1.37.14-.04.29.12.24.25.15,0,.31,0,.46,0-.1.29-.46.43-.78.39-.31-.05-.58-.23-.83-.41-.22.23.06.67.36.59,0,.11,0,.21-.02.32.1.03.21.06.31.09-.3.21-.71.14-1.08.17-.37.02-.81.26-.75.62.05.15.26.24.41.18-.01.12-.02.25-.02.37.47.15,1.01.07,1.43-.2.15.36-.35.65-.74.64-.33,0-.72-.07-.99.08-.04.03-.08.06-.12.1-.06-.04-.13-.08-.19-.11-.14-.09-.27-.17-.41-.25,0,.08.01.16.04.23.12.41.54.72.97.7-.1.13-.25.23-.41.27.12.17.31.28.52.3-.15.11-.3.22-.44.34.29.22.71.28,1.05.14.01.12.02.23.04.34-.48.25-1.1.2-1.53-.12.11.48.52.88,1.01.98-.12.19-.35.29-.57.25.05.05.1.09.16.13,0,.01.01.01.01.01.25.18.55.32.87.4-.44.3-1.1.22-1.45-.18-.13.11-.11.29-.01.44h0s.01.04.03.06c.05.07.12.14.19.18.09.06.18.11.28.17-.1-.04-.2-.06-.3-.06-.29,0-.6.07-.84-.08.08-.03.16-.06.24-.08-.01-.06-.01-.12-.02-.18,0-.03,0-.05,0-.07.06,0,.11,0,.16-.04.15-.07.22-.3.09-.43-.17.13-.34.26-.54.33-.03,0-.05,0-.08.02-.14.03-.28,0-.4-.06h-.02c-.09-.05-.16-.12-.2-.21.12-.01.24-.01.36-.02-.05-.1.06-.23.17-.21l-.09-.27c.09-.01.18-.03.27-.08.18-.06.33-.19.44-.34-.21.11-.44.22-.68.27h-.02c-.08.02-.16.02-.25.02-.19,0-.38-.09-.52-.22t-.01,0c-.1-.09-.17-.21-.19-.34.31-.04.61-.19.81-.43-.15-.09-.19-.31-.08-.44-.22.05-.46,0-.65-.11.5-.1.89-.56.91-1.05-.29.23-.58.47-.93.62-.34.14-.76.17-1.08,0,.37-.19.72-.43,1.04-.7-.38.14-.79.22-1.2.23l.03-.63c.01-.1.01-.21.02-.32.42.31,1.05.28,1.45-.06-.44-.02-.86-.19-1.2-.46.29.06.61-.01.85-.18-.17-.03-.33-.1-.46-.2.29-.17.48-.48.51-.81-.17.25-.34.51-.61.65-.26.15-.65.12-.82-.13.16-.23.25-.51.24-.8-.16.31-.61.44-.91.25.03-.31.29-.55.5-.79.22-.23.41-.55.29-.85-.04.3-.44.49-.7.34-.06-.32-.05-.64.03-.95-.23.03-.46-.23-.37-.45.24.15.62-.04.64-.32-.32.04-.77-.05-.75-.36,0-.08.05-.15.06-.23.02-.09,0-.18-.02-.27-.11-.56-.23-1.12-.34-1.67.05.42-.1.83-.39,1.16-.03.09.05.19.14.18-.09.28-.1.57-.22.83-.13.27-.41.49-.69.41.09.26.35.46.64.48.1.37.21.74.31,1.11-.49.01-.98-.17-1.34-.5.11.39.41.73.8.88-.17,0-.33-.01-.49-.01.04.2.21.36.41.39-.09.11-.14.27-.12.42.15.01.31.03.46.04,0,.18-.22.3-.4.29-.19-.01-.35-.11-.5-.21.14.37.47.67.86.78-.19.09-.35.24-.45.42-.37,0-.73-.17-.98-.45.09.41.37.77.74.97-.1.05-.07.2.01.26.02.02.05.03.08.03-.28.08-.59.05-.85-.08-.06-.03-.11-.06-.16-.1,0,.03.01.06.01.09.07.32.34.6.67.66-.1.04-.19.08-.29.13.23.19.36.5.34.8-.61.19-1.33-.05-1.7-.55.04.25.13.48.28.69.08.14.19.27.32.38l-.33.06c.13.15.16.38.09.57.27.12.6.12.87,0,.12.15.08.4-.06.54-.14.15-.35.22-.55.25-.51.08-1.06-.04-1.47-.35.05.29.21.54.44.72h.03c.11.09.22.16.36.2-.15-.04-.24.2-.14.32.1.11.28.12.44.12-.13.22.17.43.42.51-.58.21-1.27.08-1.73-.31.16.18.29.52.06.61.49.17.56,1.08,1.07.99-.38.28-.96.25-1.31-.06-.11.35.16.76.53.82-.09.11-.17.22-.25.33.09.05.18.11.28.16-.29.15-.62.23-.94.24.08.14.16.26.24.38.05.03.09.05.14.06-.03,0-.06.02-.08.03l.1.16c.18.27.37.53.56.77.46.59.95,1.08,1.48,1.49.57.46,1.18.81,1.83,1.09,1.62.72,3.5.96,5.65,1.06,3.99.19,7.99.3,11.99.34.31,0,.61,0,.91-.02.35,0,.69-.03,1.02-.06,2.06-.19,3.75-.77,5.21-1.9.44-.32.86-.7,1.25-1.14.39-.42.76-.89,1.12-1.41.11-.15.21-.3.31-.46.03-.05.06-.1.1-.15.04-.08.09-.15.14-.22-.09-.04-.19-.07-.28-.12.1-.05.19-.1.29-.15-.08-.12-.16-.23-.24-.34.37-.04.65-.45.56-.8ZM22.42,121.64c.32-.02.66-.05.94-.2.18-.1.33-.26.4-.45.15.19.37.32.62.35-.04.09-.07.18-.1.27.11-.02.21.11.16.21.12,0,.24.02.35.03-.09.22-.38.31-.62.25-.23-.05-.43-.21-.61-.36-.18.16,0,.51.24.47-.01.08-.03.16-.04.25.08.02.15.05.23.08-.24.15-.55.07-.84.06-.28-.01-.64.15-.62.43,0,.02.02.03.03.05-.23-.07-.43-.22-.51-.44.36-.01.7-.31.73-.67l-.36-.33ZM10.21,123.17s-.02,0-.03,0v-.06s.02.03.03.05ZM9.67,123.69c.04.06.07.12.11.17-.15.07-.3.11-.45.14-.29,0-.62-.21-.53-.46.26.15.57.2.87.15Z"/>
        <path class="st6" d="M49.77,142.85l-.79.31-1.11.44h0l-1.38.55-3.4,1.34-.34.13-3.69,1.46-11.4,4.5L0,162.49v-43.11c.63.11,1.25.23,1.87.36,1.97.4,3.89.85,5.76,1.34t.01,0c.26.06.52.13.77.2h.02c.08.03.16.05.24.07l1.29.36s.01.01.01.01c1.56.45,3.08.92,4.56,1.43h0c4.41,1.49,8.48,3.17,12.15,4.92.36.17.7.34,1.05.5.44.22.88.44,1.31.66.84.42,1.66.84,2.45,1.27h.01c.2.11.4.21.59.32.61.33,1.2.66,1.78.99.07.04.14.08.21.12.33.18.65.36.96.55,1.42.82,2.74,1.63,3.96,2.41.55.35,1.07.69,1.58,1.02,2.84,1.89,5.07,3.56,6.62,4.79h.01c.73.59,1.31,1.07,1.73,1.42t0,.01c.53.45.81.71.81.71Z"/>
        <path class="st5" d="M87.24,111.75c1.55-.17,3.1-.32,4.65-.45v49.06c-1.3-.46-2.62-.89-3.95-1.31-.1-.03-.2-.06-.3-.1-5.08-1.59-10.28-3.02-15.07-5.3-3.11-1.48-6.04-3.32-8.97-5.15,0-.01-.01-.02-.02-.01-3.18-1.99-6.36-3.97-9.78-5.5-2.13-.95-4.33-1.7-6.58-2.28h-.01c-.59-.16-1.18-.3-1.79-.43-.76-.17-1.53-.32-2.3-.44-1.18-.21-2.37-.38-3.56-.5h-.01c-2.11-.22-4.23-.32-6.36-.33h-.43c-2.92.01-5.87.2-8.76.52-1.07.12-2.29.19-3.47.08-2.17-.2-4.18-1.01-4.79-3.24,2.52-.36,4.56-2.15,6.57-3.92.11-.09.22-.19.33-.29.02-.02.05-.04.07-.06,0,0,.01,0,.01-.01.33-.29.66-.57,1-.85h.01s.07-.07.11-.1c.53-.43,1.07-.84,1.62-1.2.74-.48,1.5-.93,2.28-1.36.29-.17.6-.33.9-.49.91-.5,1.84-.96,2.78-1.4.39-.18.77-.36,1.16-.53,1.65-.75,3.32-1.44,4.99-2.1l.6-.24h.01c3.92-1.53,7.89-2.94,11.91-4.21h.01c2.3-.73,4.61-1.42,6.94-2.06.16-.05.32-.09.48-.13.1-.03.21-.06.32-.09.62-.17,1.24-.33,1.86-.49,1.66-.44,3.32-.85,4.99-1.23.84-.2,1.69-.39,2.54-.58,2.63-.57,5.28-1.09,7.94-1.56,1.6-.28,3.21-.54,4.82-.78,1.29-.19,2.58-.37,3.87-.54.05,0,.1,0,.16-.02.35-.04.71-.08,1.06-.12.72-.1,1.44-.18,2.16-.26Z"/>
        <path class="st46" d="M90.97,120.57c-.38.32-1,.33-1.39.02.54.11.64-.85,1.17-1.02-.16-.07-.15-.25-.07-.42.04-.08.09-.17.15-.23-.12.1-.26.18-.41.24-.44.19-.96.21-1.41.04-.01,0-.02,0-.03,0,.27-.07.6-.29.47-.52.17,0,.36,0,.47-.12.05-.05.06-.12.05-.18-.01-.1-.09-.18-.18-.16.45-.11.82-.5.91-.95-.45.32-1.03.42-1.58.32-.21-.04-.43-.12-.57-.28s-.18-.42-.04-.58c.28.13.63.15.92.03-.07-.2-.02-.44.12-.6-.12-.03-.23-.06-.35-.08.35-.28.59-.68.68-1.12-.42.53-1.19.75-1.83.53,0-.32.14-.64.39-.84-.1-.05-.21-.1-.31-.15.39-.05.71-.39.75-.76-.32.21-.73.27-1.1.15.16.03.27-.23.13-.31.4-.19.71-.57.82-1-.27.28-.66.45-1.05.44-.11-.19-.27-.35-.47-.46.42-.1.78-.41.94-.8-.16.1-.34.21-.54.21-.15,0-.32-.08-.37-.21-.03-.04-.04-.07-.04-.11.16-.01.32-.02.49-.03.02-.16-.02-.33-.12-.45.22-.03.41-.19.46-.4-.17,0-.35-.01-.52-.01.41-.15.75-.49.88-.91-.39.34-.92.52-1.44.49.12-.39.24-.78.37-1.17.3,0,.59-.21.7-.48-.2.05-.4-.05-.55-.2-.07-.08-.13-.17-.17-.26-.02-.05-.04-.1-.05-.16-.08-.24-.09-.49-.16-.73.09,0,.18-.1.16-.19-.3-.36-.45-.81-.37-1.25-.14.59-.29,1.17-.43,1.76-.02.1-.04.19-.03.29.01.07.04.15.06.23v.02c.01.33-.48.4-.81.35,0,.3.4.52.67.36.02.07.02.13,0,.2-.06.17-.24.31-.42.27.08.33.08.68.01,1.01-.29.15-.7-.06-.74-.38-.14.31.06.65.28.91s.48.52.5.86c-.32.18-.8.04-.95-.3-.01.18.01.36.06.54.04.11.09.22.16.32-.19.26-.6.27-.88.11-.14-.08-.25-.19-.34-.31-.11-.13-.19-.27-.28-.41,0,.15.05.3.12.43.08.18.22.34.39.45-.14.1-.32.17-.49.2.25.19.58.27.89.22-.36.28-.82.44-1.29.45.41.37,1.08.42,1.54.11,0,.34,0,.68,0,1.02-.43-.04-.86-.13-1.26-.29.33.3.69.56,1.09.78-.36.17-.8.12-1.16-.04-.36-.17-.66-.43-.96-.69,0,.52.4,1.03.92,1.14-.2.13-.46.16-.69.1.12.14.06.38-.1.46.21.26.52.44.85.49-.06.34-.43.57-.79.58-.32,0-.62-.13-.91-.29.03-.1.04-.21,0-.31-.36.16-.79.18-1.15.03.28-.1.51-.35.58-.64-.48.03-.97-.06-1.4-.26.12-.08.24-.16.37-.25-.12-.14-.25-.28-.37-.43.51-.1.84-.69.67-1.17-.46.46-1.26.54-1.81.18.62.08.72-.89,1.19-1.3.06-.06.13-.11.21-.14-.33-.1-.17-.58.03-.85-.61.58-1.55.8-2.36.55.29-.09.62-.33.6-.58-.01-.05-.03-.1-.06-.14.22-.01.47-.04.6-.21s-.01-.5-.22-.43c.58-.19,1.02-.73,1.08-1.33-.54.46-1.29.67-2.01.59-.27-.03-.56-.1-.77-.29-.09-.09-.16-.21-.2-.33-.02-.14,0-.3.08-.42.38.14.83.12,1.2-.06-.12-.26-.09-.57.08-.8-.15-.02-.31-.04-.46-.06.42-.4.69-.95.75-1.52-.48.73-1.45,1.11-2.31.89-.05-.41.1-.84.41-1.13-.14-.05-.28-.11-.42-.16.49-.11.87-.58.88-1.07-.29.24-.68.37-1.07.36-.1,0-.21,0-.31-.04.2,0,.29-.32.11-.41.06-.03.11-.07.16-.11.41-.31.7-.77.78-1.28-.21.27-.5.47-.83.58-.15.06-.32.1-.48.11-.15-.24-.38-.43-.65-.55.41-.14.76-.43.97-.8.06-.11.11-.22.15-.34-.06.05-.13.09-.19.13-.15.11-.31.19-.48.21-.25.02-.54-.13-.57-.38.21-.03.41-.06.62-.09.02-.21-.06-.42-.2-.57.16-.03.3-.12.4-.25.08-.09.13-.19.15-.31-.08,0-.15,0-.23,0l-.45.03c.14-.07.27-.15.39-.25.32-.26.56-.62.65-1.02-.23.23-.5.42-.8.56-.32.14-.66.22-1.01.23.11-.52.23-1.04.34-1.56.05,0,.1-.01.14-.03.33-.08.61-.35.71-.67-.38.13-.8-.16-.98-.51-.19-.35-.24-.76-.38-1.13.13,0,.23-.14.19-.26-.18-.18-.33-.38-.44-.6-.14-.3-.21-.64-.19-.98-.05.35-.1.7-.15,1.04-.05.33-.1.66-.14.98-.02.1-.04.21-.05.31-.02.13-.04.25-.01.38.02.1.09.2.1.31.05.43-.57.58-1.01.55.05.39.59.62.91.39.14.3-.15.68-.48.65.14.42.18.87.12,1.31-.35.23-.91,0-1-.41-.14.41.16.84.47,1.15s.69.62.76,1.05c-.4.28-1.03.14-1.28-.28.01.39.15.78.39,1.09-.21.36-.74.42-1.12.24s-.64-.53-.89-.86c.06.45.36.87.77,1.08-.18.15-.4.26-.62.31.34.22.78.29,1.18.19-.44.4-1.01.66-1.61.72.56.44,1.45.43,2-.02.05.43.09.87.13,1.31-.56,0-1.12-.08-1.67-.23.46.35.97.64,1.5.88-.44.26-1.01.25-1.5.08-.48-.18-.9-.48-1.32-.79.06.68.64,1.29,1.33,1.38-.25.18-.58.26-.89.21.17.16.13.48-.07.6.29.32.71.51,1.15.54-.01.15-.07.29-.16.4-.17.24-.48.41-.79.44-.47.04-.92-.13-1.34-.33.24.31.62.51,1.02.52,0,.01-.01.03-.01.04-.04.12-.06.23-.09.35.14-.04.3.13.25.27.16,0,.32,0,.49.01-.11.31-.5.45-.83.41-.33-.05-.62-.24-.89-.43-.22.24.07.71.39.62,0,.12-.02.23-.03.34.12.03.23.07.34.1-.32.22-.75.15-1.15.18-.39.02-.86.27-.8.66.06.16.27.26.44.19-.01.13-.02.26-.03.4.51.15,1.08.07,1.52-.21.17.37-.36.68-.78.67-.41,0-.9-.1-1.18.2-.21-.13-.42-.26-.64-.39.01.54.53,1.01,1.07.98-.04.07-.1.13-.17.17-.08.06-.17.11-.26.13.12.17.33.29.55.32-.16.11-.31.23-.47.35.31.25.76.31,1.12.16.01.12.03.24.04.35-.5.27-1.16.22-1.62-.12.11.51.55.94,1.08,1.04-.13.2-.39.31-.62.27.32.27.7.47,1.11.57-.47.32-1.17.23-1.54-.19-.23.19-.03.57.22.73.04.02.07.05.11.06.06.04.13.07.18.11-.1-.04-.21-.06-.31-.06h-.05c-.29.01-.6.06-.84-.09.08-.03.17-.06.25-.08-.01-.09-.02-.18-.03-.26.25.05.45-.32.27-.5-.2.15-.41.31-.67.36-.25.05-.55-.04-.65-.28.13,0,.25-.02.38-.03-.05-.1.06-.23.18-.21l-.09-.3c.3-.02.59-.19.75-.44-.31.17-.65.33-1.01.31-.35-.02-.72-.26-.77-.61.34-.04.65-.2.87-.46-.16-.08-.21-.32-.09-.46-.21.05-.44.02-.63-.09l-.06-.03c.53-.1.95-.59.96-1.12-.3.25-.61.51-.98.66s-.8.19-1.15,0c.4-.2.77-.45,1.11-.74-.41.15-.84.23-1.28.25.02-.34.04-.68.05-1.01.45.32,1.12.29,1.54-.07-.46-.02-.91-.2-1.27-.49.31.06.65,0,.9-.19-.17-.03-.34-.11-.49-.21.31-.18.52-.52.54-.87-.17.27-.36.55-.64.7s-.69.13-.87-.14c.17-.24.26-.55.25-.85-.17.33-.65.46-.97.27.02-.17.09-.31.19-.44.1-.14.23-.27.35-.4.23-.25.43-.59.31-.91-.05.32-.47.52-.76.36-.06-.33-.04-.68.04-1.01-.25.04-.49-.25-.4-.48.26.17.67-.03.69-.34-.34.04-.82-.04-.8-.38,0-.08.05-.16.07-.24.01-.1-.01-.2-.03-.29-.12-.59-.24-1.19-.36-1.78.06.45-.1.89-.42,1.24-.02.09.06.2.16.19-.1.29-.11.61-.24.89-.13.27-.44.51-.74.43.11.28.38.49.68.51.12.39.23.78.34,1.17-.52.02-1.05-.17-1.43-.53.12.42.44.78.85.94-.17,0-.35,0-.52,0,.05.21.23.38.44.41-.1.13-.15.29-.12.45.16,0,.32.03.48.05-.01.19-.23.32-.43.31-.19,0-.36-.12-.53-.23.15.39.5.71.92.83-.2.1-.37.26-.48.45-.4-.01-.78-.19-1.04-.48.09.43.39.82.79,1.03-.13.07-.06.31.09.31-.36.1-.77.03-1.07-.19.03.38.34.72.72.79-.1.05-.21.09-.31.14.25.21.39.53.36.85-.65.2-1.41-.05-1.81-.59.07.44.3.85.64,1.14-.12.02-.23.04-.35.07.14.16.18.4.1.6.29.13.63.13.92,0,.04.06.07.13.07.21,0,.13-.04.27-.13.37-.15.16-.37.23-.58.26-.39.06-.8.02-1.15-.14-.15-.06-.29-.13-.42-.23.02.11.05.22.1.32.1.21.26.39.46.52.09.05.18.1.28.13-.13,0-.2.23-.1.35.11.12.3.13.46.13-.14.23.19.46.45.54-.61.22-1.35.09-1.84-.33.17.19.31.56.07.65.09.03.17.09.24.16.31.33.45.97.89.89-.4.3-1.02.27-1.39-.06-.12.37.16.81.56.87-.09.12-.18.23-.27.35.1.06.2.11.3.17-.31.16-.65.24-1,.25.09.15.18.29.26.41.05.03.1.05.15.07-.03.01-.06.01-.09.03l.11.16c.06.1.13.19.2.28t.01.02c2.44,3.48,5.66,4.2,9.91,4.39,4.24.2,8.49.32,12.74.36,4.73.05,7.81-1.27,10.34-5.14.04-.05.07-.1.11-.16.09-.14.17-.27.25-.4-.09-.04-.2-.07-.29-.12.1-.05.2-.11.31-.16-.09-.12-.17-.24-.26-.36.4-.05.7-.48.59-.85ZM67.46,119.22v-.07s.02.03.03.06c-.01,0-.02,0-.03,0ZM81.47,117.36c.19-.1.35-.27.42-.47.17.2.4.34.66.37-.03.09-.07.19-.1.29.11-.02.22.12.17.22.13.01.25.03.38.04-.11.23-.41.32-.66.26s-.46-.23-.66-.39c-.14.12-.08.36.07.46.05.04.12.06.19.05-.02.08-.03.17-.05.26.09.03.17.06.25.09-.25.15-.58.07-.89.06-.3-.01-.68.16-.66.45.01.03.02.04.03.06-.24-.08-.46-.23-.54-.46.31,0,.59-.21.7-.49h.01c.03-.07.05-.15.06-.23-.12-.11-.25-.23-.38-.35.35-.03.7-.05,1-.22ZM66.92,119.76c.03.06.07.12.11.18-.15.07-.31.12-.48.14-.31,0-.66-.21-.56-.48.28.16.61.21.93.16Z"/>
        <path class="st12" d="M91.89,119.12v48.48c-.47-.22-.94-.42-1.42-.63-.12-.05-.24-.1-.37-.16-.53-.23-1.06-.45-1.59-.67-.34-.14-.69-.28-1.04-.43-.72-.3-1.45-.59-2.17-.89-1.08-.44-2.16-.89-3.23-1.35-.04-.02-.09-.03-.13-.06-1.53-.65-3.05-1.33-4.54-2.08-.03,0-.06-.02-.09-.04-1.12-.56-2.23-1.15-3.31-1.79-1.84-1.09-3.59-2.31-5.32-3.58-3.09-2.28-6.08-4.71-9.27-6.83-1.02-.68-2.06-1.32-3.13-1.92-.04-.02-.08-.04-.12-.06,0-.01,0-.01,0-.01-.75-.42-1.52-.81-2.3-1.17-1.94-.93-3.93-1.7-5.98-2.33h0c-1.01-.31-2.03-.59-3.06-.84-1.54-.38-3.1-.68-4.68-.92-.08-.02-.14-.03-.22-.03h-.01c-1.41-.23-2.84-.4-4.27-.52-2.64-.23-5.29-.31-7.92-.28h-.01c-.26,0-.51.01-.77.01-2.07.04-4.72-.15-6.39-1.41-.78-.56-1.35-1.37-1.55-2.49,2.51-.13,4.68-1.69,6.82-3.24.22-.16.44-.32.66-.48.08-.06.16-.11.24-.17.61-.44,1.22-.86,1.84-1.23.23-.14.47-.27.71-.4.47-.25.95-.48,1.43-.71.27-.13.54-.26.82-.38h.01c1.94-.88,3.95-1.63,5.98-2.3.45-.16.89-.3,1.34-.45h.01c.96-.3,1.92-.59,2.88-.87.01-.01.03-.01.04-.02.03,0,.05-.01.08-.02.22-.06.43-.13.65-.18.97-.29,1.95-.57,2.92-.83.35-.1.69-.19,1.04-.28,3.47-.93,6.96-1.75,10.48-2.48.11-.03.23-.05.34-.07,3.57-.74,7.16-1.37,10.77-1.89,0,0,0-.01.02,0,6.94-1.03,13.94-1.66,20.95-1.92.47-.02.94-.03,1.41-.04.09,0,.17,0,.26,0,.4-.02.8-.03,1.21-.03Z"/>
        <path class="st11" d="M91.89,131.94v36.98l-1.34-.83h0l-.5-.32-1.48-.92-1.1-.68-2.16-1.35-17.63-10.97-1.3-.81-6.96-3.95-2.82-1.6s-.01-.02-.02-.01l-2.72-1.55-4.87-2.77-5.86-3.32-4.36-2.48h-.01s-.73-.42-.73-.42l-8.75-4.97-.05-.03h62.67Z"/>
        <g class="st63">
          <path class="st47" d="M72.78,134.78c6.37-.2,12.74-.31,19.11-.4v.8c-6.37-.09-12.74-.2-19.11-.4Z"/>
        </g>
        <g class="st64">
          <path class="st47" d="M84.08,137.54c2.6-.08,5.21-.15,7.81-.2v.4c-2.6-.05-5.21-.12-7.81-.2Z"/>
        </g>
        <path class="st35" d="M22.82,131.2s-.02.06-.03.09c-.08.26-.19.51-.34.73,0,.01-.01.02-.02.03-.09.15-.2.29-.32.42-.91.96-2.43,1.45-3.77,1.36-1.01-.06-1.99-.42-3-.52-.12-.01-.23-.02-.34-.02h-.02c-1.03-.05-2.06.17-3.07.47-.01,0-.02,0-.03.01h-.02c-.54.16-1.06.35-1.59.53-2.33.82-7.33,3.6-10.27,3.58v-9.15c.24-.05.49-.07.73-.08-.15,0,.07-.85.23-1.41.06-.22.12-.4.14-.45.27-.7.71-1.32,1.4-1.67.83-.42,1.89-.36,2.69.13.01-.59.31-1.15.66-1.64.36-.51.8-.99,1.36-1.24.09-.04.17-.08.27-.11h.01c.21-.07.44-.1.67-.11h.02c.16,0,.32,0,.48.04.15.02.3.05.45.1.09.03.18.06.27.1h0c.05.02.1.04.14.07h.01c.27.13.52.3.74.49.13.12.25.25.35.39.59.7.91,1.62,1.03,2.53.32-.52.78-.96,1.32-1.25.38-.19.79-.33,1.21-.29.62.06,1.15.5,1.47,1.04.32.53.47,1.15.61,1.74.64-.84,1.8-1.21,2.84-1.03,1.04.19,1.97.83,2.66,1.63.1.12.2.24.28.37h.01s.06.09.09.13c.37.54.65,1.15.74,1.8.06.43.04.83-.06,1.19Z"/>
        <path class="st1" d="M10.62,123.34c.01.17,0,.36-.06.53-.3,1.23-1.89,2.04-2.95,1.36.49.92.18,2.21-.69,2.81-.86.61-2.18.45-2.87-.35.11.31.21.62.26.93.06.27.09.53.06.8-.02.14-.05.27-.1.4-.17.44-.52.8-.97.85-.61.07-1.13-.44-1.53-.91.01.7-.47,1.35-1.11,1.65-.21.1-.43.16-.66.19v-2.87c.24-.05.49-.07.73-.08-.15,0,.07-.85.23-1.41.06-.22.12-.4.14-.45.27-.7.71-1.32,1.4-1.67.83-.42,1.89-.36,2.69.13.01-.59.31-1.15.66-1.64.36-.51.8-.99,1.36-1.24.09-.04.17-.08.27-.11h.01c.21-.07.44-.1.67-.11h.02c.16,0,.32,0,.48.04.15.02.3.05.45.1.09.03.18.06.27.1h0c.05.02.1.04.14.07h.01c.27.13.52.3.74.49.13.12.25.25.35.39Z"/>
        <path class="st68" d="M52.92,130.11c-.07-.13-.14-.25-.22-.37-.4-.59-.98-1.09-1.66-1.28-.69-.19-1.49-.04-1.98.49-.06-.42-.11-.84-.29-1.22-.18-.38-.5-.71-.91-.8-.28-.06-.57,0-.83.11-.38.16-.73.42-.98.74-.02-.74-.22-1.5-.72-2.06-.49-.55-1.31-.85-2.01-.62-.4.13-.73.42-1.01.74-.27.3-.51.66-.56,1.06-.5-.39-1.21-.5-1.8-.28-.49.18-.83.56-1.06,1.02-.06.12-.53,1.21-.39,1.22-1.09-.08-2.22.34-2.87,1.2-.22.29-.39.62-.49.96h.05c-.49,1.39.12,3.24,1.57,3.83,1.75.72,5.94-1.09,7.75-1.52,1.14-.27,2.33-.54,3.47-.3.67.14,1.3.45,1.98.57,1.48.25,3.39-.51,3.32-2.24-.02-.44-.16-.87-.37-1.26Z"/>
        <path class="st10" d="M91.89,142.53v41.42h-25.34v.04l-.04-.04H0v-47.72c3.81-.97,7.78-1.8,11.86-2.46h.02s.02-.01.03-.01c1.01-.17,2.04-.32,3.07-.47h.02c2.34-.33,4.71-.6,7.11-.82.07-.01.14-.02.2-.02.26-.03.51-.05.76-.07.14-.02.27-.03.4-.03.04-.01.09-.02.13-.01h.01c1.63-.14,3.27-.26,4.93-.34.24-.01.48-.02.73-.03.19-.02.38-.02.57-.03,1.34-.06,2.69-.1,4.04-.12.38-.01.77-.02,1.15-.02.57,0,1.14,0,1.71,0,2.32,0,4.63.05,6.9.15,2.05.09,4.07.21,6.07.38h.01c1.08.09,2.14.18,3.21.29,14.5,1.5,27.79,4.97,38.96,9.92Z"/>
        <path class="st9" d="M53.02,182.72c-.2.41-.33.82-.4,1.23H0v-14.13c.05-.03.11-.05.16-.07.02-.02.04-.02.06-.03,1.42-.68,2.86-1.33,4.31-1.96.13-.05.25-.1.37-.16,1.23-.52,2.46-1.03,3.69-1.53.02-.01.04-.01.06-.03,9.8-3.95,19.55-7.1,25.66-10.86,4.15-2.55,5.3-5.35,4.74-8.1-.4-1.99-1.71-3.96-3.43-5.79-.74-.79-1.57-1.55-2.43-2.28-.04-.04-.08-.07-.13-.11h-.01c-2.43-2.05-5.15-3.79-7.25-5.02-1.14-.66-2.1-1.18-2.73-1.5-.17-.09-.31-.16-.43-.22-.08-.05-.15-.08-.21-.11-.05-.03-.09-.05-.12-.06-.01,0-.02,0-.02,0h.06s.07.03.1.04c.05.01.1.03.14.04s.09.02.13.03c.02.01.03.01.04.02.28.07.56.15.84.23h.01c1.06.3,2.09.59,3.09.89,4.14,1.23,7.85,2.49,11.16,3.77.3.12.6.23.89.35h.01c2.44.97,4.65,1.94,6.66,2.93,1.25.61,2.43,1.23,3.53,1.85t0,.01c2.89,1.64,5.27,3.29,7.19,4.96,0,0,0,0,0,.01.14.12.28.24.41.37.01-.01.02,0,.02.01,15.65,14.04-.35,28.43-3.57,35.23Z"/>
        <path class="st81" d="M41.44,125.04s-.02-.01-.02-.01h.06s-.02,0-.04.01Z"/>
        <g class="st39">
          <path class="st23" d="M22.72,132.09s.03.01.04.02c-.02,0-.03,0-.05,0-.04-.02-.08-.03-.12-.04.04.01.09.02.13.03Z"/>
        </g>
        <g class="st42">
          <path class="st20" d="M53.02,182.72c-.2.41-.33.82-.4,1.23H19.57c.74-1.73,1.79-3.38,3.16-4.9.24-.25.48-.5.73-.75,10.44-10.33,23.15-9.91,27.52-23.12,1.34-4.04-.84-7.79-4.5-11.03-.53-.48-1.09-.94-1.68-1.39-1.6-1.23-3.39-2.37-5.24-3.42h-.01c-1.07-.61-2.16-1.19-3.24-1.73-3.63-1.81-7.21-3.24-9.85-4.21-1.23-.46-2.26-.81-2.99-1.05-.29-.1-.53-.18-.71-.24.28.07.56.15.84.23h.01c1.06.3,2.09.59,3.09.89,4.14,1.23,7.85,2.49,11.16,3.77.3.12.6.23.89.35h.01c2.44.97,4.65,1.94,6.66,2.93,1.25.61,2.43,1.23,3.53,1.85t0,.01c2.89,1.64,5.27,3.29,7.19,4.96,0,0,0,0,0,.01.14.12.28.24.41.37.01-.01.02,0,.02.01,15.65,14.04-.35,28.43-3.57,35.23Z"/>
        </g>
        <g class="st65">
          <path class="st80" d="M44.12,153.35c-.03.52-.25,1-.37,1.51-.16.49-.25,1.01-.51,1.47-.76,1.95-2.1,3.61-3.54,5.1-3.02,2.87-6.72,4.83-10.41,6.5-2.39,1.09-4.81,2.06-7.17,3.1l-.42.18c-.3.13-.59.26-.88.39-.2.09-.39.18-.58.27-.45.21-.9.42-1.34.65-.11.04-.22.1-.33.16-.09.04-.18.08-.27.13-.28.14-.55.29-.82.44-.32.18-.64.36-.95.55-.68.39-1.34.8-1.99,1.23-.2.13-.4.26-.6.4-.39.26-.78.53-1.16.82-.22.16-.45.32-.67.49-.34.26-.68.52-1.01.79-.06.05-.12.09-.17.14-.1.08-.2.16-.3.25-.51.41-1.01.84-1.49,1.28-.03.02-.06.05-.08.08-.43.38-.86.77-1.27,1.19-.06.05-.13.11-.19.18-1.06,1.05-2.07,2.15-3.02,3.3H.2c.33-.4.66-.8,1-1.19.1-.13.21-.25.33-.37.5-.58,1.03-1.15,1.57-1.71.06-.06.12-.12.18-.19.3-.3.61-.61.92-.89.11-.12.23-.23.34-.33.45-.43.9-.84,1.36-1.23.16-.16.32-.3.49-.43.28-.25.58-.5.88-.73.25-.21.5-.41.75-.61.31-.23.61-.47.92-.69.16-.12.33-.24.49-.36.31-.22.62-.44.94-.65.56-.4,1.14-.78,1.73-1.14.15-.09.3-.19.45-.28.52-.32,1.05-.63,1.59-.92.04-.02.07-.04.1-.05.75-.42,1.51-.82,2.28-1.18.24-.12.48-.24.72-.35.48-.21.95-.42,1.43-.62h0c.57-.24,1.14-.47,1.71-.68.12-.06.24-.1.37-.15.37-.15.75-.29,1.13-.43l.06-.03c2.23-.83,4.46-1.61,6.64-2.47,3.71-1.46,7.33-3.17,10.3-5.72.38-.32.69-.69,1.04-1.03l.51-.52c.16-.19.3-.39.44-.58.29-.39.6-.77.86-1.18l.69-1.28c.27-.42.37-.9.54-1.36.13-.46.38-.91.42-1.4.15-.96.4-1.93.37-2.92,0-1.58-.34-3.19-1.01-4.66-.64-1.46-1.6-2.78-2.84-3.81h-.01c-.59-.49-1.24-.9-1.95-1.23.79.32,1.52.74,2.18,1.26,1.24.95,2.25,2.22,2.96,3.65.75,1.48,1.2,3.13,1.27,4.78.08,1.04-.12,2.05-.23,3.08Z"/>
        </g>
        <g class="st45">
          <path class="st21" d="M27.65,151.58c-.07.13-.14.26-.22.39-1.66,2.68-5.07,3.57-8.13,4.35-6.61,1.69-13.07,3.92-19.3,6.68v-21.8c4.65-1.08,9.37-1.78,14.12-1.8,3.74-.01,7.68.47,10.68,2.71.01.01.03.02.04.03,2.86,2.15,4.42,6.31,2.81,9.44Z"/>
        </g>
        <g class="st70">
          <path class="st24" d="M16.07,145.6c0,2.39-4.43,4.18-6.05,4.68-3.35,1.03-6.69,2.1-10.02,3.14v-8.13c2.3-.48,4.61-.88,6.94-1.21,1.86-.26,8.4-1.81,9.08,1.08.04.15.05.29.05.44Z"/>
        </g>
        <g class="st77">
          <path class="st22" d="M91.89,149.8v30.83c-1.34,1.16-2.88,2.3-4.53,3.32h-20.81v.04l-.04-.04c-.53-.64-.97-1.27-1.31-1.91-.18-.32-.34-.64-.48-.96h0c-.85-2.05-.91-4.11-.5-6.2v-.02c.32-1.67.94-3.37,1.69-5.08.17-.41.36-.81.55-1.23h0c.4-.91.84-1.81,1.26-2.72,1.7-3.62,2.57-6.07.98-9.86-.01,0-.01-.03-.02-.05-.02-.04-.04-.08-.05-.12-.29-.67-.61-1.32-.96-1.95-1.09-1.97-2.47-3.77-4.07-5.35,0-.01-.01-.02-.02-.01-.63-.64-1.3-1.24-2-1.8-2.31-1.85-4.96-3.33-6.85-5.61-.29-.35-.57-.73-.64-1.18-.2-1.34,1.45-2.15,2.78-2.37,8.98-1.53,17.22,3.56,25.13,7.05,3.34,1.47,6.84,3.12,9.89,5.22Z"/>
        </g>
        <g class="st71">
          <path class="st58" d="M24.8,54.47c0-.08.02-.15.02-.22,0-2.29-1.85-4.14-4.14-4.14-.75,0-1.45.22-2.06.57-.32-1.61-1.74-2.82-3.44-2.82-1.29,0-2.41.71-3.02,1.75-.63-.92-1.69-1.52-2.89-1.52-1.92,0-3.48,1.54-3.51,3.46-.33-.1-.68-.18-1.04-.18-1.8,0-3.27,1.36-3.47,3.11h23.55Z"/>
        </g>
        <g class="st74">
          <path class="st60" d="M83.72,26.64c0-.05.02-.1.02-.16,0-1.61-1.31-2.92-2.92-2.92-.53,0-1.02.15-1.45.4-.23-1.13-1.22-1.99-2.42-1.99-.91,0-1.7.5-2.13,1.23-.45-.64-1.19-1.07-2.03-1.07-1.35,0-2.45,1.09-2.47,2.43-.23-.07-.48-.12-.73-.12-1.27,0-2.3.96-2.44,2.19h16.58Z"/>
        </g>
        <g class="st72">
          <path class="st59" d="M91.89,45.14v6.53h-24.47c.04-.36.1-.72.2-1.05.23-.82.62-1.54,1.13-2.12h0c.79-.92,1.86-1.48,3.06-1.48.46,0,.9.11,1.32.26.03-2.69,1.77-4.89,4-5.14.14-.02.28-.03.43-.03,1.51,0,2.84.9,3.64,2.27.52-1.04,1.32-1.86,2.28-2.28h0c.48-.22,1-.33,1.54-.33,2.08,0,3.82,1.69,4.29,3.97h0c.02.09.04.17.05.25.75-.52,1.61-.83,2.53-.85Z"/>
        </g>
        <g>
          <path class="st62" d="M1.27,183.95H.15c-.02-3.49-.1-12.87.01-14.2,0-.04,0-.07,0-.1.01-.08.03-.05.05.07.19,1.05.71,8.92.98,13.04.02.45.05.85.07,1.19Z"/>
          <path class="st62" d="M10.79,180.05l-.47,3.9H1.43l.1-1.56.65-10.46.92,8.75.12,1.15.06-1.34.23-5.11.69,4.22.36,2.23s-.01-1.02-.02-2.56c0-3.12-.04-8.38,0-11.51,0-1.21,0-2.1.03-2.43.02-.43.16.57.34,2.27.29,2.72.7,7.23,1,10.44.19,2.2.33,3.79.33,3.79l.16-4.22.29-7.36.59,6.63.33,3.77.11,1.18.08-1.36.23-4.2.57-10.2.04-.74.02.71.29,9.54.12,3.7v.53s.02.24.02.24v-.17s.06-.68.06-.68l.29-3.98.48-6.57.46,5.92.26,3.35.16,2.13Z"/>
        </g>
        <polygon class="st19" points="9.09 179.88 10.26 183.95 9.06 183.95 9.06 179.77 9.07 179.81 9.09 179.88"/>
        <polygon class="st19" points="11.1 177.53 12.02 183.95 10.74 183.95 10.93 177.67 10.96 176.57 11.1 177.53"/>
        <path class="st19" d="M12.78,176.25c.2,2.98.41,6.13.5,7.7h-1.12c-.01-1.49-.04-4.38-.05-7.21,0-1.15-.01-2.28-.01-3.31,0-2.1.02-3.74.07-4.06.05-.35.2,1.37.38,3.78.07.95.15,2.01.23,3.1Z"/>
        <path class="st19" d="M22.79,179.77l-.51,4.18h-8.87l.53-8.52.2-3.2.04-.58.06.53.3,2.85.68,6.52.29-6.45,1.05,6.45s-.02-3.79-.03-7.75c-.01-.94-.01-1.89-.01-2.8-.01-2.86,0-5.35.04-5.95.04-.67.34,2.13.68,5.6.07.84.16,1.72.24,2.6.39,4.15.75,8.3.75,8.3l.34-8.87.1-2.65.23,2.49.81,9.03.53-9.68.14-2.52.24-4.3.13,4.15.07,2.4.26,8.17.62-8.56.18-2.44.03-.4.03.37.18,2.29.61,8.02.06.72Z"/>
        <polygon class="st19" points="62.77 183.95 61.12 183.95 61.49 178.12 62.77 183.95"/>
        <polygon class="st19" points="64.95 183.95 63.27 183.95 64.17 174.2 64.22 174.86 64.22 174.88 64.72 181.07 64.72 181.08 64.95 183.95"/>
        <path class="st19" d="M66.55,183.95v.04l-.04-.04h-1.42c.03-.5.07-1.15.11-1.91.17-3.23.46-8.45.71-12.26.16-2.44.3-4.29.38-4.68.08-.37.13,1.12.17,3.44h0c.08,4.62.09,12.47.09,15.41Z"/>
        <path class="st19" d="M79.02,179.22l-.22,1.2h0s-.66,3.53-.66,3.53h-11.44l1.98-15.78.52,12.72.9-8.21.81,8.32s1.08-19.04,1.33-21.06.81,21.19.81,21.19l1.5-14.74.39,14.86,2.37-19.96.12-1.03-.03,1.07-.57,17.76,1.98-14.49.21,14.62Z"/>
        <path class="st62" d="M91.89,170.84v13.11h-14.36l.17-7.68,1.1,4.15h0s.83,3.18.83,3.18l.59-11.36,1.31,10.77s.2-16.74.41-19.6c.01-.16.02-.27.03-.34.02-.16.06,0,.1.4.3,2.99.97,19.57.97,19.57l1.44-17.01,1.04,12.69.56-8.24,1.16,8.28s.1-6.71.22-12.59c.01-.16.01-.31.01-.46.06-2.74.12-5.25.17-6.76.02-.61.04-1.06.06-1.29.03-.4.12.19.24,1.39.15,1.58.36,4.23.57,7.09.01.23.03.47.05.71.41,5.72.82,11.96.82,11.96l.66-11.04.06-.96.17-2.8.2,2.96.07,1.12h0l.72,10.76.62-8.01Z"/>
        <g>
          <path class="st27" d="M90.03,37.79c0,2.72-.25,5.37-.72,7.95h0c-.37,2.04-.87,4.01-1.51,5.93-2.74,8.26-7.85,15.43-14.53,20.73h-.01c-7.51,5.93-17,9.48-27.32,9.48-7.24,0-14.07-1.75-20.1-4.83h-.01c-9.33-4.8-16.72-12.81-20.71-22.58-.41-.99-.78-2-1.12-3.03-1.39-4.3-2.15-8.89-2.15-13.65C1.85,21.87,10.29,7.91,22.94.16h19.56c1.13-.11,2.28-.16,3.44-.16s2.31.05,3.44.16h19.56c12.65,7.75,21.09,21.71,21.09,37.63Z"/>
          <path class="st28" d="M83.73,37.79c0,1.45-.08,2.89-.25,4.3-.37,3.35-1.19,6.56-2.38,9.58-2.74,6.92-7.46,12.84-13.47,17.06-6.13,4.31-13.61,6.84-21.69,6.84-6.42,0-12.45-1.6-17.74-4.42-6.99-3.72-12.67-9.56-16.17-16.68-1.01-2.03-1.83-4.16-2.46-6.38-.92-3.27-1.42-6.73-1.42-10.3C8.15,18.07,23.24,1.89,42.5.16c1.13-.11,2.28-.16,3.44-.16s2.31.05,3.44.16c14.35,1.29,26.38,10.6,31.59,23.42.4,1,.77,2.02,1.09,3.06,1.09,3.52,1.67,7.27,1.67,11.15Z"/>
          <circle class="st29" cx="45.94" cy="37.79" r="31.49" transform="translate(-13.26 43.55) rotate(-45)"/>
          <circle class="st30" cx="45.94" cy="37.79" r="25.19" transform="translate(-13.26 43.55) rotate(-45)"/>
          <circle class="st25" cx="45.94" cy="37.79" r="18.89" transform="translate(-13.54 37.39) rotate(-39.05)"/>
          <circle class="st26" cx="45.94" cy="37.79" r="12.59" transform="translate(-13.04 45.51) rotate(-46.89)"/>
          <path class="st66" d="M52.23,37.79c0,3.47-2.82,6.29-6.29,6.29s-6.29-2.82-6.29-6.29,2.82-6.29,6.29-6.29,6.29,2.82,6.29,6.29Z"/>
        </g>
      </g>
    </g>
  </g>
</svg>