<?xml version="1.0" encoding="UTF-8"?>
<svg xmlns="http://www.w3.org/2000/svg" xmlns:xlink="http://www.w3.org/1999/xlink" version="1.1" viewBox="0 0 86.49 183.79">
  <!-- Generator: Adobe Illustrator 29.8.3, SVG Export Plug-In . SVG Version: 2.1.1 Build 3)  -->
  <defs>
    <style>
      .st0 {
        fill: url(#_ÂÁ_Ï_ÌÌ_È_ËÂÌÚ_2);
      }

      .st0, .st1, .st2, .st3, .st4, .st5, .st6, .st7, .st8, .st9 {
        mix-blend-mode: multiply;
      }

      .st1 {
        fill: url(#_ÂÁ_Ï_ÌÌ_È_ËÂÌÚ_7);
      }

      .st2 {
        fill: url(#_ÂÁ_Ï_ÌÌ_È_ËÂÌÚ_9);
      }

      .st3 {
        fill: url(#_ÂÁ_Ï_ÌÌ_È_ËÂÌÚ_6);
      }

      .st10 {
        mask: url(#mask);
      }

      .st11 {
        fill: url(#_ÂÁ_Ï_ÌÌ_È_ËÂÌÚ_139541);
      }

      .st12 {
        fill: url(#_ÂÁ_Ï_ÌÌ_È_ËÂÌÚ_139598);
      }

      .st13 {
        fill: url(#_ÂÁ_Ï_ÌÌ_È_ËÂÌÚ_139135);
      }

      .st14 {
        fill: url(#_ÂÁ_Ï_ÌÌ_È_ËÂÌÚ_139136);
      }

      .st15 {
        fill: url(#_ÂÁ_Ï_ÌÌ_È_ËÂÌÚ_139133);
      }

      .st16 {
        fill: url(#_ÂÁ_Ï_ÌÌ_È_ËÂÌÚ_139128);
      }

      .st17 {
        fill: url(#_ÂÁ_Ï_ÌÌ_È_ËÂÌÚ_139130);
      }

      .st18 {
        fill: url(#_ÂÁ_Ï_ÌÌ_È_ËÂÌÚ_139129);
      }

      .st19 {
        fill: url(#_ÂÁ_Ï_ÌÌ_È_ËÂÌÚ_139817);
      }

      .st20 {
        fill: url(#_ÂÁ_Ï_ÌÌ_È_ËÂÌÚ_139484);
      }

      .st21 {
        fill: url(#_ÂÁ_Ï_ÌÌ_È_ËÂÌÚ_139939);
      }

      .st22 {
        fill: url(#_ÂÁ_Ï_ÌÌ_È_ËÂÌÚ_139774);
      }

      .st23 {
        filter: url(#luminosity-noclip);
      }

      .st24 {
        fill: #2e368b;
      }

      .st25 {
        filter: url(#luminosity-noclip12);
      }

      .st26 {
        filter: url(#luminosity-noclip14);
      }

      .st27 {
        filter: url(#luminosity-noclip16);
      }

      .st28 {
        filter: url(#luminosity-noclip10);
      }

      .st29 {
        fill: url(#_ÂÁ_Ï_ÌÌ_È_ËÂÌÚ_1391232);
      }

      .st29, .st30, .st31, .st32, .st33, .st34, .st35, .st36, .st37, .st38 {
        mix-blend-mode: overlay;
      }

      .st29, .st30, .st35 {
        opacity: .59;
      }

      .st30 {
        fill: url(#_ÂÁ_Ï_ÌÌ_È_ËÂÌÚ_1391231);
      }

      .st39 {
        fill: #010101;
      }

      .st31 {
        fill: url(#_ÂÁ_Ï_ÌÌ_È_ËÂÌÚ_1391271);
      }

      .st31, .st36 {
        opacity: .5;
      }

      .st32 {
        fill: url(#_ÂÁ_Ï_ÌÌ_È_ËÂÌÚ_1391251);
        opacity: .14;
      }

      .st33 {
        fill: url(#_ÂÁ_Ï_ÌÌ_È_ËÂÌÚ_139125);
        opacity: .55;
      }

      .st34 {
        fill: url(#_ÂÁ_Ï_ÌÌ_È_ËÂÌÚ_139124);
        opacity: .57;
      }

      .st35 {
        fill: url(#_ÂÁ_Ï_ÌÌ_È_ËÂÌÚ_139123);
      }

      .st36 {
        fill: url(#_ÂÁ_Ï_ÌÌ_È_ËÂÌÚ_139127);
      }

      .st37 {
        fill: url(#_ÂÁ_Ï_ÌÌ_È_ËÂÌÚ_139486);
        opacity: .38;
      }

      .st40 {
        filter: url(#luminosity-noclip6);
      }

      .st41 {
        filter: url(#luminosity-noclip2);
      }

      .st42 {
        filter: url(#luminosity-noclip4);
      }

      .st43 {
        filter: url(#luminosity-noclip8);
      }

      .st44 {
        isolation: isolate;
      }

      .st45 {
        mask: url(#mask-2);
      }

      .st46 {
        mask: url(#mask-3);
      }

      .st47 {
        mask: url(#mask-4);
      }

      .st48 {
        mask: url(#mask-5);
      }

      .st49 {
        mask: url(#mask-7);
      }

      .st50 {
        mask: url(#mask-6);
      }

      .st51 {
        mask: url(#mask-1);
      }

      .st52 {
        mask: url(#mask-9);
      }

      .st53 {
        mask: url(#mask-8);
      }

      .st54 {
        fill: #fff;
      }

      .st55 {
        opacity: .15;
      }

      .st55, .st9 {
        fill: #fbfbfb;
      }

      .st56 {
        fill: url(#_ÂÁ_Ï_ÌÌ_È_ËÂÌÚ_1391352);
      }

      .st57 {
        fill: url(#_ÂÁ_Ï_ÌÌ_È_ËÂÌÚ_1391351);
      }

      .st58 {
        fill: url(#_ÂÁ_Ï_ÌÌ_È_ËÂÌÚ_1391301);
      }

      .st4 {
        fill: url(#_ÂÁ_Ï_ÌÌ_È_ËÂÌÚ_22);
      }

      .st5 {
        fill: url(#_ÂÁ_Ï_ÌÌ_È_ËÂÌÚ_21);
      }

      .st6 {
        fill: url(#_ÂÁ_Ï_ÌÌ_È_ËÂÌÚ_91);
      }

      .st7 {
        fill: url(#_ÂÁ_Ï_ÌÌ_È_ËÂÌÚ_11);
      }

      .st8 {
        fill: url(#_ÂÁ_Ï_ÌÌ_È_ËÂÌÚ_71);
      }

      .st59 {
        fill: #3452a0;
        opacity: .53;
      }

      .st9 {
        opacity: .68;
      }

      .st60 {
        fill: #4a73b8;
        opacity: .56;
      }

      .st61 {
        mask: url(#mask-10);
      }

      .st62 {
        mask: url(#mask-14);
      }

      .st63 {
        mask: url(#mask-11);
      }

      .st64 {
        mask: url(#mask-16);
      }

      .st65 {
        mask: url(#mask-13);
      }

      .st66 {
        mask: url(#mask-12);
      }

      .st67 {
        mask: url(#mask-17);
      }

      .st68 {
        mask: url(#mask-15);
      }
    </style>
    <radialGradient id="_ÂÁ_Ï_ÌÌ_È_ËÂÌÚ_139484" data-name="¡ÂÁ˚ÏˇÌÌ˚È „‡‰ËÂÌÚ 139484" cx="42.6" cy="124.7" fx="42.6" fy="124.7" r="109.3" gradientUnits="userSpaceOnUse">
      <stop offset="0" stop-color="#ac7069"/>
      <stop offset=".09" stop-color="#a46d6a"/>
      <stop offset=".22" stop-color="#8f656e"/>
      <stop offset=".38" stop-color="#6e5875"/>
      <stop offset=".56" stop-color="#3f467f"/>
      <stop offset=".66" stop-color="#223b86"/>
      <stop offset="1" stop-color="#1f2548"/>
    </radialGradient>
    <filter id="luminosity-noclip" x="0" y="58.69" width="27.58" height="14.53" color-interpolation-filters="sRGB" filterUnits="userSpaceOnUse">
      <feFlood flood-color="#fff" result="bg"/>
      <feBlend in="SourceGraphic" in2="bg"/>
    </filter>
    <filter id="luminosity-noclip1" x="0" y="-8283.69" width="27.58" height="32766" color-interpolation-filters="sRGB" filterUnits="userSpaceOnUse">
      <feFlood flood-color="#fff" result="bg"/>
      <feBlend in="SourceGraphic" in2="bg"/>
    </filter>
    <mask id="mask-1" x="0" y="-8283.69" width="27.58" height="32766" maskUnits="userSpaceOnUse"/>
    <linearGradient id="_ÂÁ_Ï_ÌÌ_È_ËÂÌÚ_11" data-name="¡ÂÁ˚ÏˇÌÌ˚È „‡‰ËÂÌÚ 11" x1="13.79" y1="56.56" x2="13.79" y2="74.21" gradientUnits="userSpaceOnUse">
      <stop offset="0" stop-color="#fff"/>
      <stop offset=".09" stop-color="#f0f0f0"/>
      <stop offset=".28" stop-color="#c8c8c8"/>
      <stop offset=".53" stop-color="#898989"/>
      <stop offset=".83" stop-color="#323232"/>
      <stop offset="1" stop-color="#000"/>
    </linearGradient>
    <mask id="mask" x="0" y="58.69" width="27.58" height="14.53" maskUnits="userSpaceOnUse">
      <g class="st23">
        <g class="st51">
          <path class="st7" d="M27.58,73.22H0v-5.94c.31-2.91,1.16-5.41,3.8-7.31,1.14-.83,2.54-1.41,3.94-1.25.88.11,1.71.49,2.46.97,2.08,1.32,3.68,3.37,4.46,5.7-.48-1.45,4.86-1.94,5.52-1.85,2.05.28,3.95,1.05,5.22,2.77,1.41,1.88,1.86,4.29,2.15,6.63.01.09.02.19.03.28Z"/>
        </g>
      </g>
    </mask>
    <linearGradient id="_ÂÁ_Ï_ÌÌ_È_ËÂÌÚ_139486" data-name="¡ÂÁ˚ÏˇÌÌ˚È „‡‰ËÂÌÚ 139486" x1="13.79" y1="56.56" x2="13.79" y2="74.21" gradientUnits="userSpaceOnUse">
      <stop offset="0" stop-color="#fbfbfb"/>
      <stop offset="1" stop-color="#fff"/>
    </linearGradient>
    <linearGradient id="_ÂÁ_Ï_ÌÌ_È_ËÂÌÚ_139541" data-name="¡ÂÁ˚ÏˇÌÌ˚È „‡‰ËÂÌÚ 139541" x1="43.09" y1="99.88" x2="43.39" y2="119.75" gradientUnits="userSpaceOnUse">
      <stop offset=".02" stop-color="#978dc4"/>
      <stop offset=".47" stop-color="#28316d"/>
      <stop offset=".77" stop-color="#232c5c"/>
      <stop offset="1" stop-color="#1f294d"/>
    </linearGradient>
    <linearGradient id="_ÂÁ_Ï_ÌÌ_È_ËÂÌÚ_139598" data-name="¡ÂÁ˚ÏˇÌÌ˚È „‡‰ËÂÌÚ 139598" x1="43.25" y1="97.37" x2="43.25" y2="125.81" gradientUnits="userSpaceOnUse">
      <stop offset="0" stop-color="#87628d"/>
      <stop offset=".16" stop-color="#574c7d"/>
      <stop offset=".31" stop-color="#323b71"/>
      <stop offset=".38" stop-color="#24356d"/>
      <stop offset="1" stop-color="#25356b"/>
    </linearGradient>
    <linearGradient id="_ÂÁ_Ï_ÌÌ_È_ËÂÌÚ_139135" data-name="¡ÂÁ˚ÏˇÌÌ˚È „‡‰ËÂÌÚ 139135" x1="42.57" y1="103.27" x2="43.24" y2="127.47" gradientUnits="userSpaceOnUse">
      <stop offset="0" stop-color="#384e9d"/>
      <stop offset="1" stop-color="#1e2648"/>
    </linearGradient>
    <linearGradient id="_ÂÁ_Ï_ÌÌ_È_ËÂÌÚ_139136" data-name="¡ÂÁ˚ÏˇÌÌ˚È „‡‰ËÂÌÚ 139136" x1="23.53" y1="110.44" x2="23.53" y2="133.64" gradientUnits="userSpaceOnUse">
      <stop offset="0" stop-color="#395ea9"/>
      <stop offset="1" stop-color="#212a52"/>
    </linearGradient>
    <linearGradient id="_ÂÁ_Ï_ÌÌ_È_ËÂÌÚ_139130" data-name="¡ÂÁ˚ÏˇÌÌ˚È „‡‰ËÂÌÚ 139130" x1="16.16" y1="101.78" x2="16.16" y2="126.22" gradientUnits="userSpaceOnUse">
      <stop offset="0" stop-color="#304e9d"/>
      <stop offset="1" stop-color="#1e2648"/>
    </linearGradient>
    <linearGradient id="_ÂÁ_Ï_ÌÌ_È_ËÂÌÚ_1391351" data-name="¡ÂÁ˚ÏˇÌÌ˚È „‡‰ËÂÌÚ 139135" x1="24.88" y1="125.31" x2="22.98" y2="133.64" xlink:href="#_ÂÁ_Ï_ÌÌ_È_ËÂÌÚ_139135"/>
    <linearGradient id="_ÂÁ_Ï_ÌÌ_È_ËÂÌÚ_1391352" data-name="¡ÂÁ˚ÏˇÌÌ˚È „‡‰ËÂÌÚ 139135" x1="49.76" y1="113.38" x2="49.76" y2="128.22" xlink:href="#_ÂÁ_Ï_ÌÌ_È_ËÂÌÚ_139135"/>
    <linearGradient id="_ÂÁ_Ï_ÌÌ_È_ËÂÌÚ_139774" data-name="¡ÂÁ˚ÏˇÌÌ˚È „‡‰ËÂÌÚ 139774" x1="67.54" y1="97.05" x2="67.54" y2="111.5" gradientUnits="userSpaceOnUse">
      <stop offset="0" stop-color="#3b3b80"/>
      <stop offset="1" stop-color="#1e2648"/>
    </linearGradient>
    <linearGradient id="_ÂÁ_Ï_ÌÌ_È_ËÂÌÚ_139133" data-name="¡ÂÁ˚ÏˇÌÌ˚È „‡‰ËÂÌÚ 139133" x1="51.16" y1="120.01" x2="51.67" y2="138.27" gradientUnits="userSpaceOnUse">
      <stop offset=".01" stop-color="#4264ad"/>
      <stop offset="1" stop-color="#1f294d"/>
    </linearGradient>
    <linearGradient id="_ÂÁ_Ï_ÌÌ_È_ËÂÌÚ_139939" data-name="¡ÂÁ˚ÏˇÌÌ˚È „‡‰ËÂÌÚ 139939" x1="56.51" y1="131.33" x2="56.51" y2="140" gradientUnits="userSpaceOnUse">
      <stop offset=".01" stop-color="#2b3076"/>
      <stop offset="1" stop-color="#1f2834"/>
    </linearGradient>
    <linearGradient id="_ÂÁ_Ï_ÌÌ_È_ËÂÌÚ_139817" data-name="¡ÂÁ˚ÏˇÌÌ˚È „‡‰ËÂÌÚ 139817" x1="9.06" y1="121.77" x2="10.9" y2="137.99" gradientUnits="userSpaceOnUse">
      <stop offset="0" stop-color="#202a51"/>
      <stop offset="1" stop-color="#1e2648"/>
    </linearGradient>
    <linearGradient id="_ÂÁ_Ï_ÌÌ_È_ËÂÌÚ_1391301" data-name="¡ÂÁ˚ÏˇÌÌ˚È „‡‰ËÂÌÚ 139130" x1="41.14" y1="123.61" x2="41.51" y2="132.87" xlink:href="#_ÂÁ_Ï_ÌÌ_È_ËÂÌÚ_139130"/>
    <linearGradient id="_ÂÁ_Ï_ÌÌ_È_ËÂÌÚ_139129" data-name="¡ÂÁ˚ÏˇÌÌ˚È „‡‰ËÂÌÚ 139129" x1="43.25" y1="132.06" x2="43.25" y2="155.8" gradientUnits="userSpaceOnUse">
      <stop offset="0" stop-color="#3955a2"/>
      <stop offset=".2" stop-color="#2e417e"/>
      <stop offset=".4" stop-color="#263262"/>
      <stop offset=".6" stop-color="#20274e"/>
      <stop offset=".8" stop-color="#1d2142"/>
      <stop offset="1" stop-color="#1c1f3e"/>
    </linearGradient>
    <linearGradient id="_ÂÁ_Ï_ÌÌ_È_ËÂÌÚ_139128" data-name="¡ÂÁ˚ÏˇÌÌ˚È „‡‰ËÂÌÚ 139128" x1="16.31" y1="135.3" x2="27.65" y2="164" gradientUnits="userSpaceOnUse">
      <stop offset="0" stop-color="#26326a"/>
      <stop offset=".62" stop-color="#1a1e40"/>
      <stop offset=".92" stop-color="#14142b"/>
    </linearGradient>
    <filter id="luminosity-noclip2" x="19.89" y="131.9" width=".17" height=".05" color-interpolation-filters="sRGB" filterUnits="userSpaceOnUse">
      <feFlood flood-color="#fff" result="bg"/>
      <feBlend in="SourceGraphic" in2="bg"/>
    </filter>
    <filter id="luminosity-noclip3" x="19.89" y="-8283.69" width=".17" height="32766" color-interpolation-filters="sRGB" filterUnits="userSpaceOnUse">
      <feFlood flood-color="#fff" result="bg"/>
      <feBlend in="SourceGraphic" in2="bg"/>
    </filter>
    <mask id="mask-3" x="19.89" y="-8283.69" width=".17" height="32766" maskUnits="userSpaceOnUse"/>
    <linearGradient id="_ÂÁ_Ï_ÌÌ_È_ËÂÌÚ_9" data-name="¡ÂÁ˚ÏˇÌÌ˚È „‡‰ËÂÌÚ 9" x1="19.95" y1="131.88" x2="19.98" y2="131.94" gradientUnits="userSpaceOnUse">
      <stop offset="0" stop-color="#fff"/>
      <stop offset=".09" stop-color="#f2f2f2"/>
      <stop offset=".25" stop-color="#d1d1d1"/>
      <stop offset=".47" stop-color="#9a9a9a"/>
      <stop offset=".74" stop-color="#505050"/>
      <stop offset="1" stop-color="#000"/>
    </linearGradient>
    <mask id="mask-2" x="19.89" y="131.9" width=".17" height=".05" maskUnits="userSpaceOnUse">
      <g class="st41">
        <g class="st46">
          <path class="st2" d="M20.02,131.93s.03.01.04.02c-.02,0-.03,0-.05,0-.04-.02-.08-.03-.12-.04.04.01.09.02.13.03Z"/>
        </g>
      </g>
    </mask>
    <linearGradient id="_ÂÁ_Ï_ÌÌ_È_ËÂÌÚ_139127" data-name="¡ÂÁ˚ÏˇÌÌ˚È „‡‰ËÂÌÚ 139127" x1="19.95" y1="131.88" x2="19.98" y2="131.94" gradientUnits="userSpaceOnUse">
      <stop offset="0" stop-color="#fbfbfb"/>
      <stop offset="1" stop-color="#fbfbfb"/>
    </linearGradient>
    <filter id="luminosity-noclip4" x="16.87" y="131.95" width="43.78" height="51.84" color-interpolation-filters="sRGB" filterUnits="userSpaceOnUse">
      <feFlood flood-color="#fff" result="bg"/>
      <feBlend in="SourceGraphic" in2="bg"/>
    </filter>
    <filter id="luminosity-noclip5" x="16.87" y="-8283.69" width="43.78" height="32766" color-interpolation-filters="sRGB" filterUnits="userSpaceOnUse">
      <feFlood flood-color="#fff" result="bg"/>
      <feBlend in="SourceGraphic" in2="bg"/>
    </filter>
    <mask id="mask-5" x="16.87" y="-8283.69" width="43.78" height="32766" maskUnits="userSpaceOnUse"/>
    <linearGradient id="_ÂÁ_Ï_ÌÌ_È_ËÂÌÚ_91" data-name="¡ÂÁ˚ÏˇÌÌ˚È „‡‰ËÂÌÚ 9" x1="20.65" y1="139.83" x2="35.68" y2="164.96" xlink:href="#_ÂÁ_Ï_ÌÌ_È_ËÂÌÚ_9"/>
    <mask id="mask-4" x="16.87" y="131.95" width="43.78" height="51.84" maskUnits="userSpaceOnUse">
      <g class="st42">
        <g class="st48">
          <path class="st6" d="M60.64,160.1c.3,9.37-8.08,17.75-10.32,22.46-.07.14-.13.28-.18.42-.03.07-.05.13-.07.2-.04.12-.08.24-.1.35-.03.09-.05.17-.05.26H16.87c.87-2.02,2.15-3.93,3.89-5.65.46-.46.93-.9,1.41-1.31h0c.99-.89,2.01-1.69,3.03-2.42,9.36-6.75,19.32-8.01,23.08-19.39,1.34-4.04-.84-7.79-4.5-11.03-.53-.48-1.09-.94-1.67-1.38h0c-1.6-1.24-3.39-2.38-5.24-3.43-1.07-.61-2.16-1.19-3.25-1.73-3.63-1.81-7.21-3.24-9.85-4.21-1.12-.41-2.06-.74-2.77-.98-.08-.03-.15-.05-.22-.07-.29-.1-.53-.18-.71-.24.28.07.56.15.84.23h.01s.07.02.1.03c1.02.28,2.01.57,2.98.86,1.03.31,2.04.62,3.03.93.49.16.97.31,1.45.47.48.15.95.31,1.41.47.93.31,1.83.62,2.71.94.44.16.87.32,1.3.48.43.16.85.32,1.26.48.3.11.59.23.88.34.01,0,.01.01.02.01l.9.36c.6.24,1.18.49,1.75.73.05.02.09.04.14.06.34.15.68.29,1.01.44,1,.45,1.96.89,2.87,1.34,1.24.61,2.4,1.22,3.5,1.83,0,0,0,.01.02.01.24.14.47.28.71.42.26.15.51.3.76.45.5.3.98.61,1.45.91.23.15.45.29.67.45,1.35.91,2.55,1.83,3.62,2.75,0,0,0,0,0,.01.13.11.26.23.39.35,0,0,.02,0,.02.02.31.28.61.56.9.84.29.28.56.56.83.84.53.56,1.01,1.12,1.44,1.68.22.28.42.56.62.84.39.56.74,1.12,1.05,1.67.3.56.57,1.11.8,1.67s.42,1.11.57,1.66c.08.28.15.55.21.83.06.27.12.54.16.82.05.27.08.54.11.81.02.19.04.38.05.57,0,.05,0,.1,0,.16.01.13.02.26.02.39Z"/>
        </g>
      </g>
    </mask>
    <linearGradient id="_ÂÁ_Ï_ÌÌ_È_ËÂÌÚ_1391271" data-name="¡ÂÁ˚ÏˇÌÌ˚È „‡‰ËÂÌÚ 139127" x1="20.65" y1="139.83" x2="35.68" y2="164.96" xlink:href="#_ÂÁ_Ï_ÌÌ_È_ËÂÌÚ_139127"/>
    <filter id="luminosity-noclip6" x="0" y="139.24" width="25.59" height="22.44" color-interpolation-filters="sRGB" filterUnits="userSpaceOnUse">
      <feFlood flood-color="#fff" result="bg"/>
      <feBlend in="SourceGraphic" in2="bg"/>
    </filter>
    <filter id="luminosity-noclip7" x="0" y="-8283.69" width="25.59" height="32766" color-interpolation-filters="sRGB" filterUnits="userSpaceOnUse">
      <feFlood flood-color="#fff" result="bg"/>
      <feBlend in="SourceGraphic" in2="bg"/>
    </filter>
    <mask id="mask-7" x="0" y="-8283.69" width="25.59" height="32766" maskUnits="userSpaceOnUse"/>
    <linearGradient id="_ÂÁ_Ï_ÌÌ_È_ËÂÌÚ_7" data-name="¡ÂÁ˚ÏˇÌÌ˚È „‡‰ËÂÌÚ 7" x1="23.17" y1="142.09" x2="15.74" y2="145.33" gradientUnits="userSpaceOnUse">
      <stop offset="0" stop-color="#000"/>
      <stop offset=".12" stop-color="#2f2f2f"/>
      <stop offset=".3" stop-color="#6d6d6d"/>
      <stop offset=".48" stop-color="#a1a1a1"/>
      <stop offset=".64" stop-color="#cacaca"/>
      <stop offset=".78" stop-color="#e7e7e7"/>
      <stop offset=".91" stop-color="#f8f8f8"/>
      <stop offset="1" stop-color="#fff"/>
    </linearGradient>
    <mask id="mask-6" x="0" y="139.24" width="25.59" height="22.44" maskUnits="userSpaceOnUse">
      <g class="st40">
        <g class="st49">
          <path class="st1" d="M24.95,151.41c-.07.14-.14.27-.22.4-1.66,2.68-5.07,3.57-8.13,4.35-5.66,1.45-11.21,3.29-16.6,5.52v-21.22c3.77-.75,7.58-1.2,11.42-1.22,3.74-.01,7.68.47,10.68,2.71l.03.03c2.85,2.14,4.42,6.3,2.82,9.43Z"/>
        </g>
      </g>
    </mask>
    <linearGradient id="_ÂÁ_Ï_ÌÌ_È_ËÂÌÚ_139125" data-name="¡ÂÁ˚ÏˇÌÌ˚È „‡‰ËÂÌÚ 139125" x1="23.17" y1="142.09" x2="15.74" y2="145.33" gradientUnits="userSpaceOnUse">
      <stop offset="0" stop-color="#a2c3e8"/>
      <stop offset="1" stop-color="#a2c3e8"/>
    </linearGradient>
    <filter id="luminosity-noclip8" x="0" y="143.27" width="13.37" height="9.14" color-interpolation-filters="sRGB" filterUnits="userSpaceOnUse">
      <feFlood flood-color="#fff" result="bg"/>
      <feBlend in="SourceGraphic" in2="bg"/>
    </filter>
    <filter id="luminosity-noclip9" x="0" y="-8283.69" width="13.37" height="32766" color-interpolation-filters="sRGB" filterUnits="userSpaceOnUse">
      <feFlood flood-color="#fff" result="bg"/>
      <feBlend in="SourceGraphic" in2="bg"/>
    </filter>
    <mask id="mask-9" x="0" y="-8283.69" width="13.37" height="32766" maskUnits="userSpaceOnUse"/>
    <linearGradient id="_ÂÁ_Ï_ÌÌ_È_ËÂÌÚ_71" data-name="¡ÂÁ˚ÏˇÌÌ˚È „‡‰ËÂÌÚ 7" x1="12.87" y1="144" x2="5.72" y2="146.62" xlink:href="#_ÂÁ_Ï_ÌÌ_È_ËÂÌÚ_7"/>
    <mask id="mask-8" x="0" y="143.27" width="13.37" height="9.14" maskUnits="userSpaceOnUse">
      <g class="st43">
        <g class="st52">
          <path class="st8" d="M13.37,145.44c.01,2.39-4.43,4.18-6.05,4.68-2.44.75-4.88,1.52-7.32,2.29v-7.8c1.41-.26,2.82-.49,4.24-.69,1.86-.26,8.39-1.81,9.08,1.08.04.15.05.29.05.44Z"/>
        </g>
      </g>
    </mask>
    <linearGradient id="_ÂÁ_Ï_ÌÌ_È_ËÂÌÚ_1391251" data-name="¡ÂÁ˚ÏˇÌÌ˚È „‡‰ËÂÌÚ 139125" x1="12.87" y1="144" x2="5.72" y2="146.62" xlink:href="#_ÂÁ_Ï_ÌÌ_È_ËÂÌÚ_139125"/>
    <filter id="luminosity-noclip10" x="51.37" y="137.09" width="35.12" height="46.7" color-interpolation-filters="sRGB" filterUnits="userSpaceOnUse">
      <feFlood flood-color="#fff" result="bg"/>
      <feBlend in="SourceGraphic" in2="bg"/>
    </filter>
    <filter id="luminosity-noclip11" x="51.37" y="-8283.69" width="35.12" height="32766" color-interpolation-filters="sRGB" filterUnits="userSpaceOnUse">
      <feFlood flood-color="#fff" result="bg"/>
      <feBlend in="SourceGraphic" in2="bg"/>
    </filter>
    <mask id="mask-11" x="51.37" y="-8283.69" width="35.12" height="32766" maskUnits="userSpaceOnUse"/>
    <linearGradient id="_ÂÁ_Ï_ÌÌ_È_ËÂÌÚ_6" data-name="¡ÂÁ˚ÏˇÌÌ˚È „‡‰ËÂÌÚ 6" x1="48.38" y1="143.34" x2="70.19" y2="161.7" gradientUnits="userSpaceOnUse">
      <stop offset="0" stop-color="#000"/>
      <stop offset=".26" stop-color="#505050"/>
      <stop offset=".53" stop-color="#9a9a9a"/>
      <stop offset=".75" stop-color="#d1d1d1"/>
      <stop offset=".91" stop-color="#f2f2f2"/>
      <stop offset="1" stop-color="#fff"/>
    </linearGradient>
    <mask id="mask-10" x="51.37" y="137.09" width="35.12" height="46.7" maskUnits="userSpaceOnUse">
      <g class="st28">
        <g class="st63">
          <path class="st3" d="M86.49,147.96v34.62c-.59.42-1.2.83-1.83,1.21h-20.85c-.36-.43-.68-.87-.95-1.3-.28-.43-.52-.87-.71-1.31-.31-.68-.53-1.36-.67-2.04-.72-3.5.59-7.07,2.25-10.71l.24-.51c.34-.75.7-1.5,1.05-2.25,1.7-3.62,2.57-6.07.98-9.86l-.03-.06s-.03-.07-.04-.11c-.28-.67-.61-1.32-.96-1.95-1.09-1.97-2.46-3.76-4.06-5.34h0c-.64-.65-1.32-1.26-2.02-1.82-2.31-1.85-4.96-3.33-6.85-5.61-.29-.35-.57-.73-.64-1.18-.2-1.34,1.44-2.15,2.78-2.37,8.98-1.53,17.22,3.56,25.12,7.05,2.39,1.06,4.87,2.2,7.2,3.54Z"/>
        </g>
      </g>
    </mask>
    <linearGradient id="_ÂÁ_Ï_ÌÌ_È_ËÂÌÚ_139124" data-name="¡ÂÁ˚ÏˇÌÌ˚È „‡‰ËÂÌÚ 139124" x1="48.38" y1="143.34" x2="70.19" y2="161.7" gradientUnits="userSpaceOnUse">
      <stop offset="0" stop-color="#a2c3e8"/>
      <stop offset="1" stop-color="#a2c3e8"/>
    </linearGradient>
    <filter id="luminosity-noclip12" x="74.87" y="69.36" width="11.62" height="9.64" color-interpolation-filters="sRGB" filterUnits="userSpaceOnUse">
      <feFlood flood-color="#fff" result="bg"/>
      <feBlend in="SourceGraphic" in2="bg"/>
    </filter>
    <filter id="luminosity-noclip13" x="74.87" y="-8283.69" width="11.62" height="32766" color-interpolation-filters="sRGB" filterUnits="userSpaceOnUse">
      <feFlood flood-color="#fff" result="bg"/>
      <feBlend in="SourceGraphic" in2="bg"/>
    </filter>
    <mask id="mask-13" x="74.87" y="-8283.69" width="11.62" height="32766" maskUnits="userSpaceOnUse"/>
    <linearGradient id="_ÂÁ_Ï_ÌÌ_È_ËÂÌÚ_2" data-name="¡ÂÁ˚ÏˇÌÌ˚È „‡‰ËÂÌÚ 2" x1="80.68" y1="69.58" x2="80.68" y2="79.12" gradientUnits="userSpaceOnUse">
      <stop offset="0" stop-color="#fff"/>
      <stop offset=".09" stop-color="#f8f8f8"/>
      <stop offset=".22" stop-color="#e7e7e7"/>
      <stop offset=".36" stop-color="#cacaca"/>
      <stop offset=".52" stop-color="#a1a1a1"/>
      <stop offset=".7" stop-color="#6d6d6d"/>
      <stop offset=".88" stop-color="#2f2f2f"/>
      <stop offset="1" stop-color="#000"/>
    </linearGradient>
    <mask id="mask-12" x="74.87" y="69.36" width="11.62" height="9.64" maskUnits="userSpaceOnUse">
      <g class="st25">
        <g class="st65">
          <path class="st0" d="M86.49,69.36v9.64h-11.62c.31-2.65,2.53-4.7,5.25-4.7.55,0,1.08.1,1.58.26.04-2.72,2.12-4.95,4.79-5.2Z"/>
        </g>
      </g>
    </mask>
    <linearGradient id="_ÂÁ_Ï_ÌÌ_È_ËÂÌÚ_139123" data-name="¡ÂÁ˚ÏˇÌÌ˚È „‡‰ËÂÌÚ 139123" x1="80.68" y1="69.58" x2="80.68" y2="79.12" gradientUnits="userSpaceOnUse">
      <stop offset="0" stop-color="#fbfbfb"/>
      <stop offset=".18" stop-color="#f4f7f9"/>
      <stop offset=".43" stop-color="#e3ecf5"/>
      <stop offset=".71" stop-color="#c6d9ef"/>
      <stop offset="1" stop-color="#a2c3e8"/>
    </linearGradient>
    <filter id="luminosity-noclip14" x="60.8" y="43.37" width="16.59" height="4.66" color-interpolation-filters="sRGB" filterUnits="userSpaceOnUse">
      <feFlood flood-color="#fff" result="bg"/>
      <feBlend in="SourceGraphic" in2="bg"/>
    </filter>
    <filter id="luminosity-noclip15" x="60.8" y="-8283.69" width="16.59" height="32766" color-interpolation-filters="sRGB" filterUnits="userSpaceOnUse">
      <feFlood flood-color="#fff" result="bg"/>
      <feBlend in="SourceGraphic" in2="bg"/>
    </filter>
    <mask id="mask-15" x="60.8" y="-8283.69" width="16.59" height="32766" maskUnits="userSpaceOnUse"/>
    <linearGradient id="_ÂÁ_Ï_ÌÌ_È_ËÂÌÚ_21" data-name="¡ÂÁ˚ÏˇÌÌ˚È „‡‰ËÂÌÚ 2" x1="69.1" y1="43.12" x2="69.1" y2="48.07" xlink:href="#_ÂÁ_Ï_ÌÌ_È_ËÂÌÚ_2"/>
    <mask id="mask-14" x="60.8" y="43.37" width="16.59" height="4.66" maskUnits="userSpaceOnUse">
      <g class="st26">
        <g class="st68">
          <path class="st5" d="M77.38,48.03c0-.05.02-.1.02-.16,0-1.61-1.31-2.92-2.92-2.92-.53,0-1.02.15-1.45.4-.23-1.13-1.22-1.99-2.42-1.99-.91,0-1.7.5-2.13,1.23-.45-.64-1.19-1.07-2.03-1.07-1.35,0-2.45,1.09-2.47,2.43-.23-.07-.48-.12-.73-.12-1.27,0-2.3.96-2.44,2.19h16.58Z"/>
        </g>
      </g>
    </mask>
    <linearGradient id="_ÂÁ_Ï_ÌÌ_È_ËÂÌÚ_1391231" data-name="¡ÂÁ˚ÏˇÌÌ˚È „‡‰ËÂÌÚ 139123" x1="69.1" y1="43.12" x2="69.1" y2="48.07" xlink:href="#_ÂÁ_Ï_ÌÌ_È_ËÂÌÚ_139123"/>
    <filter id="luminosity-noclip16" x="13.47" y="28.18" width="29.77" height="9.9" color-interpolation-filters="sRGB" filterUnits="userSpaceOnUse">
      <feFlood flood-color="#fff" result="bg"/>
      <feBlend in="SourceGraphic" in2="bg"/>
    </filter>
    <filter id="luminosity-noclip17" x="13.47" y="-8283.69" width="29.77" height="32766" color-interpolation-filters="sRGB" filterUnits="userSpaceOnUse">
      <feFlood flood-color="#fff" result="bg"/>
      <feBlend in="SourceGraphic" in2="bg"/>
    </filter>
    <mask id="mask-17" x="13.47" y="-8283.69" width="29.77" height="32766" maskUnits="userSpaceOnUse"/>
    <linearGradient id="_ÂÁ_Ï_ÌÌ_È_ËÂÌÚ_22" data-name="¡ÂÁ˚ÏˇÌÌ˚È „‡‰ËÂÌÚ 2" x1="28.36" y1="28.01" x2="28.36" y2="38.27" xlink:href="#_ÂÁ_Ï_ÌÌ_È_ËÂÌÚ_2"/>
    <mask id="mask-16" x="13.47" y="28.18" width="29.77" height="9.9" maskUnits="userSpaceOnUse">
      <g class="st27">
        <g class="st67">
          <path class="st4" d="M43.22,38.08c0-.11.03-.22.03-.34,0-3.42-2.34-6.19-5.23-6.19-.95,0-1.83.32-2.6.85-.4-2.41-2.2-4.22-4.35-4.22-1.63,0-3.04,1.06-3.81,2.61-.8-1.37-2.13-2.27-3.65-2.27-2.43,0-4.39,2.31-4.43,5.17-.42-.15-.85-.26-1.32-.26-2.28,0-4.13,2.04-4.39,4.65h29.74Z"/>
        </g>
      </g>
    </mask>
    <linearGradient id="_ÂÁ_Ï_ÌÌ_È_ËÂÌÚ_1391232" data-name="¡ÂÁ˚ÏˇÌÌ˚È „‡‰ËÂÌÚ 139123" x1="28.36" y1="28.01" x2="28.36" y2="38.27" xlink:href="#_ÂÁ_Ï_ÌÌ_È_ËÂÌÚ_139123"/>
  </defs>
  <g class="st44">
    <g id="Calque_1">
      <g>
        <rect class="st20" width="86.49" height="183.79"/>
        <g class="st10">
          <path class="st37" d="M27.58,73.22H0v-5.94c.31-2.91,1.16-5.41,3.8-7.31,1.14-.83,2.54-1.41,3.94-1.25.88.11,1.71.49,2.46.97,2.08,1.32,3.68,3.37,4.46,5.7-.48-1.45,4.86-1.94,5.52-1.85,2.05.28,3.95,1.05,5.22,2.77,1.41,1.88,1.86,4.29,2.15,6.63.01.09.02.19.03.28Z"/>
        </g>
        <path class="st60" d="M26.86,107.56c-.05-.28-.3-.5-.58-.52.25-.16.37-.49.29-.77-.08-.28-.37-.49-.67-.49.13-.28.24-.59.19-.89s-.34-.58-.64-.53c-.07.01-.13.04-.2.04-.16,0-.28-.16-.33-.31-.05-.15-.06-.32-.14-.46-.2-.37-.78-.37-1.07-.08-.34.34-.34.99-.27,1.39-.44.03-.9.26-1.09.68-.19.42,0,1,.44,1.13-.41.21-.79.59-.8,1.05s.51.91.92.69c-.02.31.14.62.41.78.26.16.6.17.87.02v3.41h.5v-3.47s0,0,0,0c.55.25,1.03.41,1.48-.1.13-.15.23-.69.31-.88.11-.26.45-.27.38-.68Z"/>
        <path class="st60" d="M21.18,108.65c-.05-.28-.3-.5-.58-.52.25-.16.37-.49.29-.77-.08-.28-.37-.49-.67-.49.13-.28.24-.58.19-.89-.05-.3-.34-.58-.64-.53-.07.01-.13.04-.2.04-.16,0-.28-.16-.33-.31s-.06-.32-.14-.46c-.2-.37-.78-.37-1.07-.08-.34.34-.34.99-.27,1.39-.44.03-.9.26-1.09.68-.19.42,0,1,.44,1.13-.41.21-.79.59-.8,1.05-.01.46.51.91.92.69-.02.31.14.62.41.78.26.16.6.17.87.02v3.41h.5v-3.47s0,0,0,0c.55.25,1.03.41,1.48-.1.13-.15.23-.69.31-.88.11-.26.45-.27.38-.68Z"/>
        <path class="st60" d="M14.76,105.39c-.05-.28-.3-.5-.58-.52.25-.16.37-.49.29-.77s-.37-.49-.67-.49c.13-.28.24-.59.19-.89s-.34-.58-.64-.53c-.07.01-.13.04-.2.04-.16,0-.28-.16-.33-.31-.05-.15-.06-.32-.14-.46-.2-.37-.78-.37-1.07-.08-.34.34-.34.99-.27,1.39-.44.03-.9.26-1.09.68-.19.42,0,1,.44,1.13-.41.21-.79.59-.8,1.05-.01.46.51.91.92.69-.02.31.14.62.41.78.26.16.6.17.87.02v3.41h.5v-3.47s0,0,0,0c.55.25,1.03.41,1.48-.1.13-.15.23-.69.31-.88.11-.26.45-.27.38-.68Z"/>
        <path class="st11" d="M82.98,97.22c1.18.3,2.35.61,3.51.9v20.04c-.79-.05-1.58-.09-2.37-.12-2.83-.12-5.67-.13-8.49.11-4.28.36-8.48,1.27-12.65,2.35h0c-2.9.77-5.78,1.6-8.67,2.4-.03,0-.07.02-.1.03-.43.12-.86.24-1.29.35-3.02.83-6.05,1.57-9.1,2.11-.02,0-.04,0-.06.01-.37.07-.74.13-1.11.19-1.09.17-2.18.32-3.28.42-.09.02-.16.02-.25.03h0c-1.13.11-2.26.18-3.4.2-1.28.02-2.55-.01-3.82-.09-.67-.03-1.34-.08-2-.15-6.04-.57-12.02-2.01-18.04-3h-.02c-.79-.14-1.59-.26-2.38-.37-.16-.03-.32-.05-.48-.07-.2-.03-.41-.05-.61-.08-2.45-.31-4.91-.52-7.38-.63-.32-.02-.64-.04-.97-.04v-25.44c4.28-.31,8.39-.09,12.75,1.49,2.14.77,4.19,1.79,6.35,2.53,2.87.99,5.87,1.48,8.87,1.98h.01c1.68.28,3.36.55,5.02.92,5.53,1.22,11.36,4.81,17.1,2.33,1.66-.71,3.11-1.73,4.62-2.66h0c.92-.57,1.85-1.1,2.85-1.52,2.84-1.18,5.5-2.75,8.4-3.82.14-.05.29-.11.43-.15.66-.25,1.33-.48,2.01-.69,1.68-.52,3.39-.91,5.14-1,3.18-.17,6.33.64,9.42,1.44Z"/>
        <path class="st12" d="M86.49,107.35v20.37c-12.64.95-25.38.85-38.13.6-.38,0-.75-.02-1.13-.02-.32,0-.64-.02-.96-.02l-4.14-.09c-2.06-.04-4.12-.08-6.18-.12-.39,0-.77-.02-1.16-.02-.01,0-.01,0-.02,0-1.41-.03-2.82-.05-4.23-.07-1.53-.03-3.07-.04-4.6-.05h0c-.65-.01-1.3-.01-1.95-.01-1.61,0-3.22,0-4.83,0-1.53.01-3.07.02-4.6.05h-.12c-2.31.04-4.63.11-6.94.2-.57.02-1.14.05-1.71.07-1.28.06-2.56.12-3.85.2-.64.03-1.29.07-1.93.11v-25.34c4.93-1.41,9.32-2.67,14.72-1.99.39.05.77.1,1.16.16.05,0,.1.02.15.02h0c3.38.56,6.73,1.47,10.13,1.21.61-.05,1.21-.13,1.81-.24h.01c5.42-1.02,10.51-4.39,16.01-3.82,2.94.3,5.63,1.71,8.24,3.09l2.49,1.32h0c2.8,1.48,5.59,2.96,8.38,4.45.36.19.73.38,1.09.57,2.92,1.51,5.99,2.95,9.16,3.39,1.21.18,2.43.21,3.67.04.35-.05.69-.11,1.02-.19h.01c1.09-.24,2.13-.61,3.15-1.07h.01c1.8-.8,3.52-1.83,5.27-2.8Z"/>
        <path class="st13" d="M86.49,122.41v7.8c-.38.12-.77.22-1.15.31-4.32,1.02-8.82.72-13.25.48-7.23-.39-14.46-.62-21.7-.67-1.82,0-3.64,0-5.47,0-4.12.02-8.24.09-12.36.23-1.05.03-2.11.07-3.17.11-.47.02-.94.03-1.41.06-.55.02-1.11.04-1.67.07h-.02s-.01,0-.02.01c-1.73.07-3.46.16-5.19.26-.02,0-.04,0-.06,0h-.01c-1.16.06-2.32.13-3.48.21h-.03c-5.84.38-11.68.87-17.5,1.48v-22.66c.37-.06.74-.14,1.11-.23.29-.07.57-.15.85-.24h.01c2.79-.89,5.31-2.54,7.96-3.78,1.43-.66,2.89-1.2,4.44-1.44.04,0,.07,0,.11,0,.13-.02.26-.04.38-.04.91-.11,1.79-.11,2.66-.02.28.03.55.06.82.11.22.03.42.07.64.12h.02c1.13.24,2.24.62,3.34,1.08,1.49.63,2.96,1.43,4.42,2.29,4.08,2.41,8.13,5.32,12.64,6.44,3.34.83,6.87.64,10.23,1.41.75.17,1.49.38,2.21.63.84.29,1.67.61,2.49.96,1.91.79,3.79,1.66,5.75,2.31.95.32,1.92.58,2.89.8h0c.78.18,1.56.33,2.35.46h.02c2.99.47,6.03.64,9.05.8,2.85.15,5.7.31,8.55.46,1.18.06,2.36.12,3.54.19Z"/>
        <path class="st14" d="M47.06,132.14l-.06.02-1.8.72h-.01l-7.31,2.88-2.56,1.02h-.01l-.16.06-1.54.61-3.26,1.28-.3.12h-.01l-5.05,2-2.86,1.13-8.76,3.46-13.37,5.27v-41.5c.66.13,1.31.28,1.96.43h.01c3.65.85,7.12,1.87,10.4,2.99,0,0,.01,0,.01,0,3.03,1.04,5.89,2.17,8.57,3.35.34.15.68.3,1.01.45h.01s.07.03.1.05c1.06.48,2.09.96,3.09,1.45h.01c.16.08.32.16.47.24h.01c.32.16.64.32.95.48,1.48.75,2.89,1.5,4.23,2.25h0c.38.22.75.43,1.11.64.03.01.05.02.07.04,1.22.7,2.38,1.4,3.46,2.08,1.32.82,2.53,1.61,3.63,2.37h0c.06.04.11.08.16.11.18.12.35.24.51.36.86.59,1.64,1.15,2.35,1.68,1.12.82,2.05,1.55,2.79,2.14.8.65,1.39,1.15,1.74,1.45.27.24.4.36.4.36Z"/>
        <path class="st17" d="M32.3,124.6c-.36.3-.94.31-1.31.01.5.11.6-.8,1.1-.95-.23-.09-.09-.43.08-.61-.48.38-1.17.48-1.74.25.25-.06.56-.27.44-.49.15,0,.33,0,.44-.11s.03-.36-.13-.32c.39-.1.72-.41.83-.79.01-.03.02-.07.03-.1-.03.02-.06.04-.1.06-.4.24-.91.32-1.38.24-.2-.04-.4-.12-.54-.27-.13-.15-.17-.39-.04-.54.27.13.59.14.87.03-.01-.03-.02-.06-.02-.09h0c-.03-.18.02-.35.13-.48-.11-.03-.22-.05-.33-.08.33-.26.56-.64.64-1.04-.39.49-1.12.7-1.72.49-.01-.3.13-.6.37-.78-.1-.05-.2-.1-.29-.15.36-.05.66-.36.7-.72-.29.2-.67.26-1.01.15.14,0,.22-.22.1-.29.38-.19.67-.54.77-.94-.25.26-.62.42-.99.41-.1-.18-.25-.33-.44-.43.4-.1.73-.39.89-.76-.16.1-.33.2-.51.2-.18,0-.38-.12-.39-.3.15-.01.31-.02.46-.03.02-.15-.02-.31-.11-.42.2-.03.38-.18.43-.38-.16,0-.33,0-.49,0,.39-.14.71-.46.83-.85-.37.32-.87.49-1.36.46.12-.37.24-.74.35-1.1.29,0,.56-.2.66-.46-.29.07-.56-.16-.68-.43-.11-.26-.12-.56-.2-.84.1.01.18-.09.16-.17-.29-.34-.42-.76-.35-1.18-.14.55-.27,1.11-.4,1.66-.03.09-.05.18-.03.27,0,.08.05.15.05.23.01.32-.45.38-.76.34,0,.28.38.48.63.34.08.22-.16.48-.39.43.07.32.07.64,0,.96-.27.14-.66-.06-.69-.36-.13.29.05.61.26.86.21.24.45.49.48.8-.31.18-.75.04-.9-.28-.02.28.05.57.2.81-.17.24-.56.25-.82.1s-.43-.42-.58-.67c.01.33.2.65.48.83-.14.09-.3.15-.47.18.24.18.55.26.84.21-.34.26-.77.41-1.21.42l.02.02h.01c.13.12.3.2.47.24h.01c.32.08.67.03.94-.15,0,.21,0,.42.01.63v.32c-.41-.03-.81-.12-1.19-.27.31.28.65.53,1.02.73-.33.17-.74.12-1.08-.04-.34-.15-.63-.4-.91-.65,0,.5.38.97.87,1.09-.19.11-.43.14-.65.09.11.13.06.35-.09.43.19.24.48.41.79.46-.05.32-.4.54-.74.54-.3,0-.59-.12-.85-.27.03-.09.03-.19,0-.29-.33.15-.74.17-1.08.03.27-.09.49-.33.55-.6-.45.03-.91-.06-1.32-.25.11-.07.23-.15.35-.23-.12-.13-.23-.27-.35-.41.48-.09.79-.65.63-1.1-.43.43-1.19.51-1.7.17.67.08.69-1.1,1.31-1.35-.22-.07-.2-.34-.09-.57.03-.08.08-.16.13-.23-.07.07-.15.13-.23.18h-.01c-.57.41-1.31.54-1.98.34.31-.11.7-.41.51-.68.15,0,.33-.03.46-.11.04-.02.07-.05.1-.09.12-.16-.01-.47-.21-.4.55-.18.96-.69,1.02-1.25-.51.43-1.22.62-1.89.55-.26-.03-.53-.1-.72-.28s-.27-.49-.12-.7c.36.14.78.11,1.12-.06-.11-.24-.07-.53.08-.74-.14-.02-.29-.04-.43-.06.39-.38.65-.9.7-1.43-.34.53-.96.86-1.6.88-.17.02-.34,0-.5-.04-.02,0-.05,0-.07,0-.02-.18,0-.37.07-.55.06-.19.17-.37.32-.51-.11-.04-.21-.08-.32-.12-.02-.01-.05-.02-.07-.03.02-.01.05-.01.07-.02.2-.06.37-.18.5-.34.1-.11.17-.25.21-.39.03-.08.04-.17.04-.26-.21.17-.48.28-.75.32-.1.02-.21.02-.31.01h-.03c-.07,0-.14-.01-.2-.03.18,0,.26-.3.09-.38.47-.28.81-.77.89-1.31-.29.37-.75.61-1.23.65-.14-.23-.36-.41-.61-.51.49-.17.9-.58,1.05-1.08-.19.15-.39.29-.63.32-.2.02-.43-.08-.5-.25-.02-.03-.03-.06-.03-.1h.01c.19-.03.37-.06.57-.09.01-.2-.06-.39-.19-.54.26-.05.47-.27.51-.53-.21.02-.42.03-.63.04.49-.22.86-.68.97-1.19-.15.15-.31.28-.49.39-.36.21-.78.34-1.21.35.11-.49.22-.98.33-1.46.26-.04.51-.19.66-.4.06-.08.1-.17.13-.26-.36.12-.75-.15-.92-.48-.18-.33-.22-.72-.36-1.07.12,0,.22-.13.18-.24-.26-.26-.44-.56-.52-.89h0c-.06-.2-.08-.39-.07-.59-.03.19-.06.37-.08.56-.09.54-.17,1.09-.25,1.63-.01.11-.03.23,0,.35.02.1.08.19.09.3.05.4-.53.54-.94.51.01.07.03.14.08.2.15.24.53.35.77.17.13.28-.14.64-.45.61.13.4.17.82.12,1.23-.31.19-.77.03-.92-.29h0s-.02-.07-.03-.1c-.03.08-.04.17-.03.25h0c.02.32.24.61.47.84.3.29.65.58.71.98-.37.26-.96.14-1.19-.26,0,.37.13.73.36,1.03-.2.33-.7.39-1.06.22-.35-.17-.6-.49-.83-.81.06.43.33.82.72,1.02-.17.14-.37.24-.58.29.32.21.74.27,1.11.18-.39.35-.91.6-1.45.67-.02,0-.05,0-.07,0,.02.02.04.03.07.04.54.37,1.32.34,1.82-.07.04.41.08.83.12,1.24-.53,0-1.06-.07-1.57-.22.44.33.91.61,1.41.83-.41.25-.95.23-1.41.07s-.85-.45-1.24-.74c.03.43.29.83.66,1.07,0,0,.01,0,.01,0,.17.12.37.19.58.22-.24.17-.55.24-.84.2.16.15.12.45-.07.57.28.29.68.48,1.08.5-.03.42-.46.74-.89.79-.43.04-.86-.12-1.25-.31.22.29.58.48.95.49-.03.12-.06.24-.09.37.13-.04.28.12.23.25.15,0,.31,0,.46,0-.1.29-.46.43-.77.38-.31-.04-.58-.22-.84-.4-.21.23.06.67.37.59-.01.11-.02.21-.03.32.1.03.21.06.32.08-.3.22-.71.15-1.08.17-.37.03-.82.27-.76.62.06.16.26.25.41.19,0,.12-.01.25-.02.37.47.15,1.01.07,1.43-.2.15.35-.34.65-.73.64s-.85-.1-1.12.18c-.2-.12-.4-.24-.59-.36,0,.5.49.95,1,.92-.1.14-.24.24-.41.28.12.17.31.28.52.3-.15.11-.29.22-.44.33.29.23.71.29,1.05.15,0,.11.03.22.04.34-.47.25-1.1.2-1.52-.12.1.48.52.88,1.01.98-.12.18-.36.29-.58.25.29.25.66.44,1.04.54-.2.13-.45.19-.69.16h-.02c-.18,0-.36-.06-.51-.16h-.01c-.09-.06-.15-.11-.22-.18-.03.02-.05.05-.07.08h0c-.06.14.01.31.12.45.04.06.1.11.16.15.09.06.19.11.28.17-.1-.04-.2-.06-.3-.06-.29,0-.6.07-.84-.09.08-.02.16-.05.24-.08-.01-.05-.01-.11-.02-.16,0-.03-.01-.05-.01-.08.17.04.32-.14.32-.31,0-.06-.02-.12-.06-.16-.04.03-.08.07-.13.1-.15.11-.32.21-.5.25-.24.04-.53-.05-.61-.27.11,0,.23-.02.35-.03-.03-.06.01-.13.06-.17.03-.02.07-.04.11-.03-.03-.09-.06-.18-.09-.28.29-.02.56-.18.71-.41-.29.16-.61.3-.95.29-.33-.02-.68-.25-.72-.57.31-.04.61-.2.81-.44-.15-.08-.19-.3-.08-.43-.22.05-.46,0-.65-.11.5-.1.9-.56.91-1.05-.29.23-.58.47-.93.61-.34.15-.75.18-1.08,0,.37-.19.72-.43,1.04-.7-.38.13-.79.21-1.19.23,0-.32.02-.63.04-.95.42.3,1.06.28,1.45-.06-.44-.02-.86-.19-1.2-.46.29.06.61-.01.85-.18-.17-.03-.32-.1-.46-.2.29-.17.49-.49.51-.82-.16.26-.34.52-.61.66-.26.14-.65.12-.81-.13.16-.23.24-.52.23-.8-.16.31-.61.43-.91.25.03-.31.29-.55.5-.79.22-.23.41-.56.3-.85-.05.3-.44.49-.71.34-.06-.32-.05-.64.03-.95-.23.03-.46-.24-.37-.46.24.16.62-.03.64-.31-.32.03-.77-.05-.75-.36.01-.08.05-.15.06-.23.02-.09,0-.18-.02-.27-.11-.56-.23-1.12-.34-1.67.05.42-.1.83-.39,1.16-.03.09.05.19.15.18-.09.27-.11.57-.23.83s-.41.49-.69.41c.09.26.36.46.64.48.1.37.21.74.31,1.11-.49.01-.98-.17-1.34-.5.11.39.41.72.8.87h-.49c.04.2.22.36.42.39-.1.11-.14.27-.12.41.15.02.3.03.45.05-.01.18-.22.3-.4.29s-.35-.11-.5-.21c.14.37.47.67.86.78-.19.09-.35.24-.45.42-.37,0-.73-.18-.98-.45.09.41.37.77.74.97-.12.07-.05.29.09.29-.34.1-.73.03-1.01-.18.03.36.33.68.68.74-.09.05-.19.09-.29.14.23.19.36.5.34.79-.61.2-1.33-.04-1.7-.55.06.4.27.78.58,1.05l.02.02c-.11.02-.22.05-.33.07.13.15.16.38.09.57.27.12.6.12.87-.01.12.16.08.41-.06.55-.14.15-.35.21-.55.24-.51.09-1.06-.03-1.47-.34.03.19.11.36.23.51.15.18.34.33.56.4-.12,0-.19.22-.1.33.11.11.28.12.44.12-.13.22.18.43.42.51-.57.2-1.26.08-1.73-.31.16.18.29.52.06.61.49.17.56,1.08,1.07.99-.38.28-.96.25-1.31-.06-.11.35.16.76.53.82-.09.11-.17.22-.25.33.09.05.18.1.28.16-.29.15-.61.23-.94.24.09.13.17.26.24.38,0,0,.01,0,.01.01.05.02.08.04.13.05-.03,0-.05.02-.08.03l.1.15c.48.72.98,1.32,1.53,1.83.11.1.22.2.34.3,2.04,1.71,4.56,2.14,7.65,2.29,2.52.11,5.05.2,7.58.26h.03c1.06.03,2.11.05,3.17.05h.01c.14.01.26.01.4.01.27.01.53.01.8.01,1.65.02,3.1-.14,4.36-.55t.02-.01h.02c.65-.19,1.26-.46,1.83-.79.88-.51,1.67-1.17,2.4-2.03.42-.48.82-1.01,1.2-1.61.05-.07.09-.14.14-.22l.09-.15c-.09-.03-.19-.06-.27-.11.09-.05.19-.1.28-.16l-.24-.33c.25-.02.46-.22.54-.45.04-.11.05-.23.02-.35ZM10.18,123.33s0-.05,0-.07l.03.06s-.02,0-.03.01ZM22.42,121.78c.33-.02.66-.04.95-.19.17-.1.32-.27.39-.45.15.19.38.31.62.34-.03.09-.07.19-.1.28.11-.02.21.11.16.21l.36.03c-.1.22-.39.3-.62.25-.24-.06-.43-.21-.62-.37-.18.17,0,.52.24.48-.01.08-.03.16-.04.24l.24.09c-.25.15-.56.07-.84.06-.29,0-.65.15-.62.42,0,.02.01.04.02.06-.23-.08-.43-.22-.51-.44.37-.01.7-.31.73-.67-.12-.11-.24-.22-.36-.34ZM9.67,123.84s.07.11.11.17c-.14.07-.3.11-.45.13-.29,0-.62-.2-.53-.46.26.15.58.2.87.16Z"/>
        <path class="st57" d="M47.06,142.69l-.79.31-1.12.44-1.37.55-3.41,1.34-.33.13-3.69,1.46-11.4,4.49L0,161.26v-41.5c.73.15,1.46.31,2.17.48,2.14.5,4.21,1.05,6.21,1.65.24.08.47.15.7.22.07.02.13.04.19.06.02,0,.04.01.05.01h0c.1.03.2.06.29.09h.01c.17.06.34.11.51.17h.02c.56.18,1.12.37,1.67.56h.02c4.41,1.49,8.47,3.17,12.14,4.92.36.17.71.34,1.06.5,1.07.53,2.1,1.06,3.1,1.59.23.11.45.23.66.35.2.1.4.2.59.31.61.33,1.2.66,1.78.99.07.04.14.08.21.12.33.18.66.37.98.56,1.41.82,2.72,1.62,3.94,2.4h.01c.55.35,1.06.69,1.57,1.02,2.85,1.89,5.08,3.57,6.63,4.79.72.58,1.29,1.05,1.71,1.4,0,0,0,.01.02.01.54.48.82.73.82.73Z"/>
        <path class="st56" d="M86.49,111.39v47.9c-.08-.03-.16-.06-.24-.08-.21-.06-.41-.13-.61-.2-5.31-1.68-10.78-3.14-15.77-5.52-3.12-1.48-6.04-3.31-8.96-5.14h0c-3.19-2-6.37-3.99-9.8-5.52-2.14-.95-4.34-1.7-6.59-2.28-.59-.16-1.19-.3-1.79-.43-.76-.17-1.53-.32-2.3-.44h-.01c-1.17-.21-2.36-.38-3.55-.5-2.11-.22-4.24-.32-6.37-.33h-.45c-2.92.01-5.85.2-8.74.52-1.06.12-2.29.19-3.46.08h-.01c-2.17-.2-4.18-1.01-4.79-3.24,1.24-.18,2.37-.7,3.44-1.41h.01c1.09-.72,2.11-1.62,3.12-2.51.11-.09.22-.19.33-.29.02-.02.04-.04.07-.06h.01c.23-.21.45-.4.68-.6h.01c.1-.09.2-.17.3-.26h.01s.04-.04.06-.05c.55-.46,1.11-.88,1.68-1.25.75-.48,1.51-.93,2.28-1.36.29-.17.59-.33.89-.49h0c1.29-.7,2.6-1.33,3.94-1.93.79-.36,1.6-.71,2.4-1.05.86-.36,1.73-.71,2.59-1.05.2-.08.4-.16.6-.23,5.27-2.07,10.64-3.9,16.08-5.49.92-.27,1.85-.53,2.78-.79,1.51-.42,3.03-.82,4.56-1.19.63-.17,1.27-.32,1.9-.47.13-.03.26-.07.39-.09,0,0,0,0,.02,0h0c4.22-1,8.47-1.86,12.74-2.57.8-.14,1.61-.26,2.41-.39.04,0,.08,0,.11-.02.31-.04.62-.09.93-.13.42-.07.83-.13,1.24-.19,1.02-.14,2.03-.27,3.05-.4,1.6-.2,3.2-.38,4.8-.54Z"/>
        <path class="st22" d="M84.7,118.76c-.38.33-1,.33-1.4.02.39.09.56-.4.82-.74.1-.12.21-.23.35-.27-.24-.1-.09-.46.09-.65-.51.4-1.24.51-1.85.27.26-.07.6-.29.47-.52.16,0,.35,0,.47-.12.11-.12.03-.38-.14-.34.46-.11.83-.5.92-.95-.45.31-1.04.42-1.58.32-.21-.04-.43-.12-.57-.28s-.18-.42-.05-.58c.29.13.63.15.93.03-.07-.2-.03-.44.12-.6-.12-.03-.24-.06-.35-.08.35-.28.59-.69.67-1.12-.41.53-1.18.75-1.82.53-.02-.32.13-.64.39-.84-.11-.05-.21-.1-.31-.15.38-.06.71-.39.75-.76-.32.21-.74.26-1.1.15.09.02.17-.07.18-.15.02-.06,0-.13-.05-.16.4-.19.71-.57.81-1-.26.28-.65.45-1.05.44-.1-.19-.26-.36-.46-.46.42-.1.78-.41.94-.8-.17.1-.34.21-.54.21-.04,0-.08,0-.12,0h-.01c-.15-.05-.28-.16-.28-.31.16,0,.32-.03.48-.04.03-.15,0-.32-.11-.44.21-.03.4-.19.46-.4-.18,0-.35,0-.52,0,.41-.15.75-.5.88-.91-.4.34-.93.52-1.45.49.13-.39.25-.78.38-1.17.3-.01.58-.21.69-.49-.3.08-.59-.17-.72-.45-.12-.28-.12-.6-.21-.89.1,0,.19-.1.17-.19-.3-.36-.45-.81-.38-1.25-.14.59-.28,1.17-.42,1.76-.02.1-.05.19-.03.29,0,.08.05.16.05.25,0,.33-.47.4-.81.35.01.3.41.52.68.36.08.24-.17.51-.42.47.07.33.08.68,0,1.01-.29.15-.7-.06-.74-.38-.13.31.06.65.28.91s.49.52.51.86c-.32.18-.8.04-.96-.3-.02.3.06.61.22.86-.18.26-.59.27-.87.11s-.46-.45-.62-.72c0,.35.21.69.51.88-.15.1-.32.17-.5.2.16.12.36.2.57.22h.01c.11.02.21.02.32,0-.37.28-.83.44-1.29.45.41.37,1.08.42,1.54.11,0,.19,0,.36,0,.55v.47c-.42-.04-.85-.14-1.24-.28.32.3.68.55,1.06.76-.35.18-.79.13-1.15-.04-.31-.14-.58-.35-.84-.59-.04-.03-.08-.06-.12-.1,0,.04,0,.08,0,.12.04.48.43.92.91,1.03-.2.12-.46.16-.69.1.11.14.06.38-.1.46.2.26.51.44.84.49-.05.34-.43.57-.78.58-.32,0-.63-.13-.91-.29.03-.1.04-.21,0-.31-.36.16-.79.18-1.16.03.29-.1.52-.35.59-.64-.48.03-.97-.06-1.41-.26.13-.08.25-.16.38-.25-.13-.14-.25-.28-.37-.43.1-.02.2-.06.28-.12.34-.22.52-.67.38-1.05-.46.46-1.26.54-1.8.18.44.06.61-.4.83-.82.15-.26.31-.52.56-.62-.32-.1-.17-.58.04-.85-.61.58-1.55.8-2.36.55.33-.12.74-.43.54-.72.22,0,.46-.04.6-.21.13-.17-.01-.5-.22-.43.58-.19,1.02-.73,1.08-1.33-.55.46-1.29.67-2.01.59-.28-.03-.57-.1-.77-.29s-.28-.53-.13-.75c.39.14.84.12,1.2-.06-.11-.26-.08-.57.09-.8-.16-.02-.31-.04-.46-.06.41-.4.68-.95.74-1.52-.47.73-1.45,1.11-2.3.89-.06-.41.1-.84.41-1.13-.14-.05-.28-.11-.42-.16.49-.12.87-.58.88-1.07-.37.31-.91.43-1.38.32.2,0,.28-.32.11-.41.49-.3.85-.82.94-1.39-.32.4-.8.65-1.31.69-.15-.24-.39-.43-.65-.55.52-.18.95-.61,1.12-1.14-.2.15-.42.31-.67.34-.25.02-.55-.13-.57-.38.2-.03.41-.06.62-.09,0-.21-.06-.42-.2-.57.27-.06.5-.29.54-.56-.22,0-.44.02-.67.04.52-.24.91-.72,1.03-1.27-.46.48-1.13.77-1.81.79.12-.52.23-1.04.35-1.56.39-.04.74-.33.85-.7-.25.08-.51,0-.71-.18-.11-.09-.21-.21-.28-.33-.19-.35-.23-.76-.37-1.13.12,0,.23-.14.19-.26-.44-.44-.68-.99-.63-1.58-.12.78-.23,1.56-.35,2.33-.02.13-.03.25,0,.38.02.1.08.2.1.31.05.43-.57.58-1.01.55.03.19.17.34.34.42.19.08.41.09.57-.03.13.3-.15.68-.48.65.13.42.18.87.12,1.31-.36.22-.91,0-1-.41-.14.41.15.84.47,1.15.31.31.68.62.75,1.05-.4.27-1.03.14-1.27-.28.01.39.14.78.38,1.09-.21.36-.74.42-1.12.24-.37-.18-.63-.53-.88-.86.06.45.35.87.76,1.08-.18.15-.39.25-.61.31.34.22.78.29,1.18.19-.44.4-1.02.66-1.62.72.57.44,1.45.43,2.01-.03.04.44.09.88.13,1.32-.56,0-1.13-.08-1.67-.24.46.36.97.65,1.5.89-.44.26-1.01.25-1.5.08-.49-.18-.91-.49-1.32-.79.05.68.63,1.29,1.32,1.38-.25.18-.57.26-.88.21.16.16.12.48-.08.6.3.32.72.51,1.15.53,0,.13-.05.25-.12.35-.16.28-.5.46-.83.49-.46.05-.91-.12-1.33-.32.23.31.62.51,1.01.52-.03.13-.06.26-.1.39.15-.04.31.13.26.27h.48c-.1.32-.49.46-.82.42-.33-.05-.62-.24-.89-.43-.23.24.07.71.39.62,0,.12-.02.23-.03.34.11.03.23.06.34.1-.32.22-.76.15-1.15.17-.39.03-.86.28-.8.66.06.17.27.27.44.2l-.03.39c.5.16,1.08.08,1.52-.21.16.38-.36.69-.78.68-.41,0-.9-.1-1.18.2-.21-.13-.43-.26-.64-.39,0,.54.53,1.01,1.07.98-.1.15-.26.26-.43.3.12.17.33.29.54.32-.15.11-.31.23-.46.35.31.24.75.31,1.12.16,0,.12.02.24.04.35-.51.27-1.17.22-1.62-.12.11.51.55.94,1.07,1.04-.05.07-.11.13-.18.17h0s-.01,0-.02,0c-.12.08-.26.11-.39.09.31.27.69.47,1.09.57-.46.31-1.16.23-1.53-.19-.23.19-.03.56.22.72.09.06.19.12.29.18-.1-.04-.21-.06-.31-.06-.31,0-.64.07-.89-.09.08-.03.17-.06.25-.09,0-.08-.02-.17-.04-.26.26.06.46-.31.28-.49-.21.15-.42.31-.67.36-.21.04-.46-.02-.59-.18-.03-.03-.05-.06-.06-.1.12,0,.25-.02.37-.03-.04-.1.07-.23.19-.21-.03-.1-.07-.2-.1-.3.31-.02.59-.19.76-.44-.31.17-.65.32-1.01.31-.36-.02-.73-.26-.77-.61.33-.04.65-.2.86-.46-.16-.09-.2-.33-.08-.46-.23.05-.49,0-.69-.12.53-.1.95-.59.96-1.12-.3.25-.62.51-.98.66-.37.15-.81.19-1.16,0,.4-.2.78-.45,1.12-.74-.41.14-.84.23-1.28.25.02-.34.03-.68.05-1.02.44.33,1.12.3,1.54-.06-.46-.02-.92-.2-1.27-.49.31.06.64,0,.9-.19-.18-.03-.35-.11-.49-.21.31-.18.52-.52.54-.87-.17.27-.36.55-.64.7-.29.15-.7.13-.87-.14.17-.25.26-.55.24-.85-.16.33-.64.46-.96.27.03-.34.31-.59.53-.84.23-.25.44-.59.31-.91-.04.32-.46.52-.75.36-.06-.33-.05-.68.04-1.01-.25.04-.49-.25-.4-.48.26.17.67-.04.69-.34-.34.04-.82-.05-.8-.38,0-.08.05-.16.06-.25.02-.09,0-.19-.02-.28-.12-.59-.24-1.19-.37-1.78.06.45-.1.89-.41,1.24-.03.09.06.2.16.19-.1.29-.11.61-.24.88-.13.28-.44.52-.74.44.1.28.38.48.68.5.11.4.22.79.34,1.18-.53.02-1.05-.18-1.43-.53.12.42.44.78.85.94-.17,0-.35-.01-.52-.01.04.21.23.38.44.41-.1.13-.15.29-.13.45.16,0,.32.03.48.05,0,.19-.22.32-.42.31-.19-.02-.37-.13-.53-.23.15.39.5.71.91.83-.2.1-.37.25-.48.45-.39,0-.77-.19-1.03-.48.09.43.39.82.78,1.03-.13.07-.05.31.1.31-.36.1-.77.03-1.07-.19.02.38.34.72.72.79-.11.04-.21.09-.31.14.24.21.38.53.36.85-.65.2-1.42-.05-1.81-.59.07.44.3.85.64,1.14-.12.02-.24.04-.35.07.13.16.17.4.09.6.29.13.64.13.93,0,.13.17.08.43-.07.58-.14.16-.36.23-.58.26-.54.09-1.13-.04-1.56-.37.07.44.41.82.84.97-.08,0-.14.08-.15.16,0,.07,0,.14.04.19.11.12.3.13.47.13-.14.23.19.46.45.54-.62.22-1.35.09-1.84-.33.17.19.31.56.06.65.24.08.39.34.53.57.16.28.32.53.61.48-.41.3-1.03.27-1.4-.06-.11.37.17.81.56.87-.08.11-.17.23-.26.35.1.05.2.11.3.17-.31.16-.65.24-1,.25.09.15.18.28.26.41.05.03.09.05.14.06-.02.02-.05.02-.08.03l.1.17c.63.95,1.31,1.7,2.04,2.3.03.03.06.05.09.07,2.15,1.73,4.78,2.17,7.99,2.32,4.25.2,8.5.32,12.75.36,4.11.04,6.97-.95,9.3-3.74.4-.47.78-.99,1.15-1.56.09-.14.17-.27.25-.4-.1-.04-.2-.07-.29-.12.1-.05.2-.11.3-.17-.08-.11-.17-.23-.25-.35.27-.03.5-.25.58-.51.03-.11.04-.23.01-.35ZM74.2,115.77c.34-.02.7-.04,1-.21.19-.1.35-.27.42-.47.16.2.4.34.66.37-.04.09-.07.19-.11.29.12-.02.23.11.18.22.12,0,.25.02.37.04-.1.23-.41.32-.66.26s-.45-.23-.65-.39c-.19.17,0,.55.26.51-.02.08-.04.17-.05.26.08.03.17.06.25.09-.26.15-.59.07-.89.06s-.68.16-.66.45c0,.02.02.04.03.06-.25-.08-.46-.23-.54-.47.38,0,.74-.33.77-.71-.13-.12-.25-.24-.38-.36ZM61.21,117.4s0,0-.02,0c0-.02,0-.04,0-.06,0,.02.03.03.03.05ZM60.64,117.96l.12.18c-.16.07-.32.12-.48.14-.31,0-.66-.21-.56-.48.28.15.61.21.92.16Z"/>
        <path class="st15" d="M86.49,119.03v47.24c-.33-.14-.66-.28-1-.42-.94-.39-1.89-.78-2.83-1.17-.02,0-.04-.01-.06-.02-.04-.02-.09-.04-.13-.05-.71-.29-1.42-.59-2.13-.89-.14-.06-.29-.12-.44-.18-2.95-1.25-5.86-2.58-8.6-4.2-1.84-1.1-3.6-2.32-5.33-3.59-3.08-2.28-6.06-4.7-9.24-6.81-1.02-.68-2.07-1.33-3.15-1.93-.04-.02-.08-.04-.12-.06,0-.01,0-.01,0-.01-.75-.42-1.52-.81-2.3-1.17-1.94-.93-3.95-1.7-6-2.33-1-.31-2.01-.59-3.04-.83h0c-1.54-.38-3.11-.69-4.69-.93-.07-.02-.14-.03-.22-.03-1.41-.23-2.84-.39-4.27-.52-2.64-.23-5.29-.31-7.93-.28-.26,0-.51.01-.77.01-2.07.04-4.71-.15-6.38-1.41h-.01c-.78-.56-1.35-1.37-1.55-2.49,2.51-.13,4.68-1.69,6.82-3.24.22-.16.44-.32.66-.48.08-.06.16-.12.23-.17.61-.44,1.22-.86,1.84-1.23h.01c.24-.14.47-.28.71-.4.47-.25.95-.48,1.43-.71.27-.13.54-.25.82-.37,1.94-.88,3.94-1.63,5.97-2.31,0,0,0,0,.02,0,.45-.16.89-.3,1.34-.45h.01c.96-.3,1.92-.59,2.88-.87,0,0,.03,0,.04-.02.03,0,.05,0,.08-.02.21-.06.43-.12.64-.18.97-.29,1.95-.56,2.92-.83.35-.1.7-.19,1.05-.28.02-.01.04-.01.06-.01,2.99-.8,5.99-1.53,9.01-2.18.46-.09.92-.19,1.38-.28.03-.01.07-.02.1-.03,3.66-.75,7.33-1.4,11.03-1.94h.02c6.41-.95,12.87-1.56,19.34-1.85.6-.03,1.2-.06,1.8-.08Z"/>
        <path class="st21" d="M86.49,131.78v35.3l-1.01-.63-2.82-1.75-.06-.04-.13-.08-2.16-1.35-.39-.24-14.95-9.3-1.3-.81-6.94-3.94-2.86-1.62s0-.02-.02-.02l-2.7-1.53-4.88-2.77-5.85-3.32h-.01s-4.36-2.49-4.36-2.49c-.01,0-.01-.01-.02-.01l-.71-.4h-.01l-8.74-4.97-.05-.03h59.97Z"/>
        <path class="st55" d="M70.08,134.62c5.47-.17,10.94-.28,16.41-.36v.72c-5.47-.08-10.94-.19-16.41-.36Z"/>
        <path class="st55" d="M81.38,137.38c1.7-.05,3.41-.1,5.11-.14v.28c-1.7-.04-3.41-.09-5.11-.14Z"/>
        <path class="st19" d="M21.11,131.35c0,.29-.03.56-.09.82,0,.01-.01.02-.01.04-.01.01-.01.03-.02.05-.02.08-.05.16-.08.24-.64,1.58-2.65,2.42-4.38,2.3h-.05c-1-.07-1.95-.42-2.95-.52-1.73-.18-3.43.41-5.06.99-1.9.67-5.58,2.64-8.47,3.33v-12c.08-.08.16-.15.25-.22.13-.11.28-.21.44-.29.84-.42,1.89-.37,2.69.13.01-.59.32-1.15.66-1.64.37-.51.81-.99,1.37-1.25.99-.46,2.24-.14,3.05.59.13.12.26.25.35.39.6.7.92,1.62,1.03,2.53.32-.53.79-.96,1.32-1.25.38-.19.79-.33,1.21-.29.62.06,1.15.5,1.47,1.04.31.5.45,1.07.59,1.63,0,.04.02.07.03.11.03-.04.06-.08.09-.11.65-.77,1.75-1.09,2.75-.92.68.12,1.31.44,1.85.87.29.22.56.48.8.76.14.16.27.33.38.5.38.54.65,1.15.74,1.79,0,.02,0,.04.01.06v.04c.01.09.02.19.03.28Z"/>
        <path class="st9" d="M8.81,124.31c.01.17-.01.35-.05.53-.31,1.23-1.9,2.04-2.96,1.35.34.63.31,1.42-.02,2.05-.15.3-.37.57-.66.77-.87.6-2.18.45-2.88-.35.01.03.02.05.03.08.18.54.36,1.09.29,1.65-.06.58-.48,1.18-1.07,1.25-.59.07-1.09-.41-1.49-.86v-4.18c.08-.08.16-.15.25-.22.13-.11.28-.21.44-.29.84-.42,1.89-.37,2.69.13.01-.59.32-1.15.66-1.64.37-.51.81-.99,1.37-1.25.99-.46,2.24-.14,3.05.59.13.12.26.25.35.39Z"/>
        <path class="st58" d="M50.22,129.95c-.07-.13-.14-.25-.22-.37-.4-.59-.98-1.09-1.66-1.28-.69-.19-1.49-.04-1.98.49-.06-.42-.11-.84-.29-1.22-.18-.38-.5-.71-.91-.8-.28-.06-.57,0-.83.11-.38.16-.73.42-.98.74-.02-.74-.22-1.5-.72-2.06-.49-.55-1.31-.85-2.01-.62-.4.13-.73.42-1.01.74-.27.3-.51.66-.56,1.06-.5-.39-1.21-.5-1.8-.28-.49.18-.83.56-1.06,1.02-.06.12-.53,1.21-.39,1.22-1.09-.08-2.22.34-2.87,1.2-.22.29-.39.62-.49.96h.05c-.49,1.39.12,3.24,1.57,3.83,1.75.72,5.94-1.09,7.75-1.52,1.14-.27,2.33-.54,3.47-.3.67.14,1.3.45,1.98.57,1.48.25,3.39-.51,3.32-2.24-.02-.44-.16-.87-.37-1.26Z"/>
        <path class="st18" d="M86.49,141.22v42.57H0v-48.37c6.22-1.45,12.78-2.51,19.61-3.13.25-.03.51-.05.76-.07.14-.02.27-.03.4-.03.05-.01.09-.02.13-.01h.01s.07-.02.11-.01c1.59-.14,3.19-.25,4.81-.33h.01c.25-.01.48-.02.73-.03.19-.02.38-.02.57-.03,1.33-.06,2.68-.1,4.03-.12.39-.01.77-.02,1.16-.02.57,0,1.14,0,1.71,0,2.32,0,4.63.05,6.9.15,2.04.09,4.06.21,6.06.38,1.08.08,2.15.18,3.22.29h0c13.36,1.38,25.67,4.44,36.26,8.77Z"/>
        <path class="st16" d="M60.64,160.1c.3,9.37-8.08,17.75-10.32,22.46-.07.14-.13.28-.18.42-.03.07-.05.13-.07.2-.04.12-.08.24-.1.35-.02.09-.04.17-.05.26H0v-15.38c.22-.1.44-.2.66-.29.09-.04.18-.09.28-.13,1.37-.6,2.75-1.18,4.13-1.75.18-.07.37-.15.56-.22,1.14-.46,2.28-.91,3.41-1.35.07-.04.15-.06.22-.09,3.35-1.31,6.65-2.53,9.74-3.74.05-.02.1-.04.14-.06,4.84-1.89,9.18-3.74,12.46-5.76,4.15-2.55,5.31-5.35,4.75-8.1-.4-2-1.71-3.97-3.43-5.79-.74-.79-1.57-1.56-2.43-2.28-.04-.04-.09-.08-.14-.12-2.43-2.04-5.15-3.78-7.25-5.01-.85-.5-1.6-.91-2.19-1.22-.2-.11-.38-.2-.54-.28-.17-.09-.31-.17-.43-.22-.16-.09-.27-.14-.33-.17,0,0-.02,0-.02,0h.06c.08.03.17.06.24.08.04.01.09.02.13.03.02.01.03.01.04.02.28.07.56.15.84.23h.01s.07.02.1.03c1.02.28,2.01.57,2.98.86,1.03.31,2.04.62,3.03.93.49.16.97.31,1.45.47.48.15.95.31,1.41.47.93.31,1.83.62,2.71.94.44.16.87.32,1.3.48.43.16.85.32,1.26.48.3.11.59.23.88.34.01,0,.01.01.02.01l.9.36c.6.24,1.18.48,1.75.73.05.02.09.04.14.06.34.15.68.29,1.01.44,1,.45,1.96.89,2.87,1.34,1.24.61,2.4,1.22,3.5,1.83,0,0,0,.01.02.01.24.14.47.28.71.42.26.15.51.3.76.45.5.3.98.61,1.45.91.23.15.45.29.67.45,1.35.91,2.55,1.83,3.62,2.75,0,0,0,0,0,.01.13.11.26.23.39.35,0,0,.02,0,.02.02.31.28.61.56.9.84.29.28.56.56.83.84.52.56,1,1.12,1.44,1.68.22.28.42.56.62.84.39.56.74,1.12,1.05,1.67.3.56.57,1.11.8,1.67s.42,1.11.57,1.66c.08.28.15.55.21.83.06.27.12.54.16.82.05.27.08.54.11.81.02.19.04.38.05.57,0,.05,0,.1,0,.16.01.13.02.26.02.39Z"/>
        <path class="st24" d="M38.74,124.88s-.02-.01-.02-.01h.06s-.02,0-.04.01Z"/>
        <g class="st45">
          <path class="st36" d="M20.02,131.93s.03.01.04.02c-.02,0-.03,0-.05,0-.04-.02-.08-.03-.12-.04.04.01.09.02.13.03Z"/>
        </g>
        <g class="st47">
          <path class="st31" d="M60.64,160.1c.3,9.37-8.08,17.75-10.32,22.46-.07.14-.13.28-.18.42-.03.07-.05.13-.07.2-.04.12-.08.24-.1.35-.03.09-.05.17-.05.26H16.87c.87-2.02,2.15-3.93,3.89-5.65.46-.46.93-.9,1.41-1.31h0c.99-.89,2.01-1.69,3.03-2.42,9.36-6.75,19.32-8.01,23.08-19.39,1.34-4.04-.84-7.79-4.5-11.03-.53-.48-1.09-.94-1.67-1.38h0c-1.6-1.24-3.39-2.38-5.24-3.43-1.07-.61-2.16-1.19-3.25-1.73-3.63-1.81-7.21-3.24-9.85-4.21-1.12-.41-2.06-.74-2.77-.98-.08-.03-.15-.05-.22-.07-.29-.1-.53-.18-.71-.24.28.07.56.15.84.23h.01s.07.02.1.03c1.02.28,2.01.57,2.98.86,1.03.31,2.04.62,3.03.93.49.16.97.31,1.45.47.48.15.95.31,1.41.47.93.31,1.83.62,2.71.94.44.16.87.32,1.3.48.43.16.85.32,1.26.48.3.11.59.23.88.34.01,0,.01.01.02.01l.9.36c.6.24,1.18.49,1.75.73.05.02.09.04.14.06.34.15.68.29,1.01.44,1,.45,1.96.89,2.87,1.34,1.24.61,2.4,1.22,3.5,1.83,0,0,0,.01.02.01.24.14.47.28.71.42.26.15.51.3.76.45.5.3.98.61,1.45.91.23.15.45.29.67.45,1.35.91,2.55,1.83,3.62,2.75,0,0,0,0,0,.01.13.11.26.23.39.35,0,0,.02,0,.02.02.31.28.61.56.9.84.29.28.56.56.83.84.53.56,1.01,1.12,1.44,1.68.22.28.42.56.62.84.39.56.74,1.12,1.05,1.67.3.56.57,1.11.8,1.67s.42,1.11.57,1.66c.08.28.15.55.21.83.06.27.12.54.16.82.05.27.08.54.11.81.02.19.04.38.05.57,0,.05,0,.1,0,.16.01.13.02.26.02.39Z"/>
        </g>
        <path class="st59" d="M41.42,153.19c-.03.52-.25,1-.37,1.51-.16.49-.25,1.01-.51,1.47-.76,1.95-2.1,3.61-3.54,5.1-3.02,2.87-6.72,4.83-10.41,6.5-.61.28-1.23.55-1.84.82-.25.11-.51.22-.76.33-.21.08-.42.17-.63.27-.26.1-.52.21-.78.33-.35.14-.69.29-1.03.43-.2.09-.4.17-.6.26-.28.11-.56.23-.83.35-.38.16-.76.33-1.13.5-.29.12-.58.25-.86.37-.07.04-.14.07-.21.1-.26.12-.51.24-.76.36-.29.13-.57.27-.85.41-.24.11-.48.23-.71.35-.09.05-.19.1-.28.15-.25.13-.5.27-.75.41-.3.17-.6.34-.89.51-.11.06-.22.13-.32.2-.62.36-1.24.75-1.84,1.17-.1.05-.2.12-.29.19-.53.36-1.06.73-1.57,1.12-.01,0-.03,0-.04.03-.44.32-.88.66-1.3,1-.05.05-.1.09-.15.13-2.31,1.87-4.42,3.96-6.29,6.23H0v-2.85c.16-.18.33-.35.49-.52l.21-.21c.34-.34.68-.67,1.03-1,.12-.12.24-.24.37-.34.51-.49,1.03-.95,1.56-1.39.05-.06.11-.11.17-.15.31-.27.62-.53.95-.78.1-.09.21-.17.31-.26.46-.36.93-.71,1.41-1.05.14-.12.28-.22.43-.31.31-.24.63-.46.95-.67.21-.14.42-.29.64-.43.33-.21.66-.42,1-.63l.39-.24c.36-.22.72-.43,1.09-.64,1.15-.66,2.34-1.27,3.54-1.83.01,0,.01-.01.02-.01.19-.09.39-.17.58-.25.44-.2.89-.38,1.33-.56.14-.06.29-.12.43-.18.7-.28,1.39-.55,2.09-.81.3-.12.61-.23.92-.35.38-.13.75-.27,1.13-.41.11-.04.21-.08.32-.12.45-.16.89-.32,1.34-.48.2-.08.4-.15.6-.22.28-.11.56-.22.84-.32h.01c.15-.06.3-.12.45-.17.43-.17.86-.33,1.28-.5,3.71-1.46,7.33-3.17,10.3-5.72.37-.32.69-.69,1.04-1.03l.51-.52c.16-.19.3-.39.44-.58.29-.39.6-.77.86-1.18l.69-1.28c.26-.42.37-.9.54-1.36.13-.46.38-.91.42-1.4.15-.96.4-1.93.37-2.92,0-1.58-.34-3.19-1.01-4.66-.64-1.46-1.61-2.79-2.85-3.81-.59-.49-1.24-.9-1.95-1.23.79.31,1.51.74,2.17,1.26,1.24.95,2.25,2.22,2.96,3.65.76,1.48,1.2,3.13,1.28,4.78.08,1.04-.12,2.05-.23,3.08Z"/>
        <g class="st50">
          <path class="st33" d="M24.95,151.41c-.07.14-.14.27-.22.4-1.66,2.68-5.07,3.57-8.13,4.35-5.66,1.45-11.21,3.29-16.6,5.52v-21.22c3.77-.75,7.58-1.2,11.42-1.22,3.74-.01,7.68.47,10.68,2.71l.03.03c2.85,2.14,4.42,6.3,2.82,9.43Z"/>
        </g>
        <g class="st53">
          <path class="st32" d="M13.37,145.44c.01,2.39-4.43,4.18-6.05,4.68-2.44.75-4.88,1.52-7.32,2.29v-7.8c1.41-.26,2.82-.49,4.24-.69,1.86-.26,8.39-1.81,9.08,1.08.04.15.05.29.05.44Z"/>
        </g>
        <g class="st61">
          <path class="st34" d="M86.49,147.96v34.62c-.59.42-1.2.83-1.83,1.21h-20.85c-.36-.43-.68-.87-.95-1.3-.28-.43-.52-.87-.71-1.31-.31-.68-.53-1.36-.67-2.04-.72-3.5.59-7.07,2.25-10.71l.24-.51c.34-.75.7-1.5,1.05-2.25,1.7-3.62,2.57-6.07.98-9.86l-.03-.06s-.03-.07-.04-.11c-.28-.67-.61-1.32-.96-1.95-1.09-1.97-2.46-3.76-4.06-5.34h0c-.64-.65-1.32-1.26-2.02-1.82-2.31-1.85-4.96-3.33-6.85-5.61-.29-.35-.57-.73-.64-1.18-.2-1.34,1.44-2.15,2.78-2.37,8.98-1.53,17.22,3.56,25.12,7.05,2.39,1.06,4.87,2.2,7.2,3.54Z"/>
        </g>
        <g class="st66">
          <path class="st35" d="M86.49,69.36v9.64h-11.62c.31-2.65,2.53-4.7,5.25-4.7.55,0,1.08.1,1.58.26.04-2.72,2.12-4.95,4.79-5.2Z"/>
        </g>
        <g class="st62">
          <path class="st30" d="M77.38,48.03c0-.05.02-.1.02-.16,0-1.61-1.31-2.92-2.92-2.92-.53,0-1.02.15-1.45.4-.23-1.13-1.22-1.99-2.42-1.99-.91,0-1.7.5-2.13,1.23-.45-.64-1.19-1.07-2.03-1.07-1.35,0-2.45,1.09-2.47,2.43-.23-.07-.48-.12-.73-.12-1.27,0-2.3.96-2.44,2.19h16.58Z"/>
        </g>
        <g class="st64">
          <path class="st29" d="M43.22,38.08c0-.11.03-.22.03-.34,0-3.42-2.34-6.19-5.23-6.19-.95,0-1.83.32-2.6.85-.4-2.41-2.2-4.22-4.35-4.22-1.63,0-3.04,1.06-3.81,2.61-.8-1.37-2.13-2.27-3.65-2.27-2.43,0-4.39,2.31-4.43,5.17-.42-.15-.85-.26-1.32-.26-2.28,0-4.13,2.04-4.39,4.65h29.74Z"/>
        </g>
        <path class="st39" d="M11.35,176.8l-.84,6.99H0v-6.83l.49,3.46.23,1.58s-.01-.69-.02-1.79c-.02-3.02-.07-9.09-.04-12.09.01-.9.03-1.53.06-1.72.03-.23.11.43.22,1.59.22,2.67.57,7.96.79,11.22.1,1.66.17,2.79.17,2.79l.2-3.13.64-10.19.92,8.8.11,1.1.06-1.25.24-5.2.71,4.42.33,2.03s0-.9-.02-2.29c-.01-2.58-.02-6.84-.02-10.05,0-2.06.01-3.69.04-4.16.03-.56.25,1.3.52,3.94.28,2.83.62,6.56.87,9.22.17,1.96.29,3.34.29,3.34l.14-3.65.3-7.93.65,7.26.29,3.3.09,1.02.06-1.15.2-3.6.52-9.16.14-2.59.08,2.5.26,8.62.1,3.23v.37s.04-.4.04-.4l.25-3.44.56-7.56.53,6.92.23,2.96.12,1.52Z"/>
        <path class="st39" d="M25.25,175.09l-.88,7.29-2.29,1.41h-7.35l-3.21-1.41v-7.29l1.63,5.7.21-6.87.06-2.02.26,1.82.95,6.58s-.04-3.44-.06-7.09c0-.91-.01-1.84-.01-2.73,0-2.88.01-5.38.07-5.78.06-.43.28,2.26.51,5.53.06.83.12,1.7.18,2.57.26,3.8.49,7.5.49,7.5l.5-8,.16-2.63.17-2.7.26,2.52.26,2.4.52,4.99.24-5.35.05-1.11.16,1.01.89,5.45s-.02-2.64-.03-5.82v-2.38c-.02-3.25-.02-6.53.01-7.84.01-.2.01-.36.02-.46,0-.23.06-.06.12.4.17,1.19.48,4.35.77,7.55.08.75.15,1.5.21,2.23.31,3.39.57,6.32.57,6.32l.26-6.67.09-2.29.1-2.62.22,2.5.19,2.15.62,6.87.41-7.3.12-2.2.39-6.94.21,6.72.06,2.09.18,5.9.45-6.17.15-2.14h.01l.22-3.09.23,2.92.15,1.98.45,5.82.05.68Z"/>
        <polygon class="st39" points="59.87 183.79 58.84 183.79 59.07 180.15 59.87 183.79"/>
        <polygon class="st39" points="62.36 183.79 61.05 183.79 61.48 179.14 61.75 176.23 62.15 181.18 62.36 183.79"/>
        <path class="st39" d="M64.12,183.79h-1.33c.02-.41.05-.84.07-1.3.25-4.53.63-11.21.87-14.06.06-.67.1-1.13.14-1.3.04-.19.07.12.1.79.12,2.69.15,11.12.15,15.87Z"/>
        <path class="st39" d="M76.6,181.25l-.39,2.12-.08.42h-11.58l1.71-13.59.52,12.72.9-8.21.81,8.32s1.08-19.05,1.33-21.07c.24-2.01.81,21.2.81,21.2l1.5-14.75.39,14.87,2.49-20.99-.6,18.82,1.98-14.48.14,10,.07,4.62Z"/>
        <path class="st39" d="M86.49,162.38v21.41h-9.37l-.91-.42-.64-.3.21-9.32.75,2.88,1.17,4.45.6-11.36,1.3,10.77s.13-11.34.3-16.95c0-.19,0-.37.02-.55.03-1.29.08-2.19.12-2.44.06-.34.15.8.27,2.68,0,.16.02.32.03.49.33,5.66.77,16.8.77,16.8l1.36-15.91v-.03l.09-1.07.1,1.17v.02l.94,11.51.56-8.25,1.15,8.28s.08-4.77.17-9.79c0-.2.01-.4.01-.6.05-2.43.1-4.88.15-6.84.05-1.93.1-3.38.14-3.87.05-.64.24,1.22.47,4.07.07.96.16,2.04.24,3.17Z"/>
        <g class="st38">
          <path class="st54" d="M14.07,51c-1.27.07-1.31.12-1.36,1.72-.05-1.6-.09-1.65-1.36-1.72,1.27-.07,1.31-.12,1.36-1.72.05,1.6.09,1.65,1.36,1.72Z"/>
        </g>
        <g class="st38">
          <path class="st54" d="M76.93,26.79c-1.27.07-1.31.12-1.36,1.72-.05-1.6-.09-1.65-1.36-1.72,1.27-.07,1.31-.12,1.36-1.72.05,1.6.09,1.65,1.36,1.72Z"/>
        </g>
        <g class="st38">
          <path class="st54" d="M21.11,89.1c-1.27.07-1.31.12-1.36,1.72-.05-1.6-.09-1.65-1.36-1.72,1.27-.07,1.31-.12,1.36-1.72.05,1.6.09,1.65,1.36,1.72Z"/>
        </g>
        <g class="st38">
          <path class="st54" d="M68.9,69.39c-.63.03-.65.06-.68.86-.03-.8-.05-.83-.68-.86.63-.03.65-.06.68-.86.03.8.05.83.68.86Z"/>
        </g>
        <g class="st38">
          <path class="st54" d="M46.92,44.81c-.63.03-.65.06-.68.86-.03-.8-.05-.83-.68-.86.63-.03.65-.06.68-.86.03.8.05.83.68.86Z"/>
        </g>
      </g>
    </g>
  </g>
</svg>