<?xml version="1.0" encoding="UTF-8"?>
<svg xmlns="http://www.w3.org/2000/svg" xmlns:xlink="http://www.w3.org/1999/xlink" version="1.1" viewBox="0 0 86.49 183.79">
  <!-- Generator: Adobe Illustrator 29.8.3, SVG Export Plug-In . SVG Version: 2.1.1 Build 3)  -->
  <defs>
    <style>
      .st0 {
        mask: url(#mask);
      }

      .st1 {
        fill: url(#_ÂÁ_Ï_ÌÌ_È_ËÂÌÚ_973531);
      }

      .st2 {
        fill: url(#_ÂÁ_Ï_ÌÌ_È_ËÂÌÚ_973662);
      }

      .st3 {
        fill: url(#_ÂÁ_Ï_ÌÌ_È_ËÂÌÚ_973661);
      }

      .st4 {
        fill: url(#_ÂÁ_Ï_ÌÌ_È_ËÂÌÚ_975962);
      }

      .st5 {
        fill: url(#_ÂÁ_Ï_ÌÌ_È_ËÂÌÚ_975961);
      }

      .st6 {
        fill: url(#_ÂÁ_Ï_ÌÌ_È_ËÂÌÚ_975963);
      }

      .st7 {
        fill: url(#_ÂÁ_Ï_ÌÌ_È_ËÂÌÚ_975964);
      }

      .st8 {
        fill: url(#_ÂÁ_Ï_ÌÌ_È_ËÂÌÚ_975965);
      }

      .st9 {
        filter: url(#luminosity-noclip);
      }

      .st10 {
        fill: #47427b;
        opacity: .56;
      }

      .st11 {
        filter: url(#luminosity-noclip12);
      }

      .st12 {
        filter: url(#luminosity-noclip14);
      }

      .st13 {
        filter: url(#luminosity-noclip16);
      }

      .st14 {
        filter: url(#luminosity-noclip10);
      }

      .st15 {
        fill: url(#_ÂÁ_Ï_ÌÌ_È_ËÂÌÚ_973601);
      }

      .st15, .st16, .st17, .st18, .st19, .st20, .st21, .st22, .st23, .st24, .st25, .st26, .st27, .st28, .st29 {
        mix-blend-mode: overlay;
      }

      .st15, .st29 {
        opacity: .19;
      }

      .st16 {
        fill: url(#_ÂÁ_Ï_ÌÌ_È_ËÂÌÚ_973581);
      }

      .st16, .st25 {
        opacity: .27;
      }

      .st17 {
        fill: url(#_ÂÁ_Ï_ÌÌ_È_ËÂÌÚ_973561);
        opacity: .78;
      }

      .st18 {
        fill: url(#_ÂÁ_Ï_ÌÌ_È_ËÂÌÚ_973563);
      }

      .st18, .st28 {
        opacity: .76;
      }

      .st19 {
        fill: url(#_ÂÁ_Ï_ÌÌ_È_ËÂÌÚ_973562);
      }

      .st19, .st26 {
        opacity: .92;
      }

      .st30 {
        filter: url(#luminosity-noclip6);
      }

      .st31 {
        filter: url(#luminosity-noclip2);
      }

      .st32 {
        filter: url(#luminosity-noclip4);
      }

      .st33 {
        filter: url(#luminosity-noclip8);
      }

      .st34 {
        fill: url(#_ÂÁ_Ï_ÌÌ_È_ËÂÌÚ_97362);
      }

      .st35 {
        fill: url(#_ÂÁ_Ï_ÌÌ_È_ËÂÌÚ_97366);
      }

      .st36 {
        fill: url(#_ÂÁ_Ï_ÌÌ_È_ËÂÌÚ_97365);
      }

      .st37 {
        fill: url(#_ÂÁ_Ï_ÌÌ_È_ËÂÌÚ_97369);
      }

      .st38 {
        fill: url(#_ÂÁ_Ï_ÌÌ_È_ËÂÌÚ_97367);
      }

      .st39 {
        fill: url(#_ÂÁ_Ï_ÌÌ_È_ËÂÌÚ_97395);
      }

      .st40 {
        fill: url(#_ÂÁ_Ï_ÌÌ_È_ËÂÌÚ_97353);
      }

      .st41 {
        fill: url(#_ÂÁ_Ï_ÌÌ_È_ËÂÌÚ_97462);
      }

      .st42 {
        fill: url(#_ÂÁ_Ï_ÌÌ_È_ËÂÌÚ_97728);
      }

      .st43 {
        fill: url(#_ÂÁ_Ï_ÌÌ_È_ËÂÌÚ_97596);
      }

      .st44 {
        fill: url(#_ÂÁ_Ï_ÌÌ_È_ËÂÌÚ_97924);
      }

      .st45 {
        fill: #29183f;
      }

      .st46 {
        isolation: isolate;
      }

      .st47 {
        mask: url(#mask-2);
      }

      .st48 {
        mask: url(#mask-3);
      }

      .st49 {
        mask: url(#mask-4);
      }

      .st50 {
        mask: url(#mask-5);
      }

      .st51 {
        mask: url(#mask-7);
      }

      .st52 {
        mask: url(#mask-6);
      }

      .st53 {
        mask: url(#mask-1);
      }

      .st54 {
        mask: url(#mask-9);
      }

      .st55 {
        mask: url(#mask-8);
      }

      .st20 {
        opacity: .37;
      }

      .st20, .st21, .st22, .st23, .st24, .st25 {
        fill: #918fc6;
      }

      .st21 {
        opacity: .51;
      }

      .st22 {
        opacity: .3;
      }

      .st23 {
        opacity: .18;
      }

      .st24 {
        opacity: .1;
      }

      .st56, .st57 {
        fill: #fff;
      }

      .st26 {
        fill: url(#_ÂÁ_Ï_ÌÌ_È_ËÂÌÚ_97357);
      }

      .st27 {
        fill: url(#_ÂÁ_Ï_ÌÌ_È_ËÂÌÚ_97358);
        opacity: .75;
      }

      .st28 {
        fill: url(#_ÂÁ_Ï_ÌÌ_È_ËÂÌÚ_97356);
      }

      .st29 {
        fill: url(#_ÂÁ_Ï_ÌÌ_È_ËÂÌÚ_97360);
      }

      .st58 {
        fill: url(#_ÂÁ_Ï_ÌÌ_È_ËÂÌÚ_17);
      }

      .st58, .st59, .st60, .st61, .st62, .st63, .st64, .st65, .st66, .st57 {
        mix-blend-mode: multiply;
      }

      .st59 {
        fill: url(#_ÂÁ_Ï_ÌÌ_È_ËÂÌÚ_12);
      }

      .st60 {
        fill: url(#_ÂÁ_Ï_ÌÌ_È_ËÂÌÚ_19);
      }

      .st61 {
        fill: url(#_ÂÁ_Ï_ÌÌ_È_ËÂÌÚ_16);
      }

      .st62 {
        fill: url(#_ÂÁ_Ï_ÌÌ_È_ËÂÌÚ_191);
      }

      .st63 {
        fill: url(#_ÂÁ_Ï_ÌÌ_È_ËÂÌÚ_171);
      }

      .st64 {
        fill: url(#_ÂÁ_Ï_ÌÌ_È_ËÂÌÚ_121);
      }

      .st65 {
        fill: url(#_ÂÁ_Ï_ÌÌ_È_ËÂÌÚ_122);
      }

      .st66 {
        fill: url(#_ÂÁ_Ï_ÌÌ_È_ËÂÌÚ_123);
      }

      .st67 {
        fill: #8dbee3;
      }

      .st68 {
        fill: #282d67;
      }

      .st57 {
        opacity: .68;
      }

      .st69 {
        mask: url(#mask-10);
      }

      .st70 {
        mask: url(#mask-14);
      }

      .st71 {
        mask: url(#mask-11);
      }

      .st72 {
        mask: url(#mask-16);
      }

      .st73 {
        mask: url(#mask-13);
      }

      .st74 {
        mask: url(#mask-12);
      }

      .st75 {
        mask: url(#mask-17);
      }

      .st76 {
        mask: url(#mask-15);
      }

      .st77 {
        fill: #fdf2f8;
      }
    </style>
    <radialGradient id="_ÂÁ_Ï_ÌÌ_È_ËÂÌÚ_97395" data-name="¡ÂÁ˚ÏˇÌÌ˚È „‡‰ËÂÌÚ 97395" cx="43.55" cy="40.82" fx="43.55" fy="40.82" r="73.94" gradientUnits="userSpaceOnUse">
      <stop offset="0" stop-color="#d9cfa3"/>
      <stop offset=".08" stop-color="#aaa28f"/>
      <stop offset=".16" stop-color="#7b767c"/>
      <stop offset=".25" stop-color="#56546c"/>
      <stop offset=".32" stop-color="#3c3b61"/>
      <stop offset=".39" stop-color="#2c2c5b"/>
      <stop offset=".45" stop-color="#272759"/>
      <stop offset=".55" stop-color="#232450"/>
      <stop offset=".81" stop-color="#1c1e3f"/>
      <stop offset="1" stop-color="#1a1d39"/>
    </radialGradient>
    <linearGradient id="_ÂÁ_Ï_ÌÌ_È_ËÂÌÚ_97369" data-name="¡ÂÁ˚ÏˇÌÌ˚È „‡‰ËÂÌÚ 97369" x1="43.09" y1="99.87" x2="43.39" y2="119.75" gradientUnits="userSpaceOnUse">
      <stop offset=".01" stop-color="#565fa8"/>
      <stop offset="1" stop-color="#010101"/>
    </linearGradient>
    <linearGradient id="_ÂÁ_Ï_ÌÌ_È_ËÂÌÚ_97462" data-name="¡ÂÁ˚ÏˇÌÌ˚È „‡‰ËÂÌÚ 97462" x1="43.24" y1="97.37" x2="43.24" y2="125.81" gradientUnits="userSpaceOnUse">
      <stop offset="0" stop-color="#676aaf"/>
      <stop offset=".05" stop-color="#5d60a9"/>
      <stop offset=".24" stop-color="#3c4193"/>
      <stop offset=".35" stop-color="#30358c"/>
      <stop offset=".36" stop-color="#2f3489"/>
      <stop offset=".5" stop-color="#212561"/>
      <stop offset=".63" stop-color="#171a42"/>
      <stop offset=".76" stop-color="#10122c"/>
      <stop offset=".89" stop-color="#0b0d1e"/>
      <stop offset="1" stop-color="#0a0c1a"/>
    </linearGradient>
    <linearGradient id="_ÂÁ_Ï_ÌÌ_È_ËÂÌÚ_97366" data-name="¡ÂÁ˚ÏˇÌÌ˚È „‡‰ËÂÌÚ 97366" x1="42.57" y1="103.26" x2="43.24" y2="127.47" gradientUnits="userSpaceOnUse">
      <stop offset="0" stop-color="#2b2a67"/>
      <stop offset="1" stop-color="#010101"/>
    </linearGradient>
    <linearGradient id="_ÂÁ_Ï_ÌÌ_È_ËÂÌÚ_97367" data-name="¡ÂÁ˚ÏˇÌÌ˚È „‡‰ËÂÌÚ 97367" x1="23.53" y1="110.44" x2="23.53" y2="133.64" gradientUnits="userSpaceOnUse">
      <stop offset="0" stop-color="#293172"/>
      <stop offset="1" stop-color="#010101"/>
    </linearGradient>
    <linearGradient id="_ÂÁ_Ï_ÌÌ_È_ËÂÌÚ_97353" data-name="¡ÂÁ˚ÏˇÌÌ˚È „‡‰ËÂÌÚ 97353" x1="16.16" y1="100.85" x2="16.16" y2="125.3" gradientUnits="userSpaceOnUse">
      <stop offset="0" stop-color="#272d63"/>
      <stop offset="1" stop-color="#010101"/>
    </linearGradient>
    <linearGradient id="_ÂÁ_Ï_ÌÌ_È_ËÂÌÚ_973661" data-name="¡ÂÁ˚ÏˇÌÌ˚È „‡‰ËÂÌÚ 97366" x1="24.88" y1="125.31" x2="22.98" y2="133.64" xlink:href="#_ÂÁ_Ï_ÌÌ_È_ËÂÌÚ_97366"/>
    <linearGradient id="_ÂÁ_Ï_ÌÌ_È_ËÂÌÚ_973662" data-name="¡ÂÁ˚ÏˇÌÌ˚È „‡‰ËÂÌÚ 97366" x1="49.77" y1="113.38" x2="49.77" y2="128.22" xlink:href="#_ÂÁ_Ï_ÌÌ_È_ËÂÌÚ_97366"/>
    <linearGradient id="_ÂÁ_Ï_ÌÌ_È_ËÂÌÚ_97596" data-name="¡ÂÁ˚ÏˇÌÌ˚È „‡‰ËÂÌÚ 97596" x1="67.63" y1="94.49" x2="67.63" y2="123.02" gradientUnits="userSpaceOnUse">
      <stop offset="0" stop-color="#3e3b8f"/>
      <stop offset="1" stop-color="#010101"/>
    </linearGradient>
    <linearGradient id="_ÂÁ_Ï_ÌÌ_È_ËÂÌÚ_97365" data-name="¡ÂÁ˚ÏˇÌÌ˚È „‡‰ËÂÌÚ 97365" x1="51.16" y1="120.01" x2="51.67" y2="138.27" gradientUnits="userSpaceOnUse">
      <stop offset=".01" stop-color="#2a3284"/>
      <stop offset="1" stop-color="#010101"/>
    </linearGradient>
    <linearGradient id="_ÂÁ_Ï_ÌÌ_È_ËÂÌÚ_97924" data-name="¡ÂÁ˚ÏˇÌÌ˚È „‡‰ËÂÌÚ 97924" x1="56.5" y1="131.65" x2="56.5" y2="140.72" gradientUnits="userSpaceOnUse">
      <stop offset=".01" stop-color="#5b5aa4"/>
      <stop offset=".35" stop-color="#4d4281"/>
      <stop offset=".78" stop-color="#3e285a"/>
      <stop offset="1" stop-color="#391e4c"/>
    </linearGradient>
    <linearGradient id="_ÂÁ_Ï_ÌÌ_È_ËÂÌÚ_975961" data-name="¡ÂÁ˚ÏˇÌÌ˚È „‡‰ËÂÌÚ 97596" x1="10.17" y1="122.2" x2="12.03" y2="138.5" xlink:href="#_ÂÁ_Ï_ÌÌ_È_ËÂÌÚ_97596"/>
    <linearGradient id="_ÂÁ_Ï_ÌÌ_È_ËÂÌÚ_973531" data-name="¡ÂÁ˚ÏˇÌÌ˚È „‡‰ËÂÌÚ 97353" x1="41.14" y1="123.61" x2="41.51" y2="132.87" xlink:href="#_ÂÁ_Ï_ÌÌ_È_ËÂÌÚ_97353"/>
    <linearGradient id="_ÂÁ_Ï_ÌÌ_È_ËÂÌÚ_97362" data-name="¡ÂÁ˚ÏˇÌÌ˚È „‡‰ËÂÌÚ 97362" x1="43.24" y1="132.06" x2="43.24" y2="155.8" gradientUnits="userSpaceOnUse">
      <stop offset="0" stop-color="#292f6d"/>
      <stop offset=".18" stop-color="#1d214c"/>
      <stop offset=".41" stop-color="#10132b"/>
      <stop offset=".63" stop-color="#080914"/>
      <stop offset=".83" stop-color="#020305"/>
      <stop offset="1" stop-color="#010101"/>
    </linearGradient>
    <linearGradient id="_ÂÁ_Ï_ÌÌ_È_ËÂÌÚ_97728" data-name="¡ÂÁ˚ÏˇÌÌ˚È „‡‰ËÂÌÚ 97728" x1="18.92" y1="137.42" x2="27.75" y2="163.38" gradientUnits="userSpaceOnUse">
      <stop offset="0" stop-color="#452775"/>
      <stop offset=".43" stop-color="#2e1e53"/>
      <stop offset="1" stop-color="#12132a"/>
    </linearGradient>
    <filter id="luminosity-noclip" x="19.89" y="131.9" width=".17" height=".05" color-interpolation-filters="sRGB" filterUnits="userSpaceOnUse">
      <feFlood flood-color="#fff" result="bg"/>
      <feBlend in="SourceGraphic" in2="bg"/>
    </filter>
    <filter id="luminosity-noclip1" x="19.89" y="-8281.27" width=".17" height="32766" color-interpolation-filters="sRGB" filterUnits="userSpaceOnUse">
      <feFlood flood-color="#fff" result="bg"/>
      <feBlend in="SourceGraphic" in2="bg"/>
    </filter>
    <mask id="mask-1" x="19.89" y="-8281.27" width=".17" height="32766" maskUnits="userSpaceOnUse"/>
    <linearGradient id="_ÂÁ_Ï_ÌÌ_È_ËÂÌÚ_19" data-name="¡ÂÁ˚ÏˇÌÌ˚È „‡‰ËÂÌÚ 19" x1="19.95" y1="131.88" x2="19.98" y2="131.94" gradientUnits="userSpaceOnUse">
      <stop offset="0" stop-color="#fff"/>
      <stop offset=".09" stop-color="#f2f2f2"/>
      <stop offset=".25" stop-color="#d1d1d1"/>
      <stop offset=".47" stop-color="#9a9a9a"/>
      <stop offset=".74" stop-color="#505050"/>
      <stop offset="1" stop-color="#000"/>
    </linearGradient>
    <mask id="mask" x="19.89" y="131.9" width=".17" height=".05" maskUnits="userSpaceOnUse">
      <g class="st9">
        <g class="st53">
          <path class="st60" d="M20.02,131.93s.03.01.04.02c-.02,0-.03,0-.05,0-.04-.02-.08-.03-.12-.04.04.01.09.02.13.03Z"/>
        </g>
      </g>
    </mask>
    <linearGradient id="_ÂÁ_Ï_ÌÌ_È_ËÂÌÚ_97360" data-name="¡ÂÁ˚ÏˇÌÌ˚È „‡‰ËÂÌÚ 97360" x1="19.95" y1="131.88" x2="19.98" y2="131.94" gradientUnits="userSpaceOnUse">
      <stop offset="0" stop-color="#fff"/>
      <stop offset="1" stop-color="#fff"/>
    </linearGradient>
    <filter id="luminosity-noclip2" x="16.87" y="131.95" width="43.78" height="51.84" color-interpolation-filters="sRGB" filterUnits="userSpaceOnUse">
      <feFlood flood-color="#fff" result="bg"/>
      <feBlend in="SourceGraphic" in2="bg"/>
    </filter>
    <filter id="luminosity-noclip3" x="16.87" y="-8281.27" width="43.78" height="32766" color-interpolation-filters="sRGB" filterUnits="userSpaceOnUse">
      <feFlood flood-color="#fff" result="bg"/>
      <feBlend in="SourceGraphic" in2="bg"/>
    </filter>
    <mask id="mask-3" x="16.87" y="-8281.27" width="43.78" height="32766" maskUnits="userSpaceOnUse"/>
    <linearGradient id="_ÂÁ_Ï_ÌÌ_È_ËÂÌÚ_191" data-name="¡ÂÁ˚ÏˇÌÌ˚È „‡‰ËÂÌÚ 19" x1="20.66" y1="139.82" x2="35.69" y2="164.96" xlink:href="#_ÂÁ_Ï_ÌÌ_È_ËÂÌÚ_19"/>
    <mask id="mask-2" x="16.87" y="131.95" width="43.78" height="51.84" maskUnits="userSpaceOnUse">
      <g class="st31">
        <g class="st48">
          <path class="st62" d="M60.64,160.11c.05,1.6-.15,3.17-.53,4.7-.14.55-.3,1.09-.48,1.63s-.38,1.07-.6,1.59c-.32.79-.68,1.56-1.07,2.32-.26.5-.53,1-.8,1.49-.42.73-.85,1.45-1.29,2.14-.29.46-.58.91-.88,1.35h0c-.29.45-.58.88-.87,1.3-.43.63-.86,1.25-1.26,1.83-.27.39-.52.77-.77,1.14l-.36.54c-.23.36-.45.7-.65,1.03-.3.49-.55.96-.76,1.39-.07.14-.13.28-.18.42-.03.07-.05.13-.07.2-.04.12-.08.24-.1.35-.03.09-.05.17-.05.26H16.87c.71-1.64,1.69-3.21,2.97-4.67.03-.03.06-.07.08-.1h.01c.27-.31.54-.59.83-.88.16-.16.32-.32.49-.47.01,0,.02-.02.03-.02.51-.5,1.03-.97,1.56-1.41,9.99-8.43,21.36-8.88,25.44-21.22,1.34-4.04-.84-7.79-4.5-11.03-.53-.48-1.09-.94-1.67-1.38h-.01c-1.6-1.24-3.39-2.38-5.24-3.43h-.01c-1.07-.61-2.16-1.19-3.24-1.73-3.63-1.81-7.21-3.24-9.85-4.21-.25-.09-.48-.18-.71-.26-.92-.33-1.7-.6-2.28-.79-.29-.1-.53-.18-.71-.24.28.07.56.15.84.23h.01c.75.21,1.5.42,2.22.63.29.09.58.18.87.26,1.03.31,2.04.62,3.02.93.49.15.98.31,1.45.47,1.43.46,2.81.94,4.12,1.41.44.16.87.32,1.3.48.43.16.85.32,1.26.48.3.11.6.23.9.35h.01c2.43.97,4.65,1.95,6.66,2.93,1.24.61,2.4,1.22,3.5,1.83,0,0,.01.01.02.01.24.14.47.28.71.42.26.15.51.3.76.45.5.3.98.61,1.45.91.23.15.45.29.67.45,1.35.91,2.55,1.83,3.62,2.75,0,0,0,0,0,.01.14.12.28.24.41.37,0,0,.02.01.03.02.03.02.05.04.08.07.26.23.5.46.74.69.08.08.15.15.23.23.23.22.45.45.66.68.26.28.51.56.75.84s.47.56.69.84c.21.28.42.55.61.83.2.28.38.56.56.84.02.03.04.07.07.11.14.24.28.49.42.73.04.06.07.12.1.18.11.22.22.43.33.65.13.28.25.56.37.83.21.52.39,1.03.54,1.54.03.09.05.18.08.27.06.22.11.45.16.67,0,.04.02.09.03.13.05.23.1.46.13.69.05.27.08.54.11.81.03.25.05.49.06.74,0,.13.02.26.02.4Z"/>
        </g>
      </g>
    </mask>
    <linearGradient id="_ÂÁ_Ï_ÌÌ_È_ËÂÌÚ_973601" data-name="¡ÂÁ˚ÏˇÌÌ˚È „‡‰ËÂÌÚ 97360" x1="20.66" y1="139.82" x2="35.69" y2="164.96" xlink:href="#_ÂÁ_Ï_ÌÌ_È_ËÂÌÚ_97360"/>
    <filter id="luminosity-noclip4" x="0" y="139.24" width="25.59" height="22.44" color-interpolation-filters="sRGB" filterUnits="userSpaceOnUse">
      <feFlood flood-color="#fff" result="bg"/>
      <feBlend in="SourceGraphic" in2="bg"/>
    </filter>
    <filter id="luminosity-noclip5" x="0" y="-8281.27" width="25.59" height="32766" color-interpolation-filters="sRGB" filterUnits="userSpaceOnUse">
      <feFlood flood-color="#fff" result="bg"/>
      <feBlend in="SourceGraphic" in2="bg"/>
    </filter>
    <mask id="mask-5" x="0" y="-8281.27" width="25.59" height="32766" maskUnits="userSpaceOnUse"/>
    <linearGradient id="_ÂÁ_Ï_ÌÌ_È_ËÂÌÚ_17" data-name="¡ÂÁ˚ÏˇÌÌ˚È „‡‰ËÂÌÚ 17" x1="23.17" y1="142.09" x2="15.74" y2="145.33" gradientUnits="userSpaceOnUse">
      <stop offset="0" stop-color="#000"/>
      <stop offset=".12" stop-color="#2f2f2f"/>
      <stop offset=".3" stop-color="#6d6d6d"/>
      <stop offset=".48" stop-color="#a1a1a1"/>
      <stop offset=".64" stop-color="#cacaca"/>
      <stop offset=".78" stop-color="#e7e7e7"/>
      <stop offset=".91" stop-color="#f8f8f8"/>
      <stop offset="1" stop-color="#fff"/>
    </linearGradient>
    <mask id="mask-4" x="0" y="139.24" width="25.59" height="22.44" maskUnits="userSpaceOnUse">
      <g class="st32">
        <g class="st50">
          <path class="st58" d="M24.95,151.41c-.07.14-.14.27-.22.4-1.66,2.68-5.07,3.57-8.13,4.35-5.66,1.45-11.21,3.29-16.6,5.52v-21.22c3.77-.75,7.58-1.2,11.42-1.22,3.74-.01,7.68.47,10.68,2.71l.03.03c2.85,2.14,4.42,6.3,2.82,9.43Z"/>
        </g>
      </g>
    </mask>
    <linearGradient id="_ÂÁ_Ï_ÌÌ_È_ËÂÌÚ_97358" data-name="¡ÂÁ˚ÏˇÌÌ˚È „‡‰ËÂÌÚ 97358" x1="23.17" y1="142.09" x2="15.74" y2="145.33" gradientUnits="userSpaceOnUse">
      <stop offset="0" stop-color="#bac8e8"/>
      <stop offset="1" stop-color="#bac8e8"/>
    </linearGradient>
    <filter id="luminosity-noclip6" x="0" y="143.27" width="13.37" height="9.14" color-interpolation-filters="sRGB" filterUnits="userSpaceOnUse">
      <feFlood flood-color="#fff" result="bg"/>
      <feBlend in="SourceGraphic" in2="bg"/>
    </filter>
    <filter id="luminosity-noclip7" x="0" y="-8281.27" width="13.37" height="32766" color-interpolation-filters="sRGB" filterUnits="userSpaceOnUse">
      <feFlood flood-color="#fff" result="bg"/>
      <feBlend in="SourceGraphic" in2="bg"/>
    </filter>
    <mask id="mask-7" x="0" y="-8281.27" width="13.37" height="32766" maskUnits="userSpaceOnUse"/>
    <linearGradient id="_ÂÁ_Ï_ÌÌ_È_ËÂÌÚ_171" data-name="¡ÂÁ˚ÏˇÌÌ˚È „‡‰ËÂÌÚ 17" x1="12.87" y1="144" x2="5.72" y2="146.62" xlink:href="#_ÂÁ_Ï_ÌÌ_È_ËÂÌÚ_17"/>
    <mask id="mask-6" x="0" y="143.27" width="13.37" height="9.14" maskUnits="userSpaceOnUse">
      <g class="st30">
        <g class="st51">
          <path class="st63" d="M13.37,145.44c0,2.39-4.43,4.18-6.05,4.68-2.44.75-4.88,1.52-7.32,2.29v-7.8c1.41-.26,2.82-.49,4.24-.69,1.86-.26,8.39-1.81,9.08,1.08.04.15.05.29.05.44Z"/>
        </g>
      </g>
    </mask>
    <linearGradient id="_ÂÁ_Ï_ÌÌ_È_ËÂÌÚ_973581" data-name="¡ÂÁ˚ÏˇÌÌ˚È „‡‰ËÂÌÚ 97358" x1="12.87" y1="144" x2="5.72" y2="146.62" xlink:href="#_ÂÁ_Ï_ÌÌ_È_ËÂÌÚ_97358"/>
    <filter id="luminosity-noclip8" x="51.37" y="137.09" width="35.12" height="46.7" color-interpolation-filters="sRGB" filterUnits="userSpaceOnUse">
      <feFlood flood-color="#fff" result="bg"/>
      <feBlend in="SourceGraphic" in2="bg"/>
    </filter>
    <filter id="luminosity-noclip9" x="51.37" y="-8281.27" width="35.12" height="32766" color-interpolation-filters="sRGB" filterUnits="userSpaceOnUse">
      <feFlood flood-color="#fff" result="bg"/>
      <feBlend in="SourceGraphic" in2="bg"/>
    </filter>
    <mask id="mask-9" x="51.37" y="-8281.27" width="35.12" height="32766" maskUnits="userSpaceOnUse"/>
    <linearGradient id="_ÂÁ_Ï_ÌÌ_È_ËÂÌÚ_16" data-name="¡ÂÁ˚ÏˇÌÌ˚È „‡‰ËÂÌÚ 16" x1="48.38" y1="143.34" x2="70.19" y2="161.7" gradientUnits="userSpaceOnUse">
      <stop offset="0" stop-color="#000"/>
      <stop offset=".26" stop-color="#505050"/>
      <stop offset=".53" stop-color="#9a9a9a"/>
      <stop offset=".75" stop-color="#d1d1d1"/>
      <stop offset=".91" stop-color="#f2f2f2"/>
      <stop offset="1" stop-color="#fff"/>
    </linearGradient>
    <mask id="mask-8" x="51.37" y="137.09" width="35.12" height="46.7" maskUnits="userSpaceOnUse">
      <g class="st33">
        <g class="st54">
          <path class="st61" d="M86.49,147.96v34.62c-.59.42-1.2.83-1.83,1.21h-20.85c-3.32-3.98-2.92-8.04-1.4-12.18h0c.48-1.34,1.08-2.67,1.71-4.02h0c.18-.4.36-.78.55-1.17.12-.25.23-.5.35-.75,1.7-3.62,2.57-6.07.98-9.86-.01,0-.01-.03-.02-.05-.02-.04-.04-.08-.05-.12-.29-.67-.61-1.32-.96-1.95-1.09-1.97-2.47-3.77-4.07-5.35-.64-.64-1.32-1.25-2.02-1.81-2.31-1.85-4.96-3.33-6.85-5.61-.29-.35-.57-.73-.64-1.18-.2-1.34,1.44-2.15,2.78-2.37,8.98-1.53,17.22,3.56,25.12,7.05,2.39,1.06,4.87,2.2,7.2,3.54Z"/>
        </g>
      </g>
    </mask>
    <linearGradient id="_ÂÁ_Ï_ÌÌ_È_ËÂÌÚ_97357" data-name="¡ÂÁ˚ÏˇÌÌ˚È „‡‰ËÂÌÚ 97357" x1="48.38" y1="143.34" x2="70.19" y2="161.7" gradientUnits="userSpaceOnUse">
      <stop offset="0" stop-color="#bac8e8"/>
      <stop offset="1" stop-color="#bac8e8"/>
    </linearGradient>
    <filter id="luminosity-noclip10" x="0" y="57.78" width="33.7" height="10.01" color-interpolation-filters="sRGB" filterUnits="userSpaceOnUse">
      <feFlood flood-color="#fff" result="bg"/>
      <feBlend in="SourceGraphic" in2="bg"/>
    </filter>
    <filter id="luminosity-noclip11" x="0" y="-8281.27" width="33.7" height="32766" color-interpolation-filters="sRGB" filterUnits="userSpaceOnUse">
      <feFlood flood-color="#fff" result="bg"/>
      <feBlend in="SourceGraphic" in2="bg"/>
    </filter>
    <mask id="mask-11" x="0" y="-8281.27" width="33.7" height="32766" maskUnits="userSpaceOnUse"/>
    <linearGradient id="_ÂÁ_Ï_ÌÌ_È_ËÂÌÚ_12" data-name="¡ÂÁ˚ÏˇÌÌ˚È „‡‰ËÂÌÚ 12" x1="16.85" y1="58.01" x2="16.85" y2="67.92" gradientUnits="userSpaceOnUse">
      <stop offset="0" stop-color="#fff"/>
      <stop offset=".09" stop-color="#f8f8f8"/>
      <stop offset=".22" stop-color="#e7e7e7"/>
      <stop offset=".36" stop-color="#cacaca"/>
      <stop offset=".52" stop-color="#a1a1a1"/>
      <stop offset=".7" stop-color="#6d6d6d"/>
      <stop offset=".88" stop-color="#2f2f2f"/>
      <stop offset="1" stop-color="#000"/>
    </linearGradient>
    <mask id="mask-10" x="0" y="57.78" width="33.7" height="10.01" maskUnits="userSpaceOnUse">
      <g class="st14">
        <g class="st71">
          <path class="st59" d="M33.7,67.45c0,.11-.02.22-.03.34H0v-3.51c.53-.45,1.15-.78,1.83-.97.47-.15.97-.22,1.49-.22.55,0,1.07.11,1.58.26.04-2.64,2.01-4.83,4.57-5.17.24-.04.48-.06.73-.06,1.81,0,3.4.91,4.36,2.3.9-1.54,2.53-2.59,4.44-2.64h.13c2.57,0,4.72,1.83,5.2,4.26.92-.53,1.97-.85,3.11-.85,3.46,0,6.26,2.8,6.26,6.26Z"/>
        </g>
      </g>
    </mask>
    <linearGradient id="_ÂÁ_Ï_ÌÌ_È_ËÂÌÚ_97356" data-name="¡ÂÁ˚ÏˇÌÌ˚È „‡‰ËÂÌÚ 97356" x1="16.85" y1="58.01" x2="16.85" y2="67.92" gradientUnits="userSpaceOnUse">
      <stop offset="0" stop-color="#fff"/>
      <stop offset=".21" stop-color="#f8fafc"/>
      <stop offset=".5" stop-color="#e7ecf7"/>
      <stop offset=".84" stop-color="#cad5ed"/>
      <stop offset="1" stop-color="#bac8e8"/>
    </linearGradient>
    <filter id="luminosity-noclip12" x="15.58" y="82.53" width="16.59" height="4.66" color-interpolation-filters="sRGB" filterUnits="userSpaceOnUse">
      <feFlood flood-color="#fff" result="bg"/>
      <feBlend in="SourceGraphic" in2="bg"/>
    </filter>
    <filter id="luminosity-noclip13" x="15.58" y="-8281.27" width="16.59" height="32766" color-interpolation-filters="sRGB" filterUnits="userSpaceOnUse">
      <feFlood flood-color="#fff" result="bg"/>
      <feBlend in="SourceGraphic" in2="bg"/>
    </filter>
    <mask id="mask-13" x="15.58" y="-8281.27" width="16.59" height="32766" maskUnits="userSpaceOnUse"/>
    <linearGradient id="_ÂÁ_Ï_ÌÌ_È_ËÂÌÚ_121" data-name="¡ÂÁ˚ÏˇÌÌ˚È „‡‰ËÂÌÚ 12" x1="23.87" y1="82.28" x2="23.87" y2="87.23" xlink:href="#_ÂÁ_Ï_ÌÌ_È_ËÂÌÚ_12"/>
    <mask id="mask-12" x="15.58" y="82.53" width="16.59" height="4.66" maskUnits="userSpaceOnUse">
      <g class="st11">
        <g class="st73">
          <path class="st64" d="M32.16,87.19c0-.05.02-.1.02-.16,0-1.61-1.31-2.92-2.92-2.92-.53,0-1.02.15-1.45.4-.23-1.13-1.22-1.99-2.42-1.99-.91,0-1.7.5-2.13,1.23-.45-.64-1.19-1.07-2.03-1.07-1.35,0-2.45,1.09-2.47,2.43-.23-.07-.48-.12-.73-.12-1.27,0-2.3.96-2.44,2.19h16.58Z"/>
        </g>
      </g>
    </mask>
    <linearGradient id="_ÂÁ_Ï_ÌÌ_È_ËÂÌÚ_973561" data-name="¡ÂÁ˚ÏˇÌÌ˚È „‡‰ËÂÌÚ 97356" x1="23.87" y1="82.28" x2="23.87" y2="87.23" xlink:href="#_ÂÁ_Ï_ÌÌ_È_ËÂÌÚ_97356"/>
    <filter id="luminosity-noclip14" x="68.4" y="53.34" width="18.09" height="9.9" color-interpolation-filters="sRGB" filterUnits="userSpaceOnUse">
      <feFlood flood-color="#fff" result="bg"/>
      <feBlend in="SourceGraphic" in2="bg"/>
    </filter>
    <filter id="luminosity-noclip15" x="68.4" y="-8281.27" width="18.09" height="32766" color-interpolation-filters="sRGB" filterUnits="userSpaceOnUse">
      <feFlood flood-color="#fff" result="bg"/>
      <feBlend in="SourceGraphic" in2="bg"/>
    </filter>
    <mask id="mask-15" x="68.4" y="-8281.27" width="18.09" height="32766" maskUnits="userSpaceOnUse"/>
    <linearGradient id="_ÂÁ_Ï_ÌÌ_È_ËÂÌÚ_122" data-name="¡ÂÁ˚ÏˇÌÌ˚È „‡‰ËÂÌÚ 12" x1="77.44" y1="53.17" x2="77.44" y2="63.42" xlink:href="#_ÂÁ_Ï_ÌÌ_È_ËÂÌÚ_12"/>
    <mask id="mask-14" x="68.4" y="53.34" width="18.09" height="9.9" maskUnits="userSpaceOnUse">
      <g class="st12">
        <g class="st76">
          <path class="st65" d="M85.99,53.34c.17,0,.33.01.5.04v9.86h-18.09c.26-2.61,2.11-4.65,4.39-4.65.46,0,.89.11,1.31.27.04-2.77,1.88-5.02,4.19-5.15.08-.02.16-.02.24-.02,1.51,0,2.85.89,3.65,2.26.77-1.55,2.18-2.61,3.81-2.61Z"/>
        </g>
      </g>
    </mask>
    <linearGradient id="_ÂÁ_Ï_ÌÌ_È_ËÂÌÚ_973562" data-name="¡ÂÁ˚ÏˇÌÌ˚È „‡‰ËÂÌÚ 97356" x1="77.44" y1="53.17" x2="77.44" y2="63.42" xlink:href="#_ÂÁ_Ï_ÌÌ_È_ËÂÌÚ_97356"/>
    <filter id="luminosity-noclip16" x="45.22" y="69.97" width="14.05" height="4.67" color-interpolation-filters="sRGB" filterUnits="userSpaceOnUse">
      <feFlood flood-color="#fff" result="bg"/>
      <feBlend in="SourceGraphic" in2="bg"/>
    </filter>
    <filter id="luminosity-noclip17" x="45.22" y="-8281.27" width="14.05" height="32766" color-interpolation-filters="sRGB" filterUnits="userSpaceOnUse">
      <feFlood flood-color="#fff" result="bg"/>
      <feBlend in="SourceGraphic" in2="bg"/>
    </filter>
    <mask id="mask-17" x="45.22" y="-8281.27" width="14.05" height="32766" maskUnits="userSpaceOnUse"/>
    <linearGradient id="_ÂÁ_Ï_ÌÌ_È_ËÂÌÚ_123" data-name="¡ÂÁ˚ÏˇÌÌ˚È „‡‰ËÂÌÚ 12" x1="52.24" y1="69.89" x2="52.24" y2="74.73" xlink:href="#_ÂÁ_Ï_ÌÌ_È_ËÂÌÚ_12"/>
    <mask id="mask-16" x="45.22" y="69.97" width="14.05" height="4.67" maskUnits="userSpaceOnUse">
      <g class="st13">
        <g class="st75">
          <path class="st66" d="M59.25,74.65c0-.05.01-.1.01-.16,0-1.61-1.11-2.92-2.47-2.92-.45,0-.86.15-1.23.4-.19-1.14-1.04-1.99-2.05-1.99-.77,0-1.44.5-1.8,1.23-.38-.65-1.01-1.07-1.72-1.07-1.15,0-2.07,1.09-2.09,2.44-.2-.07-.4-.12-.62-.12-1.07,0-1.95.96-2.07,2.19h14.03Z"/>
        </g>
      </g>
    </mask>
    <linearGradient id="_ÂÁ_Ï_ÌÌ_È_ËÂÌÚ_973563" data-name="¡ÂÁ˚ÏˇÌÌ˚È „‡‰ËÂÌÚ 97356" x1="52.24" y1="69.89" x2="52.24" y2="74.73" xlink:href="#_ÂÁ_Ï_ÌÌ_È_ËÂÌÚ_97356"/>
    <linearGradient id="_ÂÁ_Ï_ÌÌ_È_ËÂÌÚ_975962" data-name="¡ÂÁ˚ÏˇÌÌ˚È „‡‰ËÂÌÚ 97596" x1="5.37" y1="159.49" x2="4.11" y2="210.21" xlink:href="#_ÂÁ_Ï_ÌÌ_È_ËÂÌÚ_97596"/>
    <linearGradient id="_ÂÁ_Ï_ÌÌ_È_ËÂÌÚ_975963" data-name="¡ÂÁ˚ÏˇÌÌ˚È „‡‰ËÂÌÚ 97596" x1="16.64" y1="156.29" x2="15.42" y2="205.44" xlink:href="#_ÂÁ_Ï_ÌÌ_È_ËÂÌÚ_97596"/>
    <linearGradient id="_ÂÁ_Ï_ÌÌ_È_ËÂÌÚ_975964" data-name="¡ÂÁ˚ÏˇÌÌ˚È „‡‰ËÂÌÚ 97596" x1="65.64" y1="159.74" x2="65.96" y2="189.05" xlink:href="#_ÂÁ_Ï_ÌÌ_È_ËÂÌÚ_97596"/>
    <linearGradient id="_ÂÁ_Ï_ÌÌ_È_ËÂÌÚ_975965" data-name="¡ÂÁ˚ÏˇÌÌ˚È „‡‰ËÂÌÚ 97596" x1="80.98" y1="156.8" x2="80.33" y2="193.38" xlink:href="#_ÂÁ_Ï_ÌÌ_È_ËÂÌÚ_97596"/>
  </defs>
  <g class="st46">
    <g id="Calque_1">
      <g>
        <rect class="st39" width="86.49" height="183.79"/>
        <path class="st24" d="M86.49.67v90.99c-1.87,1.78-3.84,3.43-5.9,4.96-3.19,2.35-6.6,4.4-10.16,6.11-1.51.72-3.04,1.39-4.6,1.99-.38.15-.77.29-1.16.43-.06.03-.13.05-.19.07-.35.13-.7.25-1.05.37-.13.04-.26.09-.39.13-.65.22-1.29.42-1.95.62t-.01,0c-1.71.5-3.44.94-5.19,1.3-.31.07-.62.13-.94.19-9.24,1.76-18.94,1.47-28.4-1.16-1.36-.37-2.71-.8-4.06-1.27-1.58-.55-3.14-1.17-4.69-1.86l-.27-.12c-.63-.28-1.25-.57-1.86-.87-.97-.47-1.92-.97-2.86-1.49-2.57-1.42-5.01-3-7.3-4.73h-.01c-1.94-1.46-3.77-3.01-5.5-4.66V.68c.24-.23.48-.46.72-.68h85.05c.24.22.48.44.72.67Z"/>
        <path class="st23" d="M86.49,14.19v63.97c-5.09,6.9-11.66,12.33-19.06,16.05-.03.02-.06.03-.09.05-5.94,2.97-12.39,4.83-19.04,5.46-3.79.37-7.63.33-11.48-.14h-.01c-5.17-.62-10.35-2.02-15.37-4.24-8.83-3.92-16.09-9.92-21.44-17.18V14.17C4.29,8.36,9.64,3.58,15.65,0h55.18c6.26,3.72,11.53,8.58,15.66,14.19Z"/>
        <path class="st25" d="M86.49,34.42v23.51c-.48,1.79-1.09,3.56-1.8,5.31-.16.37-.32.73-.48,1.1-10.01,22.59-36.42,32.8-59.01,22.85-.04,0-.08-.03-.12-.05-2.11-.93-4.11-2.01-5.99-3.21-6.46-4.12-11.58-9.72-15.11-16.14-.8-1.45-1.52-2.95-2.15-4.48-.72-1.74-1.33-3.53-1.83-5.36v-23.58c.58-2.15,1.34-4.27,2.27-6.37C12.31,5.37,38.78-4.83,61.41,5.2c12.83,5.68,21.66,16.65,25.08,29.22Z"/>
        <circle class="st22" cx="43.24" cy="46.17" r="35.85" transform="translate(-17.72 63.07) rotate(-62.37)"/>
        <circle class="st20" cx="43.24" cy="46.17" r="26.88" transform="translate(-13.77 18.77) rotate(-21.21)"/>
        <circle class="st21" cx="43.24" cy="46.17" r="17.92" transform="translate(-9.86 11.79) rotate(-13.95)"/>
        <path class="st77" d="M49.17,48.09c-2,4.52-7.29,6.55-11.81,4.55-.61-.27-1.18-.61-1.7-.99,4.02.81,8.19-1.25,9.92-5.15s.45-8.38-2.85-10.81c.63.12,1.26.32,1.87.59,4.51,2,6.56,7.29,4.55,11.81Z"/>
        <path class="st10" d="M26.86,107.56c-.05-.28-.3-.5-.58-.52.25-.16.37-.49.29-.77-.08-.28-.37-.49-.67-.49.13-.28.24-.58.19-.89s-.34-.58-.64-.53c-.07.01-.13.04-.2.04-.16,0-.28-.16-.33-.31s-.06-.32-.14-.46c-.2-.37-.78-.37-1.07-.08-.34.34-.34.99-.27,1.39-.44.03-.9.26-1.09.68-.19.42,0,1,.44,1.13-.41.21-.79.59-.8,1.05-.01.46.51.91.92.69-.02.31.14.62.41.78.26.16.6.17.87.02v3.41h.5v-3.47s0,0,0,0c.55.25,1.03.41,1.48-.1.13-.15.23-.69.31-.88.11-.26.45-.27.38-.68Z"/>
        <path class="st10" d="M21.18,108.65c-.05-.28-.3-.5-.58-.52.25-.16.37-.49.29-.77-.08-.28-.37-.49-.67-.49.13-.28.24-.58.19-.89-.05-.3-.34-.58-.64-.53-.07.01-.13.04-.2.04-.16,0-.28-.16-.33-.31-.05-.15-.06-.32-.14-.46-.2-.37-.78-.37-1.07-.08-.34.34-.34.99-.27,1.39-.44.03-.9.26-1.09.68-.19.42,0,1,.44,1.13-.41.21-.79.59-.8,1.05-.01.46.51.91.92.69-.02.31.14.62.41.78.26.16.6.17.87.02v3.41h.5v-3.47s0,0,0,0c.55.25,1.03.41,1.48-.1.13-.15.23-.69.31-.88.11-.26.45-.27.38-.68Z"/>
        <path class="st10" d="M14.76,105.39c-.05-.28-.3-.5-.58-.52.25-.16.37-.49.29-.77-.08-.28-.37-.49-.67-.49.13-.28.24-.59.19-.89s-.34-.58-.64-.53c-.07.01-.13.04-.2.04-.16,0-.28-.16-.33-.31-.05-.15-.06-.32-.14-.46-.2-.37-.78-.37-1.07-.08-.34.34-.34.99-.27,1.39-.44.03-.9.26-1.09.68-.19.42,0,1,.44,1.13-.41.21-.79.59-.8,1.05-.01.46.51.91.92.69-.02.31.14.62.41.78.26.16.6.17.87.02v3.41h.5v-3.47s0,0,0,0c.55.25,1.03.41,1.48-.1.13-.15.23-.69.31-.88.11-.26.45-.27.38-.68Z"/>
        <path class="st37" d="M86.49,98.12v20.04c-.66-.04-1.32-.07-1.97-.1-2.97-.14-5.93-.16-8.89.09-4.28.36-8.48,1.27-12.65,2.35-2.92.77-5.83,1.62-8.75,2.42l-1.53.42c-2.95.8-5.91,1.52-8.89,2.05-.02,0-.04,0-.06,0-.37.07-.74.13-1.11.19-1.09.17-2.19.32-3.28.42-.09.02-.17.02-.25.03h-.01c-1.13.11-2.26.18-3.4.2-1.48.03-2.95-.02-4.41-.13-.47-.02-.94-.06-1.41-.11-6.04-.57-12.02-2.01-18.04-3h-.02c-1.15-.2-2.31-.37-3.47-.52-2.16-.28-4.33-.47-6.51-.58-.61-.04-1.22-.07-1.84-.09v-25.44c1.85-.14,3.67-.17,5.5-.04h.01c2.38.18,4.77.64,7.24,1.53,2.14.77,4.19,1.79,6.35,2.53,2.87.99,5.86,1.48,8.87,1.98h.01c1.68.27,3.36.55,5.02.92,5.53,1.22,11.36,4.81,17.1,2.33,1.66-.71,3.11-1.73,4.62-2.66h.01c.92-.57,1.85-1.1,2.85-1.52,2.84-1.18,5.5-2.75,8.4-3.82l.24-.09c.68-.25,1.36-.49,2.05-.7,1.72-.55,3.49-.95,5.29-1.05,2.37-.13,4.71.29,7.03.84.8.19,1.6.39,2.39.6l3.51.9Z"/>
        <path class="st41" d="M86.49,107.35v20.37c-12.64.95-25.38.85-38.13.6-.38-.01-.75-.02-1.13-.02-.32-.01-.63-.02-.95-.02-1.39-.03-2.77-.06-4.15-.09-2.06-.04-4.12-.08-6.18-.12-.39-.01-.77-.02-1.16-.02-1.71-.04-3.42-.06-5.13-.08-1.24-.02-2.48-.03-3.72-.04-.65,0-1.31,0-1.96,0-1.02,0-2.04,0-3.05,0-1.27,0-2.54,0-3.81.03h-.55c-2.81.03-5.61.1-8.41.21-.22,0-.45.01-.67.02-1.48.06-2.96.13-4.45.21-.54.02-1.09.05-1.64.09-.46.02-.93.05-1.4.08v-25.34c4.33-1.24,8.26-2.36,12.81-2.15.62.02,1.26.08,1.91.16.34.04.68.09,1.02.14.27.05.53.09.8.13,3.2.55,6.39,1.36,9.62,1.12.61-.05,1.21-.13,1.81-.24h.01c3-.57,5.9-1.85,8.83-2.79h.01c2.35-.76,4.72-1.28,7.17-1.03,1.5.15,2.93.59,4.31,1.17,1.35.55,2.64,1.24,3.93,1.92l2.49,1.32h.01c2.12,1.12,4.24,2.25,6.35,3.38h.01c.68.35,1.35.71,2.02,1.07.13.07.25.13.38.2,0,.01.01.01.01.01.13.06.26.13.38.19l.51.27c2.94,1.51,6.03,2.93,9.22,3.33,1.13.14,2.27.16,3.42,0,.19-.03.38-.06.56-.1h0c.38-.07.75-.15,1.11-.26.8-.21,1.57-.49,2.33-.83.07-.02.14-.05.21-.09h0c.08-.04.16-.07.24-.11,1.7-.78,3.34-1.76,4.99-2.67Z"/>
        <path class="st35" d="M86.49,122.41v7.8c-.38.12-.77.22-1.15.31-4.32,1.02-8.82.72-13.25.48-7.23-.39-14.46-.62-21.7-.67-1.82,0-3.64,0-5.47,0-4.12.02-8.24.09-12.36.23-1.05.03-2.11.07-3.17.11-.47.02-.94.03-1.41.06-1.58.06-3.17.14-4.75.23-.73.03-1.47.07-2.2.11h-.01c-6.64.38-13.26.91-19.88,1.58h-.01c-.38.03-.76.07-1.13.12v-22.66c.37-.06.74-.14,1.11-.23.29-.07.56-.15.84-.24h.02c2.79-.89,5.31-2.54,7.96-3.78,1.43-.66,2.89-1.2,4.44-1.44.04,0,.07,0,.11,0,.24-.04.48-.07.72-.08.53-.05,1.04-.06,1.55-.04.54.02,1.07.08,1.59.17.22.03.42.07.64.12h.02c1.13.24,2.24.62,3.34,1.08,1.49.63,2.96,1.43,4.42,2.29,4.08,2.41,8.13,5.32,12.64,6.44,3.34.83,6.87.64,10.23,1.41.71.16,1.4.36,2.09.59.88.3,1.76.64,2.62,1,1.9.79,3.79,1.66,5.74,2.31.96.32,1.92.58,2.9.8.78.18,1.57.33,2.36.46,0,0,0-.01.02,0,2.98.47,6.02.64,9.04.8l8.88.48c1.07.05,2.14.11,3.21.17Z"/>
        <path class="st38" d="M47.06,132.14l-.05.02h0l-1.8.72h-.01l-7.31,2.88-2.57,1.02-.16.06-1.54.61-3.26,1.28-.29.12h-.01l-5.06,2-2.86,1.13-8.76,3.46-13.37,5.27v-41.5c.66.13,1.31.28,1.95.43h.02c.91.21,1.81.44,2.7.67.05.01.09.02.13.03,2.56.67,5.02,1.42,7.38,2.23,2.85.97,5.55,2.02,8.09,3.12h.01c.19.09.38.17.56.25.34.15.67.29,1,.45,1.58.7,3.09,1.42,4.53,2.15,1.23.62,2.42,1.25,3.55,1.87l.87.48c.25.14.49.28.73.42,1.41.8,2.72,1.59,3.95,2.36,1.32.82,2.53,1.61,3.63,2.37h.01c.06.04.11.08.16.11.18.12.35.24.51.36h.01c.85.59,1.63,1.15,2.34,1.68,1.12.82,2.05,1.55,2.79,2.14.8.65,1.39,1.15,1.74,1.45.27.24.4.36.4.36Z"/>
        <path class="st40" d="M32.3,123.67c-.36.3-.94.31-1.31.02.5.11.6-.8,1.1-.95-.23-.1-.09-.43.08-.61-.48.38-1.17.48-1.74.25.25-.07.56-.27.44-.49.15,0,.33,0,.44-.11.11-.12.03-.36-.13-.33.12-.03.24-.08.34-.14.27-.17.46-.44.52-.75-.36.26-.81.37-1.25.33-.08-.01-.15-.02-.23-.03-.2-.04-.4-.11-.54-.26-.04-.06-.08-.12-.1-.19-.04-.12-.02-.26.06-.36.27.13.59.14.87.03-.07-.19-.02-.41.11-.56-.11-.03-.22-.05-.33-.08.33-.26.56-.64.64-1.05-.39.5-1.12.71-1.72.5,0-.3.13-.6.37-.79-.1-.05-.2-.09-.29-.14.36-.05.66-.36.7-.72-.3.2-.69.25-1.03.14.15.04.25-.21.12-.28.38-.19.67-.54.77-.95-.25.27-.62.42-.99.42-.1-.18-.25-.34-.44-.44.4-.09.73-.38.89-.75-.16.1-.33.2-.51.2s-.38-.12-.39-.3c.15-.01.31-.03.46-.04.02-.14-.02-.3-.11-.42.2-.02.38-.18.43-.37-.16,0-.33,0-.49,0,.39-.14.71-.46.83-.85-.37.32-.87.48-1.36.45.12-.36.24-.73.35-1.1.29-.01.56-.19.66-.45-.29.07-.56-.17-.68-.43-.11-.27-.12-.56-.2-.84.1.01.18-.09.16-.18-.29-.34-.42-.75-.35-1.17-.14.55-.27,1.1-.4,1.66-.02.09-.05.18-.03.27.01.08.05.15.05.23.01.31-.45.38-.76.33,0,.29.38.49.63.34.08.22-.16.49-.39.44.07.31.07.64,0,.95-.27.14-.66-.06-.69-.36-.13.29.05.62.26.86.21.25.45.49.48.81-.31.17-.75.03-.9-.28-.02.28.05.57.2.81-.17.24-.56.25-.82.1s-.43-.42-.58-.68c.01.33.2.65.48.83-.14.1-.3.16-.47.19.24.18.55.25.84.21-.34.26-.77.41-1.21.42.38.35,1.02.4,1.45.1,0,.32.01.64.01.96-.41-.03-.81-.13-1.19-.27.31.28.65.53,1.02.73-.02.01-.04.02-.06.02-.32.13-.7.08-1.02-.06-.34-.15-.63-.4-.9-.65-.01.5.37.97.86,1.08-.19.12-.43.15-.65.09.11.13.06.36-.09.44.19.24.48.41.79.45-.05.33-.4.54-.74.55-.3,0-.59-.12-.85-.27.03-.1.03-.2,0-.3-.33.16-.74.17-1.08.03.27-.09.49-.32.55-.59-.45.03-.91-.06-1.32-.25.11-.08.23-.15.35-.23-.12-.14-.23-.27-.35-.41.48-.1.79-.65.63-1.1-.43.43-1.19.51-1.7.17.53.06.65-.67.99-1.1.09-.11.19-.2.32-.25-.3-.1-.16-.56.04-.81-.37.35-.86.56-1.36.61-.29.03-.58,0-.86-.09.1-.04.19-.09.29-.16h.01c.2-.14.34-.34.21-.52.2,0,.43-.03.56-.19.12-.16,0-.47-.21-.41.55-.18.96-.69,1.02-1.25-.51.44-1.22.63-1.89.56-.26-.03-.53-.1-.72-.28s-.27-.49-.12-.7c.36.13.78.11,1.12-.06-.11-.24-.07-.54.08-.75-.14-.02-.29-.04-.43-.06.39-.37.65-.89.7-1.43-.34.53-.96.87-1.6.89-.17,0-.34,0-.5-.04-.02,0-.05,0-.07,0-.02-.19,0-.38.07-.55.06-.19.17-.37.32-.51l-.39-.15c.46-.11.82-.55.82-1.01-.35.29-.84.4-1.29.3.18,0,.26-.3.09-.39.47-.28.81-.77.89-1.3-.29.37-.75.61-1.23.65-.14-.23-.36-.41-.61-.52.49-.17.9-.58,1.05-1.07-.19.14-.39.29-.63.31-.24.03-.51-.11-.53-.35.19-.03.38-.06.58-.09.01-.19-.06-.39-.19-.53.13-.03.25-.09.34-.19h0s.03-.03.03-.05h0c.08-.09.12-.18.14-.29-.05,0-.11.01-.16.01-.16,0-.31.02-.47.03.18-.08.34-.19.47-.33.25-.23.43-.53.5-.86-.11.11-.23.21-.36.3-.39.27-.86.43-1.34.44.07-.33.15-.67.22-1,.04-.16.07-.31.11-.47.27-.03.51-.18.67-.4.05-.08.09-.17.12-.26-.36.13-.75-.15-.92-.48-.18-.33-.22-.71-.36-1.06.08,0,.15-.06.17-.13.02-.03.02-.07,0-.11-.41-.41-.63-.94-.59-1.49-.07.49-.15.98-.22,1.47-.04.24-.07.48-.11.72,0,.12-.03.24,0,.36.01.04.02.08.04.11.02.06.04.12.05.18.05.41-.53.54-.94.52.04.37.55.58.85.37.13.27-.14.64-.45.61.01.03.02.07.02.1.12.36.15.75.1,1.13-.16.1-.35.1-.53.05h0c-.2-.08-.38-.23-.42-.44-.09.28.02.56.2.8.07.1.16.2.24.28.3.3.65.59.71.99-.37.26-.96.13-1.19-.26,0,.37.13.73.36,1.02-.2.34-.7.39-1.06.23-.35-.17-.6-.5-.83-.81.06.42.33.82.72,1.02-.17.14-.37.24-.58.29.32.2.74.27,1.11.17-.39.36-.91.6-1.45.68-.02,0-.05,0-.07,0,.02.02.04.03.07.04.54.37,1.32.34,1.82-.07l.12,1.23c-.53,0-1.06-.07-1.57-.21.44.33.91.61,1.41.83-.41.25-.95.23-1.41.07s-.85-.45-1.24-.74c.05.64.6,1.21,1.25,1.3-.24.17-.55.24-.84.19.11.11.13.3.06.44-.03.05-.08.1-.13.13.28.3.68.48,1.08.5-.03.43-.46.75-.89.79-.43.05-.86-.11-1.25-.3.22.29.58.48.95.49l-.09.36c.13-.03.28.12.23.25.15.01.31.01.46.01-.1.3-.46.43-.77.39s-.58-.23-.84-.4c-.21.23.06.67.37.59,0,.1-.02.21-.03.32.1.02.21.05.32.08-.3.22-.71.15-1.08.17s-.82.26-.76.62c.06.16.26.25.41.19,0,.12-.01.24-.02.37.47.14,1.01.07,1.43-.2.15.35-.34.64-.73.64-.39-.01-.85-.1-1.12.18-.2-.12-.4-.24-.59-.36,0,.5.49.95,1,.92-.1.14-.24.24-.41.28.12.16.31.27.52.3-.15.11-.29.22-.44.33.29.23.71.29,1.05.15.01.11.03.22.04.33-.47.25-1.1.2-1.52-.12.1.49.52.89,1.01.99-.12.18-.36.28-.58.25.29.25.66.44,1.04.53-.44.3-1.1.22-1.45-.17-.21.18-.02.53.21.68.09.05.19.11.28.16-.1-.03-.2-.05-.3-.05-.29,0-.6.06-.84-.09.08-.03.16-.05.24-.08l-.03-.24c.23.05.43-.3.26-.47-.19.15-.39.3-.63.34-.24.05-.53-.04-.61-.26.11,0,.23-.02.35-.03-.04-.1.06-.22.17-.2-.03-.09-.06-.19-.09-.28.29-.02.56-.18.71-.41-.29.16-.61.3-.95.28-.33-.01-.68-.24-.72-.57.31-.03.61-.19.81-.43-.15-.08-.19-.31-.08-.43-.22.05-.46,0-.65-.12.5-.09.9-.55.91-1.05-.29.24-.58.48-.93.62-.34.14-.75.18-1.08,0,.37-.19.72-.42,1.04-.69-.38.13-.79.21-1.19.23.01-.32.02-.64.04-.95.42.3,1.06.28,1.45-.06-.44-.03-.86-.19-1.2-.47.29.06.61,0,.85-.18-.17-.03-.32-.09-.46-.19.29-.18.49-.49.51-.82-.16.25-.34.51-.61.66-.26.14-.65.12-.81-.13.16-.23.24-.52.23-.8-.16.31-.61.43-.91.25.03-.32.29-.56.5-.79.22-.24.41-.56.3-.85-.05.3-.44.48-.71.33-.06-.31-.05-.64.03-.95-.23.04-.46-.23-.37-.45.24.16.62-.03.64-.32-.32.04-.77-.04-.75-.35.01-.08.05-.16.06-.24.02-.09,0-.18-.02-.27l-.24-1.17c-.03-.16-.07-.33-.1-.5.02.16.01.32-.03.47-.05.26-.18.49-.36.7-.03.08.05.18.15.18-.09.27-.11.57-.23.83s-.41.49-.69.41c.09.26.36.45.64.47.1.37.21.74.31,1.11-.49.02-.98-.17-1.34-.5.11.4.41.73.8.88h-.49c.04.19.22.35.42.38-.1.12-.14.27-.12.42.15.02.3.03.45.05-.01.18-.22.3-.4.29s-.35-.12-.5-.22c.14.38.47.67.86.79-.19.09-.35.24-.45.42-.37,0-.73-.18-.98-.45.09.41.37.77.74.96-.12.08-.05.3.09.3-.33.09-.73.03-1.01-.18.03.36.33.68.68.74-.09.04-.19.09-.29.13.23.2.36.5.34.8-.61.19-1.33-.04-1.7-.55.06.41.28.8.6,1.07l-.33.06c.13.16.16.39.09.57.27.12.6.12.87,0,.09.12.09.29.02.43-.02.04-.05.08-.08.12-.14.14-.35.21-.55.24-.51.08-1.06-.03-1.47-.35.07.43.41.81.83.92-.15-.04-.24.21-.14.32.11.12.28.13.44.13-.03.04-.03.08-.03.12.02.17.26.32.45.38-.57.21-1.26.09-1.73-.31.16.19.29.53.06.62.49.17.56,1.07,1.07.99-.38.27-.96.25-1.31-.07-.11.36.16.77.53.82-.09.11-.17.22-.25.33.09.06.18.11.28.17-.29.15-.61.22-.94.23.09.14.17.27.24.39.05.02.09.04.14.06-.03,0-.05,0-.08.02l.1.16c.45.68.93,1.26,1.44,1.74.38.37.78.68,1.2.95.47.32.97.57,1.49.77.07.03.15.06.22.09.01,0,.02,0,.02,0,.48.17.99.32,1.51.43,1.11.24,2.32.36,3.64.42,3.96.19,7.94.3,11.91.34h.08c.4,0,.78,0,1.15-.03,1.59-.07,2.95-.34,4.17-.88h.01c.88-.37,1.68-.89,2.42-1.56.58-.52,1.12-1.14,1.63-1.86.15-.21.3-.43.45-.66.08-.12.15-.25.23-.37-.09-.04-.19-.06-.27-.11.09-.06.19-.11.28-.16l-.24-.33c.37-.05.66-.45.56-.81ZM9.67,122.91c.04.06.07.12.11.18-.14.06-.3.1-.45.13-.29,0-.62-.2-.53-.46.26.15.58.2.87.15ZM22.42,120.86c.33-.02.66-.04.95-.2.17-.09.32-.26.39-.44.15.18.38.31.62.34-.03.09-.07.18-.1.27.11,0,.21.11.16.21.12.01.24.03.36.04-.1.22-.39.3-.62.25-.24-.06-.43-.22-.62-.37-.18.16,0,.52.24.48,0,.08-.03.16-.04.24l.24.09c-.25.14-.56.06-.84.06-.29,0-.64.14-.62.42,0,.02,0,.04.02.05-.23-.07-.43-.21-.51-.43.37-.01.7-.32.73-.67-.12-.11-.24-.23-.36-.34ZM10.18,122.34s.02.03.03.05c-.01,0-.02,0-.03,0,.01-.02,0-.04,0-.06Z"/>
        <path class="st3" d="M47.06,142.69l-.79.31-1.11.44h-.01l-1.37.55-3.4,1.34-.34.13-3.69,1.46-11.4,4.49L0,161.26v-41.5c.96.2,1.91.41,2.84.64,3.13.75,6.13,1.63,8.98,2.6h.02c4.41,1.49,8.47,3.17,12.14,4.92.36.17.71.34,1.06.5.74.37,1.47.74,2.19,1.11h.01c.53.28,1.05.55,1.56.83.2.1.4.2.59.31.61.33,1.2.66,1.78.99.07.04.14.08.21.12.33.18.66.37.98.56,1.41.82,2.72,1.62,3.94,2.4h.01c.55.35,1.06.69,1.57,1.02,2.84,1.89,5.07,3.56,6.62,4.79h0c.72.58,1.29,1.05,1.71,1.4,0,0,.01.01.02.01.54.48.82.73.82.73Z"/>
        <path class="st2" d="M82.01,111.89c1.49-.19,2.98-.35,4.48-.5v47.9c-.44-.14-.89-.28-1.34-.43-.18-.06-.37-.11-.55-.17-4.98-1.55-10.05-2.97-14.73-5.2-3.11-1.48-6.04-3.32-8.97-5.15-3.19-1.99-6.37-3.98-9.8-5.51-2.14-.95-4.34-1.7-6.59-2.28-.59-.16-1.19-.3-1.79-.43-.76-.17-1.53-.32-2.3-.44-1.18-.21-2.37-.38-3.56-.5-2.11-.22-4.24-.32-6.37-.33h-.44c-2.92.01-5.86.2-8.75.52-1.07.12-2.29.19-3.47.08-2.17-.2-4.18-1.01-4.79-3.24,1.29-.18,2.46-.74,3.56-1.49,1.05-.7,2.03-1.57,3.01-2.43.11-.09.22-.19.33-.29.02-.02.05-.04.07-.06,0,0,.01,0,.01-.01.33-.29.66-.57,1-.85h.01c.26-.23.53-.44.8-.64.3-.24.61-.45.92-.65,0-.01.01-.01.01-.01.74-.48,1.5-.93,2.28-1.36.29-.17.6-.33.9-.49,1.29-.7,2.6-1.33,3.94-1.93.69-.32,1.39-.62,2.09-.92.97-.4,1.93-.8,2.9-1.18.2-.08.4-.16.6-.23,5.24-2.06,10.58-3.88,15.99-5.46.95-.28,1.91-.56,2.88-.82,1.69-.47,3.39-.91,5.1-1.33.57-.15,1.14-.28,1.71-.41,4.37-1.05,8.78-1.93,13.21-2.66,1.45-.24,2.9-.46,4.35-.66,1.1-.16,2.2-.31,3.3-.44Z"/>
        <path class="st43" d="M84.74,119.11c-.35.25-.87.28-1.24.05-.04-.02-.08-.04-.11-.07.54.11.65-.85,1.17-1.01-.02,0-.03,0-.04-.02-.18-.12-.04-.45.13-.63-.51.4-1.25.51-1.85.27.26-.07.6-.29.46-.52.17,0,.36,0,.47-.12.12-.12.03-.39-.13-.35.45-.11.83-.49.91-.94-.44.31-1.03.42-1.58.31-.21-.04-.42-.11-.57-.27-.14-.16-.18-.42-.04-.59.28.14.63.15.92.04-.07-.21-.02-.45.12-.61-.11-.02-.23-.05-.35-.08.35-.28.6-.68.68-1.11-.41.53-1.19.75-1.83.53-.01-.32.14-.64.39-.84-.1-.05-.2-.1-.31-.15.39-.06.71-.39.75-.77-.3.21-.71.27-1.07.16.14,0,.23-.23.1-.31.1-.05.2-.12.29-.19.26-.21.45-.49.53-.81-.27.28-.66.44-1.05.44-.1-.19-.27-.36-.46-.46.41-.11.77-.41.94-.8-.17.1-.35.2-.54.21-.17,0-.35-.1-.39-.25-.02-.02-.02-.05-.02-.08.08,0,.15-.01.23-.01h0c.08,0,.16,0,.24-.02,0-.03,0-.06,0-.09,0-.13-.04-.25-.12-.36.22-.02.41-.19.46-.39-.17,0-.35,0-.52-.02.41-.14.75-.49.88-.9-.39.34-.92.52-1.44.48.12-.39.25-.78.37-1.17.3-.01.59-.2.7-.48-.3.08-.6-.17-.72-.46-.12-.28-.13-.59-.21-.89.1,0,.19-.09.16-.18-.3-.37-.45-.81-.37-1.26-.14.59-.28,1.18-.43,1.77-.02.09-.04.19-.03.29,0,.08.06.16.06.25,0,.33-.48.4-.81.35,0,.3.41.52.67.36.08.23-.16.51-.41.46.07.34.07.68,0,1.02-.29.15-.7-.07-.74-.39-.14.31.06.66.28.92s.48.52.51.85c-.33.19-.8.04-.96-.29-.02.3.05.6.22.86-.08.11-.2.18-.34.21-.18.03-.38-.01-.54-.1-.28-.17-.45-.45-.62-.72.02.35.21.69.51.88-.14.1-.31.17-.49.19,0,0,0,0,.02,0h0c.25.19.56.27.86.22-.36.28-.82.44-1.29.45.41.37,1.09.42,1.54.11v.24c0,.26,0,.52.02.77-.44-.03-.86-.13-1.27-.28.33.3.7.56,1.09.77-.36.18-.79.13-1.16-.04-.36-.16-.66-.43-.96-.69,0,.53.4,1.03.93,1.15-.21.12-.47.16-.7.1.12.14.07.38-.1.46.21.26.52.44.85.48-.06.35-.43.58-.79.58-.32.01-.62-.12-.9-.28.03-.1.03-.21,0-.32-.36.17-.79.18-1.15.04.29-.1.52-.35.59-.64-.49.03-.98-.06-1.41-.26.12-.08.25-.17.37-.25-.12-.14-.25-.29-.37-.43.27-.06.5-.25.61-.5.11-.21.14-.45.06-.67-.46.46-1.26.54-1.81.18.53.06.68-.62,1-1.09.11-.15.23-.28.4-.35-.32-.11-.17-.59.04-.85-.61.58-1.55.8-2.37.55.34-.12.75-.44.55-.72.21-.02.46-.04.59-.21.14-.17-.01-.5-.21-.43.57-.19,1.01-.74,1.07-1.33-.54.46-1.29.66-2,.59-.28-.03-.57-.11-.77-.3-.21-.19-.29-.52-.13-.74.38.14.83.12,1.2-.07-.12-.25-.08-.56.08-.79-.15-.02-.31-.04-.46-.06.42-.4.69-.95.75-1.52-.48.73-1.45,1.1-2.31.88-.05-.41.11-.84.41-1.12-.14-.05-.28-.11-.41-.16.49-.12.87-.58.88-1.08-.38.31-.91.43-1.38.32.19,0,.28-.32.1-.4.35-.21.62-.53.79-.89.07-.16.12-.33.15-.5-.31.39-.8.65-1.3.69-.16-.24-.39-.44-.66-.55.53-.18.96-.62,1.13-1.14-.21.15-.42.31-.68.33-.25.03-.54-.12-.57-.37.21-.03.42-.06.62-.1.02-.2-.05-.41-.19-.56.27-.06.5-.29.54-.56-.22.01-.45.02-.67.04.51-.24.91-.73,1.03-1.27-.47.48-1.14.77-1.81.78.11-.51.23-1.03.35-1.55.38-.05.73-.33.84-.7-.35.12-.74-.12-.94-.44-.01-.02-.03-.05-.04-.07-.19-.35-.23-.76-.38-1.13.13,0,.23-.15.19-.26-.33-.34-.54-.73-.61-1.16-.02-.14-.03-.28-.02-.42-.02.16-.04.31-.07.47l-.27,1.86c-.02.12-.04.25-.01.37.03.11.09.21.1.32.05.43-.56.57-1,.55,0,.06.03.12.06.17.15.28.57.41.85.22.13.29-.16.68-.49.65.14.42.18.87.13,1.31-.36.22-.92-.01-1-.42-.14.42.15.85.46,1.16.32.31.69.62.76,1.05-.4.27-1.03.14-1.27-.28,0,.39.14.78.38,1.09-.21.35-.74.41-1.12.23-.38-.17-.64-.52-.89-.86.06.46.36.88.77,1.09-.18.15-.39.25-.62.31.35.22.79.29,1.18.18-.44.4-1.01.66-1.61.73.57.44,1.45.43,2-.03.03.26.05.51.08.76.02.19.04.37.06.55-.41.01-.82-.03-1.22-.12-.15-.03-.3-.07-.45-.11.09.06.17.13.26.18.39.28.8.51,1.23.71-.44.26-1.01.24-1.5.07-.28-.1-.53-.24-.78-.41-.19-.12-.36-.24-.54-.37.02.17.06.34.15.5.21.46.67.81,1.18.88-.25.18-.58.26-.89.2.17.17.13.48-.07.61.07.07.15.14.23.2,0,.01.01.01.01.01.13.06.26.13.38.19.17.08.35.12.53.13,0,.05-.01.09-.02.14-.1.38-.52.66-.93.7-.46.05-.92-.12-1.33-.32.23.31.61.51,1.01.52-.03.13-.07.26-.1.39.15-.04.3.12.25.26.16.01.33.01.49.01-.11.31-.49.46-.82.41-.34-.04-.62-.24-.9-.42-.22.24.07.71.39.62-.01.11-.01.23-.02.34l.33.09c-.32.23-.75.16-1.14.18-.4.03-.87.28-.81.66.06.17.28.27.44.2l-.03.39c.51.16,1.08.08,1.53-.21.16.38-.37.69-.78.68-.42,0-.91-.1-1.19.19-.21-.12-.42-.25-.63-.38,0,.53.52,1.01,1.06.98-.1.15-.25.25-.43.29.13.18.33.3.55.32-.16.12-.31.24-.47.36.31.24.76.31,1.12.16.02.11.03.23.04.35-.5.27-1.16.22-1.62-.12.09.4.38.74.75.92.1.06.21.1.33.12-.13.2-.38.3-.62.26.32.28.7.48,1.11.58-.47.31-1.17.23-1.54-.19-.23.19-.03.56.22.72l.3.18c-.1-.04-.22-.06-.32-.06-.3,0-.64.07-.89-.09.09-.03.17-.06.26-.09-.02-.08-.03-.17-.04-.26.25.05.46-.32.27-.49-.2.15-.41.31-.67.36-.25.05-.55-.05-.65-.28.13-.01.25-.02.38-.03-.05-.1.07-.24.18-.21,0-.04-.02-.07-.03-.11-.02-.06-.04-.13-.06-.19.3-.02.59-.19.75-.44-.31.17-.65.32-1.01.3-.35-.01-.72-.26-.76-.6.33-.04.65-.21.86-.46-.16-.09-.21-.33-.09-.46-.23.05-.48,0-.69-.12.53-.1.95-.59.96-1.12-.3.25-.61.51-.98.66-.36.15-.8.19-1.15,0,.4-.2.77-.45,1.11-.74-.41.14-.84.23-1.27.25,0-.34.03-.68.04-1.02.45.33,1.13.3,1.54-.06-.46-.03-.91-.2-1.27-.49.31.06.65-.01.9-.19-.17-.04-.34-.11-.48-.21.3-.19.51-.52.54-.87-.18.27-.36.54-.65.7-.28.15-.69.13-.87-.14.17-.25.26-.55.25-.85-.17.33-.65.46-.97.26.04-.33.31-.58.54-.83s.43-.6.31-.91c-.05.32-.47.52-.75.36-.06-.34-.05-.68.03-1.01-.17.03-.32-.09-.38-.24-.03-.08-.04-.16-.01-.24.25.16.66-.04.68-.34-.34.04-.82-.05-.8-.38.01-.09.05-.16.07-.25.01-.09,0-.19-.02-.28-.13-.6-.25-1.19-.37-1.78.06.45-.1.88-.42,1.24-.02.09.06.19.16.19-.09.29-.11.6-.24.88s-.43.52-.73.44c.1.27.38.48.68.5l.06.21c.09.32.18.65.27.97-.52.02-1.05-.18-1.42-.53.11.42.44.77.84.93h-.52c.05.21.23.38.45.41-.11.12-.15.29-.13.45.16.01.32.03.48.04,0,.2-.23.33-.42.31-.2-.01-.37-.12-.54-.22.16.39.5.71.92.83-.2.09-.37.25-.48.44-.39-.01-.78-.18-1.04-.47.1.43.39.82.79,1.02-.13.08-.05.31.09.31-.36.11-.77.04-1.07-.18.03.38.34.72.72.78-.1.05-.2.1-.31.15.25.2.39.53.36.84-.64.21-1.41-.04-1.81-.58.07.43.3.84.64,1.14-.11.02-.23.04-.35.06.14.17.18.41.1.61.29.13.63.13.92,0,.14.17.09.42-.06.58-.15.15-.37.22-.58.26-.55.08-1.13-.04-1.57-.37.05.31.23.59.49.78.12.09.25.15.4.19-.17-.04-.26.22-.15.34.11.13.3.14.47.14-.15.23.18.46.44.53-.61.23-1.34.1-1.84-.32.17.19.31.55.07.65.14.05.25.16.35.29.24.34.39.83.78.76-.4.3-1.02.27-1.39-.07-.12.38.17.82.56.88-.09.11-.18.23-.27.34l.3.18c-.3.16-.65.24-.99.25.09.15.17.28.26.41.04.03.09.05.14.06-.03.02-.06.02-.09.03l.11.17c.54.82,1.12,1.49,1.74,2.04.03.04.06.06.09.08,2.2,1.93,4.92,2.42,8.29,2.57,4.25.2,8.5.32,12.75.36,4.24.04,7.16-1.02,9.54-4.03.31-.39.62-.82.91-1.28.08-.13.16-.26.25-.39-.1-.04-.2-.07-.3-.12.11-.06.21-.11.31-.17-.09-.12-.17-.23-.26-.35.39-.05.68-.46.6-.83v-.03s-.03.02-.05.04ZM74.28,116.08c.35-.02.7-.04,1.01-.21.18-.1.34-.28.41-.47.17.2.41.33.66.36-.03.1-.07.2-.1.29.11-.01.22.12.17.23.13,0,.25.02.38.04-.1.23-.41.31-.66.26-.25-.06-.46-.23-.66-.39-.19.17.01.55.26.51-.01.08-.03.17-.05.25.09.03.17.07.26.1-.26.15-.59.07-.9.06-.3,0-.68.15-.66.45l.03.06c-.24-.08-.46-.23-.54-.47.39,0,.74-.33.78-.71l-.39-.36ZM61.27,117.66s.02.03.03.05c0,0-.02,0-.03,0,0-.02,0-.04,0-.06ZM60.73,118.27c.04.06.07.12.11.18-.15.07-.31.11-.48.14-.3,0-.66-.21-.56-.49.28.16.61.22.93.17Z"/>
        <path class="st36" d="M84.79,119.1c.57-.02,1.13-.05,1.7-.07v47.24c-.27-.12-.54-.23-.81-.34-.4-.17-.81-.34-1.22-.51-.62-.25-1.24-.51-1.86-.76-.35-.14-.7-.29-1.06-.43l-.06-.03c-.75-.31-1.5-.62-2.24-.94h0c-.13-.06-.25-.11-.37-.16-1.41-.61-2.8-1.24-4.16-1.92-.03,0-.07-.03-.1-.05-.48-.23-.95-.48-1.42-.73-.12-.06-.23-.12-.34-.19-.52-.28-1.04-.57-1.55-.87-1.02-.6-2.01-1.25-2.98-1.91-.1-.07-.21-.15-.31-.22-.68-.47-1.36-.96-2.03-1.45-3.09-2.28-6.08-4.71-9.27-6.83-1.02-.68-2.06-1.32-3.13-1.92-.04-.02-.08-.04-.12-.06,0-.01,0-.01,0-.01-.75-.42-1.52-.81-2.3-1.17-1.94-.93-3.94-1.7-5.99-2.33h-.01c-1-.31-2.01-.59-3.04-.83h-.01c-1.54-.38-3.1-.69-4.68-.93-.07-.02-.14-.03-.22-.03h-.01c-1.41-.23-2.84-.39-4.27-.52-2.64-.23-5.29-.31-7.93-.28-.26,0-.51.01-.77.01-2.07.04-4.72-.15-6.39-1.41-.78-.56-1.35-1.37-1.55-2.49,2.51-.13,4.68-1.69,6.82-3.24.22-.16.44-.32.66-.48.08-.06.16-.11.24-.17.61-.44,1.22-.86,1.84-1.23.23-.14.47-.27.71-.4.47-.25.95-.48,1.43-.71.27-.13.54-.25.82-.37,1.95-.89,3.96-1.64,5.99-2.31.45-.16.89-.3,1.34-.45h.01c.96-.3,1.92-.59,2.88-.87.01-.01.03-.01.04-.02.03,0,.05-.01.08-.02.21-.06.43-.12.64-.18h.01c.97-.29,1.94-.56,2.91-.83.35-.1.7-.19,1.05-.28.02,0,.04,0,.06,0,2.92-.79,5.85-1.49,8.8-2.13.54-.12,1.08-.23,1.62-.34,3.68-.77,7.39-1.42,11.11-1.96,0,0,0-.01.02,0,6.01-.89,12.07-1.49,18.14-1.8.41-.02.83-.04,1.24-.05.02,0,.03,0,.05,0Z"/>
        <path class="st44" d="M86.49,131.78v35.3l-.77-.48-1.27-.78h0s-1.85-1.16-1.85-1.16l-1.08-.67h-.02s-2.31-1.45-2.31-1.45l-.29-.18-5.66-3.52-.21-.14-8.06-5.01-1.3-.81-6.96-3.95-2.81-1.59s-.02-.02-.03-.02l-2.72-1.55-4.88-2.77-5.85-3.32-4.36-2.48h-.01s-.74-.42-.74-.42l-8.74-4.97-.05-.03h59.97Z"/>
        <path class="st67" d="M70.08,134.62c5.47-.17,10.94-.28,16.41-.36v.72c-5.47-.08-10.94-.19-16.41-.36Z"/>
        <path class="st67" d="M81.38,137.38c1.7-.05,3.41-.1,5.11-.14v.28c-1.7-.04-3.41-.09-5.11-.14Z"/>
        <path class="st5" d="M23.31,131.99c-.01.29-.08.56-.18.82-.02.06-.05.11-.08.17-.09.18-.19.36-.32.52-.86,1.12-2.52,1.7-3.97,1.61-.73-.04-1.44-.24-2.16-.39-.28-.05-.56-.1-.84-.13-1.73-.18-3.43.41-5.07.99-2.45.85-7.83,3.87-10.69,3.54v-9.02c.37-.1.76-.16,1.15-.17-.15.01.08-.91.25-1.46.05-.2.1-.35.12-.4.09-.23.19-.44.32-.64.25-.43.61-.79,1.08-1.03.83-.42,1.89-.37,2.69.13.01-.6.31-1.15.66-1.64.36-.51.8-.99,1.36-1.25,1-.46,2.24-.14,3.06.59.13.12.25.25.35.38.59.71.91,1.63,1.03,2.53.32-.52.78-.95,1.32-1.24.38-.2.79-.33,1.21-.29.62.06,1.15.5,1.47,1.04.24.4.38.84.5,1.29.04.15.07.3.11.45.13-.17.28-.32.44-.45.66-.52,1.57-.72,2.4-.58.5.09.97.28,1.41.55.47.29.89.67,1.25,1.08.14.16.27.32.38.5.07.1.13.2.19.3.12.2.22.4.31.62.07.18.13.36.17.55.03.1.05.21.07.32.04.25.04.48.01.71Z"/>
        <path class="st57" d="M11.04,124.61c0,.18-.01.36-.06.53-.3,1.24-1.89,2.04-2.96,1.36.27.5.3,1.11.14,1.65-.14.47-.42.89-.82,1.17-.31.22-.68.34-1.06.36-.53.04-1.08-.11-1.51-.43,0,0-.01,0-.02,0-.1-.08-.19-.17-.28-.27l.06.18c.17.5.31,1.02.26,1.55-.07.58-.48,1.17-1.07,1.25-.61.06-1.13-.44-1.53-.91.01.68-.44,1.31-1.05,1.61h-.01s-.03.02-.05.03c-.33.15-.7.22-1.08.22v-2.8c.37-.1.76-.16,1.15-.17-.15.01.08-.91.25-1.46.05-.2.1-.35.12-.4.09-.23.19-.44.32-.64.25-.43.61-.79,1.08-1.03.83-.42,1.89-.37,2.69.13.01-.6.31-1.15.66-1.64.36-.51.8-.99,1.36-1.25,1-.46,2.24-.14,3.06.59.13.12.25.25.35.38Z"/>
        <path class="st1" d="M50.22,129.95c-.07-.13-.14-.25-.22-.37-.4-.59-.98-1.09-1.66-1.28-.69-.19-1.49-.04-1.98.49-.06-.42-.11-.84-.29-1.22-.18-.38-.5-.71-.91-.8-.28-.06-.57,0-.83.11-.38.16-.73.42-.98.74-.02-.74-.22-1.5-.72-2.06-.49-.55-1.31-.85-2.01-.62-.4.13-.73.42-1.01.74-.27.3-.51.66-.56,1.06-.5-.39-1.21-.5-1.8-.28-.49.18-.83.56-1.05,1.02-.06.12-.53,1.21-.39,1.22-1.09-.08-2.22.34-2.87,1.2-.22.29-.39.62-.49.96h.05c-.49,1.39.12,3.24,1.57,3.83,1.75.72,5.94-1.09,7.75-1.52,1.14-.27,2.33-.54,3.47-.3.67.14,1.3.45,1.98.57,1.48.25,3.39-.51,3.32-2.24-.02-.44-.16-.87-.37-1.26Z"/>
        <path class="st34" d="M86.49,141.22v42.57H0v-48.37c6.22-1.45,12.79-2.51,19.61-3.13.26-.03.51-.05.76-.07.14-.02.27-.03.4-.03.04-.01.09-.02.13-.01h.01c.8-.08,1.59-.14,2.4-.19.84-.06,1.68-.11,2.53-.15.24-.01.48-.02.73-.03.19-.02.38-.02.57-.03,1.33-.06,2.68-.1,4.03-.12.39-.01.77-.02,1.16-.02.57,0,1.14,0,1.71,0,2.32,0,4.63.05,6.9.15,2.04.09,4.06.21,6.06.38h0c1.08.08,2.15.18,3.22.29,13.35,1.38,25.67,4.44,36.26,8.77Z"/>
        <path class="st42" d="M60.64,160.11c.05,1.6-.15,3.17-.53,4.7-.14.55-.3,1.09-.48,1.63s-.38,1.07-.6,1.59c-.32.79-.68,1.56-1.07,2.32-.26.5-.53,1-.8,1.49-.42.73-.85,1.45-1.29,2.14-.29.46-.58.91-.88,1.35h0c-.29.45-.58.88-.87,1.3-.43.63-.86,1.25-1.26,1.83-.27.39-.53.77-.77,1.14l-.36.54c-.23.36-.45.7-.65,1.03-.3.49-.55.96-.76,1.39-.07.14-.13.28-.18.42-.03.07-.05.13-.07.2-.04.12-.08.24-.1.35-.02.09-.04.17-.05.26H0v-15.38c1.21-.54,2.42-1.06,3.64-1.57.19-.08.39-.16.58-.25,1.12-.46,2.25-.91,3.37-1.36l.24-.09c9.15-3.61,18.06-6.6,23.77-10.12,4.15-2.55,5.31-5.35,4.75-8.1-.4-2-1.71-3.97-3.43-5.79-.74-.79-1.57-1.56-2.43-2.28-.04-.04-.09-.08-.14-.12-2.43-2.04-5.15-3.78-7.25-5.01-.13-.07-.25-.14-.37-.22-.98-.56-1.8-.99-2.36-1.28-.17-.09-.31-.17-.43-.22-.16-.09-.27-.14-.33-.17-.01,0-.02,0-.02,0h.06c.08.03.17.06.24.08.04.01.09.02.13.03.02.01.03.01.04.02.28.07.56.15.84.23h.01c.75.21,1.5.42,2.22.63.29.09.58.18.87.26,1.03.31,2.04.62,3.02.93.49.15.98.31,1.45.47,1.43.46,2.81.94,4.12,1.41.44.16.87.32,1.3.48.43.16.85.32,1.26.48.3.11.6.23.9.35h.01c2.43.97,4.65,1.95,6.66,2.93,1.24.61,2.4,1.22,3.5,1.83,0,0,.01.01.02.01.24.14.47.28.71.42.26.15.51.3.76.45.5.3.98.61,1.45.91.23.15.45.29.67.45,1.35.91,2.55,1.83,3.62,2.75,0,0,0,0,0,.01.14.12.28.24.41.37,0,0,.02.01.03.02.03.02.05.04.08.07.26.23.5.46.74.69.08.08.15.15.23.23.23.22.45.45.66.68.26.28.51.56.75.84s.47.56.69.84c.21.28.42.55.61.83.2.28.38.56.56.84.02.03.04.07.07.11.14.24.28.49.42.73.04.06.07.12.1.18.11.22.22.43.33.65.13.28.25.56.37.83.21.52.39,1.03.54,1.54.03.09.05.18.08.27.06.22.11.45.16.67,0,.04.02.09.03.13.05.23.1.46.13.69.05.27.08.54.11.81.03.25.05.49.06.74,0,.13.02.26.02.4Z"/>
        <path class="st45" d="M38.74,124.88s-.02-.01-.02-.01h.06s-.02,0-.04.01Z"/>
        <g class="st0">
          <path class="st29" d="M20.02,131.93s.03.01.04.02c-.02,0-.03,0-.05,0-.04-.02-.08-.03-.12-.04.04.01.09.02.13.03Z"/>
        </g>
        <g class="st47">
          <path class="st15" d="M60.64,160.11c.05,1.6-.15,3.17-.53,4.7-.14.55-.3,1.09-.48,1.63s-.38,1.07-.6,1.59c-.32.79-.68,1.56-1.07,2.32-.26.5-.53,1-.8,1.49-.42.73-.85,1.45-1.29,2.14-.29.46-.58.91-.88,1.35h0c-.29.45-.58.88-.87,1.3-.43.63-.86,1.25-1.26,1.83-.27.39-.52.77-.77,1.14l-.36.54c-.23.36-.45.7-.65,1.03-.3.49-.55.96-.76,1.39-.07.14-.13.28-.18.42-.03.07-.05.13-.07.2-.04.12-.08.24-.1.35-.03.09-.05.17-.05.26H16.87c.71-1.64,1.69-3.21,2.97-4.67.03-.03.06-.07.08-.1h.01c.27-.31.54-.59.83-.88.16-.16.32-.32.49-.47.01,0,.02-.02.03-.02.51-.5,1.03-.97,1.56-1.41,9.99-8.43,21.36-8.88,25.44-21.22,1.34-4.04-.84-7.79-4.5-11.03-.53-.48-1.09-.94-1.67-1.38h-.01c-1.6-1.24-3.39-2.38-5.24-3.43h-.01c-1.07-.61-2.16-1.19-3.24-1.73-3.63-1.81-7.21-3.24-9.85-4.21-.25-.09-.48-.18-.71-.26-.92-.33-1.7-.6-2.28-.79-.29-.1-.53-.18-.71-.24.28.07.56.15.84.23h.01c.75.21,1.5.42,2.22.63.29.09.58.18.87.26,1.03.31,2.04.62,3.02.93.49.15.98.31,1.45.47,1.43.46,2.81.94,4.12,1.41.44.16.87.32,1.3.48.43.16.85.32,1.26.48.3.11.6.23.9.35h.01c2.43.97,4.65,1.95,6.66,2.93,1.24.61,2.4,1.22,3.5,1.83,0,0,.01.01.02.01.24.14.47.28.71.42.26.15.51.3.76.45.5.3.98.61,1.45.91.23.15.45.29.67.45,1.35.91,2.55,1.83,3.62,2.75,0,0,0,0,0,.01.14.12.28.24.41.37,0,0,.02.01.03.02.03.02.05.04.08.07.26.23.5.46.74.69.08.08.15.15.23.23.23.22.45.45.66.68.26.28.51.56.75.84s.47.56.69.84c.21.28.42.55.61.83.2.28.38.56.56.84.02.03.04.07.07.11.14.24.28.49.42.73.04.06.07.12.1.18.11.22.22.43.33.65.13.28.25.56.37.83.21.52.39,1.03.54,1.54.03.09.05.18.08.27.06.22.11.45.16.67,0,.04.02.09.03.13.05.23.1.46.13.69.05.27.08.54.11.81.03.25.05.49.06.74,0,.13.02.26.02.4Z"/>
        </g>
        <path class="st68" d="M41.42,153.19c-.03.52-.25,1-.37,1.51-.16.49-.25,1.01-.51,1.47-.76,1.95-2.1,3.61-3.54,5.1-3.02,2.87-6.72,4.83-10.41,6.5-1.41.65-2.84,1.25-4.26,1.85-.17.07-.33.14-.49.21-.28.11-.55.23-.82.35-.21.08-.41.17-.62.27-.43.17-.86.36-1.29.55-.13.06-.26.11-.38.17-.35.15-.7.31-1.04.47-.33.15-.66.31-.99.47-.37.17-.74.35-1.1.54-.3.16-.6.32-.89.48-.2.11-.39.22-.58.33-.4.23-.8.46-1.19.71-.22.13-.44.27-.66.42-.35.22-.7.45-1.05.69-.04.02-.07.04-.11.08-.43.28-.86.59-1.27.9-1.04.76-2.04,1.57-3.01,2.42-.01.01-.02.02-.03.02-1.78,1.57-3.43,3.27-4.93,5.09H0v-2.85c.11-.13.23-.25.36-.37.07-.09.16-.17.24-.26.56-.56,1.13-1.12,1.72-1.64.01-.03.02-.04.03-.03.37-.35.75-.69,1.13-1.01.06-.06.12-.11.19-.16.47-.41.96-.81,1.45-1.2.11-.09.23-.18.34-.26.34-.27.69-.53,1.04-.79.19-.13.37-.26.56-.38.35-.26.7-.5,1.05-.73.11-.08.22-.16.33-.22.39-.26.77-.51,1.17-.75.87-.54,1.76-1.05,2.66-1.52.16-.09.31-.17.47-.24.52-.28,1.04-.53,1.57-.78.04-.02.09-.04.13-.06.03-.02.07-.03.1-.05.72-.32,1.43-.62,2.15-.91.26-.11.51-.21.77-.31.45-.18.9-.35,1.36-.53l.09-.03,1.62-.6c.14-.05.28-.11.42-.16.35-.13.71-.26,1.06-.39.05,0,.11-.03.16-.05,1.25-.46,2.49-.91,3.71-1.4,3.71-1.46,7.33-3.17,10.3-5.72.37-.32.69-.69,1.04-1.03l.51-.52c.16-.19.3-.39.44-.58.29-.39.6-.77.86-1.18l.69-1.28c.26-.42.37-.9.54-1.36.13-.46.38-.91.42-1.4.15-.96.4-1.93.37-2.92,0-1.58-.34-3.19-1.01-4.66-.64-1.46-1.6-2.78-2.84-3.81h-.01c-.59-.49-1.24-.9-1.95-1.23.79.32,1.52.74,2.18,1.26,1.24.95,2.24,2.22,2.96,3.65.75,1.48,1.19,3.13,1.27,4.78.08,1.04-.12,2.05-.23,3.08Z"/>
        <g class="st49">
          <path class="st27" d="M24.95,151.41c-.07.14-.14.27-.22.4-1.66,2.68-5.07,3.57-8.13,4.35-5.66,1.45-11.21,3.29-16.6,5.52v-21.22c3.77-.75,7.58-1.2,11.42-1.22,3.74-.01,7.68.47,10.68,2.71l.03.03c2.85,2.14,4.42,6.3,2.82,9.43Z"/>
        </g>
        <g class="st52">
          <path class="st16" d="M13.37,145.44c0,2.39-4.43,4.18-6.05,4.68-2.44.75-4.88,1.52-7.32,2.29v-7.8c1.41-.26,2.82-.49,4.24-.69,1.86-.26,8.39-1.81,9.08,1.08.04.15.05.29.05.44Z"/>
        </g>
        <g class="st55">
          <path class="st26" d="M86.49,147.96v34.62c-.59.42-1.2.83-1.83,1.21h-20.85c-3.32-3.98-2.92-8.04-1.4-12.18h0c.48-1.34,1.08-2.67,1.71-4.02h0c.18-.4.36-.78.55-1.17.12-.25.23-.5.35-.75,1.7-3.62,2.57-6.07.98-9.86-.01,0-.01-.03-.02-.05-.02-.04-.04-.08-.05-.12-.29-.67-.61-1.32-.96-1.95-1.09-1.97-2.47-3.77-4.07-5.35-.64-.64-1.32-1.25-2.02-1.81-2.31-1.85-4.96-3.33-6.85-5.61-.29-.35-.57-.73-.64-1.18-.2-1.34,1.44-2.15,2.78-2.37,8.98-1.53,17.22,3.56,25.12,7.05,2.39,1.06,4.87,2.2,7.2,3.54Z"/>
        </g>
        <g class="st69">
          <path class="st28" d="M33.7,67.45c0,.11-.02.22-.03.34H0v-3.51c.53-.45,1.15-.78,1.83-.97.47-.15.97-.22,1.49-.22.55,0,1.07.11,1.58.26.04-2.64,2.01-4.83,4.57-5.17.24-.04.48-.06.73-.06,1.81,0,3.4.91,4.36,2.3.9-1.54,2.53-2.59,4.44-2.64h.13c2.57,0,4.72,1.83,5.2,4.26.92-.53,1.97-.85,3.11-.85,3.46,0,6.26,2.8,6.26,6.26Z"/>
        </g>
        <g class="st74">
          <path class="st17" d="M32.16,87.19c0-.05.02-.1.02-.16,0-1.61-1.31-2.92-2.92-2.92-.53,0-1.02.15-1.45.4-.23-1.13-1.22-1.99-2.42-1.99-.91,0-1.7.5-2.13,1.23-.45-.64-1.19-1.07-2.03-1.07-1.35,0-2.45,1.09-2.47,2.43-.23-.07-.48-.12-.73-.12-1.27,0-2.3.96-2.44,2.19h16.58Z"/>
        </g>
        <g class="st70">
          <path class="st19" d="M85.99,53.34c.17,0,.33.01.5.04v9.86h-18.09c.26-2.61,2.11-4.65,4.39-4.65.46,0,.89.11,1.31.27.04-2.77,1.88-5.02,4.19-5.15.08-.02.16-.02.24-.02,1.51,0,2.85.89,3.65,2.26.77-1.55,2.18-2.61,3.81-2.61Z"/>
        </g>
        <g class="st72">
          <path class="st18" d="M59.25,74.65c0-.05.01-.1.01-.16,0-1.61-1.11-2.92-2.47-2.92-.45,0-.86.15-1.23.4-.19-1.14-1.04-1.99-2.05-1.99-.77,0-1.44.5-1.8,1.23-.38-.65-1.01-1.07-1.72-1.07-1.15,0-2.07,1.09-2.09,2.44-.2-.07-.4-.12-.62-.12-1.07,0-1.95.96-2.07,2.19h14.03Z"/>
        </g>
        <path class="st4" d="M9.92,177.11l-.27,2.19h0s-.41,3.44-.41,3.44l-.13,1.05H0v-8.75c.14,2.1.27,4.14.36,5.53.07,1.07.11,1.74.11,1.74l.13-2,.71-11.32,1.01,9.68.02.22v-.25s.3-6.2.3-6.2l.84,5.19.2,1.26s0-.54-.01-1.42c-.01-2.33-.04-7.05-.03-10.63,0-2.2.01-3.96.04-4.45.04-.57.26,1.42.54,4.2.31,3.06.67,7.08.9,9.68.14,1.57.23,2.62.23,2.62l.11-2.88.34-8.7.7,7.91.31,3.48.02.19v-.21s.23-3.84.23-3.84l.53-9.61.16-2.84.08,2.75.28,8.97.09,3,.24-3.22.6-8.18.57,7.43.24,3.12.07.85Z"/>
        <path class="st6" d="M22.97,177.86l-.72,5.93h-13.01v-5.93l.41,1.44h0s1.22,4.26,1.22,4.26l.25-8.2.02-.69.09.61,1.11,7.78s-.05-4.35-.06-8.47c-.01-1.03-.01-2.04-.01-2.97,0-2.14.02-3.83.07-4.15.05-.36.21,1.43.4,3.91.07.86.13,1.82.2,2.79.3,4.23.59,8.89.59,8.89l.6-9.6.18-2.86.05-.86.08.8.27,2.59.68,6.52.3-6.46,1.04,6.46s-.02-3.66-.03-7.54c-.01-.84-.01-1.7-.01-2.53,0-3.07,0-5.8.04-6.43.04-.7.37,2.42.73,6.12.08.77.15,1.57.23,2.37.37,4.05.72,8.01.72,8.01l.32-8.48.09-2.43.03-.68.06.65.2,2.29.73,8.12.05.53.03-.63h.01s.47-8.57.47-8.57l.13-2.34.27-4.96.15,4.8.07,2.23.23,7.49v.19s.03-.21.03-.21l.56-7.82.17-2.27.08-1.1.08,1.05.16,2.11.51,6.62.13,1.62Z"/>
        <path class="st7" d="M74.91,175.1l-.23,1.25h0s-1.37,7.44-1.37,7.44h-15.56l-.95-.49.58-9.3,1.63,7.4,1.06-11.33.86,10.82s.98-18.61,1.25-19.91c.14-.7.21,5.1.23,10.62h0c.03,4.8.03,9.38.03,9.38l1.68-13.39h0s.45-3.55.45-3.55l.1,2.38.43,10.35.89-8.22.82,8.32s.83-14.74,1.2-19.66c.05-.67.09-1.16.12-1.4.05-.42.12.26.19,1.62.28,5.09.63,19.58.63,19.58l1.49-14.75.4,14.87,2.01-16.92.18-1.51.3-2.56-.09,2.7-.05,1.56-.46,14.56,1.88-13.83.09-.65v.7s.2,13.55.2,13.55v.37Z"/>
        <path class="st8" d="M86.49,175.12v8.67h-11.09l-.88-.41.16-7.02h0s.05-2.3.05-2.3l.17.67v.02l1.75,6.64.6-11.36,1.3,10.77s.15-12.43.32-17.7c0-.26.02-.51.03-.74.03-.78.06-1.32.09-1.51.05-.27.12.42.2,1.69.02.22.03.46.05.71h0c.34,5.36.83,17.58.83,17.58l1.41-16.63.02-.22v-.16s.02.17.02.17l.02.24,1.01,12.28.56-8.24,1.15,8.28s.08-5.38.19-10.73h0c0-.14,0-.27,0-.4.05-2.46.1-4.87.14-6.73.05-1.62.09-2.81.13-3.24.05-.59.21.94.42,3.41.16,1.96.34,4.51.53,7.07,0,.22.03.45.04.67.36,5.1.68,10,.68,10l.09-1.48Z"/>
        <path class="st56" d="M60.07,23.77c-.65.03-.68.06-.7.89-.03-.82-.05-.85-.7-.89.65-.03.68-.06.7-.89.03.82.05.85.7.89Z"/>
        <path class="st56" d="M70.99,11.95c-.65.03-.68.06-.7.89-.03-.82-.05-.85-.7-.89.65-.03.68-.06.7-.89.03.82.05.85.7.89Z"/>
        <path class="st56" d="M60.07,87.1c-.65.03-.68.06-.7.89-.03-.82-.05-.85-.7-.89.65-.03.68-.06.7-.89.03.82.05.85.7.89Z"/>
        <path class="st56" d="M65.86,60.12c-.65.03-.68.06-.7.89-.03-.82-.05-.85-.7-.89.65-.03.68-.06.7-.89.03.82.05.85.7.89Z"/>
        <path class="st56" d="M25.33,23.77c-.65.03-.68.06-.7.89-.03-.82-.05-.85-.7-.89.65-.03.68-.06.7-.89.03.82.05.85.7.89Z"/>
        <path class="st56" d="M64.45,46.56c-.65.03-.68.06-.7.89-.03-.82-.05-.85-.7-.89.65-.03.68-.06.7-.89.03.82.05.85.7.89Z"/>
        <path class="st56" d="M43.95,10.18c-.65.03-.68.06-.7.89-.03-.82-.05-.85-.7-.89.65-.03.68-.06.7-.89.03.82.05.85.7.89Z"/>
        <path class="st56" d="M11.96,38.22c-1.27.07-1.31.12-1.36,1.72-.05-1.6-.09-1.65-1.36-1.72,1.27-.07,1.31-.12,1.36-1.72.05,1.6.09,1.65,1.36,1.72Z"/>
        <path class="st56" d="M26.69,51.6c-1.27.07-1.31.12-1.36,1.72-.05-1.6-.09-1.65-1.36-1.72,1.27-.07,1.31-.12,1.36-1.72.05,1.6.09,1.65,1.36,1.72Z"/>
        <path class="st56" d="M83.4,32.02c-1.27.07-1.31.12-1.36,1.72-.05-1.6-.09-1.65-1.36-1.72,1.27-.07,1.31-.12,1.36-1.72.05,1.6.09,1.65,1.36,1.72Z"/>
        <path class="st56" d="M36.35,76.35c-1.27.07-1.31.12-1.36,1.72-.05-1.6-.09-1.65-1.36-1.72,1.27-.07,1.31-.12,1.36-1.72.05,1.6.09,1.65,1.36,1.72Z"/>
        <path class="st56" d="M12.64,13.67c-1.27.07-1.31.12-1.36,1.72-.05-1.6-.09-1.65-1.36-1.72,1.27-.07,1.31-.12,1.36-1.72.05,1.6.09,1.65,1.36,1.72Z"/>
        <path class="st56" d="M78.26,81.46c-1.27.07-1.31.12-1.36,1.72-.05-1.6-.09-1.65-1.36-1.72,1.27-.07,1.31-.12,1.36-1.72.05,1.6.09,1.65,1.36,1.72Z"/>
        <path class="st56" d="M11.28,71.9c-.63.03-.65.06-.68.86-.03-.8-.05-.83-.68-.86.63-.03.65-.06.68-.86.03.8.05.83.68.86Z"/>
      </g>
    </g>
  </g>
</svg>