<?xml version="1.0" encoding="UTF-8"?>
<svg xmlns="http://www.w3.org/2000/svg" xmlns:xlink="http://www.w3.org/1999/xlink" version="1.1" viewBox="0 0 92.08 183.79">
  <!-- Generator: Adobe Illustrator 29.8.3, SVG Export Plug-In . SVG Version: 2.1.1 Build 3)  -->
  <defs>
    <style>
      .st0 {
        mask: url(#mask);
      }

      .st1, .st2, .st3, .st4, .st5, .st6, .st7 {
        fill: #f6f5cf;
      }

      .st8 {
        fill: #ba8429;
      }

      .st9 {
        fill: url(#_ÂÁ_Ï_ÌÌ_È_ËÂÌÚ_185641);
      }

      .st10 {
        filter: url(#luminosity-noclip);
      }

      .st11 {
        filter: url(#luminosity-noclip12);
      }

      .st12 {
        filter: url(#luminosity-noclip10);
      }

      .st13 {
        fill: url(#_ÂÁ_Ï_ÌÌ_È_ËÂÌÚ_111791);
        opacity: .14;
      }

      .st13, .st14, .st15, .st16, .st17, .st2, .st3, .st4, .st5, .st6, .st7 {
        mix-blend-mode: overlay;
      }

      .st18 {
        filter: url(#luminosity-noclip6);
      }

      .st19 {
        filter: url(#luminosity-noclip2);
      }

      .st20 {
        filter: url(#luminosity-noclip4);
      }

      .st21 {
        filter: url(#luminosity-noclip8);
      }

      .st14 {
        fill: #fff;
        opacity: .04;
      }

      .st22 {
        fill: url(#_ÂÁ_Ï_ÌÌ_È_ËÂÌÚ_18573);
      }

      .st23 {
        fill: url(#_ÂÁ_Ï_ÌÌ_È_ËÂÌÚ_18502);
      }

      .st24 {
        fill: url(#_ÂÁ_Ï_ÌÌ_È_ËÂÌÚ_18536);
      }

      .st25 {
        fill: url(#_ÂÁ_Ï_ÌÌ_È_ËÂÌÚ_18901);
      }

      .st26 {
        fill: url(#_ÂÁ_Ï_ÌÌ_È_ËÂÌÚ_18564);
      }

      .st27 {
        fill: url(#_ÂÁ_Ï_ÌÌ_È_ËÂÌÚ_18561);
      }

      .st28 {
        fill: url(#_ÂÁ_Ï_ÌÌ_È_ËÂÌÚ_18854);
      }

      .st29 {
        fill: url(#_ÂÁ_Ï_ÌÌ_È_ËÂÌÚ_18880);
      }

      .st30 {
        fill: url(#_ÂÁ_Ï_ÌÌ_È_ËÂÌÚ_18742);
      }

      .st31 {
        fill: url(#_ÂÁ_Ï_ÌÌ_È_ËÂÌÚ_18791);
      }

      .st32 {
        fill: url(#_ÂÁ_Ï_ÌÌ_È_ËÂÌÚ_19034);
      }

      .st33 {
        fill: url(#_ÂÁ_Ï_ÌÌ_È_ËÂÌÚ_19015);
      }

      .st34 {
        fill: url(#_ÂÁ_Ï_ÌÌ_È_ËÂÌÚ_11189);
      }

      .st35 {
        fill: #335223;
      }

      .st36 {
        fill: url(#_ÂÁ_Ï_ÌÌ_È_ËÂÌÚ_111772);
        opacity: .46;
      }

      .st37 {
        fill: url(#_ÂÁ_Ï_ÌÌ_È_ËÂÌÚ_111771);
      }

      .st37, .st38 {
        opacity: .47;
      }

      .st38 {
        fill: url(#_ÂÁ_Ï_ÌÌ_È_ËÂÌÚ_11177);
      }

      .st39 {
        isolation: isolate;
      }

      .st40 {
        mask: url(#mask-2);
      }

      .st41 {
        mask: url(#mask-3);
      }

      .st42 {
        mask: url(#mask-4);
      }

      .st43 {
        mask: url(#mask-5);
      }

      .st44 {
        mask: url(#mask-7);
      }

      .st45 {
        mask: url(#mask-6);
      }

      .st46 {
        mask: url(#mask-1);
      }

      .st47 {
        mask: url(#mask-9);
      }

      .st48 {
        mask: url(#mask-8);
      }

      .st49 {
        fill: #629b50;
        opacity: .56;
      }

      .st50 {
        fill: #dead4a;
      }

      .st51 {
        fill: #536927;
      }

      .st52 {
        fill: #afc5e8;
      }

      .st15 {
        fill: url(#_ÂÁ_Ï_ÌÌ_È_ËÂÌÚ_11181);
      }

      .st15, .st7 {
        opacity: .3;
      }

      .st16 {
        fill: url(#_ÂÁ_Ï_ÌÌ_È_ËÂÌÚ_11179);
      }

      .st16, .st17 {
        opacity: .25;
      }

      .st17 {
        fill: url(#_ÂÁ_Ï_ÌÌ_È_ËÂÌÚ_11178);
      }

      .st53 {
        fill: url(#_ÂÁ_Ï_ÌÌ_È_ËÂÌÚ_36);
      }

      .st53, .st54, .st55, .st56, .st57, .st58, .st59 {
        mix-blend-mode: multiply;
      }

      .st54 {
        fill: url(#_ÂÁ_Ï_ÌÌ_È_ËÂÌÚ_34);
      }

      .st55 {
        fill: url(#_ÂÁ_Ï_ÌÌ_È_ËÂÌÚ_33);
      }

      .st56 {
        fill: url(#_ÂÁ_Ï_ÌÌ_È_ËÂÌÚ_30);
      }

      .st57 {
        fill: url(#_ÂÁ_Ï_ÌÌ_È_ËÂÌÚ_302);
      }

      .st58 {
        fill: url(#_ÂÁ_Ï_ÌÌ_È_ËÂÌÚ_301);
      }

      .st59 {
        fill: url(#_ÂÁ_Ï_ÌÌ_È_ËÂÌÚ_341);
      }

      .st60 {
        opacity: .68;
      }

      .st61 {
        opacity: .4;
      }

      .st62 {
        opacity: .24;
      }

      .st63 {
        fill: #43692a;
      }

      .st2 {
        opacity: .37;
      }

      .st3 {
        opacity: .51;
      }

      .st4 {
        opacity: .1;
      }

      .st5 {
        opacity: .18;
      }

      .st6 {
        opacity: .27;
      }

      .st64 {
        mask: url(#mask-10);
      }

      .st65 {
        mask: url(#mask-11);
      }

      .st66 {
        mask: url(#mask-13);
      }

      .st67 {
        mask: url(#mask-12);
      }
    </style>
    <radialGradient id="_ÂÁ_Ï_ÌÌ_È_ËÂÌÚ_18502" data-name="¡ÂÁ˚ÏˇÌÌ˚È „‡‰ËÂÌÚ 18502" cx="48.72" cy="101.77" fx="48.72" fy="101.77" r="99.91" gradientUnits="userSpaceOnUse">
      <stop offset="0" stop-color="#d8df79"/>
      <stop offset=".29" stop-color="#d8bb9c"/>
      <stop offset=".4" stop-color="#d3ba9d"/>
      <stop offset=".51" stop-color="#c7baa2"/>
      <stop offset=".63" stop-color="#b3b8ab"/>
      <stop offset=".74" stop-color="#97b7b7"/>
      <stop offset=".85" stop-color="#73b5c6"/>
      <stop offset=".96" stop-color="#47b2d9"/>
      <stop offset="1" stop-color="#37b2e0"/>
    </radialGradient>
    <linearGradient id="_ÂÁ_Ï_ÌÌ_È_ËÂÌÚ_18561" data-name="¡ÂÁ˚ÏˇÌÌ˚È „‡‰ËÂÌÚ 18561" x1="46.13" y1="100.62" x2="46.13" y2="118.99" gradientUnits="userSpaceOnUse">
      <stop offset="0" stop-color="#bb9452"/>
      <stop offset="1" stop-color="#5f6c30"/>
    </linearGradient>
    <linearGradient id="_ÂÁ_Ï_ÌÌ_È_ËÂÌÚ_18536" data-name="¡ÂÁ˚ÏˇÌÌ˚È „‡‰ËÂÌÚ 18536" x1="46.13" y1="97.52" x2="46.13" y2="126.05" gradientUnits="userSpaceOnUse">
      <stop offset="0" stop-color="#d8a677"/>
      <stop offset=".22" stop-color="#bc9363"/>
      <stop offset=".75" stop-color="#7f6a37"/>
      <stop offset="1" stop-color="#685a27"/>
    </linearGradient>
    <linearGradient id="_ÂÁ_Ï_ÌÌ_È_ËÂÌÚ_11189" data-name="¡ÂÁ˚ÏˇÌÌ˚È „‡‰ËÂÌÚ 11189" x1="45.45" y1="103.39" x2="46.13" y2="127.59" gradientUnits="userSpaceOnUse">
      <stop offset="0" stop-color="#9a8239"/>
      <stop offset="1" stop-color="#4a5220"/>
    </linearGradient>
    <linearGradient id="_ÂÁ_Ï_ÌÌ_È_ËÂÌÚ_18854" data-name="¡ÂÁ˚ÏˇÌÌ˚È „‡‰ËÂÌÚ 18854" x1="24.51" y1="110.31" x2="24.51" y2="134.04" gradientUnits="userSpaceOnUse">
      <stop offset=".01" stop-color="#8d8e28"/>
      <stop offset="1" stop-color="#26391d"/>
    </linearGradient>
    <linearGradient id="_ÂÁ_Ï_ÌÌ_È_ËÂÌÚ_18573" data-name="¡ÂÁ˚ÏˇÌÌ˚È „‡‰ËÂÌÚ 18573" x1="15.36" y1="101.56" x2="15.85" y2="124.28" gradientUnits="userSpaceOnUse">
      <stop offset="0" stop-color="#ba7253"/>
      <stop offset="1" stop-color="#25431d"/>
    </linearGradient>
    <linearGradient id="_ÂÁ_Ï_ÌÌ_È_ËÂÌÚ_18901" data-name="¡ÂÁ˚ÏˇÌÌ˚È „‡‰ËÂÌÚ 18901" x1="24.51" y1="120.98" x2="24.51" y2="144.32" gradientUnits="userSpaceOnUse">
      <stop offset="0" stop-color="#67822a"/>
      <stop offset="1" stop-color="#29401d"/>
    </linearGradient>
    <linearGradient id="_ÂÁ_Ï_ÌÌ_È_ËÂÌÚ_18791" data-name="¡ÂÁ˚ÏˇÌÌ˚È „‡‰ËÂÌÚ 18791" x1="53.44" y1="113.25" x2="53.44" y2="128.61" gradientUnits="userSpaceOnUse">
      <stop offset="0" stop-color="#ab885c"/>
      <stop offset="1" stop-color="#4d782d"/>
    </linearGradient>
    <linearGradient id="_ÂÁ_Ï_ÌÌ_È_ËÂÌÚ_18564" data-name="¡ÂÁ˚ÏˇÌÌ˚È „‡‰ËÂÌÚ 18564" x1="73.67" y1="91.37" x2="74.16" y2="129.91" gradientUnits="userSpaceOnUse">
      <stop offset="0" stop-color="#bb9452"/>
      <stop offset="1" stop-color="#25431d"/>
    </linearGradient>
    <linearGradient id="_ÂÁ_Ï_ÌÌ_È_ËÂÌÚ_18880" data-name="¡ÂÁ˚ÏˇÌÌ˚È „‡‰ËÂÌÚ 18880" x1="54.84" y1="120.11" x2="55.37" y2="139.05" gradientUnits="userSpaceOnUse">
      <stop offset="0" stop-color="#7f852f"/>
      <stop offset=".53" stop-color="#556928"/>
      <stop offset="1" stop-color="#345323"/>
    </linearGradient>
    <linearGradient id="_ÂÁ_Ï_ÌÌ_È_ËÂÌÚ_18742" data-name="¡ÂÁ˚ÏˇÌÌ˚È „‡‰ËÂÌÚ 18742" x1="60.19" y1="131.46" x2="60.19" y2="140.71" gradientUnits="userSpaceOnUse">
      <stop offset="0" stop-color="#c9ae87"/>
      <stop offset="1" stop-color="#645e87"/>
    </linearGradient>
    <linearGradient id="_ÂÁ_Ï_ÌÌ_È_ËÂÌÚ_185641" data-name="¡ÂÁ˚ÏˇÌÌ˚È „‡‰ËÂÌÚ 18564" x1="10.73" y1="122.25" x2="10.91" y2="133.81" xlink:href="#_ÂÁ_Ï_ÌÌ_È_ËÂÌÚ_18564"/>
    <linearGradient id="_ÂÁ_Ï_ÌÌ_È_ËÂÌÚ_19034" data-name="¡ÂÁ˚ÏˇÌÌ˚È „‡‰ËÂÌÚ 19034" x1="46.04" y1="132.21" x2="46.04" y2="155.88" gradientUnits="userSpaceOnUse">
      <stop offset=".01" stop-color="#ae9546"/>
      <stop offset="1" stop-color="#526a27"/>
    </linearGradient>
    <linearGradient id="_ÂÁ_Ï_ÌÌ_È_ËÂÌÚ_19015" data-name="¡ÂÁ˚ÏˇÌÌ˚È „‡‰ËÂÌÚ 19015" x1="20" y1="137.81" x2="28.81" y2="163.7" gradientUnits="userSpaceOnUse">
      <stop offset=".01" stop-color="#bd764d"/>
      <stop offset=".44" stop-color="#93623a"/>
      <stop offset="1" stop-color="#584621"/>
    </linearGradient>
    <filter id="luminosity-noclip" x="18.71" y="132.13" width="43.71" height="51.66" color-interpolation-filters="sRGB" filterUnits="userSpaceOnUse">
      <feFlood flood-color="#fff" result="bg"/>
      <feBlend in="SourceGraphic" in2="bg"/>
    </filter>
    <filter id="luminosity-noclip1" x="18.71" y="-8283.69" width="43.71" height="32766" color-interpolation-filters="sRGB" filterUnits="userSpaceOnUse">
      <feFlood flood-color="#fff" result="bg"/>
      <feBlend in="SourceGraphic" in2="bg"/>
    </filter>
    <mask id="mask-1" x="18.71" y="-8283.69" width="43.71" height="32766" maskUnits="userSpaceOnUse"/>
    <linearGradient id="_ÂÁ_Ï_ÌÌ_È_ËÂÌÚ_36" data-name="¡ÂÁ˚ÏˇÌÌ˚È „‡‰ËÂÌÚ 36" x1="22.51" y1="139.98" x2="37.49" y2="165.04" gradientUnits="userSpaceOnUse">
      <stop offset="0" stop-color="#fff"/>
      <stop offset=".09" stop-color="#f2f2f2"/>
      <stop offset=".25" stop-color="#d1d1d1"/>
      <stop offset=".47" stop-color="#9a9a9a"/>
      <stop offset=".74" stop-color="#505050"/>
      <stop offset="1" stop-color="#000"/>
    </linearGradient>
    <mask id="mask" x="18.71" y="132.13" width="43.71" height="51.66" maskUnits="userSpaceOnUse">
      <g class="st10">
        <g class="st46">
          <path class="st53" d="M62.35,162.21c-.78,8.57-8.18,16.12-10.26,20.5-.17.37-.3.73-.38,1.08H18.71c.24-.55.51-1.08.81-1.6.38-.67.82-1.32,1.3-1.95h0c.11-.14.2-.26.31-.39.36-.45.75-.89,1.17-1.32l.21-.21.02-.02c.43-.42.85-.82,1.29-1.21,6.36-5.71,13.39-7.89,18.79-11.83,2.53-1.84,4.69-4.06,6.26-7.21.45-.88.85-1.83,1.19-2.87.5-1.52.51-3,.13-4.43-.64-2.36-2.35-4.59-4.64-6.61-.04-.05-.09-.09-.14-.12-.48-.43-.99-.84-1.51-1.25-1.61-1.23-3.4-2.38-5.25-3.43-1.07-.61-2.17-1.19-3.26-1.73-3.63-1.81-7.21-3.25-9.85-4.22-1.26-.46-2.3-.81-3.03-1.05-.02-.01-.04-.02-.06-.02-.2-.07-.38-.13-.53-.18h-.01s.01,0,.01,0c.22.06.43.12.65.18h0s.04.02.06.02c1.07.3,2.11.6,3.13.9,4.14,1.23,7.85,2.49,11.16,3.77.31.12.62.24.92.36h.01c2.41.96,4.61,1.93,6.6,2.91.01,0,.02,0,.03.01,1.27.62,2.45,1.24,3.56,1.87.8.45,1.57.91,2.29,1.37,1.88,1.19,3.5,2.38,4.89,3.58.01.01.02.02.03.02.13.12.25.23.37.34.01,0,.02.01.02.01.56.51,1.08,1.01,1.57,1.51,1.92,2.02,3.23,4.03,4.06,6.03,1.01,2.44,1.29,4.86,1.07,7.2Z"/>
        </g>
      </g>
    </mask>
    <linearGradient id="_ÂÁ_Ï_ÌÌ_È_ËÂÌÚ_11181" data-name="¡ÂÁ˚ÏˇÌÌ˚È „‡‰ËÂÌÚ 11181" x1="22.51" y1="139.98" x2="37.49" y2="165.04" gradientUnits="userSpaceOnUse">
      <stop offset="0" stop-color="#fdfdfe"/>
      <stop offset="1" stop-color="#fdfdfe"/>
    </linearGradient>
    <filter id="luminosity-noclip2" x=".19" y="139.4" width="27.18" height="23.1" color-interpolation-filters="sRGB" filterUnits="userSpaceOnUse">
      <feFlood flood-color="#fff" result="bg"/>
      <feBlend in="SourceGraphic" in2="bg"/>
    </filter>
    <filter id="luminosity-noclip3" x=".19" y="-8283.69" width="27.18" height="32766" color-interpolation-filters="sRGB" filterUnits="userSpaceOnUse">
      <feFlood flood-color="#fff" result="bg"/>
      <feBlend in="SourceGraphic" in2="bg"/>
    </filter>
    <mask id="mask-3" x=".19" y="-8283.69" width="27.18" height="32766" maskUnits="userSpaceOnUse"/>
    <linearGradient id="_ÂÁ_Ï_ÌÌ_È_ËÂÌÚ_34" data-name="¡ÂÁ˚ÏˇÌÌ˚È „‡‰ËÂÌÚ 34" x1="24.87" y1="142.09" x2="17" y2="145.52" gradientUnits="userSpaceOnUse">
      <stop offset="0" stop-color="#000"/>
      <stop offset=".12" stop-color="#2f2f2f"/>
      <stop offset=".3" stop-color="#6d6d6d"/>
      <stop offset=".48" stop-color="#a1a1a1"/>
      <stop offset=".64" stop-color="#cacaca"/>
      <stop offset=".78" stop-color="#e7e7e7"/>
      <stop offset=".91" stop-color="#f8f8f8"/>
      <stop offset="1" stop-color="#fff"/>
    </linearGradient>
    <mask id="mask-2" x=".19" y="139.4" width="27.18" height="23.1" maskUnits="userSpaceOnUse">
      <g class="st19">
        <g class="st41">
          <path class="st54" d="M26.72,151.57c-.07.13-.14.26-.22.39-.34.54-.75,1.01-1.21,1.42-1.82,1.62-4.48,2.31-6.92,2.93-.45.12-.91.24-1.36.37h-.01c-5.74,1.53-11.35,3.48-16.81,5.82v-21.56c.61-.14,1.23-.27,1.84-.38,2.56-.5,5.14-.86,7.73-1.03h.01c1.14-.08,2.28-.13,3.43-.13,2-.01,4.07.13,6.01.6,1.68.41,3.28,1.07,4.66,2.1.02.01.03.03.05.04,1.33,1,2.38,2.44,2.95,4,.67,1.8.71,3.76-.15,5.43Z"/>
        </g>
      </g>
    </mask>
    <linearGradient id="_ÂÁ_Ï_ÌÌ_È_ËÂÌÚ_11179" data-name="¡ÂÁ˚ÏˇÌÌ˚È „‡‰ËÂÌÚ 11179" x1="24.87" y1="142.09" x2="17" y2="145.52" gradientUnits="userSpaceOnUse">
      <stop offset="0" stop-color="#fdfdfe"/>
      <stop offset="1" stop-color="#fdfdfe"/>
    </linearGradient>
    <filter id="luminosity-noclip4" x=".19" y="143.42" width="14.95" height="9.65" color-interpolation-filters="sRGB" filterUnits="userSpaceOnUse">
      <feFlood flood-color="#fff" result="bg"/>
      <feBlend in="SourceGraphic" in2="bg"/>
    </filter>
    <filter id="luminosity-noclip5" x=".19" y="-8283.69" width="14.95" height="32766" color-interpolation-filters="sRGB" filterUnits="userSpaceOnUse">
      <feFlood flood-color="#fff" result="bg"/>
      <feBlend in="SourceGraphic" in2="bg"/>
    </filter>
    <mask id="mask-5" x=".19" y="-8283.69" width="14.95" height="32766" maskUnits="userSpaceOnUse"/>
    <linearGradient id="_ÂÁ_Ï_ÌÌ_È_ËÂÌÚ_341" data-name="¡ÂÁ˚ÏˇÌÌ˚È „‡‰ËÂÌÚ 34" x1="14.58" y1="144.02" x2="6.65" y2="146.94" xlink:href="#_ÂÁ_Ï_ÌÌ_È_ËÂÌÚ_34"/>
    <mask id="mask-4" x=".19" y="143.42" width="14.95" height="9.65" maskUnits="userSpaceOnUse">
      <g class="st20">
        <g class="st43">
          <path class="st59" d="M15.14,145.6c0,.12-.01.23-.03.34-.37,2.11-4.09,3.7-5.78,4.25-.09.03-.17.06-.24.08-2.97.91-5.94,1.86-8.9,2.8v-8.01c1.42-.28,2.84-.53,4.26-.75.52-.09,1.04-.17,1.56-.24,1.24-.17,4.55-.92,6.82-.55,1.15.19,2.03.67,2.26,1.63.04.15.05.31.05.45Z"/>
        </g>
      </g>
    </mask>
    <linearGradient id="_ÂÁ_Ï_ÌÌ_È_ËÂÌÚ_111791" data-name="¡ÂÁ˚ÏˇÌÌ˚È „‡‰ËÂÌÚ 11179" x1="14.58" y1="144.02" x2="6.65" y2="146.94" xlink:href="#_ÂÁ_Ï_ÌÌ_È_ËÂÌÚ_11179"/>
    <filter id="luminosity-noclip6" x="53.14" y="137.24" width="38.94" height="46.55" color-interpolation-filters="sRGB" filterUnits="userSpaceOnUse">
      <feFlood flood-color="#fff" result="bg"/>
      <feBlend in="SourceGraphic" in2="bg"/>
    </filter>
    <filter id="luminosity-noclip7" x="53.14" y="-8283.69" width="38.94" height="32766" color-interpolation-filters="sRGB" filterUnits="userSpaceOnUse">
      <feFlood flood-color="#fff" result="bg"/>
      <feBlend in="SourceGraphic" in2="bg"/>
    </filter>
    <mask id="mask-7" x="53.14" y="-8283.69" width="38.94" height="32766" maskUnits="userSpaceOnUse"/>
    <linearGradient id="_ÂÁ_Ï_ÌÌ_È_ËÂÌÚ_33" data-name="¡ÂÁ˚ÏˇÌÌ˚È „‡‰ËÂÌÚ 33" x1="49.59" y1="144.21" x2="72.84" y2="163.77" gradientUnits="userSpaceOnUse">
      <stop offset="0" stop-color="#000"/>
      <stop offset=".26" stop-color="#505050"/>
      <stop offset=".53" stop-color="#9a9a9a"/>
      <stop offset=".75" stop-color="#d1d1d1"/>
      <stop offset=".91" stop-color="#f2f2f2"/>
      <stop offset="1" stop-color="#fff"/>
    </linearGradient>
    <mask id="mask-6" x="53.14" y="137.24" width="38.94" height="46.55" maskUnits="userSpaceOnUse">
      <g class="st18">
        <g class="st44">
          <path class="st55" d="M92.08,150.59v33.2h-30.37c-.09-1.19-.02-2.44.16-3.7.21-1.58.6-3.19,1.08-4.77.26-.85.55-1.69.85-2.52t0-.02s.01,0,0-.02c.96-2.6,2.08-4.98,3-6.94,1.13-2.43,1.9-4.32,1.8-6.45-.04-1.05-.3-2.15-.82-3.4-.01-.02-.02-.05-.03-.07-.02-.04-.03-.07-.05-.1-.28-.67-.61-1.32-.96-1.96h-.01c-.21-.4-.44-.79-.68-1.17-.95-1.49-2.07-2.88-3.32-4.13-.01-.01-.02-.02-.04-.03-.46-.46-.93-.9-1.43-1.31-.2-.18-.4-.35-.61-.52-1.88-1.5-3.98-2.76-5.72-4.43-.4-.35-.78-.75-1.13-1.17-.29-.35-.57-.74-.64-1.19-.2-1.34,1.45-2.14,2.79-2.37,2.42-.41,4.78-.34,7.1.05,2.67.44,5.27,1.31,7.83,2.36h.01c2.29.94,4.54,2.02,6.76,3.06,1.15.55,2.29,1.08,3.42,1.58,1.07.47,2.15.96,3.23,1.48,2.73,1.3,5.43,2.77,7.78,4.54Z"/>
        </g>
      </g>
    </mask>
    <linearGradient id="_ÂÁ_Ï_ÌÌ_È_ËÂÌÚ_11178" data-name="¡ÂÁ˚ÏˇÌÌ˚È „‡‰ËÂÌÚ 11178" x1="49.59" y1="144.21" x2="72.84" y2="163.77" gradientUnits="userSpaceOnUse">
      <stop offset="0" stop-color="#fdfdfe"/>
      <stop offset="1" stop-color="#fdfdfe"/>
    </linearGradient>
    <filter id="luminosity-noclip8" x=".19" y="38.36" width="22.39" height="12.08" color-interpolation-filters="sRGB" filterUnits="userSpaceOnUse">
      <feFlood flood-color="#fff" result="bg"/>
      <feBlend in="SourceGraphic" in2="bg"/>
    </filter>
    <filter id="luminosity-noclip9" x=".19" y="-8283.69" width="22.39" height="32766" color-interpolation-filters="sRGB" filterUnits="userSpaceOnUse">
      <feFlood flood-color="#fff" result="bg"/>
      <feBlend in="SourceGraphic" in2="bg"/>
    </filter>
    <mask id="mask-9" x=".19" y="-8283.69" width="22.39" height="32766" maskUnits="userSpaceOnUse"/>
    <linearGradient id="_ÂÁ_Ï_ÌÌ_È_ËÂÌÚ_30" data-name="¡ÂÁ˚ÏˇÌÌ˚È „‡‰ËÂÌÚ 30" x1="11.38" y1="38.63" x2="11.38" y2="50.59" gradientUnits="userSpaceOnUse">
      <stop offset="0" stop-color="#fff"/>
      <stop offset=".09" stop-color="#f8f8f8"/>
      <stop offset=".22" stop-color="#e7e7e7"/>
      <stop offset=".36" stop-color="#cacaca"/>
      <stop offset=".52" stop-color="#a1a1a1"/>
      <stop offset=".7" stop-color="#6d6d6d"/>
      <stop offset=".88" stop-color="#2f2f2f"/>
      <stop offset="1" stop-color="#000"/>
    </linearGradient>
    <mask id="mask-8" x=".19" y="38.36" width="22.39" height="12.08" maskUnits="userSpaceOnUse">
      <g class="st21">
        <g class="st47">
          <path class="st56" d="M22.58,50.03c0,.14-.03.27-.04.41H.19v-9.87c1.17-1.35,2.88-2.21,4.81-2.21,3.1,0,5.69,2.22,6.28,5.15,1.11-.64,2.38-1.03,3.75-1.03,4.17,0,7.55,3.38,7.55,7.55Z"/>
        </g>
      </g>
    </mask>
    <linearGradient id="_ÂÁ_Ï_ÌÌ_È_ËÂÌÚ_11177" data-name="¡ÂÁ˚ÏˇÌÌ˚È „‡‰ËÂÌÚ 11177" x1="11.38" y1="38.63" x2="11.38" y2="50.59" gradientUnits="userSpaceOnUse">
      <stop offset="0" stop-color="#fdfdfe"/>
      <stop offset="1" stop-color="#fdfdfe"/>
    </linearGradient>
    <filter id="luminosity-noclip10" x="45.02" y="27.9" width="34.77" height="9.77" color-interpolation-filters="sRGB" filterUnits="userSpaceOnUse">
      <feFlood flood-color="#fff" result="bg"/>
      <feBlend in="SourceGraphic" in2="bg"/>
    </filter>
    <filter id="luminosity-noclip11" x="45.02" y="-8283.69" width="34.77" height="32766" color-interpolation-filters="sRGB" filterUnits="userSpaceOnUse">
      <feFlood flood-color="#fff" result="bg"/>
      <feBlend in="SourceGraphic" in2="bg"/>
    </filter>
    <mask id="mask-11" x="45.02" y="-8283.69" width="34.77" height="32766" maskUnits="userSpaceOnUse"/>
    <linearGradient id="_ÂÁ_Ï_ÌÌ_È_ËÂÌÚ_301" data-name="¡ÂÁ˚ÏˇÌÌ˚È „‡‰ËÂÌÚ 30" x1="62.4" y1="27.38" x2="62.4" y2="37.76" xlink:href="#_ÂÁ_Ï_ÌÌ_È_ËÂÌÚ_30"/>
    <mask id="mask-10" x="45.02" y="27.9" width="34.77" height="9.77" maskUnits="userSpaceOnUse">
      <g class="st12">
        <g class="st65">
          <path class="st58" d="M79.75,37.67c0-.11.03-.22.03-.33,0-3.37-2.73-6.11-6.11-6.11-1.11,0-2.14.32-3.04.84-.47-2.37-2.57-4.16-5.08-4.16-1.91,0-3.55,1.04-4.45,2.58-.94-1.35-2.49-2.24-4.26-2.24-2.83,0-5.13,2.28-5.17,5.1-.49-.15-1-.26-1.54-.26-2.66,0-4.82,2.01-5.12,4.59h34.73Z"/>
        </g>
      </g>
    </mask>
    <linearGradient id="_ÂÁ_Ï_ÌÌ_È_ËÂÌÚ_111771" data-name="¡ÂÁ˚ÏˇÌÌ˚È „‡‰ËÂÌÚ 11177" x1="62.4" y1="27.38" x2="62.4" y2="37.76" xlink:href="#_ÂÁ_Ï_ÌÌ_È_ËÂÌÚ_11177"/>
    <filter id="luminosity-noclip12" x="59.14" y="64.14" width="32.94" height="12.86" color-interpolation-filters="sRGB" filterUnits="userSpaceOnUse">
      <feFlood flood-color="#fff" result="bg"/>
      <feBlend in="SourceGraphic" in2="bg"/>
    </filter>
    <filter id="luminosity-noclip13" x="59.14" y="-8283.69" width="32.94" height="32766" color-interpolation-filters="sRGB" filterUnits="userSpaceOnUse">
      <feFlood flood-color="#fff" result="bg"/>
      <feBlend in="SourceGraphic" in2="bg"/>
    </filter>
    <mask id="mask-13" x="59.14" y="-8283.69" width="32.94" height="32766" maskUnits="userSpaceOnUse"/>
    <linearGradient id="_ÂÁ_Ï_ÌÌ_È_ËÂÌÚ_302" data-name="¡ÂÁ˚ÏˇÌÌ˚È „‡‰ËÂÌÚ 30" x1="75.61" y1="63.92" x2="75.61" y2="77.24" xlink:href="#_ÂÁ_Ï_ÌÌ_È_ËÂÌÚ_30"/>
    <mask id="mask-12" x="59.14" y="64.14" width="32.94" height="12.86" maskUnits="userSpaceOnUse">
      <g class="st11">
        <g class="st66">
          <path class="st57" d="M92.08,68.61v8.39h-32.94c.05-.5.14-.98.28-1.44.77-2.67,2.9-4.6,5.42-4.6.6,0,1.16.14,1.71.34,0-.14.01-.29.03-.43.22-3.52,2.69-6.28,5.72-6.28,1.97,0,3.7,1.16,4.74,2.94,1-2.02,2.83-3.39,4.96-3.39,2.79,0,5.12,2.36,5.65,5.48.99-.68,2.14-1.1,3.37-1.1.36,0,.71.03,1.06.09Z"/>
        </g>
      </g>
    </mask>
    <linearGradient id="_ÂÁ_Ï_ÌÌ_È_ËÂÌÚ_111772" data-name="¡ÂÁ˚ÏˇÌÌ˚È „‡‰ËÂÌÚ 11177" x1="75.61" y1="63.92" x2="75.61" y2="77.24" xlink:href="#_ÂÁ_Ï_ÌÌ_È_ËÂÌÚ_11177"/>
  </defs>
  <g class="st39">
    <g id="Calque_1">
      <g>
        <path class="st23" d="M92.08,0v183.79H.19v-.95c-.04.06-.09.11-.14.17-.03-3.43-.09-11.61-.01-13.66.01-.2.02-.34.03-.41.02-.13.05.01.09.35.01,0,.02,0,.03-.01V0h91.89Z"/>
        <path class="st49" d="M28.63,107.72c-.05-.28-.3-.5-.58-.52.25-.16.37-.49.29-.77-.08-.28-.37-.49-.67-.49.13-.28.24-.58.19-.89s-.34-.58-.64-.53c-.07.01-.13.04-.2.04-.16,0-.28-.16-.33-.31-.05-.15-.06-.32-.14-.46-.2-.37-.78-.37-1.07-.08-.34.34-.34.99-.27,1.39-.44.03-.9.26-1.09.68-.19.42,0,1,.44,1.13-.41.21-.79.59-.8,1.05s.51.91.92.69c-.02.31.14.62.41.78.26.16.6.17.87.02v3.41h.5v-3.47s0,0,0,0c.55.25,1.03.41,1.48-.1.13-.15.23-.69.31-.88.11-.26.45-.27.38-.68Z"/>
        <path class="st49" d="M22.95,108.8c-.05-.28-.3-.5-.58-.52.25-.16.37-.49.29-.77s-.37-.49-.67-.49c.13-.28.24-.59.19-.89-.05-.3-.34-.58-.64-.53-.07.01-.13.04-.2.04-.16,0-.28-.16-.33-.31-.05-.15-.06-.32-.14-.46-.2-.37-.78-.37-1.07-.08-.34.34-.34.99-.27,1.39-.44.03-.9.26-1.09.68-.19.42,0,1,.44,1.13-.41.21-.79.59-.8,1.05-.01.46.51.91.92.69-.02.31.14.62.41.78.26.16.6.17.87.02v3.41h.5v-3.47s0,0,0,0c.55.25,1.03.41,1.48-.1.13-.15.23-.69.31-.88.11-.26.45-.27.38-.68Z"/>
        <path class="st49" d="M16.53,105.55c-.05-.28-.3-.5-.58-.52.25-.16.37-.49.29-.77s-.37-.49-.67-.49c.13-.28.24-.59.19-.89s-.34-.58-.64-.53c-.07.01-.13.04-.2.04-.16,0-.28-.16-.33-.31-.05-.15-.06-.32-.14-.46-.2-.37-.78-.37-1.07-.08-.34.34-.34.99-.27,1.39-.44.03-.9.26-1.09.68-.19.42,0,1,.44,1.13-.41.21-.79.59-.8,1.05-.01.46.51.91.92.69-.02.31.14.62.41.78.26.16.6.17.87.02v3.41h.5v-3.47s0,0,0,0c.55.25,1.03.41,1.48-.1.13-.15.23-.69.31-.88.11-.26.45-.27.38-.68Z"/>
        <g>
          <path class="st4" d="M92.08,99.68v31.92c-.04.12-.08.23-.12.34-.28.82-.59,1.63-.91,2.43-.11.27-.22.53-.34.8-.31.74-.65,1.47-1,2.19-.05.12-.11.23-.17.35-.58,1.17-1.2,2.31-1.87,3.42-1.02,1.71-2.15,3.35-3.37,4.92-2.64,3.42-5.72,6.48-9.16,9.1-.95.73-1.93,1.42-2.94,2.08-.44.29-.89.58-1.35.85-.74.46-1.49.89-2.25,1.29-2,1.09-4.09,2.04-6.25,2.84-5.39,2.01-11.23,3.11-17.33,3.11-.81,0-1.61-.02-2.41-.06-2.57-.12-5.07-.44-7.52-.94h-.01c-.7-.14-1.39-.29-2.08-.47h0c-3.52-.87-6.89-2.12-10.07-3.71-2.06-1.02-4.03-2.18-5.91-3.46h-.01c-.39-.27-.77-.54-1.15-.82-2.34-1.7-4.52-3.6-6.52-5.67-.54-.55-1.06-1.11-1.56-1.68-1.19-1.34-2.3-2.74-3.32-4.2-.87-1.21-1.67-2.46-2.42-3.75-.36-.62-.7-1.24-1.04-1.88-.27-.53-.54-1.07-.8-1.61v-42.86c8-16.71,25.06-28.25,44.83-28.25,7.73,0,15.04,1.76,21.56,4.91,3.46,1.67,6.7,3.73,9.66,6.13,7.12,5.75,12.61,13.42,15.68,22.23.06.15.11.3.16.45Z"/>
          <circle class="st5" cx="45.02" cy="115.64" r="42.58" transform="translate(-77.8 133.41) rotate(-76.96)"/>
          <circle class="st6" cx="45.02" cy="115.64" r="35.48"/>
          <circle class="st7" cx="45.02" cy="115.64" r="28.38" transform="translate(-78.24 130.01) rotate(-75.38)"/>
          <circle class="st2" cx="45.02" cy="115.64" r="21.28" transform="translate(-77.69 134.19) rotate(-77.32)"/>
          <circle class="st3" cx="45.02" cy="115.64" r="14.18" transform="translate(-75.77 144.11) rotate(-81.99)"/>
          <path class="st1" d="M52.1,115.64c0,3.91-3.17,7.09-7.09,7.09s-7.08-3.17-7.08-7.09,3.17-7.09,7.08-7.09,7.09,3.17,7.09,7.09Z"/>
        </g>
        <path class="st27" d="M92.08,99.27v19.3c-.41-.03-.83-.06-1.24-.09-1.11-.08-2.21-.15-3.32-.21-2.37-.13-4.74-.2-7.11-.13-1.01.02-2.01.07-3.01.16-1.41.12-2.8.3-4.19.52-2.5.4-4.98.95-7.45,1.58-.34.08-.68.17-1.02.25h-.01c-2.25.6-4.48,1.24-6.73,1.87-.23.06-.46.13-.68.19-.39.11-.78.21-1.17.33-.01,0-.02,0-.03,0-3.52.97-7.04,1.89-10.61,2.51h-.01c-1.52.27-3.07.49-4.61.64h-.01l-1.14.09c-.75.05-1.5.09-2.26.1-.57.01-1.14.01-1.71,0h-.02c-.21,0-.42,0-.63-.02h0c-.32,0-.64-.02-.97-.04-.83-.03-1.66-.1-2.49-.18h-.01c-.05,0-.1,0-.16-.01-1.79-.17-3.58-.42-5.37-.72-2.75-.44-5.49-.99-8.25-1.51-1.41-.27-2.83-.53-4.25-.76h-.01c-1.13-.19-2.25-.36-3.38-.51-.03,0-.07,0-.1,0l-.51-.06c-.48-.06-.96-.12-1.44-.17-.09-.01-.19-.02-.28-.02-.28-.03-.56-.06-.84-.08-1.37-.13-2.75-.23-4.14-.29-.24-.02-.48-.03-.72-.03-.12-.02-.24-.02-.37-.02-.12,0-.24-.02-.36-.02-.42-.02-.84-.03-1.27-.04v-25.24c2.32-.23,4.56-.34,6.81-.19,2.39.15,4.79.58,7.26,1.45.09.03.17.06.26.09,2.14.78,4.2,1.79,6.35,2.53l.09.03c2.42.83,4.94,1.31,7.47,1.73.44.07.87.15,1.31.22h0c1.68.27,3.36.55,5.03.92.7.16,1.41.35,2.12.57,4.89,1.47,9.96,3.93,14.97,1.77.74-.32,1.44-.7,2.13-1.11.85-.49,1.66-1.03,2.5-1.55.92-.57,1.86-1.11,2.86-1.53.39-.16.79-.34,1.17-.51,2.23-1.02,4.39-2.21,6.69-3.1.18-.08.35-.14.53-.21,1.88-.69,3.8-1.32,5.78-1.63.25-.04.5-.08.76-.11.09,0,.18-.02.28-.03.25-.03.5-.05.76-.06,2.7-.15,5.36.4,7.98,1.06.48.12.96.25,1.44.37,2.41.62,4.8,1.24,7.17,1.86.05.01.11.03.16.04Z"/>
        <path class="st24" d="M92.08,105.65v21.91c-2.11.2-4.21.36-6.32.49h-.01c-2.54.17-5.08.29-7.62.38h-.01c-2.62.09-5.24.15-7.86.18-2.79.04-5.59.04-8.38.02-3.61-.02-7.22-.08-10.83-.14h-.01c-1.91-.04-3.81-.08-5.72-.12-.48,0-.95-.02-1.42-.03-.12,0-.22,0-.33,0h-.01c-.21,0-.41,0-.62-.01-1.49-.03-2.97-.06-4.47-.09h-.01l-1.89-.03c-1.34-.03-2.68-.05-4.02-.07l-2.01-.03c-.93,0-1.87-.02-2.8-.02h-.01c-.66-.01-1.31-.01-1.97-.01-2.03,0-4.05,0-6.08,0-.06.01-.12.01-.18.01-1.46,0-2.91.03-4.37.07-.04-.01-.09,0-.13,0-1.06.02-2.11.05-3.17.08-.86.03-1.71.06-2.57.09-.97.04-1.95.08-2.92.14-.64.02-1.27.05-1.91.09-1.27.07-2.54.14-3.81.22-.14,0-.29.02-.43.03v-24.99h.01c1.48-.41,2.88-.83,4.27-1.21h.01c2.69-.72,5.3-1.3,8.11-1.4,1.25-.05,2.54,0,3.9.17,1.22.15,2.44.38,3.65.6,2.59.49,5.18.99,7.8.79.05,0,.09,0,.14,0,.56-.05,1.11-.13,1.66-.23h0c5.42-1.02,10.52-4.39,16.01-3.82,2.94.3,5.63,1.71,8.24,3.09.83.44,1.67.89,2.5,1.33,1.68.89,3.37,1.78,5.05,2.67.2.11.39.21.59.31.84.45,1.68.9,2.52,1.34h.01c.07.04.15.08.22.12,1.56.83,3.17,1.67,4.82,2.37.03,0,.07.03.1.04.1.04.21.09.31.13.96.39,1.93.74,2.91,1,1.89.51,3.82.73,5.77.46.49-.07.97-.16,1.44-.28,0,0,.02,0,.04,0,1.78-.46,3.45-1.26,5.09-2.16l.12-.06c.24-.13.47-.26.71-.39.25-.14.5-.28.75-.43.42-.23.85-.47,1.27-.71h.02c.63-.35,1.25-.69,1.88-1,.64-.31,1.29-.61,1.96-.87Z"/>
        <path class="st34" d="M92.08,122.77v5.95c-1.54.89-3.24,1.54-4.96,1.95-.8.19-1.61.33-2.42.44-2.58.34-5.21.31-7.84.2-1-.05-2-.11-3-.16-1.64-.09-3.28-.17-4.92-.24-2.93-.13-5.86-.23-8.79-.3-4.34-.11-8.69-.15-13.03-.13-.14-.01-.29,0-.43,0-5.17.02-10.34.14-15.51.34h-.01c-.34,0-.69.02-1.04.04-.12,0-.24.01-.36.02-.22,0-.44,0-.66.03-.54.02-1.09.04-1.64.07-1.55.07-3.11.15-4.66.24-.38.02-.77.04-1.15.07-.1,0-.21.01-.31.02-2.64.16-5.28.34-7.91.54-.9.07-1.8.15-2.7.23h-.05c-1.59.13-3.19.27-4.78.43-1.91.17-3.81.36-5.72.57v-22.63c.88-.07,1.75-.19,2.61-.4.03,0,.06,0,.09-.02.28-.07.56-.15.83-.23,2.45-.77,4.7-2.15,7.01-3.31.33-.16.65-.32.98-.47,1.07-.5,2.16-.93,3.3-1.2.34-.1.69-.17,1.04-.22.03,0,.07,0,.1-.02.03,0,.06-.01.09-.01.91-.13,1.8-.16,2.67-.1.4.03.78.08,1.18.15h.01c.22.03.45.07.68.12,1.13.24,2.24.61,3.33,1.07.55.24,1.1.49,1.64.77.93.46,1.86.98,2.78,1.53,1.13.66,2.25,1.36,3.39,2.06,2.06,1.26,4.15,2.49,6.32,3.39.96.4,1.93.73,2.93.98,3.35.83,6.87.65,10.23,1.41.22.05.45.11.67.17,1.38.36,2.72.87,4.04,1.42.51.21,1,.42,1.5.64.41.17.83.35,1.25.53.98.41,1.97.81,2.99,1.15.95.31,1.91.58,2.88.79h.01c.31.08.61.14.92.2.48.1.97.18,1.45.26h.01c1.86.3,3.74.47,5.62.6,1.15.08,2.29.14,3.43.2,1.25.07,2.49.14,3.74.2l7.14.39c.87.05,1.73.09,2.59.14.82.04,1.63.09,2.44.13Z"/>
        <path class="st28" d="M48.84,132.3l-.04.02h-.01l-9.12,3.6-.49.19-2.08.82-.17.07-1.54.61-3.25,1.28-.3.12h-.01l-1.82.72-3.22,1.27-2.87,1.14-1.73.68-7.05,2.78-.27.11-7.1,2.8-7.58,2.99v-42.45c.9.17,1.8.36,2.68.56.29.06.57.12.85.19,2.08.48,4.1,1.02,6.06,1.6,1.28.37,2.53.77,3.75,1.19h.02c1.07.36,2.13.74,3.16,1.12.94.35,1.86.7,2.76,1.07.5.2.99.4,1.48.6.06.03.12.05.18.08.9.38,1.77.76,2.63,1.15.82.37,1.62.74,2.4,1.11.88.43,1.74.85,2.57,1.28.19.1.38.19.57.3h.01c.09.04.17.08.25.12h0c.74.39,1.45.77,2.15,1.16,2,1.1,3.85,2.19,5.53,3.24h0c1.31.83,2.53,1.62,3.63,2.38h.01c.23.16.45.31.66.46.02,0,.04.02.05.03.38.26.73.52,1.08.76,0,0,0,0,.01,0,.38.27.74.54,1.09.8.04.02.08.05.12.08.73.53,1.37,1.03,1.94,1.46.31.25.59.48.85.68.19.16.36.3.52.43.55.45.96.8,1.23,1.03.27.24.4.36.4.36Z"/>
        <path class="st22" d="M31.29,126.31c.07-.05.14-.1.19-.17.13-.16.19-.37.14-.56-.36.3-.95.31-1.32.02.51.1.61-.8,1.1-.96-.22-.09-.08-.43.09-.61-.48.38-1.18.48-1.75.25.25-.06.57-.27.44-.48.16,0,.34,0,.45-.12.1-.11.02-.36-.13-.32.43-.1.78-.47.86-.89-.42.3-.97.4-1.48.3-.2-.04-.41-.11-.54-.26s-.17-.4-.04-.55c.26.13.59.14.87.03-.07-.19-.03-.42.11-.57-.11-.02-.22-.05-.33-.07.33-.27.56-.64.64-1.05-.39.49-1.12.7-1.72.49-.02-.3.12-.6.36-.78-.09-.05-.19-.1-.29-.15.26-.04.49-.2.62-.43h0c.05-.09.08-.19.09-.28-.11.07-.22.12-.34.15h-.01c-.22.06-.45.06-.66,0,.13,0,.21-.21.09-.29.38-.18.67-.54.77-.94-.25.26-.62.42-.98.41-.1-.18-.25-.33-.44-.43.39-.1.73-.39.88-.75-.15.09-.32.19-.5.2-.19,0-.39-.13-.39-.31l.45-.03c.03-.15-.01-.3-.1-.42.2-.03.38-.18.43-.37-.17-.01-.33-.01-.49-.02.39-.14.7-.46.83-.85-.37.32-.87.49-1.36.46.11-.37.23-.74.35-1.1.28,0,.55-.2.66-.46-.29.07-.57-.16-.68-.43-.11-.26-.12-.56-.2-.83.09,0,.18-.09.15-.18-.28-.34-.42-.76-.35-1.18-.13.56-.26,1.11-.4,1.66-.02.09-.04.18-.03.27.02.08.05.16.06.24.01.31-.45.37-.77.33.01.28.39.49.64.34.07.22-.16.48-.39.44.07.31.07.64,0,.95-.27.14-.66-.06-.7-.36-.12.29.06.62.27.86.2.24.45.49.47.8-.3.18-.75.04-.9-.28-.02.25.04.49.15.7.02.04.04.07.06.11-.18.25-.56.26-.82.1-.26-.15-.43-.41-.59-.67.02.33.2.65.48.83-.13.09-.29.16-.46.18.23.18.55.26.84.21-.34.26-.78.41-1.21.42.38.36,1.02.4,1.45.11,0,.32,0,.64.01.95-.41-.03-.81-.12-1.19-.27.31.28.65.53,1.02.73-.34.17-.75.12-1.09-.03-.17-.08-.32-.18-.46-.28-.15-.12-.3-.25-.44-.37,0,.39.24.77.58.96.09.06.19.1.29.12-.07.05-.16.08-.24.09-.14.04-.28.04-.41,0,.1.13.06.35-.1.43.18.24.46.4.76.45.01,0,.03,0,.04,0,0,.02-.01.05-.02.07-.08.28-.41.47-.72.47-.3,0-.59-.12-.85-.26.02-.1.03-.2,0-.3-.34.16-.74.17-1.08.03.27-.09.48-.32.55-.6-.45.03-.91-.05-1.33-.24l.36-.24c-.12-.13-.24-.27-.35-.4.47-.1.79-.66.62-1.11-.43.44-1.18.51-1.69.18.67.07.69-1.11,1.31-1.36-.3-.1-.16-.55.04-.8-.58.54-1.46.75-2.23.52.32-.11.7-.41.51-.68.21-.01.44-.04.56-.2.13-.15,0-.46-.2-.4.47-.16.84-.56.97-1.02.02-.08.03-.15.04-.23-.07.06-.14.11-.22.15-.48.33-1.08.46-1.66.4-.27-.02-.54-.09-.73-.27s-.27-.5-.12-.71c.33.13.71.12,1.03-.02.04,0,.07-.02.1-.04-.11-.24-.08-.53.08-.74-.15-.02-.29-.04-.44-.06.4-.38.65-.89.71-1.43-.45.69-1.37,1.04-2.17.83-.05-.38.1-.79.38-1.05-.13-.06-.26-.11-.39-.16.46-.11.82-.54.83-1.01-.35.28-.84.4-1.29.3.18,0,.26-.3.09-.38.47-.28.8-.77.89-1.3-.28.34-.69.58-1.13.62-.03,0-.07.02-.1.02-.15-.22-.36-.4-.62-.51.49-.17.88-.56,1.04-1.03,0,0,0-.02,0-.03-.19.13-.38.27-.62.3s-.52-.12-.54-.35c.2-.03.39-.06.58-.09.02-.19-.05-.39-.18-.54.26-.05.47-.27.51-.52l-.63.03c.48-.22.85-.67.97-1.19-.44.45-1.07.73-1.71.74.01-.04.02-.06.02-.1h0c.11-.46.21-.91.31-1.36.13,0,.26-.06.37-.12.2-.12.36-.31.43-.54-.29.1-.6-.06-.8-.29-.05-.06-.09-.12-.12-.18-.01,0-.01,0-.01,0-.12-.24-.18-.51-.26-.78-.03-.09-.06-.19-.09-.28.12,0,.22-.14.18-.25-.04-.04-.08-.08-.11-.12-.21-.24-.36-.51-.44-.8-.04-.18-.06-.37-.04-.56-.03.18-.05.36-.08.54-.08.55-.17,1.1-.25,1.65-.02.12-.03.24-.01.35.03.1.09.19.1.3.01.07,0,.13-.03.18-.11.26-.57.36-.92.33.05.37.56.59.86.37.13.28-.14.64-.45.61.12.39.16.8.11,1.2v.03c-.08.05-.17.08-.26.08-.18.02-.37-.05-.5-.16h0c-.09-.08-.15-.18-.18-.3-.04.12-.04.25-.01.37.03.14.1.28.19.41.08.11.17.21.26.3l.24.24c.22.22.42.45.47.75-.14.09-.3.14-.47.14-.18,0-.35-.06-.5-.17-.09-.05-.17-.13-.23-.23.01.28.09.57.23.82.04.07.08.14.13.2-.03.06-.08.11-.13.15-.24.19-.63.21-.92.07-.36-.17-.6-.49-.83-.81.05.43.33.82.72,1.02-.17.14-.37.24-.58.29.32.21.73.28,1.11.18-.42.38-.96.62-1.52.68.53.41,1.36.4,1.88-.02.05.41.09.82.13,1.23-.1,0-.19,0-.29,0h-.02c-.42-.02-.85-.09-1.26-.21.43.33.91.61,1.41.83-.42.25-.95.24-1.41.08-.46-.17-.86-.46-1.24-.74.05.64.59,1.21,1.24,1.3-.23.17-.54.24-.83.19.15.16.12.45-.07.57.28.29.67.48,1.08.5-.03.43-.46.74-.89.79-.44.04-.87-.12-1.26-.31.22.3.58.48.96.49-.04.12-.07.25-.1.37.14-.04.29.12.24.25.15,0,.3,0,.46,0-.1.29-.47.43-.78.39-.31-.05-.58-.23-.84-.41-.21.23.07.67.37.59-.01.11-.02.21-.03.32.11.03.22.06.32.09-.3.21-.71.14-1.08.17-.07,0-.15.02-.22.04-.3.08-.58.29-.53.58.05.15.26.24.41.18-.01.12-.02.25-.03.37.08.02.16.04.24.05.41.07.85-.02,1.2-.25.15.35-.35.65-.74.64-.13,0-.28-.01-.42-.02-.27,0-.52.02-.69.2l-.6-.36c.01.51.49.95,1.01.93-.1.13-.25.23-.41.27.12.17.31.28.51.3-.14.11-.29.22-.43.33.24.19.56.26.86.2.06,0,.12-.02.19-.05.01.12.02.23.04.34-.05.03-.11.05-.17.07-.45.17-.98.09-1.36-.19.01.04.02.09.04.13.14.42.52.76.97.85-.02.04-.05.07-.08.1-.13.12-.32.18-.5.15.3.26.66.44,1.05.54-.44.3-1.1.22-1.45-.18-.21.18-.03.53.21.68.09.06.18.11.27.17-.09-.04-.2-.06-.29-.06-.05,0-.1,0-.15.01h0c-.24,0-.48.03-.68-.09.08-.03.16-.06.24-.08,0-.04-.01-.07-.02-.1,0-.05-.01-.1-.02-.15.24.05.43-.3.26-.47-.19.15-.39.3-.63.35-.23.05-.52-.05-.61-.27.12,0,.24,0,.35-.02-.04-.1.07-.23.18-.21l-.09-.27c.16-.02.32-.08.45-.17.1-.07.19-.15.26-.25-.17.09-.35.18-.54.23-.13.04-.27.06-.41.06-.15,0-.31-.06-.43-.14-.16-.11-.27-.25-.29-.43.31-.04.61-.19.81-.43-.06-.04-.1-.09-.11-.16h0c-.05-.1-.03-.21.03-.28-.22.05-.46,0-.65-.11.5-.1.89-.56.9-1.05-.28.23-.57.47-.92.62-.34.14-.76.17-1.09,0,.38-.19.73-.43,1.05-.7-.38.14-.79.22-1.2.23.02-.31.03-.63.05-.95.42.31,1.05.28,1.45-.06-.44-.02-.87-.19-1.2-.46.29.06.61-.01.85-.18-.17-.03-.33-.1-.46-.2.29-.17.48-.48.51-.81-.17.25-.34.51-.61.65-.27.15-.65.12-.82-.13.16-.23.25-.51.23-.8-.15.31-.6.44-.9.25.03-.31.29-.55.5-.79.21-.23.41-.55.29-.85-.04.3-.44.49-.71.34-.05-.32-.04-.64.04-.95-.24.03-.46-.23-.38-.45.25.15.63-.04.65-.32-.32.04-.77-.05-.75-.36,0-.08.04-.15.06-.23.02-.09,0-.18-.02-.27-.12-.56-.23-1.12-.35-1.67.06.42-.09.83-.39,1.16-.02.09.06.19.15.18-.09.28-.1.57-.23.83-.12.27-.4.49-.69.41.1.26.36.46.64.48.11.37.21.74.32,1.11-.49.01-.99-.17-1.34-.5.11.39.41.72.8.88-.17,0-.33,0-.49,0,.04.2.21.36.41.39-.09.11-.14.27-.12.42.15.01.3.03.45.04,0,.18-.21.3-.39.29-.19-.01-.35-.11-.5-.21.14.37.47.67.86.78-.19.09-.35.24-.45.42-.17,0-.35-.04-.51-.11-.18-.08-.34-.19-.47-.34.07.31.25.59.49.8.08.06.16.12.25.17-.12.07-.05.29.09.29-.1.03-.21.04-.3.04-.26,0-.51-.07-.71-.22.03.36.32.68.68.75-.1.04-.2.08-.29.13.03.03.07.06.1.1.17.19.26.45.24.7-.61.19-1.33-.05-1.71-.55.07.41.29.79.61,1.07-.11.02-.22.04-.34.06.13.15.17.38.1.57.06.03.12.05.19.06.12.03.24.04.36.02.11,0,.22-.04.32-.08.02.03.04.06.05.1.05.14-.01.33-.11.44-.14.15-.35.22-.55.25-.46.07-.95-.02-1.34-.27v.29c.14.26.4.47.7.55-.16-.04-.25.2-.14.32.1.11.28.12.44.12-.14.22.17.43.42.51-.46.17-.99.12-1.42-.11v.59c.29.32.41.88.82.81-.23.17-.54.23-.82.17v.58s.02.01.03.01c-.01,0-.02.03-.03.04v.42l.06.03-.06.03v1.51c.14.18.28.34.43.5.75.87,1.58,1.5,2.49,1.96.75.39,1.55.66,2.41.85,1.13.25,2.37.37,3.71.43.49.02.97.05,1.46.07h.05c.96.04,1.91.07,2.87.11h0c2.54.08,5.07.13,7.6.16h.37c.16,0,.32,0,.47-.02h.02c.13.01.25,0,.37,0,.05,0,.08,0,.12-.01h0c1.9-.11,3.5-.51,4.89-1.33.57-.33,1.11-.73,1.62-1.21.01-.01.02-.02.03-.03.5-.47.97-1.01,1.42-1.64.18-.24.34-.48.51-.74.08-.13.16-.25.24-.37-.1-.04-.19-.07-.28-.12.1-.05.19-.1.29-.15-.07-.11-.15-.21-.22-.31,0,0,0-.02-.02-.03.04,0,.08-.01.12-.02.04-.02.07-.03.11-.05ZM21.74,122.77c.32-.02.66-.05.94-.2.18-.1.33-.26.39-.45.16.19.38.32.62.35l-.09.27c.11-.02.21.11.16.21.12,0,.24.02.35.03-.09.22-.38.31-.62.25-.23-.05-.43-.21-.61-.36-.18.16,0,.51.24.47-.02.08-.03.16-.05.25.08.02.16.05.24.08-.24.15-.55.07-.84.06-.28,0-.64.15-.62.43.01.02.02.03.03.05-.23-.07-.43-.22-.51-.44.36-.01.7-.31.73-.67l-.36-.33ZM9.5,124.25s.02.03.03.05c-.01,0-.02,0-.03.01v-.06ZM8.12,124.67c.26.15.57.2.87.15.03.06.07.12.1.17-.14.07-.29.11-.45.14-.28-.01-.62-.21-.52-.46Z"/>
        <path class="st25" d="M48.84,142.84l-.79.31-1.14.45-.97.4h-.01s-.05.01-.05.01l-.33.13-3.4,1.34-.33.13-3.7,1.46-5.05,2h-.01l-6.34,2.5-2.75,1.09-8.12,3.2L.19,162.04v-42.46c.73.14,1.46.29,2.18.45.1.02.2.04.3.07,1.63.36,3.23.75,4.79,1.17h0c.42.12.84.24,1.26.35.46.14.92.27,1.38.41,1.19.36,2.36.73,3.5,1.12h.01c1.56.52,3.07,1.07,4.54,1.64,2.69,1.05,5.23,2.15,7.61,3.28.36.17.71.34,1.06.51.76.37,1.48.74,2.2,1.11h.01s0,0,0,0c.03.01.05.02.08.04.13.06.26.13.39.2.37.19.73.38,1.08.57.2.1.39.21.58.31h.01c.6.33,1.2.66,1.77.99.08.04.16.08.23.13,1.09.62,2.13,1.23,3.12,1.83h.01c1.2.75,2.32,1.46,3.36,2.15.26.17.52.35.77.51h.01s0,0,0,.01c2.48,1.67,4.42,3.15,5.82,4.26h0c.75.6,1.34,1.09,1.76,1.45.52.44.79.69.79.69Z"/>
        <path class="st31" d="M92.08,111.19v49.57c-.3-.11-.6-.22-.89-.32-.06-.02-.12-.05-.17-.06-1.62-.58-3.26-1.11-4.91-1.62-.06,0-.12-.03-.17-.05-3.62-1.12-7.29-2.19-10.8-3.56-1.19-.46-2.36-.96-3.5-1.5-1.31-.62-2.58-1.31-3.83-2.04-1.72-.98-3.4-2.04-5.08-3.07-.01-.01-.02-.02-.04-.03-.6-.38-1.19-.75-1.8-1.12-2.59-1.61-5.23-3.16-8.02-4.4-.03-.01-.07-.03-.1-.04-2.1-.93-4.27-1.67-6.48-2.25h0c-.6-.16-1.19-.3-1.79-.42-.01-.01-.02-.01-.03-.01-.75-.17-1.51-.32-2.27-.45h-.01c-1.17-.2-2.34-.36-3.53-.48-2.11-.22-4.24-.32-6.37-.33h-.45c-.94,0-1.89.03-2.83.07-1.99.08-3.97.23-5.93.45-1.08.12-2.31.19-3.5.07-.28-.02-.57-.06-.84-.11-1.82-.33-3.4-1.19-3.92-3.13.4-.06.8-.15,1.18-.29.82-.25,1.56-.66,2.3-1.15,0,0,.02,0,.02,0,1.07-.7,2.08-1.59,3.08-2.47.04-.03.07-.06.1-.09.04-.03.08-.07.12-.1.04-.03.08-.06.11-.1.03-.02.05-.04.07-.05.02-.02.04-.04.06-.06.32-.27.64-.55.96-.82.57-.46,1.14-.9,1.73-1.28.75-.48,1.51-.94,2.28-1.36.3-.18.6-.35.91-.5h.01c1.09-.6,2.21-1.15,3.34-1.67.03-.02.07-.03.1-.05.04-.02.07-.03.11-.05.11-.05.23-.1.35-.16h.01c.89-.4,1.79-.79,2.69-1.16.77-.32,1.53-.63,2.3-.93l.6-.24h0c1.57-.61,3.14-1.21,4.72-1.78,3.08-1.11,6.19-2.15,9.32-3.1,1.6-.49,3.21-.95,4.82-1.4.79-.22,1.58-.43,2.37-.64.22-.06.44-.12.67-.17h0c2.05-.54,4.11-1.03,6.19-1.49,0-.01,0-.01,0-.01.3-.07.61-.13.92-.2.38-.09.76-.17,1.15-.25,1.96-.41,3.92-.8,5.89-1.15,2.05-.37,4.11-.71,6.17-1.01l.87-.12c1.47-.21,2.94-.41,4.41-.58,0,0,.01,0,.01,0h0c.88-.1,1.75-.19,2.62-.28.1-.01.2-.02.29-.03l1.17-.12s.04,0,.06,0c1.05-.1,2.1-.19,3.15-.28Z"/>
        <path class="st26" d="M91.2,119.41c-.39.32-1.01.33-1.4.02.23.05.38-.1.52-.3.16-.23.3-.52.52-.65.04-.03.08-.06.13-.07-.24-.1-.09-.46.09-.65-.51.41-1.25.51-1.85.27.26-.07.6-.29.46-.52.17.01.36,0,.47-.12.12-.12.03-.38-.13-.34.45-.11.83-.5.91-.95-.44.32-1.03.42-1.57.32-.22-.04-.43-.12-.58-.28-.14-.16-.18-.42-.04-.58.28.13.63.15.92.03-.07-.2-.02-.44.12-.6-.11-.03-.23-.06-.35-.08.35-.28.6-.68.68-1.12-.41.53-1.19.75-1.83.53,0-.32.14-.64.39-.84-.1-.05-.2-.1-.31-.15.39-.06.71-.39.75-.76-.3.21-.71.27-1.07.15.14,0,.23-.23.1-.31.38-.18.68-.53.8-.94.01-.02.01-.04.02-.06-.03.03-.05.05-.08.07-.26.24-.62.38-.97.37-.05-.09-.11-.18-.2-.25-.07-.08-.16-.15-.26-.21.41-.1.77-.41.94-.8-.17.1-.35.21-.54.21-.2.01-.41-.13-.41-.32l.48-.03c.02-.16-.02-.33-.12-.45.22-.03.41-.19.46-.4-.17,0-.35,0-.52,0,.42-.15.75-.49.88-.91-.39.34-.92.52-1.44.49.12-.39.25-.78.37-1.17.3,0,.59-.21.7-.48h-.02c-.29.06-.58-.19-.7-.46-.12-.28-.13-.6-.21-.89.1.01.19-.1.16-.19-.3-.36-.45-.81-.37-1.25-.14.59-.28,1.17-.43,1.76-.01.06-.02.12-.02.18h0s-.01.07-.01.11c.02.08.06.16.06.25.01.33-.48.4-.81.35.01.3.41.52.67.36.08.24-.16.52-.41.47.03.15.05.29.05.45.01.19,0,.38-.05.56-.22.11-.51.02-.66-.17-.04-.06-.07-.13-.08-.21-.04.09-.05.18-.04.27.01.22.16.45.32.64.22.26.48.52.51.86-.33.18-.8.04-.96-.3-.02.3.06.61.22.86-.19.26-.6.27-.88.11-.27-.16-.45-.45-.62-.72.02.35.21.69.51.88-.14.1-.31.17-.49.2.25.19.58.27.89.22-.02.02-.05.04-.08.05h0s-.01,0-.01,0c-.34.24-.75.38-1.18.39.4.37,1.08.42,1.53.11.01.34.01.68.02,1.02-.44-.04-.86-.13-1.27-.29.33.3.7.56,1.09.78-.36.17-.79.12-1.16-.04-.36-.17-.66-.43-.96-.69,0,.52.4,1.03.93,1.14-.21.13-.46.16-.7.1.12.14.07.38-.1.46.21.26.52.44.85.49-.06.34-.43.57-.79.58-.32,0-.62-.13-.9-.29.03-.1.03-.21,0-.31-.36.16-.79.18-1.15.03.29-.1.52-.35.59-.64-.37.02-.73-.02-1.08-.14-.11-.03-.22-.07-.33-.12.1-.07.21-.13.31-.21.02-.01.04-.03.06-.04-.02-.02-.04-.05-.06-.07-.1-.12-.2-.23-.31-.36.1-.02.2-.06.28-.12.34-.21.53-.66.39-1.05-.12.12-.27.22-.43.29-.44.18-.98.15-1.38-.11.21.03.35-.06.47-.21.27-.31.42-.87.77-1.13.05-.05.1-.08.16-.1-.07-.02-.12-.06-.14-.12-.11-.18.02-.52.18-.73-.09.09-.19.16-.29.23-.6.4-1.38.53-2.08.32.34-.11.75-.43.55-.72.21,0,.46-.04.59-.21.14-.17-.01-.5-.21-.43.36-.12.66-.37.86-.7h0c.11-.2.19-.41.21-.63-.09.08-.19.15-.29.2-.5.32-1.12.46-1.71.39-.28-.03-.57-.1-.77-.29-.21-.19-.29-.52-.13-.75.38.14.83.12,1.2-.06-.12-.26-.08-.57.08-.8-.15-.02-.31-.04-.46-.06.42-.4.69-.95.75-1.52-.47.73-1.45,1.11-2.31.89-.05-.41.11-.84.41-1.13-.14-.05-.28-.11-.41-.16.49-.11.87-.58.88-1.07-.38.31-.91.43-1.38.32.19,0,.28-.32.1-.41.5-.3.85-.82.94-1.39-.31.4-.8.65-1.3.69-.16-.24-.39-.43-.66-.55.53-.18.96-.61,1.13-1.14-.21.15-.42.31-.68.34-.25.02-.54-.13-.57-.38.21-.03.42-.06.62-.09.02-.21-.05-.42-.19-.57.27-.06.5-.29.54-.56-.22.01-.45.03-.67.04.51-.24.91-.72,1.03-1.27-.47.48-1.13.77-1.81.79.11-.52.23-1.04.35-1.56.36-.04.7-.3.82-.65,0-.01,0-.03.02-.05-.01,0-.03.01-.04.01-.37.1-.76-.18-.94-.52-.18-.33-.22-.71-.35-1.06,0-.02-.02-.05-.03-.07.09,0,.17-.07.19-.15.01-.04.01-.07,0-.11-.43-.43-.67-.99-.63-1.58-.03.22-.06.44-.1.66-.06.46-.13.91-.19,1.36-.02.1-.04.21-.05.31-.02.13-.04.25-.01.38.03.1.09.2.1.31.05.43-.56.58-1,.55.04.39.58.62.91.39.13.3-.16.68-.49.65.14.42.18.87.13,1.31-.36.23-.92,0-1-.41-.14.41.15.84.46,1.15.32.31.69.62.76,1.05-.4.28-1.03.14-1.27-.28,0,.39.14.78.38,1.09-.21.36-.74.42-1.12.24s-.64-.53-.88-.86c.05.45.35.87.76,1.08-.17.14-.37.25-.58.3-.01,0-.03,0-.04,0,.02,0,.03.02.05.03h.01c.34.2.75.25,1.12.16-.24.22-.52.39-.82.51-.25.11-.52.18-.79.21.29.22.66.33,1.03.32.36,0,.7-.12.97-.34.05.43.09.87.14,1.31-.25,0-.5-.02-.75-.05-.31-.03-.62-.1-.92-.18.35.27.73.5,1.12.7.12.06.24.12.37.18-.09.05-.17.09-.27.12-.39.13-.83.1-1.22-.04-.49-.18-.91-.48-1.33-.79.06.68.64,1.29,1.33,1.38-.25.18-.58.26-.89.21.17.16.13.48-.07.6.29.32.72.51,1.15.54-.03.45-.49.79-.95.84-.46.04-.92-.13-1.33-.33.23.31.61.51,1.01.52-.03.13-.07.26-.1.39.14-.04.27.1.26.23,0,0,0,.03-.01.04h.11c.13,0,.26,0,.38,0-.02.04-.04.08-.07.12-.14.23-.47.32-.75.29-.34-.05-.62-.24-.9-.43-.22.24.07.71.4.62-.01.12-.02.23-.03.34.11.03.22.07.33.1-.32.22-.75.15-1.14.18-.4.02-.87.27-.81.66.06.16.28.26.44.19,0,.13-.02.26-.03.4.51.15,1.08.07,1.53-.21.16.37-.37.68-.78.67-.42,0-.91-.1-1.19.2l-.63-.39c0,.54.52,1.01,1.07.98-.11.15-.26.26-.44.3.13.17.33.29.55.32-.16.11-.31.23-.46.35.05.04.1.07.15.11.29.15.66.18.96.05.02.12.03.24.04.35-.5.27-1.16.22-1.62-.12.12.51.56.94,1.08,1.04-.13.2-.38.31-.62.27.32.27.7.47,1.11.57-.46.32-1.17.23-1.54-.19-.23.19-.03.57.22.73.1.06.2.11.3.17-.1-.04-.22-.06-.32-.06-.28,0-.59.06-.83-.05-.02-.01-.04-.03-.06-.04.02,0,.05-.02.07-.02.06-.03.12-.05.19-.06-.02-.09-.03-.18-.04-.26.25.05.46-.32.27-.5-.12.09-.24.18-.38.25-.09.05-.19.09-.29.11-.25.05-.55-.04-.65-.28.13-.01.25-.02.38-.03-.04-.1.07-.23.18-.21l-.09-.3c.18-.01.35-.08.5-.18.1-.07.19-.16.25-.26-.08.04-.17.09-.25.13-.24.11-.5.19-.76.18-.35-.02-.72-.26-.76-.61.21-.03.4-.1.58-.22,0-.01,0-.01,0-.01.1-.05.19-.13.27-.23-.16-.08-.2-.32-.09-.46-.23.05-.48,0-.69-.12.53-.1.95-.59.96-1.12-.3.25-.61.51-.98.66-.36.15-.8.19-1.15,0,.4-.2.77-.45,1.11-.74-.41.15-.84.23-1.27.25.01-.34.03-.68.04-1.01.45.32,1.13.29,1.55-.07-.47-.02-.92-.2-1.28-.49.31.06.65-.01.9-.19-.17-.03-.34-.11-.48-.21.3-.18.51-.52.54-.87-.18.27-.36.55-.65.7-.28.15-.69.13-.87-.14.17-.24.26-.55.25-.85-.17.33-.65.46-.97.27.04-.34.31-.59.54-.84s.43-.59.31-.91c-.05.32-.47.52-.75.36-.06-.33-.05-.68.03-1.01-.25.04-.48-.25-.39-.48.25.17.66-.03.68-.34-.34.04-.82-.04-.8-.38,0-.08.05-.16.07-.24.02-.1,0-.2-.02-.29-.03-.13-.06-.25-.08-.38-.1-.47-.2-.94-.29-1.4.05.39-.06.77-.3,1.09l-.12.15c-.02.09.06.2.16.19-.09.29-.11.61-.24.89-.13.27-.43.51-.73.43.1.28.38.49.68.5.11.4.22.79.33,1.18-.52.02-1.05-.17-1.42-.53.11.42.44.78.84.94-.17,0-.34,0-.52-.01.05.21.23.38.45.41-.11.13-.15.29-.13.45.16.01.32.03.48.05-.01.19-.23.32-.42.31-.2,0-.37-.12-.54-.23.16.39.5.71.92.83-.2.1-.37.26-.48.45-.39,0-.78-.19-1.04-.48.1.43.39.82.79,1.03-.13.07-.05.31.09.31-.35.1-.77.03-1.07-.19.03.38.34.72.72.79-.1.05-.2.09-.31.14.25.21.39.53.36.85-.4.13-.85.07-1.23-.12-.23-.11-.43-.27-.58-.47.07.44.3.84.63,1.13h0c-.11.03-.22.05-.34.08.14.16.18.4.1.6.09.04.18.07.27.08.22.04.45.01.65-.08.14.17.09.43-.06.58-.15.16-.37.23-.58.26h-.03c-.54.09-1.11-.05-1.54-.37.07.43.4.82.84.96,0,0,.01,0,.01,0-.14,0-.21.23-.11.35.11.12.3.13.47.13-.1.16.02.31.19.42.08.05.17.09.25.12-.09.03-.19.06-.29.07-.54.1-1.13-.04-1.55-.4.14.16.26.44.16.58-.02.03-.05.06-.09.07.52.18.59,1.15,1.13,1.05-.4.3-1.02.27-1.39-.06-.12.37.17.81.56.87-.09.12-.18.23-.27.35.1.06.2.11.3.17-.3.16-.65.24-.99.25.09.15.17.29.26.41.04.03.09.05.14.07-.03,0-.06,0-.09.03l.11.16c.12.18.25.36.38.53.11.16.22.3.34.44.03.05.07.09.1.13,1.56,1.84,3.41,2.73,5.6,3.19,1.14.23,2.37.34,3.7.4,1.29.06,2.58.11,3.88.16,2.5.09,5,.15,7.5.18.46,0,.91.02,1.37.02,2.53.03,4.6-.34,6.35-1.29,1.17-.62,2.19-1.49,3.14-2.67.33-.41.65-.85.96-1.34.08-.14.16-.27.25-.4-.1-.04-.2-.07-.3-.12.11-.05.21-.11.31-.16-.09-.12-.17-.24-.26-.36.4-.05.7-.48.6-.85ZM80.45,117.47c.33-.08.6-.37.63-.7-.13-.11-.26-.23-.39-.35.35-.03.71-.05,1.01-.22.18-.1.34-.27.41-.47.17.2.41.34.66.37-.03.09-.07.19-.1.29.11-.02.22.12.17.22.13,0,.25.03.38.04-.1.23-.41.32-.66.26s-.46-.23-.66-.39c-.19.17,0,.55.26.51,0,.08-.03.17-.05.26.09.03.17.06.26.09-.26.15-.59.07-.9.06-.3,0-.68.16-.66.45.01.03.02.04.03.06-.15-.05-.3-.13-.4-.24-.06-.06-.11-.14-.14-.22.05,0,.1-.01.15-.02ZM67.68,117.99s.02.03.03.06c-.01,0-.02,0-.03.01.01-.03,0-.05,0-.07ZM66.22,118.44c.27.16.6.21.92.16.04.06.07.12.11.18-.15.07-.31.12-.48.14-.3,0-.66-.21-.55-.48Z"/>
        <path class="st29" d="M90.32,119.13c.59-.02,1.18-.04,1.76-.04v49c-.27-.12-.55-.25-.83-.38-.26-.12-.52-.23-.78-.35l-1.8-.78c-.08-.03-.16-.06-.24-.1l-1.74-.72-.93-.39c-.47-.19-.93-.38-1.4-.57-3.87-1.58-7.73-3.2-11.28-5.31-.76-.45-1.5-.92-2.23-1.41-1.06-.69-2.08-1.43-3.1-2.18-1.08-.79-2.15-1.6-3.21-2.41-2.03-1.55-4.07-3.09-6.19-4.49h-.01c-.14-.09-.28-.19-.42-.29-.84-.53-1.69-1.05-2.57-1.54-.03-.02-.06-.04-.09-.05-.01,0-.02,0-.03-.02-.72-.39-1.44-.77-2.18-1.11h-.01c-1.7-.82-3.44-1.52-5.23-2.1-.3-.11-.6-.2-.9-.29-.99-.31-1.99-.59-3.01-.83-1.55-.38-3.11-.69-4.69-.93h0c-.08-.02-.16-.04-.24-.04-1.41-.22-2.84-.39-4.27-.52-.73-.06-1.45-.11-2.17-.15h-.01c-1.91-.11-3.82-.15-5.72-.13-.27,0-.53.01-.8.01-2.08.04-4.75-.15-6.42-1.41-.77-.58-1.32-1.38-1.52-2.49,2.12-.11,4.01-1.24,5.83-2.52.34-.24.66-.48.99-.72,0,.01.01,0,.01,0,.22-.16.44-.32.66-.48.08-.05.15-.11.23-.16.62-.45,1.23-.87,1.86-1.24.23-.14.46-.27.69-.39.23-.12.46-.24.7-.35.25-.13.5-.25.75-.37.09-.04.17-.08.26-.12.18-.09.37-.18.56-.25,1.94-.89,3.95-1.64,5.98-2.31.38-.14.75-.26,1.14-.39h.01c.74-.23,1.49-.46,2.24-.68.28-.1.6-.19.88-.25.03-.02.05-.04.08-.04.15-.05.31-.09.46-.13.01,0,.02,0,.03,0,.05-.02.08-.04.14-.05,1.31-.39,2.63-.75,3.95-1.1h.01c3.51-.94,7.05-1.78,10.61-2.51.01,0,.02,0,.03,0,.37-.08.74-.15,1.11-.23.28-.05.56-.11.84-.16,2.46-.49,4.94-.92,7.42-1.3.53-.09,1.06-.17,1.59-.24h.01c1.96-.29,3.92-.55,5.88-.77,2.42-.29,4.85-.52,7.28-.7,2.38-.19,4.77-.33,7.17-.42.95-.04,1.91-.08,2.87-.09Z"/>
        <path class="st30" d="M92.08,131.94v37.66h-.02s-.79-.5-.79-.5l-.89-.55-1.65-1.03-.35-.22-1.64-1.02-.99-.61-1.39-.87-12.16-7.57-5.46-3.39h-.01s-1.28-.81-1.28-.81h-.02s-7.08-4.03-7.08-4.03h-.01l-.47-.27-2.22-1.26s-.01-.01-.02-.01l-2.58-1.47h-.01l-3.96-2.26h-.01l-1.02-.58-5.86-3.33h-.01l-4.32-2.45h-.01s-.75-.44-.75-.44l-4.02-2.28-4.06-2.3-.69-.39-.03-.02h63.78Z"/>
        <g class="st60">
          <path class="st52" d="M91.05,134.37c.35-.01.69-.01,1.03-.02v.84c-.45-.01-.91-.01-1.37-.02-2.59-.03-5.18-.07-7.78-.12-2.69-.05-5.38-.12-8.07-.2-1-.02-2.01-.05-3.01-.08,1.04-.03,2.07-.06,3.11-.08,2.75-.09,5.5-.15,8.25-.2,2.62-.05,5.23-.09,7.84-.12Z"/>
        </g>
        <g class="st61">
          <path class="st52" d="M89.71,137.36c.79-.02,1.58-.04,2.37-.05v.45c-.85,0-1.7-.03-2.54-.05-2.13-.05-4.26-.1-6.38-.17,2.18-.07,4.36-.13,6.55-.18Z"/>
        </g>
        <path class="st9" d="M21.67,131.78h0c0,.1-.01.18-.03.27.01.02,0,.04-.01.06,0,.05-.01.1-.02.14,0,.04-.01.07-.02.1-.01.02-.01.05-.02.07-.39,1.37-1.79,2.24-3.26,2.49,0,0-.02,0-.02,0-.39.07-.8.09-1.19.07-.7-.04-1.37-.23-2.07-.37h-.01c-.3-.07-.61-.12-.92-.15-1.72-.18-3.43.41-5.06.99-.4.14-.88.34-1.41.57-1.88.82-4.45,2.06-6.64,2.65-.28.08-.54.14-.8.19v-11.57c.13-.22.29-.43.48-.6.08-.08.17-.15.27-.22s.2-.14.32-.2c.39-.19.82-.29,1.26-.28.12,0,.24,0,.35.03.1.01.2.02.29.05l.3.09s.02,0,.03.01c.1.04.2.09.3.14.06.02.11.06.17.09.01-.59.31-1.15.65-1.64.37-.51.81-.99,1.37-1.25.32-.15.66-.21,1.01-.21.11,0,.22,0,.33.02.08,0,.17.02.25.04.07.01.13.03.2.05.17.04.35.11.51.19.16.07.32.16.46.27h0c.1.07.2.15.29.23.13.12.25.25.35.39.59.7.91,1.62,1.03,2.53.19-.32.43-.6.71-.82.19-.17.39-.31.61-.43.38-.19.79-.33,1.21-.29.62.06,1.15.5,1.46,1.04.31.49.46,1.06.59,1.62l.03.12s.06-.08.1-.12c.66-.76,1.75-1.08,2.74-.91.54.09,1.06.32,1.52.62.1.07.2.14.29.21.31.24.6.51.85.8.14.16.26.33.38.5.37.54.64,1.15.74,1.79,0,.04,0,.09,0,.13.02.17.03.33.01.49Z"/>
        <path class="st14" d="M9.39,124.5c.01.17-.01.35-.06.53-.3,1.23-1.89,2.03-2.96,1.35.34.64.3,1.44-.03,2.08-.16.29-.37.55-.65.74-.27.19-.59.31-.92.35-.71.09-1.48-.15-1.95-.7.19.56.38,1.14.32,1.73-.01.05-.01.1-.03.15-.11.53-.5,1.03-1.05,1.1-.6.06-1.13-.44-1.52-.91.01.37-.13.73-.35,1.02v-4.64c.13-.22.29-.43.48-.6.08-.08.17-.15.27-.22s.2-.14.32-.2c.39-.19.82-.29,1.26-.28.12,0,.24,0,.35.03.1.01.2.02.29.05l.3.09s.02,0,.03.01c.1.04.2.09.3.14.06.02.11.06.17.09.01-.59.31-1.15.65-1.64.37-.51.81-.99,1.37-1.25.32-.15.66-.21,1.01-.21.11,0,.22,0,.33.02.08,0,.17.02.25.04.07.01.13.03.2.05.17.04.35.11.51.19.16.07.32.16.46.27h0c.1.07.2.15.29.23.13.12.25.25.35.39Z"/>
        <path class="st51" d="M46.87,129.89c-.07-.13-.14-.25-.22-.37-.4-.59-.98-1.09-1.66-1.28-.69-.19-1.49-.04-1.98.49-.06-.42-.11-.84-.29-1.22s-.5-.71-.91-.8c-.28-.06-.57,0-.83.11-.38.16-.73.41-.98.74-.02-.74-.22-1.5-.72-2.06-.49-.55-1.31-.85-2.01-.62-.4.13-.73.42-1.01.74-.27.3-.51.66-.56,1.06-.5-.39-1.21-.5-1.8-.28-.49.18-.83.56-1.05,1.02-.06.12-.53,1.21-.39,1.22-1.09-.08-2.22.34-2.87,1.2-.22.29-.39.62-.49.96h.05c-.49,1.39.12,3.24,1.57,3.83,1.75.72,5.94-1.09,7.75-1.52,1.14-.27,2.33-.54,3.47-.3.67.14,1.3.45,1.98.57,1.48.25,3.39-.51,3.32-2.24-.02-.44-.16-.87-.37-1.26Z"/>
        <path class="st32" d="M92.08,143.03v40.76H.19v-.95c-.04.06-.09.11-.14.17-.03-3.43-.09-11.61-.01-13.66.01-.2.02-.34.03-.41.02-.13.05.01.09.35.01,0,.02,0,.03-.01v-33.33c2.17-.53,4.39-1.02,6.65-1.45,2.41-.47,4.87-.88,7.37-1.23,2.36-.34,4.75-.61,7.18-.83.06-.01.12-.02.18-.02.17-.02.35-.03.52-.05h.06l.36-.03c.05-.01.09-.01.13-.01,1.65-.14,3.31-.26,4.99-.34.23-.01.47-.02.7-.03.12-.01.24-.02.37-.02.09-.01.18-.01.28-.01.74-.04,1.49-.06,2.24-.08.58-.02,1.15-.03,1.73-.04.95-.02,1.9-.03,2.86-.03,2.4,0,4.77.05,7.12.16,1.37.06,2.73.14,4.08.23.6.04,1.19.09,1.78.15h.01c2.79.22,5.54.52,8.24.89,3.06.42,6.06.93,8.98,1.53,2.62.53,5.19,1.13,7.69,1.79,2.44.65,4.83,1.35,7.14,2.12,2.35.77,4.62,1.6,6.82,2.48,1.51.61,2.98,1.24,4.41,1.9Z"/>
        <path class="st33" d="M62.35,162.21c-.78,8.57-8.18,16.12-10.26,20.5-.17.37-.3.73-.38,1.08H.19v-.95c-.04.06-.09.11-.14.17-.03-3.43-.09-11.61-.01-13.66l.12-.06s.02,0,.03-.01c1.4-.65,2.82-1.27,4.24-1.88.13-.06.27-.11.4-.17,1.21-.51,2.42-1,3.64-1.48.03-.02.06-.03.09-.04,4.98-1.99,9.93-3.78,14.36-5.57,3.3-1.32,6.31-2.63,8.84-4.03.56-.3,1.11-.61,1.62-.93,2.48-1.52,3.88-3.13,4.49-4.77.43-1.11.48-2.23.25-3.34-.32-1.57-1.2-3.13-2.4-4.61-.32-.4-.67-.79-1.03-1.18-.74-.78-1.56-1.54-2.41-2.27-.05-.03-.1-.07-.14-.12-2.44-2.04-5.16-3.78-7.26-5.02h-.01c-1.14-.66-2.1-1.18-2.72-1.5h-.01s-.04-.03-.06-.04c-.02,0-.03,0-.04-.02-.12-.06-.23-.12-.32-.16-.03-.02-.06-.03-.09-.04-.11-.07-.19-.11-.24-.13h.03c.08.03.16.05.22.07t.02.01s.09.02.13.04c.01.01.02.01.04.01.01,0,.03,0,.04.01s.02.01.04.01h.01c.22.06.43.12.65.18h0s.04.02.06.02c1.07.3,2.11.6,3.13.9,4.14,1.23,7.85,2.49,11.16,3.77.31.12.62.24.92.36h.01c2.41.96,4.61,1.93,6.6,2.91.01,0,.02,0,.03.01,1.27.62,2.45,1.24,3.56,1.87.8.45,1.57.91,2.29,1.37,1.88,1.19,3.5,2.38,4.89,3.58.01.01.02.02.03.02.13.12.25.23.37.34.01,0,.02.01.02.01.56.51,1.08,1.01,1.57,1.51,1.92,2.02,3.23,4.03,4.06,6.03,1.01,2.44,1.29,4.86,1.07,7.2Z"/>
        <path class="st8" d="M40.51,125.03s-.02-.01-.02-.01h.06s-.02,0-.04.01Z"/>
        <g class="st0">
          <path class="st15" d="M62.35,162.21c-.78,8.57-8.18,16.12-10.26,20.5-.17.37-.3.73-.38,1.08H18.71c.24-.55.51-1.08.81-1.6.38-.67.82-1.32,1.3-1.95h0c.11-.14.2-.26.31-.39.36-.45.75-.89,1.17-1.32l.21-.21.02-.02c.43-.42.85-.82,1.29-1.21,6.36-5.71,13.39-7.89,18.79-11.83,2.53-1.84,4.69-4.06,6.26-7.21.45-.88.85-1.83,1.19-2.87.5-1.52.51-3,.13-4.43-.64-2.36-2.35-4.59-4.64-6.61-.04-.05-.09-.09-.14-.12-.48-.43-.99-.84-1.51-1.25-1.61-1.23-3.4-2.38-5.25-3.43-1.07-.61-2.17-1.19-3.26-1.73-3.63-1.81-7.21-3.25-9.85-4.22-1.26-.46-2.3-.81-3.03-1.05-.02-.01-.04-.02-.06-.02-.2-.07-.38-.13-.53-.18h-.01s.01,0,.01,0c.22.06.43.12.65.18h0s.04.02.06.02c1.07.3,2.11.6,3.13.9,4.14,1.23,7.85,2.49,11.16,3.77.31.12.62.24.92.36h.01c2.41.96,4.61,1.93,6.6,2.91.01,0,.02,0,.03.01,1.27.62,2.45,1.24,3.56,1.87.8.45,1.57.91,2.29,1.37,1.88,1.19,3.5,2.38,4.89,3.58.01.01.02.02.03.02.13.12.25.23.37.34.01,0,.02.01.02.01.56.51,1.08,1.01,1.57,1.51,1.92,2.02,3.23,4.03,4.06,6.03,1.01,2.44,1.29,4.86,1.07,7.2Z"/>
        </g>
        <g class="st62">
          <path class="st50" d="M43.42,150.26c.02.28.02.55,0,.83-.02.76-.15,1.5-.23,2.26-.02.52-.25,1-.37,1.5-.15.49-.25,1.02-.5,1.47-.24.61-.54,1.19-.88,1.75-.74,1.22-1.68,2.33-2.67,3.35-1.14,1.09-2.38,2.05-3.68,2.9h-.01c-2.13,1.42-4.43,2.56-6.72,3.6-1.68.77-3.39,1.48-5.07,2.2-.06.02-.12.05-.18.07l-1.05.45c-.15.06-.29.12-.43.19-.53.22-1.06.46-1.59.69l-.12.06c-.44.2-.88.4-1.31.62-.27.12-.54.25-.81.39l-.42.21c-.59.31-1.18.63-1.75.97-.09.05-.18.1-.26.16-.49.28-.98.58-1.45.9-.18.11-.36.22-.54.35-.98.65-1.93,1.34-2.85,2.06-.51.4-1,.8-1.49,1.22-.03.02-.05.04-.08.07-.43.37-.85.75-1.27,1.13-.07.06-.13.12-.19.19-1.32,1.23-2.57,2.55-3.72,3.94H.19v-.95c.3-.34.59-.67.89-1l.36-.39c.5-.54,1.02-1.08,1.55-1.58.06-.08.12-.14.19-.2.3-.29.6-.58.91-.85.11-.12.23-.22.35-.33.44-.4.89-.79,1.35-1.18.17-.13.33-.27.5-.41.29-.23.58-.47.88-.7.25-.19.49-.37.74-.56h.01c.31-.23.61-.46.93-.67.15-.12.31-.23.47-.33.31-.22.63-.44.96-.64,1.01-.67,2.05-1.3,3.11-1.87.1-.07.2-.12.31-.17.86-.47,1.73-.91,2.61-1.32.5-.22.99-.44,1.49-.65.19-.07.38-.15.57-.22,1.13-.47,2.26-.89,3.39-1.31.08-.03.15-.06.23-.08,1.9-.71,3.8-1.38,5.66-2.12,1.82-.71,3.63-1.49,5.34-2.41h0c1.77-.94,3.44-2.02,4.95-3.31.38-.31.69-.68,1.04-1.02l.52-.53c.15-.18.29-.38.44-.57.11-.16.22-.31.34-.46.18-.23.36-.47.52-.72l.68-1.29c.27-.41.37-.9.54-1.35.14-.47.38-.91.43-1.4.11-.71.27-1.42.33-2.14.03-.26.04-.52.03-.78,0-1.58-.34-3.2-1-4.67-.3-.67-.66-1.31-1.09-1.91-.5-.71-1.1-1.35-1.77-1.9-.59-.49-1.23-.9-1.94-1.23.79.32,1.52.75,2.18,1.27h0c.7.55,1.33,1.19,1.87,1.91.41.54.77,1.12,1.07,1.73.75,1.48,1.19,3.13,1.27,4.78Z"/>
        </g>
        <g class="st40">
          <path class="st16" d="M26.72,151.57c-.07.13-.14.26-.22.39-.34.54-.75,1.01-1.21,1.42-1.82,1.62-4.48,2.31-6.92,2.93-.45.12-.91.24-1.36.37h-.01c-5.74,1.53-11.35,3.48-16.81,5.82v-21.56c.61-.14,1.23-.27,1.84-.38,2.56-.5,5.14-.86,7.73-1.03h.01c1.14-.08,2.28-.13,3.43-.13,2-.01,4.07.13,6.01.6,1.68.41,3.28,1.07,4.66,2.1.02.01.03.03.05.04,1.33,1,2.38,2.44,2.95,4,.67,1.8.71,3.76-.15,5.43Z"/>
        </g>
        <g class="st42">
          <path class="st13" d="M15.14,145.6c0,.12-.01.23-.03.34-.37,2.11-4.09,3.7-5.78,4.25-.09.03-.17.06-.24.08-2.97.91-5.94,1.86-8.9,2.8v-8.01c1.42-.28,2.84-.53,4.26-.75.52-.09,1.04-.17,1.56-.24,1.24-.17,4.55-.92,6.82-.55,1.15.19,2.03.67,2.26,1.63.04.15.05.31.05.45Z"/>
        </g>
        <g class="st45">
          <path class="st17" d="M92.08,150.59v33.2h-30.37c-.09-1.19-.02-2.44.16-3.7.21-1.58.6-3.19,1.08-4.77.26-.85.55-1.69.85-2.52t0-.02s.01,0,0-.02c.96-2.6,2.08-4.98,3-6.94,1.13-2.43,1.9-4.32,1.8-6.45-.04-1.05-.3-2.15-.82-3.4-.01-.02-.02-.05-.03-.07-.02-.04-.03-.07-.05-.1-.28-.67-.61-1.32-.96-1.96h-.01c-.21-.4-.44-.79-.68-1.17-.95-1.49-2.07-2.88-3.32-4.13-.01-.01-.02-.02-.04-.03-.46-.46-.93-.9-1.43-1.31-.2-.18-.4-.35-.61-.52-1.88-1.5-3.98-2.76-5.72-4.43-.4-.35-.78-.75-1.13-1.17-.29-.35-.57-.74-.64-1.19-.2-1.34,1.45-2.14,2.79-2.37,2.42-.41,4.78-.34,7.1.05,2.67.44,5.27,1.31,7.83,2.36h.01c2.29.94,4.54,2.02,6.76,3.06,1.15.55,2.29,1.08,3.42,1.58,1.07.47,2.15.96,3.23,1.48,2.73,1.3,5.43,2.77,7.78,4.54Z"/>
        </g>
        <g class="st48">
          <path class="st38" d="M22.58,50.03c0,.14-.03.27-.04.41H.19v-9.87c1.17-1.35,2.88-2.21,4.81-2.21,3.1,0,5.69,2.22,6.28,5.15,1.11-.64,2.38-1.03,3.75-1.03,4.17,0,7.55,3.38,7.55,7.55Z"/>
        </g>
        <g class="st64">
          <path class="st37" d="M79.75,37.67c0-.11.03-.22.03-.33,0-3.37-2.73-6.11-6.11-6.11-1.11,0-2.14.32-3.04.84-.47-2.37-2.57-4.16-5.08-4.16-1.91,0-3.55,1.04-4.45,2.58-.94-1.35-2.49-2.24-4.26-2.24-2.83,0-5.13,2.28-5.17,5.1-.49-.15-1-.26-1.54-.26-2.66,0-4.82,2.01-5.12,4.59h34.73Z"/>
        </g>
        <g class="st67">
          <path class="st36" d="M92.08,68.61v8.39h-32.94c.05-.5.14-.98.28-1.44.77-2.67,2.9-4.6,5.42-4.6.6,0,1.16.14,1.71.34,0-.14.01-.29.03-.43.22-3.52,2.69-6.28,5.72-6.28,1.97,0,3.7,1.16,4.74,2.94,1-2.02,2.83-3.39,4.96-3.39,2.79,0,5.12,2.36,5.65,5.48.99-.68,2.14-1.1,3.37-1.1.36,0,.71.03,1.06.09Z"/>
        </g>
        <g>
          <path class="st35" d="M.19,183.79v-.95c-.04.06-.09.11-.14.17-.03-3.43-.09-11.61-.01-13.66.01-.2.02-.34.03-.41.02-.13.05.01.09.35.01.08.02.17.03.27.22,2.09.65,8.56.89,12.28.05.8.09,1.48.13,1.95H.19Z"/>
          <path class="st35" d="M10.68,179.14c.01.13.01.25-.01.38l-.17,1.41-.15,1.25-.19,1.61H1.3l.14-2.34.64-10.24.91,8.66.13,1.24.06-1.44.23-5.01.68,4.16.37,2.29s0-1.05-.02-2.62c-.01-3.01-.03-7.95-.01-11.09,0-1.39.01-2.43.03-2.79.03-.45.18.72.37,2.62.29,2.75.69,7,.96,10.08.2,2.2.34,3.8.34,3.8l.16-4.21.29-7.37.59,6.67.33,3.65.11,1.26.08-1.45.22-4.02h.01l.55-9.89.06-1.14.03,1.1.29,9.26.11,3.56.02.8.06-.87.28-3.82.49-6.71.47,6.07.25,3.24.15,1.9Z"/>
        </g>
        <polygon class="st63" points="10.5 180.93 11.32 183.79 10.35 183.79 10.35 180.4 10.5 180.93"/>
        <polygon class="st63" points="12.25 177.21 13.19 183.79 12.05 183.79 12.25 177.21"/>
        <path class="st63" d="M13.92,174.83c.22,3.04.46,6.78.6,8.96h-1.09c-.02-2.09-.05-5.63-.05-8.61,0-1.14,0-2.19.01-3.05.01-1.12.03-1.91.06-2.12.04-.25.13.57.25,1.95.06.8.14,1.79.22,2.87Z"/>
        <path class="st63" d="M24.08,180.4l-.41,3.39h-8.92l.62-9.86.1-1.65.16,1.49.87,8.42.3-6.46,1.04,6.46s-.03-5.06-.04-9.6v-2.6c0-2.13.01-3.82.04-4.3.04-.57.26,1.36.53,4.08.08.76.16,1.58.24,2.43.44,4.63.91,9.99.91,9.99l.4-10.61.04-.98.08.92.78,8.71h0s.18,1.96.18,1.96l.13-2.34.5-9.02.13-2.37.15-2.77.08,2.69.07,2.26.24,7.89.06,1.87.15-2.08.6-8.13.09-1.19.09,1.12.53,6.97.26,3.31Z"/>
        <polygon class="st63" points="58.8 179.25 59.8 183.79 58.52 183.79 58.8 179.25"/>
        <polygon class="st63" points="61.87 180.09 62.16 183.79 60.7 183.79 61.49 175.32 61.87 180.09"/>
        <path class="st63" d="M63.8,172.8c.04,3.77.05,8.28.05,10.99h-1.38c.12-2.11.3-5.35.48-8.47.26-4.36.52-8.5.65-9.09.11-.53.17,2.6.2,6.53t0,.02s.01.01,0,.02Z"/>
        <path class="st63" d="M76.33,180.35l-.5,2.69h0s-.14.75-.14.75h-11.52l1.82-14.49.53,12.72.89-8.22.82,8.33s1.07-19.05,1.32-21.07.82,21.2.82,21.2l1.49-14.75.39,14.87,2.49-20.99-.6,18.82,1.98-14.48.18,12.41h0s.03,2.21.03,2.21Z"/>
        <g>
          <polygon class="st35" points="77.77 183.79 75.81 183.79 75.83 183.04 75.97 176.89 76.3 178.15 77.77 183.79"/>
          <path class="st35" d="M92.08,169.43v14.36h-14.17l.58-10.93,1.3,10.77s.22-18.63.44-19.94,1.07,19.98,1.07,19.98l1.45-17.01,1.04,12.69.56-8.24,1.15,8.28s.12-7.61.25-13.72c0-.1,0-.2.01-.3.06-2.97.12-5.54.18-6.66,0-.18.02-.32.03-.42.02-.28.07-.08.14.47.13,1.17.35,3.89.58,7,.02.17.03.35.05.52.43,6.01.9,13.15.9,13.15l.74-12.13.05-.82.11-1.84.13,1.94.06.94.8,11.96.85-10.93.09-1.19.55-6.98.15-1.98.02,2.04.06,7.27.02,1.39.07,8.13.72-7.64.02-.16Z"/>
        </g>
      </g>
    </g>
  </g>
</svg>