<?xml version="1.0" encoding="UTF-8"?>
<svg xmlns="http://www.w3.org/2000/svg" xmlns:xlink="http://www.w3.org/1999/xlink" version="1.1" viewBox="0 0 86.59 183.79">
  <!-- Generator: Adobe Illustrator 29.8.3, SVG Export Plug-In . SVG Version: 2.1.1 Build 3)  -->
  <defs>
    <style>
      .st0 {
        mask: url(#mask);
      }

      .st1 {
        fill: url(#_ÂÁ_Ï_ÌÌ_È_ËÂÌÚ_916521);
      }

      .st2 {
        fill: url(#_ÂÁ_Ï_ÌÌ_È_ËÂÌÚ_916641);
      }

      .st3 {
        fill: url(#_ÂÁ_Ï_ÌÌ_È_ËÂÌÚ_916642);
      }

      .st4 {
        fill: #6d2c70;
      }

      .st5 {
        filter: url(#luminosity-noclip);
      }

      .st6 {
        fill: #7b7196;
        opacity: .56;
      }

      .st7 {
        filter: url(#luminosity-noclip12);
      }

      .st8 {
        filter: url(#luminosity-noclip14);
      }

      .st9 {
        filter: url(#luminosity-noclip16);
      }

      .st10 {
        filter: url(#luminosity-noclip10);
      }

      .st11 {
        fill: #010101;
      }

      .st12 {
        fill: url(#_ÂÁ_Ï_ÌÌ_È_ËÂÌÚ_973601);
      }

      .st12, .st13, .st14, .st15, .st16, .st17, .st18, .st19, .st20, .st21, .st22, .st23, .st24, .st25, .st26 {
        mix-blend-mode: overlay;
      }

      .st12, .st26 {
        opacity: .5;
      }

      .st13 {
        fill: url(#_ÂÁ_Ï_ÌÌ_È_ËÂÌÚ_916553);
      }

      .st13, .st14, .st15, .st23 {
        opacity: .59;
      }

      .st14 {
        fill: url(#_ÂÁ_Ï_ÌÌ_È_ËÂÌÚ_916552);
      }

      .st15 {
        fill: url(#_ÂÁ_Ï_ÌÌ_È_ËÂÌÚ_916551);
      }

      .st16 {
        fill: url(#_ÂÁ_Ï_ÌÌ_È_ËÂÌÚ_916571);
        opacity: .14;
      }

      .st27 {
        filter: url(#luminosity-noclip6);
      }

      .st28 {
        filter: url(#luminosity-noclip2);
      }

      .st29 {
        filter: url(#luminosity-noclip4);
      }

      .st30 {
        filter: url(#luminosity-noclip8);
      }

      .st31 {
        fill: url(#_ÂÁ_Ï_ÌÌ_È_ËÂÌÚ_91953);
      }

      .st32 {
        fill: url(#_ÂÁ_Ï_ÌÌ_È_ËÂÌÚ_91665);
      }

      .st33 {
        fill: url(#_ÂÁ_Ï_ÌÌ_È_ËÂÌÚ_91666);
      }

      .st34 {
        fill: url(#_ÂÁ_Ï_ÌÌ_È_ËÂÌÚ_91667);
      }

      .st35 {
        fill: url(#_ÂÁ_Ï_ÌÌ_È_ËÂÌÚ_91664);
      }

      .st36 {
        fill: url(#_ÂÁ_Ï_ÌÌ_È_ËÂÌÚ_91661);
      }

      .st37 {
        fill: url(#_ÂÁ_Ï_ÌÌ_È_ËÂÌÚ_91663);
      }

      .st38 {
        fill: url(#_ÂÁ_Ï_ÌÌ_È_ËÂÌÚ_91652);
      }

      .st39 {
        fill: url(#_ÂÁ_Ï_ÌÌ_È_ËÂÌÚ_91898);
      }

      .st40 {
        fill: url(#_ÂÁ_Ï_ÌÌ_È_ËÂÌÚ_92367);
      }

      .st41 {
        fill: url(#_ÂÁ_Ï_ÌÌ_È_ËÂÌÚ_92471);
      }

      .st42 {
        fill: url(#_ÂÁ_Ï_ÌÌ_È_ËÂÌÚ_92042);
      }

      .st43, .st21 {
        opacity: .3;
      }

      .st43, .st44, .st45 {
        fill: #fff;
      }

      .st46 {
        isolation: isolate;
      }

      .st47 {
        mask: url(#mask-2);
      }

      .st48 {
        mask: url(#mask-3);
      }

      .st49 {
        mask: url(#mask-4);
      }

      .st50 {
        mask: url(#mask-5);
      }

      .st51 {
        mask: url(#mask-7);
      }

      .st52 {
        mask: url(#mask-6);
      }

      .st53 {
        mask: url(#mask-1);
      }

      .st54 {
        mask: url(#mask-9);
      }

      .st55 {
        mask: url(#mask-8);
      }

      .st17 {
        opacity: .37;
      }

      .st17, .st18, .st19, .st20, .st21, .st22 {
        fill: #ada4d1;
      }

      .st18 {
        opacity: .51;
      }

      .st19 {
        opacity: .18;
      }

      .st20 {
        opacity: .27;
      }

      .st22 {
        opacity: .1;
      }

      .st56 {
        fill: #574696;
        opacity: .53;
      }

      .st23 {
        fill: url(#_ÂÁ_Ï_ÌÌ_È_ËÂÌÚ_91655);
      }

      .st24 {
        fill: url(#_ÂÁ_Ï_ÌÌ_È_ËÂÌÚ_91656);
        opacity: .57;
      }

      .st25 {
        fill: url(#_ÂÁ_Ï_ÌÌ_È_ËÂÌÚ_91657);
        opacity: .55;
      }

      .st26 {
        fill: url(#_ÂÁ_Ï_ÌÌ_È_ËÂÌÚ_97360);
      }

      .st57 {
        fill: url(#_ÂÁ_Ï_ÌÌ_È_ËÂÌÚ_25);
      }

      .st57, .st58, .st59, .st60, .st61, .st62, .st63, .st64, .st65, .st45 {
        mix-blend-mode: multiply;
      }

      .st58 {
        fill: url(#_ÂÁ_Ï_ÌÌ_È_ËÂÌÚ_24);
      }

      .st59 {
        fill: url(#_ÂÁ_Ï_ÌÌ_È_ËÂÌÚ_27);
      }

      .st60 {
        fill: url(#_ÂÁ_Ï_ÌÌ_È_ËÂÌÚ_21);
      }

      .st61 {
        fill: url(#_ÂÁ_Ï_ÌÌ_È_ËÂÌÚ_251);
      }

      .st62 {
        fill: url(#_ÂÁ_Ï_ÌÌ_È_ËÂÌÚ_271);
      }

      .st63 {
        fill: url(#_ÂÁ_Ï_ÌÌ_È_ËÂÌÚ_213);
      }

      .st64 {
        fill: url(#_ÂÁ_Ï_ÌÌ_È_ËÂÌÚ_211);
      }

      .st65 {
        fill: url(#_ÂÁ_Ï_ÌÌ_È_ËÂÌÚ_212);
      }

      .st45 {
        opacity: .68;
      }

      .st66 {
        mask: url(#mask-10);
      }

      .st67 {
        mask: url(#mask-14);
      }

      .st68 {
        mask: url(#mask-11);
      }

      .st69 {
        mask: url(#mask-16);
      }

      .st70 {
        mask: url(#mask-13);
      }

      .st71 {
        mask: url(#mask-12);
      }

      .st72 {
        mask: url(#mask-17);
      }

      .st73 {
        mask: url(#mask-15);
      }
    </style>
    <radialGradient id="_ÂÁ_Ï_ÌÌ_È_ËÂÌÚ_91898" data-name="¡ÂÁ˚ÏˇÌÌ˚È „‡‰ËÂÌÚ 91898" cx="60.74" cy="82.02" fx="60.74" fy="82.02" r="99.92" gradientUnits="userSpaceOnUse">
      <stop offset=".01" stop-color="#f1d58d"/>
      <stop offset=".54" stop-color="#7f65aa"/>
      <stop offset="1" stop-color="#3d3f92"/>
    </radialGradient>
    <filter id="luminosity-noclip" x=".1" y="87.27" width="47.87" height="14.46" color-interpolation-filters="sRGB" filterUnits="userSpaceOnUse">
      <feFlood flood-color="#fff" result="bg"/>
      <feBlend in="SourceGraphic" in2="bg"/>
    </filter>
    <filter id="luminosity-noclip1" x=".1" y="-8283.69" width="47.87" height="32766" color-interpolation-filters="sRGB" filterUnits="userSpaceOnUse">
      <feFlood flood-color="#fff" result="bg"/>
      <feBlend in="SourceGraphic" in2="bg"/>
    </filter>
    <mask id="mask-1" x=".1" y="-8283.69" width="47.87" height="32766" maskUnits="userSpaceOnUse"/>
    <linearGradient id="_ÂÁ_Ï_ÌÌ_È_ËÂÌÚ_21" data-name="¡ÂÁ˚ÏˇÌÌ˚È „‡‰ËÂÌÚ 21" x1="24.03" y1="85.15" x2="24.03" y2="102.71" gradientUnits="userSpaceOnUse">
      <stop offset="0" stop-color="#fff"/>
      <stop offset=".09" stop-color="#f8f8f8"/>
      <stop offset=".22" stop-color="#e7e7e7"/>
      <stop offset=".36" stop-color="#cacaca"/>
      <stop offset=".52" stop-color="#a1a1a1"/>
      <stop offset=".7" stop-color="#6d6d6d"/>
      <stop offset=".88" stop-color="#2f2f2f"/>
      <stop offset="1" stop-color="#000"/>
    </linearGradient>
    <mask id="mask" x=".1" y="87.27" width="47.87" height="14.46" maskUnits="userSpaceOnUse">
      <g class="st5">
        <g class="st53">
          <path class="st60" d="M47.97,101.73H.1v-14.06c2.09.94,3.69,3.02,3.76,5.32.2-.25.42-.47.67-.66,1.13-.91,2.7-1.26,4.09-.85,1.69.49,3.01,2.07,3.2,3.83.93-1.26,2.5-1.98,4.06-1.93.31,0,.62.05.92.12,1.82.45,3.3,2.05,3.6,3.89.18-3.56.81-6.62,3.9-8.86.92-.66,2-1.16,3.12-1.25.27-.01.54-.01.81.02.87.1,1.69.49,2.44.96,2.07,1.31,3.66,3.35,4.44,5.67-.3-.91,1.73-1.45,3.41-1.69.98-.14,1.84-.18,2.08-.15,2.04.28,3.94,1.05,5.2,2.76.99,1.33,1.51,2.92,1.83,4.57.13.67.22,1.35.31,2.02.01.1.02.19.03.29Z"/>
        </g>
      </g>
    </mask>
    <linearGradient id="_ÂÁ_Ï_ÌÌ_È_ËÂÌÚ_91655" data-name="¡ÂÁ˚ÏˇÌÌ˚È „‡‰ËÂÌÚ 91655" x1="24.03" y1="85.15" x2="24.03" y2="102.71" gradientUnits="userSpaceOnUse">
      <stop offset="0" stop-color="#fff"/>
      <stop offset=".23" stop-color="#f8f9fc"/>
      <stop offset=".53" stop-color="#e7e8f4"/>
      <stop offset=".89" stop-color="#cacde8"/>
      <stop offset="1" stop-color="#c0c4e4"/>
    </linearGradient>
    <linearGradient id="_ÂÁ_Ï_ÌÌ_È_ËÂÌÚ_91667" data-name="¡ÂÁ˚ÏˇÌÌ˚È „‡‰ËÂÌÚ 91667" x1="43.19" y1="99.87" x2="43.49" y2="119.75" gradientUnits="userSpaceOnUse">
      <stop offset=".01" stop-color="#8e84be"/>
      <stop offset="1" stop-color="#292239"/>
    </linearGradient>
    <linearGradient id="_ÂÁ_Ï_ÌÌ_È_ËÂÌÚ_91666" data-name="¡ÂÁ˚ÏˇÌÌ˚È „‡‰ËÂÌÚ 91666" x1="43.34" y1="97.37" x2="43.34" y2="125.81" gradientUnits="userSpaceOnUse">
      <stop offset="0" stop-color="#6b55a0"/>
      <stop offset=".3" stop-color="#514586"/>
      <stop offset=".75" stop-color="#303165"/>
      <stop offset="1" stop-color="#242a59"/>
    </linearGradient>
    <linearGradient id="_ÂÁ_Ï_ÌÌ_È_ËÂÌÚ_91664" data-name="¡ÂÁ˚ÏˇÌÌ˚È „‡‰ËÂÌÚ 91664" x1="42.67" y1="103.27" x2="43.34" y2="127.47" gradientUnits="userSpaceOnUse">
      <stop offset="0" stop-color="#644192"/>
      <stop offset="1" stop-color="#251b36"/>
    </linearGradient>
    <linearGradient id="_ÂÁ_Ï_ÌÌ_È_ËÂÌÚ_91665" data-name="¡ÂÁ˚ÏˇÌÌ˚È „‡‰ËÂÌÚ 91665" x1="23.63" y1="110.44" x2="23.63" y2="133.64" gradientUnits="userSpaceOnUse">
      <stop offset="0" stop-color="#5e589a"/>
      <stop offset="1" stop-color="#1e1e40"/>
    </linearGradient>
    <linearGradient id="_ÂÁ_Ï_ÌÌ_È_ËÂÌÚ_91652" data-name="¡ÂÁ˚ÏˇÌÌ˚È „‡‰ËÂÌÚ 91652" x1="16.87" y1="100.85" x2="16.87" y2="125.3" gradientUnits="userSpaceOnUse">
      <stop offset="0" stop-color="#4b4093"/>
      <stop offset="1" stop-color="#251b36"/>
    </linearGradient>
    <linearGradient id="_ÂÁ_Ï_ÌÌ_È_ËÂÌÚ_916641" data-name="¡ÂÁ˚ÏˇÌÌ˚È „‡‰ËÂÌÚ 91664" x1="24.98" y1="125.31" x2="23.08" y2="133.64" xlink:href="#_ÂÁ_Ï_ÌÌ_È_ËÂÌÚ_91664"/>
    <linearGradient id="_ÂÁ_Ï_ÌÌ_È_ËÂÌÚ_916642" data-name="¡ÂÁ˚ÏˇÌÌ˚È „‡‰ËÂÌÚ 91664" x1="49.86" y1="113.38" x2="49.86" y2="128.22" xlink:href="#_ÂÁ_Ï_ÌÌ_È_ËÂÌÚ_91664"/>
    <linearGradient id="_ÂÁ_Ï_ÌÌ_È_ËÂÌÚ_92471" data-name="¡ÂÁ˚ÏˇÌÌ˚È „‡‰ËÂÌÚ 92471" x1="67.42" y1="95.11" x2="67.42" y2="123.64" gradientUnits="userSpaceOnUse">
      <stop offset=".01" stop-color="#7e6397"/>
      <stop offset="1" stop-color="#251b36"/>
    </linearGradient>
    <linearGradient id="_ÂÁ_Ï_ÌÌ_È_ËÂÌÚ_91663" data-name="¡ÂÁ˚ÏˇÌÌ˚È „‡‰ËÂÌÚ 91663" x1="51.26" y1="120.01" x2="51.77" y2="138.27" gradientUnits="userSpaceOnUse">
      <stop offset=".01" stop-color="#695fa7"/>
      <stop offset="1" stop-color="#1f1f3a"/>
    </linearGradient>
    <linearGradient id="_ÂÁ_Ï_ÌÌ_È_ËÂÌÚ_92367" data-name="¡ÂÁ˚ÏˇÌÌ˚È „‡‰ËÂÌÚ 92367" x1="56.6" y1="131.33" x2="56.6" y2="140" gradientUnits="userSpaceOnUse">
      <stop offset="0" stop-color="#a1a9b9"/>
      <stop offset="1" stop-color="#462c86"/>
    </linearGradient>
    <linearGradient id="_ÂÁ_Ï_ÌÌ_È_ËÂÌÚ_91661" data-name="¡ÂÁ˚ÏˇÌÌ˚È „‡‰ËÂÌÚ 91661" x1="10.36" y1="122.21" x2="12.21" y2="138.5" gradientUnits="userSpaceOnUse">
      <stop offset="0" stop-color="#29275c"/>
      <stop offset="1" stop-color="#251b36"/>
    </linearGradient>
    <linearGradient id="_ÂÁ_Ï_ÌÌ_È_ËÂÌÚ_916521" data-name="¡ÂÁ˚ÏˇÌÌ˚È „‡‰ËÂÌÚ 91652" x1="41.24" y1="123.61" x2="41.61" y2="132.87" xlink:href="#_ÂÁ_Ï_ÌÌ_È_ËÂÌÚ_91652"/>
    <linearGradient id="_ÂÁ_Ï_ÌÌ_È_ËÂÌÚ_92042" data-name="¡ÂÁ˚ÏˇÌÌ˚È „‡‰ËÂÌÚ 92042" x1="43.3" y1="132.06" x2="43.3" y2="155.8" gradientUnits="userSpaceOnUse">
      <stop offset="0" stop-color="#5c4b99"/>
      <stop offset=".02" stop-color="#594995"/>
      <stop offset=".21" stop-color="#463671"/>
      <stop offset=".41" stop-color="#362755"/>
      <stop offset=".61" stop-color="#2b1c41"/>
      <stop offset=".8" stop-color="#251635"/>
      <stop offset="1" stop-color="#231431"/>
    </linearGradient>
    <linearGradient id="_ÂÁ_Ï_ÌÌ_È_ËÂÌÚ_91953" data-name="¡ÂÁ˚ÏˇÌÌ˚È „‡‰ËÂÌÚ 91953" x1="16.41" y1="135.3" x2="27.75" y2="164" gradientUnits="userSpaceOnUse">
      <stop offset="0" stop-color="#242c5a"/>
      <stop offset=".71" stop-color="#1d1630"/>
      <stop offset=".92" stop-color="#1b0f23"/>
    </linearGradient>
    <filter id="luminosity-noclip2" x="19.99" y="131.9" width=".17" height=".05" color-interpolation-filters="sRGB" filterUnits="userSpaceOnUse">
      <feFlood flood-color="#fff" result="bg"/>
      <feBlend in="SourceGraphic" in2="bg"/>
    </filter>
    <filter id="luminosity-noclip3" x="19.99" y="-8283.69" width=".17" height="32766" color-interpolation-filters="sRGB" filterUnits="userSpaceOnUse">
      <feFlood flood-color="#fff" result="bg"/>
      <feBlend in="SourceGraphic" in2="bg"/>
    </filter>
    <mask id="mask-3" x="19.99" y="-8283.69" width=".17" height="32766" maskUnits="userSpaceOnUse"/>
    <linearGradient id="_ÂÁ_Ï_ÌÌ_È_ËÂÌÚ_27" data-name="¡ÂÁ˚ÏˇÌÌ˚È „‡‰ËÂÌÚ 27" x1="20.05" y1="131.88" x2="20.08" y2="131.94" gradientUnits="userSpaceOnUse">
      <stop offset="0" stop-color="#fff"/>
      <stop offset=".09" stop-color="#f2f2f2"/>
      <stop offset=".25" stop-color="#d1d1d1"/>
      <stop offset=".47" stop-color="#9a9a9a"/>
      <stop offset=".74" stop-color="#505050"/>
      <stop offset="1" stop-color="#000"/>
    </linearGradient>
    <mask id="mask-2" x="19.99" y="131.9" width=".17" height=".05" maskUnits="userSpaceOnUse">
      <g class="st28">
        <g class="st48">
          <path class="st59" d="M20.12,131.93s.03.01.04.02c-.02,0-.03,0-.05,0-.04-.02-.08-.03-.12-.04.04.01.09.02.13.03Z"/>
        </g>
      </g>
    </mask>
    <linearGradient id="_ÂÁ_Ï_ÌÌ_È_ËÂÌÚ_97360" data-name="¡ÂÁ˚ÏˇÌÌ˚È „‡‰ËÂÌÚ 97360" x1="20.05" y1="131.88" x2="20.08" y2="131.94" gradientUnits="userSpaceOnUse">
      <stop offset="0" stop-color="#fff"/>
      <stop offset="1" stop-color="#fff"/>
    </linearGradient>
    <filter id="luminosity-noclip4" x="16.97" y="131.95" width="43.78" height="51.84" color-interpolation-filters="sRGB" filterUnits="userSpaceOnUse">
      <feFlood flood-color="#fff" result="bg"/>
      <feBlend in="SourceGraphic" in2="bg"/>
    </filter>
    <filter id="luminosity-noclip5" x="16.97" y="-8283.69" width="43.78" height="32766" color-interpolation-filters="sRGB" filterUnits="userSpaceOnUse">
      <feFlood flood-color="#fff" result="bg"/>
      <feBlend in="SourceGraphic" in2="bg"/>
    </filter>
    <mask id="mask-5" x="16.97" y="-8283.69" width="43.78" height="32766" maskUnits="userSpaceOnUse"/>
    <linearGradient id="_ÂÁ_Ï_ÌÌ_È_ËÂÌÚ_271" data-name="¡ÂÁ˚ÏˇÌÌ˚È „‡‰ËÂÌÚ 27" x1="20.76" y1="139.82" x2="35.79" y2="164.96" xlink:href="#_ÂÁ_Ï_ÌÌ_È_ËÂÌÚ_27"/>
    <mask id="mask-4" x="16.97" y="131.95" width="43.78" height="51.84" maskUnits="userSpaceOnUse">
      <g class="st29">
        <g class="st50">
          <path class="st62" d="M58.28,169.92c-2.58,5.23-6.45,9.66-7.86,12.64-.2.41-.33.82-.4,1.23H16.97c.84-1.95,2.07-3.8,3.72-5.48.01,0,.02-.01.02-.01.04-.05.1-.11.15-.16.46-.45.92-.88,1.39-1.29.07-.07.14-.13.21-.19.38-.34.77-.66,1.16-.98l.42-.33c.37-.29.75-.58,1.13-.85.08-.06.16-.12.24-.17.43-.31.86-.61,1.29-.89,5.17-3.43,10.41-5.43,14.61-8.61,2.97-2.25,5.42-5.09,6.93-9.43.05-.13.1-.25.14-.38,1.34-4.04-.84-7.79-4.5-11.03-.53-.48-1.09-.94-1.67-1.38h-.01c-1.6-1.24-3.39-2.38-5.24-3.43h-.01c-1.07-.61-2.16-1.19-3.24-1.73-3.63-1.81-7.21-3.24-9.85-4.21-.2-.08-.39-.15-.57-.21-.98-.36-1.81-.64-2.42-.84-.29-.1-.53-.18-.71-.24.28.07.56.15.84.23h0c.8.23,1.59.45,2.36.68.24.07.48.14.72.21,4.14,1.23,7.85,2.49,11.16,3.77.31.11.6.23.9.35h.01c2.37.94,4.54,1.89,6.5,2.85,0,0,0,.01,0,.01.05.02.1.05.15.07,1.24.61,2.41,1.22,3.5,1.83.64.37,1.26.73,1.85,1.1h.01c2.09,1.29,3.87,2.59,5.37,3.89,0,0,.01,0,.01.01.14.12.28.24.41.37t.02.01c4.31,3.86,6.22,7.75,6.66,11.5.45,3.91-.68,7.67-2.37,11.09Z"/>
        </g>
      </g>
    </mask>
    <linearGradient id="_ÂÁ_Ï_ÌÌ_È_ËÂÌÚ_973601" data-name="¡ÂÁ˚ÏˇÌÌ˚È „‡‰ËÂÌÚ 97360" x1="20.76" y1="139.82" x2="35.79" y2="164.96" xlink:href="#_ÂÁ_Ï_ÌÌ_È_ËÂÌÚ_97360"/>
    <filter id="luminosity-noclip6" x=".1" y="139.24" width="25.59" height="22.44" color-interpolation-filters="sRGB" filterUnits="userSpaceOnUse">
      <feFlood flood-color="#fff" result="bg"/>
      <feBlend in="SourceGraphic" in2="bg"/>
    </filter>
    <filter id="luminosity-noclip7" x=".1" y="-8283.69" width="25.59" height="32766" color-interpolation-filters="sRGB" filterUnits="userSpaceOnUse">
      <feFlood flood-color="#fff" result="bg"/>
      <feBlend in="SourceGraphic" in2="bg"/>
    </filter>
    <mask id="mask-7" x=".1" y="-8283.69" width="25.59" height="32766" maskUnits="userSpaceOnUse"/>
    <linearGradient id="_ÂÁ_Ï_ÌÌ_È_ËÂÌÚ_25" data-name="¡ÂÁ˚ÏˇÌÌ˚È „‡‰ËÂÌÚ 25" x1="23.27" y1="142.08" x2="15.84" y2="145.33" gradientUnits="userSpaceOnUse">
      <stop offset="0" stop-color="#000"/>
      <stop offset=".12" stop-color="#2f2f2f"/>
      <stop offset=".3" stop-color="#6d6d6d"/>
      <stop offset=".48" stop-color="#a1a1a1"/>
      <stop offset=".64" stop-color="#cacaca"/>
      <stop offset=".78" stop-color="#e7e7e7"/>
      <stop offset=".91" stop-color="#f8f8f8"/>
      <stop offset="1" stop-color="#fff"/>
    </linearGradient>
    <mask id="mask-6" x=".1" y="139.24" width="25.59" height="22.44" maskUnits="userSpaceOnUse">
      <g class="st27">
        <g class="st51">
          <path class="st57" d="M25.05,151.41c-.06.14-.14.27-.22.4-.5.81-1.16,1.45-1.92,1.97-1.76,1.24-4.07,1.83-6.21,2.38-5.66,1.45-11.21,3.29-16.6,5.52v-21.22c2.92-.58,5.88-.99,8.84-1.14.86-.05,1.72-.08,2.58-.08,3.74-.01,7.68.47,10.68,2.71l.03.03c2.85,2.14,4.43,6.3,2.82,9.43Z"/>
        </g>
      </g>
    </mask>
    <linearGradient id="_ÂÁ_Ï_ÌÌ_È_ËÂÌÚ_91657" data-name="¡ÂÁ˚ÏˇÌÌ˚È „‡‰ËÂÌÚ 91657" x1="23.27" y1="142.08" x2="15.84" y2="145.33" gradientUnits="userSpaceOnUse">
      <stop offset="0" stop-color="#c0c4e4"/>
      <stop offset="1" stop-color="#c0c4e4"/>
    </linearGradient>
    <filter id="luminosity-noclip8" x=".1" y="143.27" width="13.37" height="9.14" color-interpolation-filters="sRGB" filterUnits="userSpaceOnUse">
      <feFlood flood-color="#fff" result="bg"/>
      <feBlend in="SourceGraphic" in2="bg"/>
    </filter>
    <filter id="luminosity-noclip9" x=".1" y="-8283.69" width="13.37" height="32766" color-interpolation-filters="sRGB" filterUnits="userSpaceOnUse">
      <feFlood flood-color="#fff" result="bg"/>
      <feBlend in="SourceGraphic" in2="bg"/>
    </filter>
    <mask id="mask-9" x=".1" y="-8283.69" width="13.37" height="32766" maskUnits="userSpaceOnUse"/>
    <linearGradient id="_ÂÁ_Ï_ÌÌ_È_ËÂÌÚ_251" data-name="¡ÂÁ˚ÏˇÌÌ˚È „‡‰ËÂÌÚ 25" x1="12.97" y1="144" x2="5.82" y2="146.62" xlink:href="#_ÂÁ_Ï_ÌÌ_È_ËÂÌÚ_25"/>
    <mask id="mask-8" x=".1" y="143.27" width="13.37" height="9.14" maskUnits="userSpaceOnUse">
      <g class="st30">
        <g class="st54">
          <path class="st61" d="M13.47,145.44c.01,2.39-4.43,4.18-6.05,4.68-2.44.75-4.88,1.52-7.32,2.29v-7.8c1.41-.26,2.82-.49,4.24-.69,1.55-.22,6.31-1.32,8.28-.03h.01c.29.2.52.45.66.76,0,0,.01,0,.01.01.05.1.09.22.12.34.04.15.05.29.05.44Z"/>
        </g>
      </g>
    </mask>
    <linearGradient id="_ÂÁ_Ï_ÌÌ_È_ËÂÌÚ_916571" data-name="¡ÂÁ˚ÏˇÌÌ˚È „‡‰ËÂÌÚ 91657" x1="12.97" y1="144" x2="5.82" y2="146.62" xlink:href="#_ÂÁ_Ï_ÌÌ_È_ËÂÌÚ_91657"/>
    <filter id="luminosity-noclip10" x="51.47" y="137.09" width="35.12" height="46.7" color-interpolation-filters="sRGB" filterUnits="userSpaceOnUse">
      <feFlood flood-color="#fff" result="bg"/>
      <feBlend in="SourceGraphic" in2="bg"/>
    </filter>
    <filter id="luminosity-noclip11" x="51.47" y="-8283.69" width="35.12" height="32766" color-interpolation-filters="sRGB" filterUnits="userSpaceOnUse">
      <feFlood flood-color="#fff" result="bg"/>
      <feBlend in="SourceGraphic" in2="bg"/>
    </filter>
    <mask id="mask-11" x="51.47" y="-8283.69" width="35.12" height="32766" maskUnits="userSpaceOnUse"/>
    <linearGradient id="_ÂÁ_Ï_ÌÌ_È_ËÂÌÚ_24" data-name="¡ÂÁ˚ÏˇÌÌ˚È „‡‰ËÂÌÚ 24" x1="48.48" y1="143.34" x2="70.29" y2="161.7" gradientUnits="userSpaceOnUse">
      <stop offset="0" stop-color="#000"/>
      <stop offset=".26" stop-color="#505050"/>
      <stop offset=".53" stop-color="#9a9a9a"/>
      <stop offset=".75" stop-color="#d1d1d1"/>
      <stop offset=".91" stop-color="#f2f2f2"/>
      <stop offset="1" stop-color="#fff"/>
    </linearGradient>
    <mask id="mask-10" x="51.47" y="137.09" width="35.12" height="46.7" maskUnits="userSpaceOnUse">
      <g class="st10">
        <g class="st68">
          <path class="st58" d="M86.59,147.96v34.62c-.59.42-1.2.83-1.83,1.21h-20.85c-.44-.53-.82-1.06-1.13-1.59-.15-.25-.29-.51-.41-.77v-.02c-.57-1.13-.86-2.28-.96-3.42v-.03c-.2-2.42.48-4.87,1.48-7.35.2-.51.42-1.02.65-1.53t0-.02c.15-.37.32-.72.5-1.1.35-.76.71-1.52,1.07-2.29,1.06-2.27,1.81-4.08,1.82-6.04,0-1.18-.25-2.4-.84-3.82l-.03-.06s-.03-.07-.04-.11c-.28-.67-.61-1.32-.96-1.95-1.09-1.97-2.47-3.77-4.07-5.35-.45-.45-.91-.88-1.4-1.28-.2-.19-.41-.36-.62-.53-2.31-1.85-4.96-3.33-6.85-5.61-.29-.35-.57-.73-.64-1.18-.2-1.34,1.44-2.15,2.78-2.37,8.98-1.53,17.22,3.56,25.12,7.05,1.88.83,3.82,1.71,5.69,2.7.51.27,1.01.55,1.51.84Z"/>
        </g>
      </g>
    </mask>
    <linearGradient id="_ÂÁ_Ï_ÌÌ_È_ËÂÌÚ_91656" data-name="¡ÂÁ˚ÏˇÌÌ˚È „‡‰ËÂÌÚ 91656" x1="48.48" y1="143.34" x2="70.29" y2="161.7" gradientUnits="userSpaceOnUse">
      <stop offset="0" stop-color="#c0c4e4"/>
      <stop offset="1" stop-color="#c0c4e4"/>
    </linearGradient>
    <filter id="luminosity-noclip12" x=".1" y="27.6" width="31.18" height="10.01" color-interpolation-filters="sRGB" filterUnits="userSpaceOnUse">
      <feFlood flood-color="#fff" result="bg"/>
      <feBlend in="SourceGraphic" in2="bg"/>
    </filter>
    <filter id="luminosity-noclip13" x=".1" y="-8283.69" width="31.18" height="32766" color-interpolation-filters="sRGB" filterUnits="userSpaceOnUse">
      <feFlood flood-color="#fff" result="bg"/>
      <feBlend in="SourceGraphic" in2="bg"/>
    </filter>
    <mask id="mask-13" x=".1" y="-8283.69" width="31.18" height="32766" maskUnits="userSpaceOnUse"/>
    <linearGradient id="_ÂÁ_Ï_ÌÌ_È_ËÂÌÚ_211" data-name="¡ÂÁ˚ÏˇÌÌ˚È „‡‰ËÂÌÚ 21" x1="15.69" y1="27.83" x2="15.69" y2="37.74" xlink:href="#_ÂÁ_Ï_ÌÌ_È_ËÂÌÚ_21"/>
    <mask id="mask-12" x=".1" y="27.6" width="31.18" height="10.01" maskUnits="userSpaceOnUse">
      <g class="st7">
        <g class="st70">
          <path class="st64" d="M31.28,37.27c0,.11-.02.22-.03.34H.1v-4.64c.26-.04.53-.06.8-.06.55,0,1.08.1,1.58.26.04-2.89,2.39-5.23,5.3-5.23,1.81,0,3.4.91,4.36,2.29.92-1.57,2.61-2.63,4.57-2.63,2.27,0,4.21,1.42,4.96,3.43.1.26.18.54.24.83.92-.53,1.98-.86,3.11-.86,3.46,0,6.26,2.81,6.26,6.27Z"/>
        </g>
      </g>
    </mask>
    <linearGradient id="_ÂÁ_Ï_ÌÌ_È_ËÂÌÚ_916551" data-name="¡ÂÁ˚ÏˇÌÌ˚È „‡‰ËÂÌÚ 91655" x1="15.69" y1="27.83" x2="15.69" y2="37.74" xlink:href="#_ÂÁ_Ï_ÌÌ_È_ËÂÌÚ_91655"/>
    <filter id="luminosity-noclip14" x="64.54" y="21.82" width="16.59" height="4.66" color-interpolation-filters="sRGB" filterUnits="userSpaceOnUse">
      <feFlood flood-color="#fff" result="bg"/>
      <feBlend in="SourceGraphic" in2="bg"/>
    </filter>
    <filter id="luminosity-noclip15" x="64.54" y="-8283.69" width="16.59" height="32766" color-interpolation-filters="sRGB" filterUnits="userSpaceOnUse">
      <feFlood flood-color="#fff" result="bg"/>
      <feBlend in="SourceGraphic" in2="bg"/>
    </filter>
    <mask id="mask-15" x="64.54" y="-8283.69" width="16.59" height="32766" maskUnits="userSpaceOnUse"/>
    <linearGradient id="_ÂÁ_Ï_ÌÌ_È_ËÂÌÚ_212" data-name="¡ÂÁ˚ÏˇÌÌ˚È „‡‰ËÂÌÚ 21" x1="72.84" y1="21.57" x2="72.84" y2="26.52" xlink:href="#_ÂÁ_Ï_ÌÌ_È_ËÂÌÚ_21"/>
    <mask id="mask-14" x="64.54" y="21.82" width="16.59" height="4.66" maskUnits="userSpaceOnUse">
      <g class="st8">
        <g class="st73">
          <path class="st65" d="M81.12,26.48c0-.05.02-.1.02-.16,0-1.61-1.31-2.92-2.92-2.92-.53,0-1.02.15-1.45.4-.23-1.13-1.22-1.99-2.42-1.99-.91,0-1.7.5-2.13,1.23-.45-.64-1.19-1.07-2.03-1.07-1.35,0-2.45,1.09-2.47,2.43-.23-.07-.48-.12-.73-.12-1.27,0-2.3.96-2.44,2.19h16.58Z"/>
        </g>
      </g>
    </mask>
    <linearGradient id="_ÂÁ_Ï_ÌÌ_È_ËÂÌÚ_916552" data-name="¡ÂÁ˚ÏˇÌÌ˚È „‡‰ËÂÌÚ 91655" x1="72.84" y1="21.57" x2="72.84" y2="26.52" xlink:href="#_ÂÁ_Ï_ÌÌ_È_ËÂÌÚ_91655"/>
    <filter id="luminosity-noclip16" x="40.8" y="49.88" width="29.77" height="9.9" color-interpolation-filters="sRGB" filterUnits="userSpaceOnUse">
      <feFlood flood-color="#fff" result="bg"/>
      <feBlend in="SourceGraphic" in2="bg"/>
    </filter>
    <filter id="luminosity-noclip17" x="40.8" y="-8283.69" width="29.77" height="32766" color-interpolation-filters="sRGB" filterUnits="userSpaceOnUse">
      <feFlood flood-color="#fff" result="bg"/>
      <feBlend in="SourceGraphic" in2="bg"/>
    </filter>
    <mask id="mask-17" x="40.8" y="-8283.69" width="29.77" height="32766" maskUnits="userSpaceOnUse"/>
    <linearGradient id="_ÂÁ_Ï_ÌÌ_È_ËÂÌÚ_213" data-name="¡ÂÁ˚ÏˇÌÌ˚È „‡‰ËÂÌÚ 21" x1="55.69" y1="49.72" x2="55.69" y2="59.97" xlink:href="#_ÂÁ_Ï_ÌÌ_È_ËÂÌÚ_21"/>
    <mask id="mask-16" x="40.8" y="49.88" width="29.77" height="9.9" maskUnits="userSpaceOnUse">
      <g class="st9">
        <g class="st72">
          <path class="st63" d="M70.54,59.78c0-.11.03-.22.03-.34,0-3.42-2.34-6.19-5.23-6.19-.95,0-1.83.32-2.6.85-.41-2.41-2.2-4.22-4.35-4.22-1.63,0-3.04,1.06-3.81,2.61-.8-1.37-2.13-2.27-3.65-2.27-2.43,0-4.39,2.31-4.43,5.17-.42-.15-.85-.26-1.32-.26-2.28,0-4.13,2.04-4.39,4.65h29.74Z"/>
        </g>
      </g>
    </mask>
    <linearGradient id="_ÂÁ_Ï_ÌÌ_È_ËÂÌÚ_916553" data-name="¡ÂÁ˚ÏˇÌÌ˚È „‡‰ËÂÌÚ 91655" x1="55.69" y1="49.72" x2="55.69" y2="59.97" xlink:href="#_ÂÁ_Ï_ÌÌ_È_ËÂÌÚ_91655"/>
  </defs>
  <g class="st46">
    <g id="Calque_1">
      <g>
        <path class="st39" d="M86.59,0v183.79H.1v-2.4l-.1-.34s.06-.08.1-.11V0h86.49Z"/>
        <path class="st22" d="M86.59,13.85v156.09c-.07.01-.13.02-.19.03-.29.06-.57.1-.86.15-.34.06-.68.11-1.02.17-.49.07-.99.14-1.48.2-.39.06-.78.11-1.17.14-.06.02-.11.02-.17.02-.37.05-.73.09-1.1.13-.3.03-.61.06-.91.08-.49.05-.98.09-1.48.12-.28.03-.56.05-.84.06-.28.02-.57.04-.86.05-.34.02-.67.03-1.01.04-.27,0-.55.02-.82.03-.32,0-.64.02-.96,0-.41.02-.82.02-1.23.02h-.21c-.21,0-.42,0-.63,0-.42,0-.84-.01-1.26-.02-.43,0-.87-.02-1.3-.05-.9-.03-1.8-.08-2.69-.15-.17,0-.33-.03-.49-.04-.61-.05-1.22-.11-1.82-.17-.22-.02-.43-.05-.65-.08-.18,0-.37-.03-.55-.06-1.55-.18-3.09-.41-4.61-.69-5.91-1.07-11.59-2.79-16.97-5.09-1.82-.78-3.61-1.63-5.36-2.54-.42-.22-.84-.44-1.26-.67-2.45-1.33-4.83-2.79-7.12-4.38-1.6-1.09-3.15-2.25-4.66-3.46-.42-.34-.84-.68-1.25-1.03-2.77-2.31-5.38-4.8-7.8-7.47-.19-.21-.37-.41-.56-.62,0-.01-.01-.01-.01-.01l-.66-.75h-.01c-1.29-1.49-2.51-3.01-3.68-4.58-.55-.73-1.08-1.46-1.59-2.2-.65-.93-1.28-1.88-1.88-2.84-.41-.64-.81-1.28-1.19-1.93-.09-.14-.17-.27-.24-.41-.68-1.15-1.33-2.32-1.94-3.51-.09-.16-.17-.32-.25-.49h0c-.62-1.2-1.2-2.41-1.75-3.64V59.49c3.63-8.11,8.58-15.49,14.59-21.88,2.19-2.33,4.52-4.53,6.98-6.58,13.76-11.5,31.48-18.43,50.82-18.43,4.81,0,9.52.43,14.1,1.25Z"/>
        <path class="st19" d="M86.59,25.4v132.99c-.57.13-1.15.24-1.73.35-.39.07-.79.14-1.19.2-.12.03-.25.05-.38.06-2.74.44-5.54.72-8.38.81-.8.04-1.61.05-2.42.05h-.2c-.8,0-1.59-.02-2.38-.05-.03,0-.05,0-.07-.01-.97-.03-1.94-.09-2.9-.17-2.13-.17-4.23-.44-6.29-.8-4.29-.75-8.44-1.91-12.41-3.43-2.27-.86-4.49-1.85-6.63-2.95-.22-.11-.44-.22-.66-.35-1.54-.8-3.05-1.66-4.52-2.59h0c-.83-.52-1.65-1.06-2.46-1.62-3.07-2.11-5.95-4.47-8.62-7.04-.03-.02-.05-.04-.07-.07-.56-.53-1.1-1.07-1.63-1.63-1.12-1.15-2.19-2.33-3.21-3.56-.15-.17-.29-.34-.44-.52-.49-.59-.96-1.19-1.43-1.8-.21-.27-.42-.55-.62-.82-.28-.38-.56-.75-.83-1.13-.24-.33-.47-.66-.69-1-.54-.77-1.05-1.55-1.55-2.35-.43-.68-.84-1.36-1.24-2.06-.55-.94-1.07-1.89-1.56-2.86-.01,0-.02-.02-.02-.03-.27-.51-.53-1.03-.78-1.55-.04-.09-.09-.18-.13-.26-.08-.16-.15-.33-.22-.49-.05-.08-.09-.16-.12-.25-.11-.22-.21-.45-.31-.68-1.29-2.84-2.38-5.78-3.26-8.81-.31-1.07-.6-2.15-.86-3.24-.46-1.93-.84-3.9-1.13-5.9-.01-.04-.02-.07-.02-.11-.26-1.79-.45-3.61-.56-5.45-.09-1.31-.14-2.62-.14-3.95-.01-.15-.01-.29-.01-.44,0-35.94,27.9-65.36,63.23-67.79,1.57-.12,3.15-.17,4.74-.17,2.68,0,5.31.15,7.91.46,2.09.24,4.16.58,6.19,1.01Z"/>
        <path class="st20" d="M86.59,37.03v109.73c-.5.13-1,.25-1.51.36-4.05.92-8.26,1.41-12.59,1.41s-8.75-.51-12.89-1.47c-.38-.09-.75-.18-1.12-.28-3.59-.91-7.03-2.17-10.3-3.73h-.01c-.46-.21-.91-.44-1.36-.67-1.39-.7-2.74-1.46-4.05-2.27-.03-.02-.06-.04-.09-.06,0,0,0-.01,0-.01-1.94-1.2-3.79-2.51-5.56-3.93-.52-.42-1.02-.84-1.52-1.26-.72-.63-1.43-1.27-2.12-1.92,0-.01-.01-.01-.01-.01-.35-.34-.69-.67-1.03-1.01-.04-.04-.09-.09-.13-.13-.04-.04-.08-.09-.13-.13-.33-.34-.67-.69-.99-1.04-.28-.29-.55-.58-.82-.88-.3-.34-.6-.68-.9-1.03l-.63-.75c-.28-.34-.55-.68-.82-1.02-.34-.42-.66-.85-.98-1.28h-.01c-.91-1.23-1.77-2.5-2.58-3.8h-.01c-.22-.35-.43-.71-.65-1.07-.32-.54-.63-1.09-.93-1.64-.04-.05-.06-.11-.09-.16-.24-.43-.47-.86-.68-1.3h-.01c-.05-.1-.1-.2-.14-.3-.23-.42-.44-.86-.64-1.29-.03-.05-.05-.1-.07-.15-.05-.1-.1-.21-.14-.31h-.01c-.28-.61-.55-1.23-.81-1.85h-.01c-.12-.29-.23-.57-.34-.86h-.01c-.19-.48-.37-.95-.54-1.44h-.01c-.06-.16-.12-.32-.17-.48-.03-.07-.05-.14-.07-.21-.16-.42-.3-.84-.43-1.27-.14-.4-.27-.81-.39-1.22-.06-.16-.1-.33-.15-.49-.07-.22-.13-.44-.19-.66-.03-.11-.06-.21-.09-.32-.07-.25-.14-.51-.2-.77-.07-.26-.14-.52-.2-.79-.04-.15-.07-.3-.11-.45h0c-.04-.17-.08-.34-.11-.51-.19-.85-.37-1.71-.52-2.58-.01-.08-.03-.16-.04-.23-.04-.26-.08-.52-.13-.77v-.02c-.07-.48-.14-.95-.2-1.43-.25-1.93-.41-3.9-.46-5.9-.01-.49-.02-.99-.02-1.49,0-31.27,25.35-56.63,56.63-56.63,4.87,0,9.6.61,14.1,1.77Z"/>
        <path class="st21" d="M86.59,48.83v86.13s-.04.02-.07.02c-3.71,1.21-7.63,1.96-11.7,2.16h0c-.77.04-1.54.06-2.32.06-7.03,0-13.69-1.6-19.62-4.46-.64-.3-1.27-.62-1.88-.96-.11-.06-.22-.12-.33-.18-.74-.4-1.46-.83-2.17-1.28-1.04-.64-2.05-1.33-3.02-2.06-.5-.37-.99-.75-1.47-1.14-.25-.2-.5-.41-.75-.62-.27-.23-.55-.47-.82-.72-.05-.03-.09-.07-.14-.12-.29-.25-.57-.52-.85-.78-.86-.81-1.68-1.65-2.47-2.51-3.16-3.47-5.78-7.44-7.74-11.76-1.19-2.61-2.13-5.35-2.8-8.19h-.01s-.02-.07-.02-.11c-.05-.19-.1-.38-.14-.58-.7-3.17-1.07-6.46-1.07-9.84,0-1.56.08-3.1.23-4.61,1.1-10.86,6.03-20.58,13.42-27.79,1.57-1.54,3.26-2.97,5.05-4.27.22-.16.44-.32.66-.47,2.07-1.45,4.27-2.73,6.58-3.82,5.87-2.79,12.43-4.34,19.36-4.34,4.92,0,9.66.79,14.1,2.24Z"/>
        <path class="st17" d="M86.59,60.98v61.83c-1.73.79-3.53,1.44-5.4,1.93h-.02c-2.77.74-5.68,1.13-8.68,1.13-5.43,0-10.57-1.27-15.12-3.55-.11-.05-.22-.1-.32-.16-2.1-1.07-4.08-2.36-5.9-3.83-.05-.04-.09-.07-.14-.11h0c-1.04-.85-2.03-1.77-2.96-2.73-2.71-2.8-4.94-6.07-6.56-9.67-.59-1.32-1.1-2.69-1.52-4.09-.28-.92-.52-1.85-.72-2.8-.46-2.16-.71-4.4-.73-6.69v-.35c0-14.86,9.55-27.5,22.85-32.11,2.86-.99,5.9-1.61,9.05-1.8.68-.04,1.37-.06,2.07-.06,5.03,0,9.8,1.09,14.1,3.06Z"/>
        <path class="st18" d="M86.59,74.18v35.42c-1,.8-2.08,1.52-3.21,2.14-.51.29-1.04.55-1.58.78,0,0-.02,0-.03.02-1.04.48-2.13.87-3.25,1.17t-.02.01c-.22.06-.44.12-.66.17-.27.07-.55.13-.83.19-.18.04-.36.07-.54.09-.85.16-1.72.27-2.61.31-.45.04-.91.05-1.37.05-1.46,0-2.88-.14-4.26-.41-2.51-.47-4.88-1.36-7.02-2.61h0c-1.79-1.02-3.42-2.29-4.86-3.75h0s-.04-.05-.06-.07c-.23-.23-.45-.46-.65-.7-.26-.28-.5-.57-.74-.86-.57-.7-1.1-1.44-1.58-2.21-.5-.79-.95-1.62-1.34-2.47-1.36-2.9-2.12-6.14-2.12-9.56,0-12.5,10.14-22.64,22.64-22.64,5.33,0,10.23,1.84,14.1,4.93Z"/>
        <path class="st44" d="M80.31,91.08c0,6.25-5.07,11.31-11.31,11.31-.84,0-1.67-.1-2.47-.28,5.06-1.12,8.83-5.64,8.83-11.03s-3.77-9.91-8.83-11.03c.79-.18,1.63-.28,2.47-.28,6.24,0,11.31,5.06,11.31,11.31Z"/>
        <g class="st0">
          <path class="st23" d="M47.97,101.73H.1v-14.06c2.09.94,3.69,3.02,3.76,5.32.2-.25.42-.47.67-.66,1.13-.91,2.7-1.26,4.09-.85,1.69.49,3.01,2.07,3.2,3.83.93-1.26,2.5-1.98,4.06-1.93.31,0,.62.05.92.12,1.82.45,3.3,2.05,3.6,3.89.18-3.56.81-6.62,3.9-8.86.92-.66,2-1.16,3.12-1.25.27-.01.54-.01.81.02.87.1,1.69.49,2.44.96,2.07,1.31,3.66,3.35,4.44,5.67-.3-.91,1.73-1.45,3.41-1.69.98-.14,1.84-.18,2.08-.15,2.04.28,3.94,1.05,5.2,2.76.99,1.33,1.51,2.92,1.83,4.57.13.67.22,1.35.31,2.02.01.1.02.19.03.29Z"/>
        </g>
        <path class="st6" d="M26.96,107.56c-.05-.28-.3-.5-.58-.52.25-.16.37-.49.29-.77-.08-.28-.37-.49-.67-.49.13-.28.24-.59.19-.89s-.34-.58-.64-.53c-.07.01-.13.04-.2.04-.16,0-.28-.16-.33-.31s-.06-.32-.14-.46c-.2-.37-.78-.37-1.07-.08-.34.34-.34.99-.27,1.39-.44.03-.9.26-1.09.68-.19.42,0,1,.44,1.13-.41.21-.79.59-.8,1.05-.01.46.51.91.92.69-.02.31.14.62.41.78.26.16.6.17.87.02v3.41h.5v-3.47s0,0,0,0c.55.25,1.03.41,1.48-.1.13-.15.23-.69.31-.88.12-.26.45-.27.38-.68Z"/>
        <path class="st6" d="M21.28,108.65c-.05-.28-.3-.5-.58-.52.25-.16.37-.49.29-.77s-.37-.49-.67-.49c.13-.28.24-.58.19-.89-.05-.3-.34-.58-.64-.53-.07.01-.13.04-.2.04-.16,0-.28-.16-.33-.31s-.06-.32-.14-.46c-.2-.37-.78-.37-1.07-.08-.34.34-.34.99-.27,1.39-.44.03-.9.26-1.09.68-.19.42,0,1,.44,1.13-.41.21-.79.59-.8,1.05-.01.46.51.91.92.69-.02.31.14.62.41.78.26.16.6.17.87.02v3.41h.5v-3.47s0,0,0,0c.55.25,1.03.41,1.48-.1.13-.15.23-.69.31-.88.11-.26.45-.27.38-.68Z"/>
        <path class="st6" d="M14.86,105.39c-.05-.28-.3-.5-.58-.52.25-.16.37-.49.29-.77-.08-.28-.37-.49-.67-.49.13-.28.24-.59.19-.89s-.34-.58-.64-.53c-.07.01-.13.04-.2.04-.16,0-.28-.16-.33-.31-.05-.15-.06-.32-.14-.46-.2-.37-.78-.37-1.07-.08-.34.34-.34.99-.27,1.39-.44.03-.9.26-1.09.68-.19.42,0,1,.44,1.13-.41.21-.79.59-.8,1.05-.01.46.51.91.92.69-.02.31.14.62.41.78.26.16.6.17.87.02v3.41h.5v-3.47s0,0,0,0c.55.25,1.03.41,1.48-.1.13-.15.23-.69.31-.88.11-.26.45-.27.38-.68Z"/>
        <path class="st34" d="M86.59,98.12v20.04c-.72-.04-1.44-.08-2.16-.11-.46-.02-.92-.04-1.38-.05-2.44-.08-4.88-.05-7.32.15-4.28.36-8.48,1.27-12.65,2.35h-.01c-2.02.53-4.01,1.1-6.02,1.66-.91.26-1.81.51-2.72.76-.77.21-1.53.42-2.29.62-2.7.73-5.41,1.37-8.14,1.85-.02,0-.03,0-.05.01-.37.07-.74.13-1.11.19-.15.03-.3.05-.45.07-.94.14-1.88.26-2.83.35-.09.02-.16.02-.25.03h-.01c-1.13.11-2.26.18-3.4.2-1.28.03-2.56-.01-3.83-.09-.67-.03-1.33-.09-1.99-.15-.99-.09-1.98-.21-2.96-.35h-.01c-5-.67-9.95-1.81-14.95-2.63-.04-.01-.08-.02-.13-.02h-.01c-1.15-.2-2.31-.37-3.47-.52-1.95-.25-3.92-.43-5.89-.55-.81-.05-1.64-.1-2.46-.12v-25.44c1.54-.11,3.06-.16,4.57-.09,2.7.12,5.39.57,8.18,1.58,1.18.42,2.33.92,3.49,1.42.94.39,1.89.78,2.86,1.11,1.71.59,3.47,1,5.25,1.34,1.2.23,2.41.43,3.62.64h.01c.12.02.22.04.34.05h.01c1.56.26,3.13.53,4.67.87,2.74.6,5.55,1.79,8.39,2.53,2.89.76,5.81,1.05,8.71-.2,1.1-.47,2.11-1.08,3.11-1.7.51-.32,1-.65,1.51-.96h.01c.92-.57,1.85-1.1,2.85-1.52,2.84-1.18,5.5-2.75,8.4-3.82.28-.1.56-.21.84-.3.32-.12.63-.23.95-.33,1.88-.62,3.81-1.1,5.79-1.21.23-.02.46-.02.69-.02,1.57-.02,3.14.19,4.69.5,1.36.27,2.7.61,4.04.96,1.18.3,2.35.61,3.51.9Z"/>
        <path class="st33" d="M86.59,107.35v20.37c-12.64.95-25.38.85-38.13.6-.38,0-.75-.02-1.13-.02-.32,0-.64-.02-.96-.02-.3,0-.6,0-.9-.02-1.08-.02-2.16-.05-3.24-.07-2.06-.04-4.12-.08-6.18-.12-.39,0-.77-.02-1.16-.02-1.51-.03-3.02-.06-4.53-.08-.51,0-1.03-.01-1.54-.02-.93-.01-1.85-.02-2.78-.02-.65-.01-1.31-.01-1.96-.01-.97,0-1.93,0-2.89,0-1.26,0-2.53,0-3.79.02-.19,0-.37,0-.56,0-.65.01-1.31.02-1.96.03-2.15.03-4.3.09-6.45.17l-.84.03c-1.3.05-2.59.11-3.89.18-.53.02-1.06.05-1.6.08-.14,0-.29.02-.44.03l-1.56.09v-25.34c1.76-.5,3.46-.99,5.15-1.37.17-.04.34-.08.51-.11,2.88-.62,5.79-.92,9.06-.51.54.07,1.07.15,1.61.24.08.01.16.03.24.04.17.03.33.06.5.08.27.05.53.1.8.15,2.75.52,5.51,1.09,8.29.88.61-.05,1.21-.13,1.81-.24h.01c.11-.02.21-.05.32-.06.74-.16,1.49-.36,2.22-.58,2.9-.87,5.74-2.14,8.63-2.8,1.59-.37,3.2-.55,4.84-.38,1.22.12,2.4.44,3.54.87,1.49.55,2.93,1.29,4.34,2.03.12.06.24.13.36.19l2.49,1.32h.01c2.8,1.48,5.59,2.96,8.38,4.45.01,0,.03,0,.04.02,2.77,1.46,5.68,2.94,8.69,3.65.37.09.75.17,1.12.23.19.04.37.06.56.08h0c1.16.16,2.33.18,3.51.02.13-.02.25-.04.37-.06l.18-.03c.34-.06.68-.14,1.01-.22.16-.04.31-.09.47-.15h.02c.13-.03.26-.07.39-.12.68-.22,1.35-.49,2-.8,1.71-.78,3.35-1.76,5.02-2.68Z"/>
        <path class="st35" d="M86.59,122.41v7.8c-.38.12-.77.22-1.15.31-4.32,1.02-8.82.72-13.25.48-7.23-.39-14.46-.62-21.7-.67-.66,0-1.33,0-2,0-1.15,0-2.31,0-3.47,0-4.12.02-8.24.09-12.36.23-.5.01-.99.03-1.49.05-.56.01-1.12.04-1.68.06-.47.02-.94.03-1.41.06-1.53.06-3.06.13-4.59.22-.79.03-1.58.07-2.37.13h-.01c-1.33.07-2.66.15-3.99.24-4.28.28-8.57.62-12.84,1.03-.95.09-1.89.18-2.84.28h-.01c-.45.04-.89.08-1.33.14v-22.66c.37-.06.74-.14,1.11-.23.29-.07.56-.15.84-.24h.02c1.5-.48,2.91-1.17,4.31-1.9,1.22-.64,2.42-1.3,3.65-1.88,1.43-.66,2.89-1.2,4.44-1.44.04,0,.07,0,.11,0,.45-.07.89-.11,1.33-.11.45-.03.89-.02,1.32.01.08,0,.15.02.22.02.33.03.66.07.99.13.17.02.33.06.5.09.05.01.09.02.14.03h.02c1.13.24,2.24.62,3.34,1.08,1.49.63,2.96,1.43,4.42,2.29,1.45.86,2.9,1.78,4.37,2.66,2.66,1.6,5.37,3.06,8.27,3.78,2.79.69,5.71.67,8.55,1.1.56.08,1.12.18,1.68.31.92.21,1.82.48,2.7.8h0c.67.25,1.33.51,1.99.79,1.91.79,3.79,1.66,5.75,2.31.95.32,1.92.58,2.89.8h.01c.78.18,1.57.33,2.36.46h.01c2.99.47,6.03.64,9.05.8,3.01.16,6.02.32,9.03.48,1.02.06,2.04.11,3.06.17Z"/>
        <path class="st32" d="M47.16,132.14l-.05.02h-.01l-1.8.72h0l-7.31,2.88-.88.35-1.69.67-.16.06-1.54.61-3.26,1.28-.29.12h-.01l-4.87,1.93-.19.07-2.86,1.13-8.37,3.3-.39.16L.1,150.71v-41.5c.66.13,1.31.28,1.95.43h.02c1.1.26,2.19.53,3.26.82.08.01.15.03.22.05.57.16,1.13.31,1.69.47,1.92.55,3.78,1.15,5.58,1.77,2.78.97,5.41,2.01,7.89,3.09l.06.03h.01c.17.07.34.14.5.22.38.16.76.33,1.13.51.94.42,1.86.86,2.75,1.29l.12.06c.45.22.89.44,1.32.66,1.94.98,3.76,1.97,5.45,2.94h0c1.25.72,2.42,1.43,3.52,2.12,1.32.82,2.53,1.61,3.63,2.37h.01c.06.04.11.08.16.11.18.12.35.24.51.36h.01c.85.59,1.63,1.15,2.34,1.68,1.12.82,2.05,1.55,2.79,2.14.8.65,1.39,1.15,1.74,1.45.27.24.4.36.4.36Z"/>
        <path class="st38" d="M33.01,123.67c-.36.3-.94.31-1.31.02.5.11.6-.8,1.1-.95-.23-.1-.09-.43.08-.61-.48.38-1.17.48-1.74.25.25-.07.56-.27.43-.49.16,0,.34,0,.45-.11.06-.06.06-.15.03-.22h0c-.04-.07-.08-.11-.14-.11.42-.11.76-.47.84-.89-.42.3-.97.4-1.48.3-.2-.04-.4-.11-.54-.26-.13-.15-.17-.39-.04-.55.27.13.59.14.87.03-.07-.19-.03-.41.11-.56-.11-.03-.22-.05-.33-.08.33-.26.56-.64.64-1.05-.39.5-1.12.71-1.72.5,0-.3.13-.6.37-.79-.1-.05-.2-.09-.29-.14.36-.05.66-.36.7-.72-.3.2-.69.25-1.03.14.15.04.24-.21.12-.28.38-.19.67-.54.77-.95-.26.27-.62.42-.99.42-.1-.18-.25-.34-.44-.44.39-.09.73-.38.89-.75-.16.1-.33.2-.51.2s-.39-.12-.39-.3c.15,0,.3-.03.46-.04.02-.14-.02-.3-.11-.42.2-.02.38-.18.43-.37-.16,0-.33-.01-.49-.01.39-.14.7-.46.83-.85-.37.32-.87.48-1.36.45.12-.36.23-.73.35-1.1.29,0,.55-.19.66-.45-.29.07-.57-.17-.68-.43-.11-.27-.12-.56-.2-.84.09,0,.18-.09.16-.18-.29-.34-.42-.75-.35-1.17-.14.55-.27,1.1-.4,1.66-.03.09-.05.18-.03.27.01.08.05.15.05.23.01.31-.45.38-.76.33,0,.29.38.49.63.34.08.22-.16.49-.39.44.07.31.07.64,0,.95-.27.14-.66-.06-.69-.36-.13.29.05.62.26.86.2.25.45.49.48.81-.31.17-.76.03-.9-.28-.02.28.05.57.2.81-.17.24-.56.25-.82.1s-.43-.42-.58-.68c.01.33.19.65.48.83-.14.1-.3.16-.47.19.24.18.55.25.84.21-.34.26-.77.41-1.21.42.38.35,1.02.4,1.45.1,0,.32.01.64.01.96-.41-.03-.81-.13-1.19-.27.31.28.65.53,1.02.73-.17.08-.35.11-.54.09-.18,0-.37-.05-.54-.13-.29-.13-.54-.33-.78-.53-.04-.04-.09-.08-.13-.12,0,.02,0,.04.01.06.02.48.39.91.86,1.02-.19.12-.43.15-.65.09.11.13.06.36-.09.44.19.24.48.41.79.45-.05.33-.4.54-.74.55-.3,0-.59-.12-.85-.27.03-.1.03-.2,0-.3-.33.16-.74.17-1.08.03.27-.09.48-.32.55-.59-.38.03-.76-.03-1.11-.17-.07-.02-.14-.05-.21-.08.04-.03.08-.05.12-.08.07-.05.15-.1.23-.15-.12-.14-.23-.27-.35-.41.48-.1.79-.65.63-1.1-.3.3-.77.43-1.19.36h-.01c-.19-.03-.35-.09-.5-.19.15.02.27-.03.36-.11.2-.17.33-.5.49-.78.12-.2.26-.38.46-.46-.3-.1-.16-.56.04-.81-.45.43-1.08.65-1.7.61-.15,0-.29-.02-.43-.07h-.01s-.05,0-.08-.02t.02,0c.12-.04.25-.12.35-.21h.01c.15-.14.23-.3.12-.46.21,0,.44-.03.57-.19.12-.16,0-.47-.21-.41.55-.18.96-.69,1.02-1.25-.52.44-1.22.63-1.89.56-.14-.02-.3-.05-.43-.1h-.01c-.11-.04-.21-.1-.29-.18-.19-.18-.26-.49-.12-.7.02,0,.04,0,.06.02h.01c.35.11.74.08,1.06-.08-.11-.24-.08-.54.08-.75-.14-.02-.29-.04-.43-.06.39-.37.64-.89.7-1.43-.4.63-1.2.98-1.96.88h-.01c-.07,0-.13-.02-.2-.04-.02-.15-.01-.3.03-.44.05-.2.14-.38.29-.53.01-.03.04-.06.07-.09l-.39-.15c.46-.11.81-.55.82-1.01-.35.29-.84.4-1.29.3.18,0,.26-.3.09-.39.47-.28.81-.77.89-1.3-.29.37-.75.61-1.23.65-.04-.07-.09-.13-.14-.18-.13-.15-.29-.26-.47-.34.11-.04.22-.09.32-.15.34-.21.61-.54.73-.92-.19.14-.39.29-.63.31-.1,0-.2,0-.29-.05-.13-.05-.23-.16-.25-.3.05,0,.11-.02.16-.02.14-.03.28-.05.43-.07.01-.19-.06-.39-.19-.53.26-.05.47-.27.51-.53-.21,0-.42.03-.63.04.49-.22.86-.68.97-1.19-.29.3-.67.52-1.07.64h-.01c-.14.04-.27.07-.41.08-.07,0-.14.02-.21.02.04-.16.07-.31.1-.47h0c.04-.17.08-.33.11-.49.04-.17.08-.34.11-.51.37-.04.7-.31.8-.66-.36.13-.75-.15-.92-.48-.16-.3-.21-.63-.32-.95-.01-.04-.03-.07-.04-.11.03,0,.07,0,.09-.04.08-.03.12-.12.09-.2-.41-.41-.63-.94-.59-1.49-.04.28-.08.54-.13.82v.02c-.03.24-.07.49-.11.73-.01.09-.02.18-.04.27-.01.12-.03.23-.05.35,0,.12-.03.24,0,.36.02.1.08.19.09.29.05.41-.53.54-.94.52.04.37.55.58.85.37.13.27-.14.64-.45.61.01.02.01.05.02.07.11.37.14.77.09,1.16-.33.21-.86,0-.94-.39-.13.39.15.79.44,1.08s.65.59.71.99c-.37.26-.97.13-1.19-.26,0,.37.13.73.36,1.02-.2.34-.7.39-1.06.23-.35-.17-.6-.5-.83-.81.06.42.33.82.72,1.02-.17.14-.37.24-.58.29.32.2.74.27,1.11.17-.41.38-.96.62-1.52.69.54.41,1.36.4,1.89-.03l.12,1.23c-.53.01-1.06-.07-1.57-.21.43.33.91.61,1.41.83-.42.25-.95.23-1.41.07s-.85-.45-1.24-.74c.05.64.6,1.21,1.25,1.3-.24.17-.55.24-.84.19.16.16.12.46-.07.57.02.02.04.04.06.05.27.27.64.43,1.02.45-.03.43-.46.75-.89.79-.44.05-.86-.11-1.25-.3.22.29.58.48.95.49-.03.12-.06.24-.1.36.14-.03.29.12.24.25.15,0,.31,0,.46,0-.1.3-.46.43-.77.39-.32-.04-.59-.23-.84-.4-.21.23.06.67.36.59,0,.1-.01.21-.02.32.1.02.21.05.31.08-.29.22-.71.15-1.08.17s-.81.26-.75.62c.05.16.26.25.41.19-.01.12-.01.24-.02.37.47.14,1.01.07,1.43-.2.15.35-.34.64-.73.64-.39,0-.85-.1-1.12.18l-.6-.36c0,.5.5.95,1.01.92-.1.14-.24.24-.41.28.12.16.31.27.52.3-.15.11-.29.22-.44.33.29.23.71.29,1.05.15.01.11.03.22.04.33-.34.18-.74.2-1.1.09-.15-.04-.29-.12-.42-.21.08.39.36.73.73.89.09.05.18.08.28.1-.04.06-.1.11-.16.15-.12.08-.27.12-.42.1.19.16.41.3.64.39.13.06.26.11.4.14-.08.05-.17.1-.27.12-.4.14-.9.03-1.18-.29-.21.18-.03.53.21.68.09.05.18.11.28.16-.1-.03-.2-.05-.3-.05-.29-.01-.6.06-.84-.09.08-.03.16-.05.24-.08l-.03-.24c.23.05.43-.3.25-.47-.19.15-.39.3-.62.34-.24.05-.53-.04-.62-.26l.36-.03c-.04-.1.06-.22.17-.2-.03-.09-.06-.19-.09-.28.29-.02.56-.18.71-.41-.29.16-.61.3-.95.28-.33,0-.68-.24-.72-.57.31-.03.61-.19.81-.43-.15-.08-.19-.31-.08-.43-.22.05-.46,0-.65-.12.5-.09.9-.55.91-1.05-.29.24-.58.48-.93.62-.34.14-.75.18-1.08,0,.37-.19.72-.42,1.04-.69-.38.13-.79.21-1.2.23.02-.32.03-.64.05-.95.42.3,1.06.28,1.45-.06-.44-.03-.86-.19-1.2-.47.29.06.61,0,.85-.18-.17-.03-.32-.09-.46-.19.29-.18.48-.49.51-.82-.17.25-.34.51-.61.66-.26.14-.65.12-.82-.13.17-.23.25-.52.24-.8-.16.31-.61.43-.91.25.03-.32.29-.56.5-.79.22-.24.41-.56.29-.85-.04.3-.44.48-.7.33-.06-.31-.05-.64.03-.95-.23.04-.46-.23-.37-.45.24.16.62-.03.64-.32-.32.04-.77-.04-.75-.35.01-.08.05-.16.06-.24.02-.09,0-.18-.02-.27-.07-.33-.14-.66-.2-1-.05-.22-.1-.45-.14-.67.02.21,0,.42-.08.62-.06.2-.17.38-.31.55-.03.08.05.18.14.18-.09.27-.1.57-.22.83-.13.26-.41.49-.69.41.09.26.35.45.64.47.1.37.21.74.31,1.11-.49.02-.98-.17-1.34-.5.11.4.41.73.8.88h-.49c.04.19.21.35.41.38-.09.12-.14.27-.12.42.16.02.31.03.46.05,0,.18-.22.3-.4.29s-.35-.12-.5-.22c.14.38.47.67.86.79-.19.09-.35.24-.45.42-.37-.01-.73-.18-.98-.45.09.41.37.77.74.96-.12.08-.05.3.09.3-.34.09-.73.03-1.01-.18.03.36.32.68.68.74-.1.04-.19.09-.29.13.23.2.36.5.34.8-.61.19-1.33-.04-1.7-.55.06.41.28.8.6,1.07l-.33.06c.13.16.16.39.09.57.27.12.6.12.87,0,.12.16.08.4-.06.55h-.01c-.14.14-.34.21-.54.24-.51.08-1.06-.03-1.47-.35.07.43.4.81.83.92-.15-.04-.24.21-.14.32.1.12.28.13.44.13-.03.05-.04.1-.02.15.03.16.26.3.44.35-.58.21-1.26.09-1.73-.31.16.19.29.53.06.62.49.17.56,1.07,1.07.99-.38.27-.96.25-1.31-.07-.11.36.16.77.53.82-.09.11-.17.22-.25.33.09.06.18.11.28.17-.29.15-.62.22-.94.23.09.14.17.27.24.39.05.02.09.04.14.06-.03.01-.06.01-.08.02l.1.16c.37.56.75,1.05,1.17,1.47.44.47.92.86,1.42,1.19.94.63,1.98,1.04,3.12,1.29h.01c1.16.27,2.42.39,3.8.46,1.93.09,3.87.17,5.8.22,1.84.05,3.67.09,5.51.11.23.01.45.01.68.01s.47,0,.7-.01c1.62-.03,3.03-.27,4.28-.76.66-.24,1.27-.56,1.85-.97.31-.21.62-.45.91-.73.57-.5,1.11-1.11,1.61-1.82.17-.22.32-.46.48-.7.07-.12.15-.25.23-.37-.09-.04-.19-.06-.27-.11l.15-.09s.02-.01.03-.02c.03-.01.07-.03.1-.05l-.24-.33c.37-.05.65-.45.56-.81ZM9.51,122.76c.26.15.57.2.87.15.04.06.07.12.11.18-.15.06-.3.1-.45.13-.29-.01-.62-.2-.53-.46ZM23.49,121.2c-.12-.11-.24-.23-.36-.34.21-.01.44-.03.64-.08.11-.03.21-.07.3-.12.18-.09.33-.26.4-.44.15.18.37.31.62.34-.04.09-.07.18-.1.27.11-.01.21.11.16.21.12,0,.24.03.35.04-.09.22-.38.3-.62.25-.23-.06-.43-.22-.61-.37-.18.16,0,.52.24.48,0,.08-.03.16-.04.24.08.03.16.06.23.09-.08.05-.17.07-.27.08h-.01c-.18.01-.37-.02-.56-.02-.28-.01-.64.14-.62.42.01.02.02.04.03.05-.23-.07-.43-.21-.51-.43.37,0,.7-.32.73-.67ZM10.89,122.34s.02.03.03.05c0,.01-.02.01-.03.01.01-.02,0-.04,0-.06Z"/>
        <path class="st2" d="M47.16,142.69l-.79.31-1.11.44h0l-1.37.55-3.41,1.34-.33.13-3.69,1.46-2.48.97-8.92,3.52-3.39,1.34L.1,161.26v-41.5c1.14.23,2.26.49,3.36.77,2.94.72,5.77,1.55,8.46,2.47h.01c.05,0,.1.03.15.05,4.35,1.47,8.37,3.14,12,4.87.36.17.71.34,1.06.5.84.42,1.66.83,2.46,1.25.44.23.88.46,1.3.69.2.1.4.2.59.31.61.33,1.2.66,1.78.99.07.04.14.08.21.12.33.18.66.37.98.56.34.19.67.39.99.58,0,0,.01,0,.01.01,1.03.61,2.02,1.22,2.94,1.81h.01c.55.35,1.06.69,1.57,1.02,2.84,1.89,5.07,3.56,6.62,4.79h.01c.72.58,1.29,1.05,1.71,1.4.2.17.36.32.49.43.23.2.35.31.35.31Z"/>
        <path class="st3" d="M83.38,111.74c1.07-.13,2.14-.25,3.21-.35v47.9c-.58-.19-1.16-.37-1.73-.55-.42-.13-.83-.26-1.25-.39-.1-.03-.19-.06-.29-.09-4.54-1.39-9.11-2.75-13.35-4.77-3.12-1.48-6.04-3.32-8.97-5.15-.84-.52-1.67-1.04-2.52-1.56-2.36-1.44-4.75-2.82-7.28-3.95-2.14-.95-4.34-1.7-6.59-2.28h-.01c-.59-.16-1.18-.3-1.78-.43-.02,0-.04,0-.06,0-.74-.17-1.49-.31-2.24-.43-1.18-.21-2.37-.38-3.56-.5h-.01c-2.11-.22-4.23-.32-6.36-.33h-.44c-2.17.01-4.34.11-6.5.3-.75.06-1.5.14-2.25.22-1.07.12-2.29.19-3.47.08-2.17-.2-4.18-1.01-4.79-3.24,1.3-.18,2.48-.75,3.59-1.52.63-.42,1.24-.9,1.84-1.42.38-.32.76-.65,1.14-.98.11-.09.22-.19.33-.29.02-.02.04-.04.07-.06h.01c.33-.3.66-.58.99-.86h.01c.27-.23.54-.45.82-.65.3-.23.61-.45.92-.65.03-.02.07-.04.1-.06.71-.46,1.44-.89,2.18-1.3.3-.17.6-.34.9-.49.64-.35,1.3-.68,1.96-1,.65-.33,1.31-.63,1.98-.93.85-.39,1.72-.76,2.58-1.12.01-.01.02-.01.03-.02.79-.32,1.59-.65,2.38-.96.2-.08.4-.16.6-.23,1.13-.45,2.26-.88,3.4-1.3,3.97-1.47,7.99-2.8,12.05-4,.04-.02.08-.03.13-.04.11-.04.23-.07.35-.1.26-.08.52-.16.79-.24h0l2.13-.6c1.39-.38,2.79-.75,4.19-1.1.6-.16,1.21-.31,1.81-.45l.87-.21c.07-.01.15-.03.23-.05,2.22-.53,4.46-1.01,6.7-1.46,1.51-.3,3.02-.58,4.53-.84h.02c.42-.08.85-.15,1.27-.22.06-.01.13-.02.19-.03.91-.15,1.82-.3,2.73-.44h.05c.12,0,.24-.02.35-.05.01,0,.03-.01.04-.01,1.26-.19,2.52-.36,3.78-.53.31-.03.61-.07.92-.11.05,0,.1,0,.15-.02.37-.05.75-.09,1.12-.13Z"/>
        <path class="st41" d="M84.58,119.69c-.39.32-1,.33-1.4.02.33.07.5-.26.69-.56.13-.2.28-.39.48-.46-.24-.1-.09-.45.08-.64-.51.4-1.24.5-1.84.26.18-.05.4-.17.46-.31.04-.06.04-.14,0-.21.17,0,.36,0,.48-.12.11-.12.02-.38-.14-.34.46-.11.83-.5.92-.95-.45.32-1.04.42-1.58.32-.22-.04-.43-.12-.57-.28s-.19-.42-.05-.58c.29.14.63.15.93.03-.08-.2-.03-.44.11-.6-.11-.03-.23-.05-.35-.08.35-.28.6-.68.68-1.12-.41.53-1.19.76-1.83.53-.01-.32.14-.64.39-.83-.1-.06-.2-.11-.3-.16.38-.05.7-.38.74-.76-.31.21-.73.27-1.09.15.15.04.26-.22.12-.3.09-.04.18-.1.26-.16,0-.01.02-.01.03-.02.21-.17.38-.4.46-.65.04-.06.05-.11.07-.17-.07.07-.14.13-.22.19-.24.16-.54.25-.83.25-.03-.05-.05-.1-.09-.14-.1-.14-.23-.25-.37-.33.41-.1.77-.41.94-.8-.17.1-.34.21-.54.21-.2,0-.41-.13-.41-.32l.48-.03c.03-.16-.02-.33-.11-.45.16-.02.3-.12.39-.25.03-.05.05-.1.06-.15-.17,0-.34-.01-.52-.01.42-.15.75-.49.88-.9-.39.33-.92.51-1.44.48.12-.39.25-.78.37-1.17.31,0,.59-.21.7-.48-.3.07-.6-.18-.72-.46s-.12-.6-.21-.89c.1,0,.19-.1.17-.19-.31-.36-.45-.8-.38-1.25-.14.59-.28,1.18-.42,1.76-.03.1-.05.2-.04.29.02.09.06.17.06.25,0,.33-.47.4-.81.35,0,.31.41.52.67.36.08.24-.16.52-.41.47.07.33.07.68,0,1.01-.29.15-.7-.06-.74-.38-.13.31.06.66.28.92.21.23.45.48.5.79.01.02.01.04.01.06-.13.07-.26.1-.4.06h-.02c-.23-.02-.44-.15-.54-.36,0,.17.01.35.07.51.03.13.08.25.15.35-.19.26-.6.27-.87.11-.11-.06-.21-.15-.29-.24-.13-.14-.23-.31-.33-.48.01.18.06.36.15.51s.21.28.36.38c-.15.1-.32.16-.5.19.25.19.58.27.9.22-.25.19-.54.33-.85.39,0,0-.03.01-.04.01-.11.03-.23.04-.35.05h-.05c.4.38,1.08.42,1.54.11,0,.34,0,.67.01,1.01h0s-.01.01-.02.01c-.42-.04-.85-.13-1.25-.29.19.17.38.32.59.46.16.12.33.22.5.32-.36.17-.79.12-1.15-.04l-.18-.09c-.29-.17-.54-.38-.78-.6,0,.25.09.49.24.69.17.23.41.4.68.46-.21.12-.46.15-.69.09.11.14.06.38-.1.46.2.26.51.44.84.49-.05.34-.43.57-.79.58-.32,0-.62-.13-.9-.29.03-.1.03-.21,0-.31-.35.17-.78.18-1.15.03.29-.1.52-.34.59-.63-.48.03-.97-.06-1.41-.27.12-.08.25-.16.37-.24-.02-.02-.03-.04-.05-.06-.1-.13-.21-.25-.32-.38.47-.09.8-.61.7-1.07-.01-.03-.02-.07-.03-.1-.05.05-.1.09-.16.13-.35.26-.84.34-1.27.22h-.02c-.13-.04-.24-.1-.35-.17.71.09.73-1.17,1.39-1.44-.13-.04-.18-.14-.18-.27h0c0-.19.1-.42.22-.58-.23.21-.49.38-.78.49-.5.19-1.07.22-1.58.07.16-.06.35-.17.46-.3.13-.13.18-.28.08-.43.22-.01.46-.04.6-.2.13-.17,0-.5-.22-.44.58-.19,1.01-.73,1.07-1.32-.54.46-1.29.66-2,.58-.28-.02-.57-.1-.77-.29s-.29-.52-.13-.75c.39.15.83.12,1.2-.06-.12-.26-.08-.57.08-.79-.15-.02-.3-.05-.46-.07.42-.4.69-.95.75-1.52-.47.73-1.45,1.11-2.3.89-.06-.41.1-.84.4-1.12-.13-.06-.27-.11-.41-.17.49-.11.87-.58.88-1.07-.38.31-.91.43-1.38.32.19,0,.28-.32.1-.41.5-.3.86-.82.95-1.38-.32.39-.8.64-1.31.68-.16-.24-.39-.43-.65-.54.33-.12.62-.34.84-.61.12-.16.22-.34.28-.53-.2.15-.42.3-.67.33-.26.03-.55-.13-.57-.37.2-.04.41-.07.62-.1.01-.13-.02-.27-.08-.39-.03-.07-.07-.13-.12-.18.27-.05.5-.29.54-.56-.22,0-.45.03-.67.04.52-.24.91-.72,1.03-1.27-.47.48-1.13.77-1.81.79.12-.52.23-1.04.35-1.55.39-.05.73-.34.84-.71-.38.13-.79-.16-.98-.51-.07-.12-.11-.25-.15-.38-.08-.25-.13-.51-.23-.75.13,0,.24-.14.19-.26-.43-.43-.67-.99-.62-1.57-.12.77-.23,1.55-.35,2.33-.02.12-.04.25-.01.37.02.07.05.14.07.21.02.04.03.07.03.11.06.42-.56.57-1,.54.04.39.59.63.91.39.13.3-.15.69-.48.65.13.42.17.87.12,1.31-.36.23-.92,0-1-.41-.14.41.15.84.46,1.15.31.3.66.6.75,1,0,.02.01.03.01.05-.02,0-.03.02-.04.03h-.01c-.4.24-.99.09-1.22-.3,0,.39.14.77.38,1.08-.21.36-.74.42-1.12.24s-.64-.53-.88-.86c.06.45.35.87.76,1.09-.18.14-.39.25-.62.3.35.22.79.29,1.19.19-.45.4-1.02.66-1.62.73.57.43,1.45.42,2.01-.03.04.44.08.87.13,1.31-.57,0-1.13-.07-1.67-.23.46.35.96.65,1.49.88-.44.27-1.01.25-1.49.08-.49-.17-.91-.48-1.32-.79.05.68.63,1.29,1.32,1.39-.22.16-.49.23-.76.21-.04,0-.08,0-.12-.01.16.17.12.48-.08.6.3.32.72.51,1.15.54-.03.45-.49.79-.95.84s-.92-.13-1.33-.33c.23.31.62.51,1.01.52-.03.13-.07.26-.1.39.15-.04.3.13.25.27.17,0,.33,0,.49,0-.11.31-.49.46-.82.41s-.62-.24-.89-.43c-.23.24.06.71.39.63,0,.11-.02.22-.03.34l.33.09c-.31.23-.75.15-1.14.18-.07,0-.13.01-.2.03h0c-.34.08-.65.31-.59.63.05.17.27.26.43.19-.01.13-.01.27-.02.4.5.15,1.08.07,1.52-.21.16.37-.37.68-.78.68-.42-.01-.9-.11-1.18.19-.22-.13-.43-.26-.64-.38.01.53.52,1.01,1.07.98-.1.14-.26.25-.44.29.13.18.33.3.55.32-.15.12-.31.24-.46.35.3.25.75.31,1.11.16.02.12.03.24.04.36-.09.05-.18.08-.28.11-.08.02-.16.04-.23.05-.39.04-.79-.06-1.1-.29.04.18.12.35.23.5.2.27.5.48.84.55-.13.19-.38.3-.62.26.32.27.7.47,1.11.57-.46.32-1.16.23-1.54-.18-.22.19-.03.56.22.72.1.06.2.11.3.18-.1-.04-.21-.07-.32-.07-.3,0-.63.07-.89-.09.09-.03.17-.05.26-.08-.01-.09-.03-.18-.04-.26.25.05.46-.32.28-.5-.21.16-.42.32-.67.37-.26.05-.56-.05-.65-.29.12-.01.25-.01.37-.02-.04-.11.07-.24.18-.22-.03-.1-.06-.2-.09-.29.3-.03.59-.2.76-.45-.32.17-.66.33-1.01.31-.1,0-.2-.03-.3-.06-.24-.1-.44-.3-.47-.55.33-.03.65-.2.86-.46-.16-.08-.2-.32-.08-.46-.24.05-.49.01-.69-.12.52-.1.95-.59.96-1.12-.31.26-.62.51-.98.66-.37.16-.81.19-1.16,0,.4-.2.77-.45,1.11-.74-.41.15-.84.23-1.27.25,0-.34.03-.67.04-1.01.45.32,1.13.3,1.55-.06-.47-.03-.92-.21-1.28-.5.31.07.65-.01.91-.19-.18-.03-.35-.1-.49-.21.3-.18.51-.51.54-.86-.18.26-.36.54-.64.69-.29.16-.7.13-.88-.13.18-.25.26-.56.25-.86-.17.33-.65.47-.96.27.03-.33.3-.59.53-.84s.44-.59.31-.9c-.05.31-.47.51-.75.35-.06-.33-.05-.68.04-1.01-.25.04-.49-.24-.4-.48.24.15.59,0,.67-.25h0s0-.06,0-.08c-.02,0-.05,0-.07,0-.32.01-.75-.08-.73-.39.01-.09.05-.17.07-.25.01-.02.01-.04.01-.06,0-.08-.01-.15-.03-.23-.12-.59-.25-1.18-.37-1.78.06.41-.08.82-.34,1.15-.02.03-.04.06-.07.09-.03.09.06.2.16.19-.1.3-.12.61-.25.89s-.43.52-.73.43c.1.28.38.49.68.51.11.39.22.78.33,1.18-.52.01-1.04-.18-1.42-.53.11.41.44.77.85.93h-.52c.04.2.23.37.44.41-.1.12-.15.28-.13.44.16.02.32.03.48.05,0,.19-.23.32-.42.31-.2,0-.37-.12-.53-.23.15.4.5.71.91.83-.2.1-.37.26-.48.45-.39-.01-.78-.19-1.03-.48.09.44.38.82.78,1.03-.13.08-.05.31.09.31-.36.1-.77.03-1.07-.19.03.38.34.72.73.79-.11.05-.21.1-.32.14.25.21.39.53.37.85-.65.2-1.42-.04-1.81-.59.07.44.3.85.64,1.14-.12.02-.24.05-.36.07.14.16.18.4.1.6.29.13.64.13.93,0,.13.17.08.43-.07.58-.15.16-.37.23-.58.26-.05,0-.1.02-.15,0h0c-.5.05-1.01-.08-1.41-.38.08.46.44.86.89.98-.16-.04-.26.22-.15.34s.3.13.47.13c-.07.11-.03.22.06.32h0c.1.1.25.18.38.22-.38.13-.8.14-1.18.02-.25-.07-.47-.19-.67-.35.08.09.15.21.18.33h0c.02.07.02.12.01.16,0,.07-.05.13-.12.16.52.18.59,1.15,1.13,1.05-.4.3-1.02.27-1.39-.06-.11.37.17.81.56.87-.09.12-.17.23-.26.35.1.06.2.12.29.17-.3.17-.65.25-.99.26.09.14.17.28.26.41.04.02.09.04.14.06-.03.01-.06.02-.08.03l.1.16c.4.61.82,1.14,1.28,1.6.03.04.06.07.1.11,2.28,2.28,5.15,2.82,8.74,2.98,4.25.2,8.5.32,12.75.36,3.17.03,5.62-.56,7.64-2.13h.01s0,0,0,0c.85-.65,1.62-1.48,2.34-2.5.16-.21.3-.43.45-.66.08-.13.17-.26.25-.4-.1-.03-.2-.06-.29-.12.1-.05.2-.11.3-.16-.08-.12-.17-.24-.25-.36.39-.04.69-.48.59-.85ZM74.08,116.7c.34-.02.7-.05,1-.21.19-.11.35-.28.42-.48.16.2.4.34.66.37-.04.1-.07.19-.11.29.12-.02.22.12.18.22.12.01.25.03.37.04-.1.23-.41.32-.66.26s-.46-.22-.65-.39c-.19.18,0,.55.25.51-.01.09-.03.17-.04.26.08.03.17.06.25.09-.26.16-.59.07-.89.06-.31,0-.68.16-.66.46,0,.02,0,.04.03.05-.25-.07-.46-.23-.55-.46.39-.01.74-.34.78-.71-.13-.12-.26-.24-.38-.36ZM61.09,118.33s-.02,0-.02,0c0-.03,0-.05,0-.07,0,.02.03.04.03.06ZM60.52,118.88c.04.06.08.12.11.19-.15.07-.31.11-.48.14-.3,0-.65-.22-.55-.49.27.16.61.21.92.16Z"/>
        <path class="st37" d="M83.87,119.15c.91-.05,1.81-.09,2.72-.12v47.24c-.15-.07-.3-.13-.46-.19-.11-.05-.22-.1-.34-.15-.54-.22-1.08-.44-1.62-.67-.34-.14-.68-.28-1.02-.41-.15-.07-.3-.13-.45-.19-1.67-.69-3.34-1.38-4.99-2.12-.03-.01-.05-.02-.08-.03-.89-.4-1.77-.81-2.64-1.24-.03-.01-.06-.03-.09-.05-.88-.43-1.75-.88-2.61-1.36-.3-.17-.59-.35-.89-.52-1.84-1.1-3.6-2.32-5.33-3.59-3.08-2.28-6.06-4.7-9.24-6.81-1.02-.68-2.07-1.33-3.15-1.93-.04-.02-.08-.04-.12-.06,0-.01-.01-.01-.01-.01-.75-.42-1.52-.81-2.3-1.17-1.94-.93-3.94-1.7-5.99-2.33h0c-1-.31-2.01-.59-3.04-.83h-.01c-1.54-.38-3.11-.69-4.69-.93-.07-.02-.13-.03-.21-.03h-.01c-1.41-.23-2.84-.39-4.27-.52-2.55-.22-5.12-.3-7.67-.28h-.26c-.26,0-.51.01-.77.01-2.07.04-4.72-.15-6.39-1.41-.78-.56-1.35-1.37-1.55-2.49,1.45-.08,2.78-.62,4.06-1.37.94-.55,1.85-1.21,2.76-1.87.22-.16.44-.32.66-.48.08-.06.16-.12.23-.17.61-.44,1.22-.86,1.84-1.23.24-.14.48-.27.72-.4.47-.25.95-.48,1.43-.71.27-.13.54-.25.82-.37.48-.22.96-.43,1.45-.63,1.49-.62,3.01-1.18,4.54-1.68.45-.16.89-.3,1.34-.45h.01c.96-.3,1.92-.59,2.88-.87.01,0,.03,0,.04-.02.03,0,.05,0,.08-.02.21-.06.43-.12.64-.18h.01c.85-.25,1.69-.49,2.54-.73.13-.03.25-.07.37-.1.35-.1.7-.19,1.05-.28.02-.01.03-.01.05-.01,2.67-.72,5.35-1.37,8.04-1.96.8-.18,1.59-.35,2.39-.51,1.01-.21,2.02-.41,3.04-.6,2.68-.52,5.37-.97,8.07-1.36h.01c6.1-.9,12.25-1.5,18.42-1.81Z"/>
        <path class="st40" d="M86.59,131.78v35.3l-.4-.25-.44-.27-1.56-.97-1.04-.65-.45-.28-7.79-4.85-9.84-6.12-1.3-.81-6.94-3.94-2.84-1.61s-.01-.02-.02-.01l-2.72-1.55-4.88-2.77-5.85-3.32-4.36-2.48h-.01s-.74-.42-.74-.42l-8.74-4.97-.05-.03h59.97Z"/>
        <path class="st43" d="M86.59,134.26v.72h-.07c-5.45-.08-10.89-.19-16.34-.36,5.47-.17,10.94-.28,16.41-.36Z"/>
        <path class="st43" d="M81.48,137.38c1.7-.05,3.41-.1,5.11-.14v.28c-1.7-.04-3.41-.09-5.11-.14Z"/>
        <path class="st36" d="M23.57,131.98c-.01.32-.09.61-.2.88-.03.06-.05.11-.08.17-.1.19-.22.37-.35.54-.68.83-1.8,1.35-2.94,1.5-.33.05-.66.06-.98.04-.77-.05-1.52-.27-2.29-.42-.23-.04-.47-.08-.71-.1-1.73-.18-3.43.41-5.07.99-.9.31-2.18.92-3.6,1.54-2.52,1.11-5.45,2.28-7.25,1.97v-8.95c.42-.13.86-.2,1.31-.21-.16.01.08-.92.25-1.47.06-.19.11-.34.13-.39.02-.04.03-.09.06-.13h0c.11-.29.25-.55.43-.78.23-.31.53-.57.9-.76.83-.42,1.89-.37,2.69.13.01-.6.32-1.15.66-1.64.36-.51.8-.99,1.36-1.25,1-.46,2.25-.14,3.06.59.13.12.25.25.35.38.6.71.91,1.63,1.03,2.53.32-.52.78-.94,1.31-1.23,0,0,.01,0,.01,0,.38-.2.79-.33,1.21-.29.62.06,1.15.5,1.47,1.04.25.4.39.84.51,1.29.04.15.07.3.11.45.13-.18.28-.33.45-.46.65-.52,1.56-.71,2.39-.57.5.09.97.28,1.4.55.47.29.89.67,1.25,1.08.14.16.27.32.38.5.05.07.1.15.14.23.15.22.27.46.36.71.08.17.13.34.17.52.03.11.05.22.07.33.04.24.04.48.01.7Z"/>
        <path class="st45" d="M11.3,124.61c.01.18-.01.36-.05.53-.31,1.24-1.9,2.04-2.96,1.36.27.5.3,1.1.14,1.64-.14.47-.42.9-.83,1.18-.23.16-.49.27-.77.32h-.01c-.75.15-1.59-.09-2.09-.67.19.55.39,1.14.32,1.73-.06.56-.45,1.13-1.01,1.24-.02,0-.04,0-.06,0-.61.06-1.13-.44-1.53-.91.01.66-.42,1.28-1.01,1.59h-.01s-.06.04-.09.05c-.38.18-.8.24-1.24.21v-2.75c.42-.13.86-.2,1.31-.21-.16.01.08-.92.25-1.47.06-.19.11-.34.13-.39.02-.04.03-.09.06-.13h0c.11-.29.25-.55.43-.78.23-.31.53-.57.9-.76.83-.42,1.89-.37,2.69.13.01-.6.32-1.15.66-1.64.36-.51.8-.99,1.36-1.25,1-.46,2.25-.14,3.06.59.13.12.25.25.35.38Z"/>
        <path class="st1" d="M50.32,129.95c-.07-.13-.14-.25-.22-.37-.4-.59-.98-1.09-1.66-1.28-.69-.19-1.49-.04-1.98.49-.06-.42-.11-.84-.29-1.22-.18-.38-.5-.71-.91-.8-.28-.06-.57,0-.83.11-.38.16-.73.42-.98.74-.02-.74-.22-1.5-.72-2.06-.49-.55-1.31-.85-2.01-.62-.4.13-.73.42-1.01.74-.27.3-.51.66-.56,1.06-.5-.39-1.21-.5-1.8-.28-.49.18-.83.56-1.06,1.02-.06.12-.53,1.21-.39,1.22-1.09-.08-2.22.34-2.87,1.2-.22.29-.39.62-.49.96h.05c-.49,1.39.12,3.24,1.57,3.83,1.75.72,5.94-1.09,7.75-1.52,1.14-.27,2.33-.54,3.47-.3.67.14,1.3.45,1.98.57,1.48.25,3.39-.51,3.32-2.24-.02-.44-.16-.87-.37-1.26Z"/>
        <path class="st42" d="M86.59,141.22v42.57H.1v-2.4l-.1-.34s.06-.08.1-.11v-45.52c1.76-.41,3.55-.79,5.37-1.14,4.04-.77,8.21-1.38,12.48-1.83.58-.05,1.17-.11,1.76-.16.25-.03.51-.05.76-.07.14-.02.27-.03.4-.03.05-.01.09-.02.13-.01h0c.85-.08,1.7-.14,2.56-.2.78-.05,1.57-.1,2.36-.14.25-.01.49-.02.74-.03.19-.02.38-.02.57-.03,1.33-.06,2.68-.1,4.03-.12.3-.01.6-.01.89-.01.09-.01.18-.01.27-.01.57,0,1.14,0,1.71,0,2.32,0,4.63.05,6.9.15,2.04.09,4.06.21,6.06.38h.01c1.08.08,2.14.18,3.21.29h.01c.86.09,1.7.19,2.54.29,7.73.93,15.09,2.42,21.94,4.4h0c4.12,1.19,8.05,2.56,11.77,4.08Z"/>
        <path class="st31" d="M58.28,169.92c-2.58,5.23-6.45,9.66-7.86,12.64-.2.41-.33.82-.4,1.23H.1v-2.4l-.1-.34s.06-.08.1-.11v-12.53c.54-.24,1.09-.49,1.64-.73.09-.03.18-.07.27-.11,1.37-.59,2.76-1.17,4.14-1.73.18-.07.37-.14.55-.22,1.14-.45,2.29-.9,3.42-1.34.07-.03.14-.05.21-.08,6.32-2.44,12.4-4.63,17.24-6.96,1.5-.72,2.89-1.46,4.13-2.22,2.85-1.75,4.29-3.62,4.73-5.51h0c.2-.87.19-1.73.02-2.59-.4-2-1.71-3.97-3.43-5.79-.74-.79-1.57-1.56-2.43-2.28-.04-.04-.09-.08-.14-.12-2.43-2.04-5.15-3.78-7.25-5.01-.09-.05-.18-.1-.26-.15-1.03-.59-1.89-1.05-2.47-1.35-.17-.09-.31-.17-.43-.22-.16-.09-.27-.14-.33-.17-.01,0-.02,0-.02,0h.06c.08.03.17.06.24.08.04.01.09.02.13.03.02.01.03.01.04.02.28.07.56.15.84.23h0c.8.23,1.59.45,2.36.68.24.07.48.14.72.21,4.14,1.23,7.85,2.49,11.16,3.77.31.11.6.23.9.35h.01c2.37.94,4.54,1.89,6.5,2.85,0,0,0,.01,0,.01.05.02.1.05.15.07,1.24.61,2.41,1.22,3.5,1.83.64.37,1.26.73,1.85,1.1h.01c2.09,1.29,3.87,2.59,5.37,3.89,0,0,.01,0,.01.01.14.12.28.24.41.37t.02.01c4.31,3.86,6.22,7.75,6.66,11.5.45,3.91-.68,7.67-2.37,11.09Z"/>
        <path class="st4" d="M38.84,124.88s-.02-.01-.02-.01h.06s-.02,0-.04.01Z"/>
        <g class="st47">
          <path class="st26" d="M20.12,131.93s.03.01.04.02c-.02,0-.03,0-.05,0-.04-.02-.08-.03-.12-.04.04.01.09.02.13.03Z"/>
        </g>
        <g class="st49">
          <path class="st12" d="M58.28,169.92c-2.58,5.23-6.45,9.66-7.86,12.64-.2.41-.33.82-.4,1.23H16.97c.84-1.95,2.07-3.8,3.72-5.48.01,0,.02-.01.02-.01.04-.05.1-.11.15-.16.46-.45.92-.88,1.39-1.29.07-.07.14-.13.21-.19.38-.34.77-.66,1.16-.98l.42-.33c.37-.29.75-.58,1.13-.85.08-.06.16-.12.24-.17.43-.31.86-.61,1.29-.89,5.17-3.43,10.41-5.43,14.61-8.61,2.97-2.25,5.42-5.09,6.93-9.43.05-.13.1-.25.14-.38,1.34-4.04-.84-7.79-4.5-11.03-.53-.48-1.09-.94-1.67-1.38h-.01c-1.6-1.24-3.39-2.38-5.24-3.43h-.01c-1.07-.61-2.16-1.19-3.24-1.73-3.63-1.81-7.21-3.24-9.85-4.21-.2-.08-.39-.15-.57-.21-.98-.36-1.81-.64-2.42-.84-.29-.1-.53-.18-.71-.24.28.07.56.15.84.23h0c.8.23,1.59.45,2.36.68.24.07.48.14.72.21,4.14,1.23,7.85,2.49,11.16,3.77.31.11.6.23.9.35h.01c2.37.94,4.54,1.89,6.5,2.85,0,0,0,.01,0,.01.05.02.1.05.15.07,1.24.61,2.41,1.22,3.5,1.83.64.37,1.26.73,1.85,1.1h.01c2.09,1.29,3.87,2.59,5.37,3.89,0,0,.01,0,.01.01.14.12.28.24.41.37t.02.01c4.31,3.86,6.22,7.75,6.66,11.5.45,3.91-.68,7.67-2.37,11.09Z"/>
        </g>
        <path class="st56" d="M41.61,152.45c-.03.25-.06.49-.09.74-.03.52-.25,1-.37,1.51-.16.49-.25,1.01-.51,1.47-.76,1.95-2.1,3.61-3.54,5.1-.37.35-.76.7-1.15,1.02-2.79,2.33-6.03,4.02-9.26,5.48-.14.06-.27.12-.41.18-.14.07-.28.13-.42.19l-.87.39c-.2.08-.39.17-.59.25-.45.19-.89.38-1.34.58-.11.04-.22.09-.33.14-.37.15-.74.31-1.11.47-.32.13-.63.26-.94.4-.69.29-1.37.58-2.05.89-.16.07-.32.14-.47.21-.44.2-.87.4-1.3.61-.2.09-.4.19-.6.29-.19.09-.37.19-.56.28-1.17.61-2.3,1.28-3.41,2-.51.32-1.02.66-1.52,1.01-.02.02-.05.04-.08.05-.42.3-.84.61-1.25.92-.07.06-.15.12-.22.18-.45.34-.9.7-1.33,1.07h-.01s-.03.02-.05.04c-2.14,1.78-4.1,3.75-5.85,5.87H.1v-2.4l-.1-.34s.06-.08.1-.11c.09-.1.18-.2.28-.29.36-.38.73-.75,1.11-1.11.09-.1.19-.19.28-.27.33-.32.66-.63,1-.92.15-.15.3-.28.45-.4.48-.44.97-.85,1.47-1.25.08-.07.16-.13.24-.2.28-.23.57-.45.87-.67.12-.1.25-.19.37-.28.45-.34.9-.67,1.37-.98.16-.12.32-.23.48-.34.3-.2.6-.4.91-.6.23-.15.46-.29.7-.44.31-.19.63-.39.96-.58l.42-.24c.35-.2.7-.4,1.06-.58.84-.47,1.7-.9,2.57-1.3.54-.24,1.08-.47,1.62-.7.14-.06.28-.11.42-.17.54-.22,1.09-.44,1.63-.64.02,0,.05-.02.08-.03.76-.3,1.52-.58,2.28-.86.25-.09.5-.18.75-.28.46-.16.93-.33,1.39-.5.02-.01.04-.01.06-.02.55-.2,1.1-.41,1.65-.62.14-.05.27-.1.4-.15.36-.13.71-.27,1.06-.41.01,0,.02-.01.03-.01.04-.02.08-.03.12-.05,3.02-1.19,5.98-2.56,8.56-4.43.55-.38,1.08-.79,1.59-1.23.37-.32.69-.69,1.04-1.03l.51-.52c.16-.19.3-.39.44-.58.29-.39.6-.77.86-1.18l.69-1.28c.26-.42.37-.9.54-1.36.13-.46.38-.91.42-1.4.05-.31.11-.63.17-.94.11-.66.22-1.31.2-1.98,0-1.58-.34-3.19-1.01-4.66-.64-1.46-1.6-2.78-2.84-3.81h-.01c-.59-.49-1.24-.9-1.95-1.23.79.31,1.51.74,2.17,1.26,1.24.95,2.25,2.22,2.96,3.65.76,1.48,1.2,3.13,1.28,4.78.06.79-.04,1.56-.14,2.34Z"/>
        <g class="st52">
          <path class="st25" d="M25.05,151.41c-.06.14-.14.27-.22.4-.5.81-1.16,1.45-1.92,1.97-1.76,1.24-4.07,1.83-6.21,2.38-5.66,1.45-11.21,3.29-16.6,5.52v-21.22c2.92-.58,5.88-.99,8.84-1.14.86-.05,1.72-.08,2.58-.08,3.74-.01,7.68.47,10.68,2.71l.03.03c2.85,2.14,4.43,6.3,2.82,9.43Z"/>
        </g>
        <g class="st55">
          <path class="st16" d="M13.47,145.44c.01,2.39-4.43,4.18-6.05,4.68-2.44.75-4.88,1.52-7.32,2.29v-7.8c1.41-.26,2.82-.49,4.24-.69,1.55-.22,6.31-1.32,8.28-.03h.01c.29.2.52.45.66.76,0,0,.01,0,.01.01.05.1.09.22.12.34.04.15.05.29.05.44Z"/>
        </g>
        <g class="st66">
          <path class="st24" d="M86.59,147.96v34.62c-.59.42-1.2.83-1.83,1.21h-20.85c-.44-.53-.82-1.06-1.13-1.59-.15-.25-.29-.51-.41-.77v-.02c-.57-1.13-.86-2.28-.96-3.42v-.03c-.2-2.42.48-4.87,1.48-7.35.2-.51.42-1.02.65-1.53t0-.02c.15-.37.32-.72.5-1.1.35-.76.71-1.52,1.07-2.29,1.06-2.27,1.81-4.08,1.82-6.04,0-1.18-.25-2.4-.84-3.82l-.03-.06s-.03-.07-.04-.11c-.28-.67-.61-1.32-.96-1.95-1.09-1.97-2.47-3.77-4.07-5.35-.45-.45-.91-.88-1.4-1.28-.2-.19-.41-.36-.62-.53-2.31-1.85-4.96-3.33-6.85-5.61-.29-.35-.57-.73-.64-1.18-.2-1.34,1.44-2.15,2.78-2.37,8.98-1.53,17.22,3.56,25.12,7.05,1.88.83,3.82,1.71,5.69,2.7.51.27,1.01.55,1.51.84Z"/>
        </g>
        <g class="st71">
          <path class="st15" d="M31.28,37.27c0,.11-.02.22-.03.34H.1v-4.64c.26-.04.53-.06.8-.06.55,0,1.08.1,1.58.26.04-2.89,2.39-5.23,5.3-5.23,1.81,0,3.4.91,4.36,2.29.92-1.57,2.61-2.63,4.57-2.63,2.27,0,4.21,1.42,4.96,3.43.1.26.18.54.24.83.92-.53,1.98-.86,3.11-.86,3.46,0,6.26,2.81,6.26,6.27Z"/>
        </g>
        <g class="st67">
          <path class="st14" d="M81.12,26.48c0-.05.02-.1.02-.16,0-1.61-1.31-2.92-2.92-2.92-.53,0-1.02.15-1.45.4-.23-1.13-1.22-1.99-2.42-1.99-.91,0-1.7.5-2.13,1.23-.45-.64-1.19-1.07-2.03-1.07-1.35,0-2.45,1.09-2.47,2.43-.23-.07-.48-.12-.73-.12-1.27,0-2.3.96-2.44,2.19h16.58Z"/>
        </g>
        <g class="st69">
          <path class="st13" d="M70.54,59.78c0-.11.03-.22.03-.34,0-3.42-2.34-6.19-5.23-6.19-.95,0-1.83.32-2.6.85-.41-2.41-2.2-4.22-4.35-4.22-1.63,0-3.04,1.06-3.81,2.61-.8-1.37-2.13-2.27-3.65-2.27-2.43,0-4.39,2.31-4.43,5.17-.42-.15-.85-.26-1.32-.26-2.28,0-4.13,2.04-4.39,4.65h29.74Z"/>
        </g>
        <path class="st11" d="M12.43,176.49l-.88,7.29h-.02s-11.43.01-11.43.01v-2.4l.23.8.05-1.54.22-7.35.89,6.24.31,2.15s-.01-.97-.03-2.42c-.02-3.22-.06-8.82-.03-11.59.02-.83.03-1.41.06-1.58.03-.22.11.39.21,1.47.21,2.48.54,7.45.76,10.78.12,1.95.21,3.34.21,3.34l.24-3.74.6-9.58.87,8.33.16,1.57.08-1.77.22-4.68.65,4.01.39,2.44s-.01-1.09-.02-2.72c0-2.63-.02-6.66-.02-9.71,0-2.02.01-3.61.04-4.07.03-.55.25,1.26.51,3.85.27,2.71.6,6.29.84,8.95.14,1.55.25,2.78.29,3.35.03.23.04.35.04.35v-.39h.02l.13-3.65.29-7.54.62,6.94.29,3.18.13,1.46.09-1.64.19-3.44.49-8.91.14-2.51.07,2.43.26,8.41.1,3.1.02.78.06-.83.24-3.29.54-7.28.52,6.7.22,2.86.14,1.84Z"/>
        <path class="st11" d="M26.95,176.63l-.86,7.16h-12.87v-7.16l1.63,5.7.27-8.89,1.2,8.39s-.05-5.09-.06-9.46v-2.58c0-1.85.02-3.26.06-3.55.05-.33.19,1.18.36,3.38.06.75.12,1.59.18,2.46.32,4.43.65,9.75.65,9.75l.65-10.36.15-2.49.03-.47.05.44.24,2.31.74,7.16.3-6.46,1.02,6.35.02.11v-.12c0-.7-.03-4.28-.03-7.93-.01-.76-.01-1.53-.01-2.28,0-2.96.01-5.57.04-6.18.04-.68.36,2.29.71,5.9.07.7.14,1.43.2,2.16.25,2.62.49,5.26.63,6.88.09.97.14,1.57.14,1.57l.07-1.76.27-7.16.08-2.19.02-.48.04.46.19,2.07.56,6.32.25,2.74.17-3.07.36-6.57.12-2.11.26-4.76.14,4.61.07,2.01.18,5.97.07,2.13.17-2.3.45-6.19.15-2.04.06-.87.06.82.15,1.9.42,5.49.25,3.19Z"/>
        <polygon class="st11" points="59.09 177.96 60.37 183.79 58.73 183.79 59.09 177.96"/>
        <polygon class="st11" points="62.37 181.43 62.56 183.79 60.87 183.79 61.41 177.99 61.41 177.96 61.78 174.04 62.37 181.41 62.37 181.43"/>
        <path class="st11" d="M64.15,183.79h-1.45c.02-.43.05-.97.08-1.59.16-2.93.43-7.73.66-11.53.04-.55.07-1.09.1-1.59t0-.02c.14-2.16.26-3.76.34-4.12.07-.35.13.95.16,3.02.02.83.03,1.77.04,2.79.05,4.57.06,10.56.06,13.04Z"/>
        <path class="st11" d="M76.62,179.06l-.87,4.73h-11.45l1.61-12.87.37-2.91.12,2.95.41,9.77.89-8.21.82,8.32s.27-4.73.57-9.73c.29-5,.62-10.26.75-11.31v-.02c.02-.18.05-.16.07.03.14.93.33,6.27.48,11.35.15,5.03.27,9.81.27,9.81l.99-9.79.5-4.95.13,4.96.26,9.9,1.18-9.92,1.18-9.95.13-1.12-.04,1.17-.31,9.89-.24,7.77,1.06-7.8.91-6.69.1,6.65.08,6.19v.05s.03,1.73.03,1.73Z"/>
        <path class="st11" d="M86.59,172.84v10.95h-13.39l.18-8.19,1.92,7.33.6-11.36.69,5.71v.05s.61,5.01.61,5.01c0,0,.07-5.9.17-11.3.07-3.96.16-7.66.26-8.53,0-.05,0-.09,0-.12.02-.12.04-.06.07.15.12.89.32,4.52.5,8.44.26,5.42.5,11.39.5,11.39l.98-11.51.47-5.5.44,5.42.6,7.27.5-7.4.06-.84.11.82,1.04,7.46s.06-3.47.13-7.6c.03-1.8.07-3.73.11-5.55v-.09c.05-2.27.1-4.37.14-5.85,0-.27.02-.52.03-.74.02-.61.04-1.04.06-1.27.03-.4.12.18.23,1.36.02.18.04.38.06.59.14,1.56.32,3.86.5,6.32,0,.11.01.22.02.33.11,1.55.23,3.17.33,4.7.3,4.24.53,7.85.53,7.85l.49-8.02.21-3.56.04-.63.16-2.59.18,2.74.06.75.21,3.14.19,2.87Z"/>
        <path class="st44" d="M14.62,42.82c-.65.03-.68.06-.7.89-.03-.82-.05-.85-.7-.89.65-.03.68-.06.7-.89.03.82.05.85.7.89Z"/>
        <path class="st44" d="M82.05,39.11c-.65.03-.68.06-.7.89-.03-.82-.05-.85-.7-.89.65-.03.68-.06.7-.89.03.82.05.85.7.89Z"/>
        <path class="st44" d="M34.81,61.9c-.65.03-.68.06-.7.89-.03-.82-.05-.85-.7-.89.65-.03.68-.06.7-.89.03.82.05.85.7.89Z"/>
        <path class="st44" d="M54.92,24.66c-1.27.07-1.31.12-1.36,1.72-.05-1.6-.09-1.65-1.36-1.72,1.27-.07,1.31-.12,1.36-1.72.05,1.6.09,1.65,1.36,1.72Z"/>
        <path class="st44" d="M18.23,68.43c-.63.03-.65.06-.68.86-.03-.8-.05-.83-.68-.86.63-.03.65-.06.68-.86.03.8.05.83.68.86Z"/>
      </g>
    </g>
  </g>
</svg>